# COMMON_MC_OBJ_START
# version: 1
# exporter: jmc2obj
# world_name: chicken_jockey
# world_path: D:\GitHub\mcresourcepile\map-fetcher\tmp\CasualModernPGM\ModernMaps\maps\arcade\misc\chicken_jockey
# export_bounds_min: (-512, 0, -512)
# export_bounds_max: (495, 255, 495)
# export_offset: (0.000000, 0.000000, 0.000000)
# block_scale: 1.000000
# block_origin_offset: (-0.5, -0.5, -0.5)
# z_up: false
# texture_type: INDIVIDUAL_TILES
# has_split_blocks: false
# COMMON_MC_OBJ_END
mtllib minecraft.mtl

vt 0.000000000 0.000000000
vt 1.000000000 0.000000000
vt 1.000000000 1.000000000
vt 0.000000000 1.000000000
vt -1.000000000 0.000000000
vt -1.000000000 1.000000000
vt 0.250000000 1.000000000
vt 0.375000000 1.000000000
vt 0.375000000 0.875000000
vt 0.250000000 0.875000000
vt 0.375000000 0.750000000
vt 0.500000000 0.750000000
vt 0.500000000 0.875000000
vt 0.000000000 0.750000000
vt 0.125000000 0.750000000
vt 0.125000000 0.875000000
vt 0.000000000 0.875000000
vt 0.250000000 0.750000000
vt 0.125000000 1.000000000
vt 0.750000000 1.000000000
vt 0.875000000 1.000000000
vt 0.875000000 0.875000000
vt 0.750000000 0.875000000
vt 0.875000000 0.750000000
vt 1.000000000 0.750000000
vt 1.000000000 0.875000000
vt 0.625000000 0.750000000
vt 0.625000000 0.875000000
vt 0.750000000 0.750000000
vt 0.625000000 1.000000000
vt 1.000000000 3.000000000
vt 0.000000000 3.000000000
vt 2.000000000 0.000000000
vt 2.000000000 1.000000000
vt 0.000000000 2.000000000
vt 1.000000000 2.000000000
vt -1.000000000 2.000000000
vt -2.000000000 0.000000000
vt -2.000000000 1.000000000
vt 3.000000000 0.000000000
vt 3.000000000 1.000000000
vt 0.000000000 -1.000000000
vt 1.000000000 -1.000000000
vt 4.000000000 0.000000000
vt 4.000000000 1.000000000
vt 2.000000000 2.000000000
vt 1.000000000 4.000000000
vt 0.000000000 4.000000000
vt 0.000000000 -2.000000000
vt 1.000000000 -2.000000000
vt -3.000000000 0.000000000
vt -3.000000000 1.000000000
v -0.500 70.500 -17.500
v -0.500 70.500 -16.500
v -0.500 71.500 -16.500
v -0.500 71.500 -17.500
v -0.500 72.500 -17.500
v -0.500 72.500 -16.500
v -0.500 73.500 -16.500
v -0.500 73.500 -17.500
v -0.500 74.500 -16.500
v -0.500 74.500 -17.500
v -0.500 75.500 -16.500
v -0.500 75.500 -17.500
v -0.500 76.500 -16.500
v -0.500 76.500 -17.500
v -0.500 77.500 -16.500
v -0.500 77.500 -17.500
v 1.500 69.500 -16.500
v 1.500 69.500 -17.500
v 1.500 70.500 -17.500
v 1.500 70.500 -16.500
v 1.500 75.500 -16.500
v 1.500 75.500 -17.500
v 1.500 76.500 -17.500
v 1.500 76.500 -16.500
v -0.500 69.500 -17.500
v -0.500 69.500 -16.500
v -0.500 70.500 -16.500
v -0.500 70.500 -17.500
v -0.500 71.500 -17.500
v -0.500 71.500 -16.500
v -0.500 72.500 -16.500
v -0.500 72.500 -17.500
v 0.500 77.500 -16.500
v 0.500 77.500 -17.500
v 0.500 77.500 -17.500
v 1.500 77.500 -16.500
v 1.500 77.500 -17.500
v 1.500 70.500 -17.500
v 1.500 71.500 -17.500
v 1.500 71.500 -16.500
v 1.500 72.500 -17.500
v 1.500 72.500 -16.500
v 1.500 73.500 -17.500
v 1.500 73.500 -16.500
v 1.500 74.500 -17.500
v 1.500 74.500 -16.500
v 1.500 75.500 -17.500
v 1.500 76.500 -17.500
v 0.500 69.500 -17.500
v 0.500 70.500 -17.500
v 0.500 71.500 -17.500
v 0.500 72.500 -17.500
v 0.500 73.500 -17.500
v 0.500 74.500 -17.500
v 0.500 75.500 -17.500
v 0.500 69.500 -17.500
v 0.500 70.500 -17.500
v 0.500 74.500 -17.500
v 0.500 75.500 -17.500
v 0.500 69.500 -16.500
v 4.354 66.500 3.000
v 4.000 66.500 3.354
v 3.646 66.500 3.000
v 4.000 66.500 2.646
v 4.354 67.000 3.000
v 4.000 67.000 3.354
v 4.000 67.000 2.646
v 3.646 67.000 3.000
v 4.377 66.484 3.000
v 4.000 66.484 3.377
v 3.623 66.484 3.000
v 4.000 66.484 2.623
v 4.377 67.016 3.000
v 4.000 67.016 3.377
v 4.000 67.016 2.623
v 3.623 67.016 3.000
v 4.477 66.500 -0.477
v 3.523 66.500 0.477
v 3.523 67.500 0.477
v 4.477 67.500 -0.477
v 3.523 66.500 -0.477
v 4.477 66.500 0.477
v 4.477 67.500 0.477
v 3.523 67.500 -0.477
v 1.477 66.500 1.523
v 0.523 66.500 2.477
v 0.523 67.500 2.477
v 1.477 67.500 1.523
v 0.523 66.500 1.523
v 1.477 66.500 2.477
v 1.477 67.500 2.477
v 0.523 67.500 1.523
v 2.477 66.500 1.523
v 1.523 66.500 2.477
v 1.523 67.500 2.477
v 2.477 67.500 1.523
v 1.523 66.500 1.523
v 2.477 66.500 2.477
v 2.477 67.500 2.477
v 1.523 67.500 1.523
v 6.477 66.500 1.523
v 5.523 66.500 2.477
v 5.523 67.500 2.477
v 6.477 67.500 1.523
v 5.523 66.500 1.523
v 6.477 66.500 2.477
v 6.477 67.500 2.477
v 5.523 67.500 1.523
v 0.477 66.500 2.523
v -0.477 66.500 3.477
v -0.477 67.500 3.477
v 0.477 67.500 2.523
v -0.477 66.500 2.523
v 0.477 66.500 3.477
v 0.477 67.500 3.477
v -0.477 67.500 2.523
v 1.477 66.500 2.523
v 0.523 66.500 3.477
v 0.523 67.500 3.477
v 1.477 67.500 2.523
v 0.523 66.500 2.523
v 1.477 66.500 3.477
v 1.477 67.500 3.477
v 0.523 67.500 2.523
v 3.477 66.500 3.523
v 2.523 66.500 4.477
v 2.523 67.500 4.477
v 3.477 67.500 3.523
v 2.523 66.500 3.523
v 3.477 66.500 4.477
v 3.477 67.500 4.477
v 2.523 67.500 3.523
v 4.477 66.500 3.523
v 3.523 66.500 4.477
v 3.523 67.500 4.477
v 4.477 67.500 3.523
v 3.523 66.500 3.523
v 4.477 66.500 4.477
v 4.477 67.500 4.477
v 3.523 67.500 3.523
v 3.477 66.500 4.523
v 2.523 66.500 5.477
v 2.523 67.500 5.477
v 3.477 67.500 4.523
v 2.523 66.500 4.523
v 3.477 66.500 5.477
v 3.477 67.500 5.477
v 2.523 67.500 4.523
v 5.500 57.500 2.500
v 6.500 57.500 2.500
v 6.500 58.500 2.500
v 5.500 58.500 2.500
v 6.500 59.500 2.500
v 5.500 59.500 2.500
v 6.500 60.500 2.500
v 5.500 60.500 2.500
v 6.500 61.500 2.500
v 5.500 61.500 2.500
v 6.500 62.500 2.500
v 5.500 62.500 2.500
v 6.500 65.500 2.500
v 5.500 65.500 2.500
v 6.500 66.500 2.500
v 5.500 66.500 2.500
v 6.500 57.500 1.500
v 6.500 57.500 -0.500
v 6.500 58.500 -0.500
v 6.500 58.500 1.500
v 6.500 58.500 0.500
v 6.500 60.500 -0.500
v 6.500 60.500 0.500
v 6.500 61.500 -0.500
v 6.500 61.500 0.500
v 6.500 61.500 0.500
v 6.500 62.500 -0.500
v 6.500 62.500 0.500
v 6.500 63.500 -0.500
v 6.500 63.500 0.500
v 6.500 63.500 1.500
v 6.500 65.500 -0.500
v 6.500 65.500 1.500
v 6.500 66.500 -0.500
v 6.500 58.500 0.500
v 6.500 59.500 0.500
v 6.500 60.500 1.500
v 6.500 61.500 1.500
v 6.500 63.500 0.500
v 6.500 62.500 1.500
v 5.500 57.500 3.500
v 5.500 58.500 3.500
v 5.500 59.500 3.500
v 5.500 60.500 3.500
v 5.500 61.500 3.500
v 5.500 62.500 3.500
v 5.500 65.500 3.500
v 5.500 66.500 3.500
v 4.500 57.500 4.500
v 4.500 57.500 3.500
v 4.500 58.500 3.500
v 4.500 58.500 4.500
v 4.500 59.500 3.500
v 4.500 59.500 4.500
v 4.500 60.500 3.500
v 4.500 60.500 4.500
v 4.500 61.500 3.500
v 4.500 61.500 4.500
v 4.500 62.500 3.500
v 4.500 62.500 4.500
v 4.500 63.500 3.500
v 4.500 63.500 4.500
v 4.500 65.500 3.500
v 4.500 65.500 4.500
v 4.500 66.500 3.500
v 4.500 66.500 4.500
v 0.500 66.500 -0.500
v -0.500 66.500 -0.500
v -0.500 66.500 0.500
v 0.500 66.500 0.500
v 0.500 66.500 -0.500
v 0.500 66.500 0.500
v 2.500 66.500 0.500
v 2.500 66.500 -0.500
v 3.500 66.500 0.500
v 3.500 66.500 -0.500
v 2.500 66.500 -0.500
v 2.500 66.500 0.500
v 3.500 66.500 0.500
v 6.500 66.500 0.500
v 3.500 66.500 -0.500
v -0.500 66.500 2.500
v 0.500 66.500 2.500
v 0.500 66.500 0.500
v -0.500 66.500 0.500
v 0.500 66.500 0.500
v 0.500 66.500 1.500
v 1.500 66.500 1.500
v 1.500 66.500 0.500
v 2.500 66.500 1.500
v 2.500 66.500 1.500
v 3.500 66.500 1.500
v 3.500 66.500 0.500
v 4.500 66.500 1.500
v 4.500 66.500 0.500
v 5.500 66.500 0.500
v 4.500 66.500 0.500
v 4.500 66.500 1.500
v 5.500 66.500 1.500
v 5.500 66.500 0.500
v 6.500 66.500 1.500
v 0.500 66.500 1.500
v 0.500 66.500 2.500
v 2.500 66.500 2.500
v 3.500 66.500 2.500
v 4.500 66.500 2.500
v 4.500 66.500 1.500
v 6.500 66.500 1.500
v 0.500 66.500 3.500
v 0.500 66.500 2.500
v -0.500 66.500 2.500
v -0.500 66.500 3.500
v 1.500 66.500 3.500
v 1.500 66.500 2.500
v 2.500 66.500 3.500
v 1.500 66.500 2.500
v 0.500 66.500 3.500
v -0.500 66.500 3.500
v -0.500 66.500 4.500
v 0.500 66.500 4.500
v 0.500 66.500 4.500
v 2.500 66.500 4.500
v 3.500 66.500 4.500
v 3.500 66.500 3.500
v -0.500 66.500 4.500
v -0.500 66.500 5.500
v 1.500 66.500 5.500
v 1.500 66.500 4.500
v 3.500 66.500 5.500
v -0.500 57.500 5.500
v 0.500 57.500 5.500
v 0.500 58.500 5.500
v -0.500 58.500 5.500
v -0.500 58.500 5.500
v 0.500 58.500 5.500
v 0.500 60.500 5.500
v -0.500 60.500 5.500
v -0.500 60.500 5.500
v 1.500 60.500 5.500
v 1.500 61.500 5.500
v -0.500 61.500 5.500
v 0.500 61.500 5.500
v 0.500 62.500 5.500
v -0.500 62.500 5.500
v 0.500 63.500 5.500
v -0.500 63.500 5.500
v -0.500 64.500 5.500
v 0.500 64.500 5.500
v -0.500 65.500 5.500
v 3.500 65.500 5.500
v 3.500 57.500 5.500
v 3.500 58.500 5.500
v 1.500 58.500 5.500
v 1.500 59.500 5.500
v 0.500 59.500 5.500
v 0.500 60.500 5.500
v 1.500 62.500 5.500
v 0.500 62.500 5.500
v 1.500 63.500 5.500
v 0.500 63.500 5.500
v 0.500 64.500 5.500
v 1.500 64.500 5.500
v 2.500 58.500 5.500
v 2.500 59.500 5.500
v 2.500 60.500 5.500
v 2.500 61.500 5.500
v 2.500 62.500 5.500
v 2.500 63.500 5.500
v 3.500 63.500 5.500
v 1.500 65.500 5.500
v 3.500 59.500 5.500
v 3.500 61.500 5.500
v 3.500 62.500 5.500
v 3.500 57.500 4.500
v 3.500 58.500 4.500
v 3.500 59.500 4.500
v 3.500 61.500 4.500
v 3.500 62.500 4.500
v 3.500 65.500 4.500
v 3.500 60.500 4.500
v 3.500 63.500 4.500
v 0.500 57.500 0.500
v -0.500 57.500 0.500
v -0.500 57.500 -0.500
v 0.500 57.500 -0.500
v 0.500 57.500 -0.500
v 1.500 57.500 -0.500
v 1.500 57.500 0.500
v 0.500 57.500 0.500
v 2.500 57.500 0.500
v 1.500 57.500 0.500
v 1.500 57.500 -0.500
v 2.500 57.500 -0.500
v 2.500 57.500 -0.500
v 3.500 57.500 -0.500
v 3.500 57.500 0.500
v 2.500 57.500 0.500
v 4.500 57.500 1.500
v 3.500 57.500 1.500
v 4.500 57.500 -0.500
v 4.500 57.500 -0.500
v 5.500 57.500 -0.500
v 6.500 57.500 0.500
v 5.500 57.500 0.500
v 1.500 57.500 1.500
v -0.500 57.500 1.500
v 1.500 57.500 0.500
v 3.500 57.500 0.500
v 3.500 57.500 2.500
v 1.500 57.500 2.500
v 5.500 57.500 0.500
v 5.500 57.500 1.500
v 0.500 57.500 2.500
v -0.500 57.500 2.500
v 0.500 57.500 1.500
v 5.500 57.500 1.500
v 0.500 57.500 4.500
v -0.500 57.500 4.500
v 0.500 57.500 2.500
v 3.500 57.500 3.500
v 0.500 57.500 3.500
v 1.500 57.500 4.500
v 1.500 57.500 3.500
v 1.500 57.500 3.500
v 2.500 57.500 3.500
v 2.500 57.500 4.500
v 2.500 57.500 5.500
v 0.500 57.500 4.500
v 4.000 66.500 -4.354
v 4.354 66.500 -4.000
v 4.000 66.500 -3.646
v 3.646 66.500 -4.000
v 4.000 67.000 -4.354
v 4.354 67.000 -4.000
v 3.646 67.000 -4.000
v 4.000 67.000 -3.646
v 4.000 66.484 -4.377
v 4.377 66.484 -4.000
v 4.000 66.484 -3.623
v 3.623 66.484 -4.000
v 4.000 67.016 -4.377
v 4.377 67.016 -4.000
v 3.623 67.016 -4.000
v 4.000 67.016 -3.623
v -0.500 70.500 -16.500
v -0.500 70.500 -15.500
v -0.500 71.500 -15.500
v -0.500 71.500 -16.500
v -0.500 72.500 -16.500
v -0.500 72.500 -15.500
v -0.500 73.500 -15.500
v -0.500 73.500 -16.500
v -0.500 75.500 -16.500
v -0.500 75.500 -15.500
v -0.500 76.500 -15.500
v -0.500 76.500 -16.500
v -0.500 76.500 -16.500
v -0.500 76.500 -15.500
v -0.500 77.500 -15.500
v -0.500 77.500 -16.500
v 1.500 70.500 -15.500
v 1.500 70.500 -16.500
v 1.500 71.500 -16.500
v 1.500 71.500 -15.500
v 1.500 72.500 -16.500
v 1.500 72.500 -15.500
v 1.500 73.500 -16.500
v 1.500 73.500 -15.500
v 1.500 74.500 -15.500
v 1.500 74.500 -16.500
v 1.500 75.500 -16.500
v 1.500 75.500 -15.500
v 3.477 66.500 -6.477
v 2.523 66.500 -5.523
v 2.523 67.500 -5.523
v 3.477 67.500 -6.477
v 2.523 66.500 -6.477
v 3.477 66.500 -5.523
v 3.477 67.500 -5.523
v 2.523 67.500 -6.477
v 0.477 66.500 -4.477
v -0.477 66.500 -3.523
v -0.477 67.500 -3.523
v 0.477 67.500 -4.477
v -0.477 66.500 -4.477
v 0.477 66.500 -3.523
v 0.477 67.500 -3.523
v -0.477 67.500 -4.477
v 1.477 66.500 -4.477
v 0.523 66.500 -3.523
v 0.523 67.500 -3.523
v 1.477 67.500 -4.477
v 0.523 66.500 -4.477
v 1.477 66.500 -3.523
v 1.477 67.500 -3.523
v 0.523 67.500 -4.477
v 5.477 66.500 -4.477
v 4.523 66.500 -3.523
v 4.523 67.500 -3.523
v 5.477 67.500 -4.477
v 4.523 66.500 -4.477
v 5.477 66.500 -3.523
v 5.477 67.500 -3.523
v 4.523 67.500 -4.477
v 0.477 66.500 -3.477
v -0.477 66.500 -2.523
v -0.477 67.500 -2.523
v 0.477 67.500 -3.477
v -0.477 66.500 -3.477
v 0.477 66.500 -2.523
v 0.477 67.500 -2.523
v -0.477 67.500 -3.477
v 5.477 66.500 -3.477
v 4.523 66.500 -2.523
v 4.523 67.500 -2.523
v 5.477 67.500 -3.477
v 4.523 66.500 -3.477
v 5.477 66.500 -2.523
v 5.477 67.500 -2.523
v 4.523 67.500 -3.477
v 6.477 66.500 -3.477
v 5.523 66.500 -2.523
v 5.523 67.500 -2.523
v 6.477 67.500 -3.477
v 5.523 66.500 -3.477
v 6.477 66.500 -2.523
v 6.477 67.500 -2.523
v 5.523 67.500 -3.477
v 3.477 66.500 -2.477
v 2.523 66.500 -1.523
v 2.523 67.500 -1.523
v 3.477 67.500 -2.477
v 2.523 66.500 -2.477
v 3.477 66.500 -1.523
v 3.477 67.500 -1.523
v 2.523 67.500 -2.477
v 3.477 66.500 -1.477
v 2.523 66.500 -0.523
v 2.523 67.500 -0.523
v 3.477 67.500 -1.477
v 2.523 66.500 -1.477
v 3.477 66.500 -0.523
v 3.477 67.500 -0.523
v 2.523 67.500 -1.477
v 4.477 66.500 -1.477
v 3.523 66.500 -0.523
v 3.523 67.500 -0.523
v 4.477 67.500 -1.477
v 3.523 66.500 -1.477
v 4.477 66.500 -0.523
v 4.477 67.500 -0.523
v 3.523 67.500 -1.477
v 0.500 69.500 -15.500
v -0.500 69.500 -15.500
v -0.500 69.500 -16.500
v 0.500 69.500 -16.500
v 1.500 69.500 -15.500
v 1.500 69.500 -16.500
v -0.500 57.500 -6.500
v 0.500 57.500 -6.500
v 0.500 57.500 -4.500
v -0.500 57.500 -4.500
v 0.500 57.500 -6.500
v 1.500 57.500 -6.500
v 1.500 57.500 -5.500
v 0.500 57.500 -5.500
v 2.500 57.500 -6.500
v 2.500 57.500 -5.500
v 3.500 57.500 -6.500
v 3.500 57.500 -5.500
v 1.500 57.500 -4.500
v 0.500 57.500 -4.500
v 1.500 57.500 -5.500
v 3.500 57.500 -4.500
v 4.500 57.500 -4.500
v 4.500 57.500 -5.500
v 0.500 57.500 -3.500
v -0.500 57.500 -3.500
v -0.500 57.500 -4.500
v 0.500 57.500 -4.500
v 2.500 57.500 -4.500
v 2.500 57.500 -3.500
v 4.500 57.500 -3.500
v 5.500 57.500 -4.500
v 5.500 57.500 -3.500
v -0.500 57.500 -3.500
v 1.500 57.500 -3.500
v 1.500 57.500 -2.500
v -0.500 57.500 -2.500
v 2.500 57.500 -2.500
v 3.500 57.500 -2.500
v 3.500 57.500 -3.500
v 4.500 57.500 -2.500
v 5.500 57.500 -2.500
v 6.500 57.500 -3.500
v 6.500 57.500 -2.500
v -0.500 57.500 -2.500
v 0.500 57.500 -2.500
v 0.500 57.500 -1.500
v -0.500 57.500 -1.500
v 0.500 57.500 -2.500
v 1.500 57.500 -2.500
v 1.500 57.500 -0.500
v 0.500 57.500 -0.500
v 2.500 57.500 -0.500
v 3.500 57.500 -0.500
v 2.500 57.500 -0.500
v 4.500 57.500 -1.500
v 3.500 57.500 -1.500
v 5.500 57.500 -1.500
v 4.500 57.500 -1.500
v 6.500 57.500 -1.500
v 0.500 57.500 -0.500
v -0.500 57.500 -0.500
v -0.500 57.500 -1.500
v 0.500 57.500 -1.500
v 5.500 57.500 -0.500
v 6.500 57.500 -0.500
v 5.500 57.500 -0.500
v 0.500 70.500 -15.500
v -0.500 70.500 -15.500
v 0.500 70.500 -15.500
v 0.500 71.500 -15.500
v -0.500 71.500 -15.500
v 0.500 71.500 -15.500
v 0.500 72.500 -15.500
v -0.500 73.500 -15.500
v 0.500 73.500 -15.500
v 0.500 75.500 -15.500
v -0.500 75.500 -15.500
v 1.500 76.500 -15.500
v 1.500 77.500 -15.500
v 0.500 72.500 -15.500
v 0.500 73.500 -15.500
v 0.500 74.500 -15.500
v -0.500 70.500 -16.500
v -0.500 71.500 -16.500
v -0.500 72.500 -15.500
v -0.500 72.500 -16.500
v -0.500 73.500 -16.500
v 0.500 77.500 -15.500
v 0.500 77.500 -16.500
v 0.500 77.500 -15.500
v 1.500 77.500 -16.500
v 0.500 77.500 -16.500
v 6.500 58.500 -3.500
v 6.500 58.500 -2.500
v 6.500 59.500 -3.500
v 6.500 59.500 -2.500
v 6.500 60.500 -3.500
v 6.500 60.500 -2.500
v 6.500 61.500 -3.500
v 6.500 61.500 -2.500
v 6.500 62.500 -3.500
v 6.500 62.500 -2.500
v 6.500 65.500 -3.500
v 6.500 65.500 -2.500
v 6.500 65.500 -0.500
v 6.500 66.500 -3.500
v 6.500 66.500 -0.500
v 6.500 58.500 -0.500
v 6.500 58.500 -1.500
v 6.500 59.500 -1.500
v 6.500 61.500 -1.500
v 6.500 62.500 -1.500
v 6.500 63.500 -2.500
v 6.500 63.500 -1.500
v 6.500 65.500 -1.500
v 6.500 59.500 -0.500
v 6.500 60.500 -1.500
v 6.500 60.500 -0.500
v 6.500 61.500 -0.500
v 6.500 62.500 -0.500
v 6.500 65.500 -1.500
v 6.500 65.500 -0.500
v 5.500 58.500 -4.500
v 5.500 58.500 -3.500
v 5.500 59.500 -4.500
v 5.500 59.500 -3.500
v 5.500 60.500 -4.500
v 5.500 60.500 -3.500
v 5.500 61.500 -4.500
v 5.500 61.500 -3.500
v 5.500 63.500 -4.500
v 5.500 63.500 -3.500
v 5.500 65.500 -4.500
v 5.500 65.500 -3.500
v 5.500 66.500 -4.500
v 5.500 66.500 -3.500
v 4.500 58.500 -5.500
v 4.500 58.500 -4.500
v 4.500 59.500 -5.500
v 4.500 59.500 -4.500
v 4.500 60.500 -5.500
v 4.500 60.500 -4.500
v 4.500 61.500 -5.500
v 4.500 61.500 -4.500
v 4.500 62.500 -5.500
v 4.500 62.500 -4.500
v 4.500 65.500 -5.500
v 4.500 65.500 -4.500
v 4.500 66.500 -5.500
v 4.500 66.500 -4.500
v 0.500 66.500 -5.500
v 0.500 66.500 -6.500
v -0.500 66.500 -6.500
v -0.500 66.500 -5.500
v 0.500 66.500 -6.500
v 1.500 66.500 -5.500
v 1.500 66.500 -6.500
v 2.500 66.500 -6.500
v 1.500 66.500 -6.500
v 2.500 66.500 -5.500
v 3.500 66.500 -5.500
v 3.500 66.500 -6.500
v -0.500 66.500 -5.500
v -0.500 66.500 -4.500
v 1.500 66.500 -4.500
v 2.500 66.500 -4.500
v 1.500 66.500 -5.500
v 3.500 66.500 -4.500
v 0.500 66.500 -4.500
v -0.500 66.500 -4.500
v -0.500 66.500 -3.500
v 0.500 66.500 -3.500
v 0.500 66.500 -3.500
v 1.500 66.500 -3.500
v 2.500 66.500 -3.500
v 3.500 66.500 -3.500
v -0.500 66.500 -1.500
v 0.500 66.500 -1.500
v -0.500 66.500 -3.500
v 1.500 66.500 -3.500
v 0.500 66.500 -3.500
v 0.500 66.500 -2.500
v 1.500 66.500 -2.500
v 3.500 66.500 -2.500
v 4.500 66.500 -2.500
v 4.500 66.500 -3.500
v 5.500 66.500 -2.500
v 6.500 66.500 -2.500
v 1.500 66.500 -1.500
v 0.500 66.500 -2.500
v 0.500 66.500 -1.500
v 1.500 66.500 -1.500
v 2.500 66.500 -1.500
v 2.500 66.500 -2.500
v 3.500 66.500 -0.500
v 2.500 66.500 -0.500
v 3.500 66.500 -1.500
v 5.500 66.500 -1.500
v 5.500 66.500 -1.500
v 6.500 66.500 -1.500
v 0.500 66.500 -0.500
v 0.500 66.500 -1.500
v -0.500 66.500 -1.500
v -0.500 66.500 -0.500
v 0.500 66.500 -0.500
v 1.500 66.500 -0.500
v 1.500 66.500 -1.500
v 1.500 66.500 -0.500
v 2.500 66.500 -0.500
v 4.500 66.500 -1.500
v 3.500 66.500 -0.500
v 4.500 66.500 -0.500
v 5.500 66.500 -0.500
v 4.500 66.500 -0.500
v 5.500 66.500 -0.500
v 3.500 58.500 -6.500
v 3.500 58.500 -5.500
v 3.500 60.500 -6.500
v 3.500 60.500 -5.500
v 3.500 61.500 -6.500
v 3.500 61.500 -5.500
v 3.500 62.500 -6.500
v 3.500 62.500 -5.500
v 3.500 65.500 -6.500
v 3.500 65.500 -5.500
v 1.500 70.500 -16.500
v 1.500 73.500 -16.500
v 1.500 74.500 -16.500
v 1.500 75.500 -16.500
v 1.500 76.500 -16.500
v 4.500 63.500 -4.500
v 3.500 59.500 -5.500
v -0.500 58.500 -6.500
v 0.500 58.500 -6.500
v -0.500 59.500 -6.500
v 0.500 59.500 -6.500
v -0.500 59.500 -6.500
v -0.500 60.500 -6.500
v 0.500 60.500 -6.500
v 0.500 61.500 -6.500
v -0.500 61.500 -6.500
v 0.500 62.500 -6.500
v -0.500 62.500 -6.500
v 0.500 63.500 -6.500
v -0.500 63.500 -6.500
v 3.500 64.500 -6.500
v -0.500 64.500 -6.500
v -0.500 65.500 -6.500
v -0.500 65.500 -6.500
v 0.500 58.500 -6.500
v 1.500 58.500 -6.500
v 1.500 58.500 -6.500
v 1.500 59.500 -6.500
v 3.500 59.500 -6.500
v 0.500 59.500 -6.500
v 0.500 60.500 -6.500
v 1.500 60.500 -6.500
v 0.500 61.500 -6.500
v 1.500 61.500 -6.500
v 0.500 62.500 -6.500
v 1.500 62.500 -6.500
v 1.500 62.500 -6.500
v 0.500 62.500 -6.500
v 1.500 63.500 -6.500
v 3.500 63.500 -6.500
v 0.500 64.500 -6.500
v 2.500 58.500 -6.500
v 1.500 59.500 -6.500
v 2.500 60.500 -6.500
v 1.500 60.500 -6.500
v 1.500 61.500 -6.500
v 2.500 61.500 -6.500
v 2.500 63.500 -6.500
v 2.500 62.500 -6.500
v 5.500 62.500 -3.500
v -3.354 66.500 -4.000
v -3.000 66.500 -4.354
v -2.646 66.500 -4.000
v -3.000 66.500 -3.646
v -3.354 67.000 -4.000
v -3.000 67.000 -4.354
v -3.000 67.000 -3.646
v -2.646 67.000 -4.000
v -3.377 66.484 -4.000
v -3.000 66.484 -4.377
v -2.623 66.484 -4.000
v -3.000 66.484 -3.623
v -3.377 67.016 -4.000
v -3.000 67.016 -4.377
v -3.000 67.016 -3.623
v -2.623 67.016 -4.000
v -1.523 66.500 -6.477
v -2.477 66.500 -5.523
v -2.477 67.500 -5.523
v -1.523 67.500 -6.477
v -2.477 66.500 -6.477
v -1.523 66.500 -5.523
v -1.523 67.500 -5.523
v -2.477 67.500 -6.477
v -2.523 66.500 -5.477
v -3.477 66.500 -4.523
v -3.477 67.500 -4.523
v -2.523 67.500 -5.477
v -3.477 66.500 -5.477
v -2.523 66.500 -4.523
v -2.523 67.500 -4.523
v -3.477 67.500 -5.477
v -1.523 66.500 -5.477
v -2.477 66.500 -4.523
v -2.477 67.500 -4.523
v -1.523 67.500 -5.477
v -2.477 66.500 -5.477
v -1.523 66.500 -4.523
v -1.523 67.500 -4.523
v -2.477 67.500 -5.477
v -4.523 66.500 -3.477
v -5.477 66.500 -2.523
v -5.477 67.500 -2.523
v -4.523 67.500 -3.477
v -5.477 66.500 -3.477
v -4.523 66.500 -2.523
v -4.523 67.500 -2.523
v -5.477 67.500 -3.477
v -0.523 66.500 -3.477
v -1.477 66.500 -2.523
v -1.477 67.500 -2.523
v -0.523 67.500 -3.477
v -1.477 66.500 -3.477
v -0.523 66.500 -2.523
v -0.523 67.500 -2.523
v -1.477 67.500 -3.477
v -2.523 66.500 -1.477
v -3.477 66.500 -0.523
v -3.477 67.500 -0.523
v -2.523 67.500 -1.477
v -3.477 66.500 -1.477
v -2.523 66.500 -0.523
v -2.523 67.500 -0.523
v -3.477 67.500 -1.477
v -4.500 57.500 -4.500
v -4.500 57.500 -3.500
v -4.500 58.500 -3.500
v -4.500 58.500 -4.500
v -4.500 59.500 -3.500
v -4.500 59.500 -4.500
v -4.500 60.500 -3.500
v -4.500 60.500 -4.500
v -4.500 61.500 -3.500
v -4.500 61.500 -4.500
v -4.500 62.500 -3.500
v -4.500 62.500 -4.500
v -4.500 65.500 -3.500
v -4.500 65.500 -4.500
v -4.500 66.500 -3.500
v -4.500 66.500 -4.500
v -2.500 66.500 -6.500
v -2.500 66.500 -4.500
v -1.500 66.500 -4.500
v -1.500 66.500 -6.500
v -1.500 66.500 -5.500
v -0.500 66.500 -5.500
v -0.500 66.500 -6.500
v -2.500 66.500 -5.500
v -3.500 66.500 -5.500
v -3.500 66.500 -4.500
v -0.500 66.500 -4.500
v -3.500 66.500 -3.500
v -2.500 66.500 -3.500
v -1.500 66.500 -4.500
v -1.500 66.500 -3.500
v -0.500 66.500 -3.500
v -0.500 66.500 -4.500
v -5.500 66.500 -2.500
v -4.500 66.500 -2.500
v -5.500 66.500 -3.500
v -2.500 66.500 -2.500
v -0.500 66.500 -2.500
v -5.500 66.500 -1.500
v -4.500 66.500 -1.500
v -4.500 66.500 -1.500
v -2.500 66.500 -1.500
v -1.500 66.500 -1.500
v -1.500 66.500 -2.500
v -0.500 66.500 -2.500
v -1.500 66.500 -1.500
v -0.500 66.500 -1.500
v -5.500 66.500 -0.500
v -4.500 66.500 -0.500
v -1.500 66.500 -1.500
v -4.500 66.500 -0.500
v -1.500 66.500 -0.500
v -0.500 66.500 -0.500
v -0.500 66.500 -1.500
v -5.500 57.500 -3.500
v -5.500 57.500 -0.500
v -5.500 58.500 -0.500
v -5.500 58.500 -3.500
v -5.500 58.500 -2.500
v -5.500 60.500 -2.500
v -5.500 60.500 -3.500
v -5.500 61.500 -2.500
v -5.500 61.500 -3.500
v -5.500 62.500 -2.500
v -5.500 62.500 -3.500
v -5.500 65.500 -2.500
v -5.500 65.500 -3.500
v -5.500 65.500 -0.500
v -5.500 58.500 -1.500
v -5.500 59.500 -1.500
v -5.500 59.500 -2.500
v -5.500 60.500 -1.500
v -5.500 61.500 -1.500
v -5.500 63.500 -1.500
v -5.500 63.500 -2.500
v -5.500 63.500 -0.500
v -5.500 58.500 -1.500
v -5.500 59.500 -0.500
v -5.500 59.500 -1.500
v -5.500 59.500 -0.500
v -5.500 60.500 -0.500
v -5.500 60.500 -1.500
v -5.500 61.500 -0.500
v -5.500 61.500 -1.500
v -5.500 62.500 -0.500
v -5.500 62.500 -1.500
v -5.500 62.500 -0.500
v -5.500 63.500 -1.500
v -2.500 57.500 -6.500
v -2.500 57.500 -5.500
v -2.500 58.500 -5.500
v -2.500 58.500 -6.500
v -2.500 59.500 -5.500
v -2.500 59.500 -6.500
v -2.500 61.500 -5.500
v -2.500 61.500 -6.500
v -2.500 62.500 -5.500
v -2.500 62.500 -6.500
v -2.500 65.500 -5.500
v -2.500 65.500 -6.500
v -3.500 57.500 -5.500
v -3.500 57.500 -4.500
v -3.500 58.500 -4.500
v -3.500 58.500 -5.500
v -3.500 59.500 -4.500
v -3.500 59.500 -5.500
v -3.500 60.500 -4.500
v -3.500 60.500 -5.500
v -3.500 61.500 -4.500
v -3.500 61.500 -5.500
v -3.500 62.500 -4.500
v -3.500 62.500 -5.500
v -3.500 63.500 -4.500
v -3.500 63.500 -5.500
v -3.500 65.500 -4.500
v -3.500 65.500 -5.500
v -2.500 60.500 -5.500
v -2.500 63.500 -5.500
v -1.500 57.500 -6.500
v -1.500 58.500 -6.500
v -1.500 59.500 -6.500
v -1.500 59.500 -6.500
v -1.500 61.500 -6.500
v -1.500 62.500 -6.500
v -1.500 63.500 -6.500
v -2.500 63.500 -6.500
v -0.500 64.500 -6.500
v -2.500 64.500 -6.500
v -0.500 65.500 -6.500
v -0.500 57.500 -6.500
v -0.500 58.500 -6.500
v -0.500 59.500 -6.500
v -1.500 60.500 -6.500
v -0.500 60.500 -6.500
v -1.500 61.500 -6.500
v -0.500 61.500 -6.500
v -1.500 62.500 -6.500
v -0.500 62.500 -6.500
v -0.500 63.500 -6.500
v -1.500 64.500 -6.500
v -1.500 57.500 -5.500
v -0.500 57.500 -5.500
v -1.500 57.500 -5.500
v -1.500 57.500 -4.500
v -0.500 57.500 -4.500
v -3.500 57.500 -3.500
v -2.500 57.500 -4.500
v -2.500 57.500 -3.500
v -0.500 57.500 -3.500
v -3.500 57.500 -2.500
v -5.500 57.500 -2.500
v -0.500 57.500 -3.500
v -0.500 57.500 -2.500
v -4.500 57.500 -0.500
v -4.500 57.500 -2.500
v -3.500 57.500 -1.500
v -4.500 57.500 -1.500
v -1.500 57.500 -2.500
v -1.500 57.500 -1.500
v -3.500 57.500 -1.500
v -0.500 57.500 -1.500
v -1.500 57.500 -2.500
v -0.500 57.500 -2.500
v -3.500 57.500 -0.500
v -4.500 57.500 -0.500
v -2.500 57.500 -0.500
v -2.500 57.500 -1.500
v -0.500 57.500 -0.500
v -3.000 66.500 3.354
v -3.354 66.500 3.000
v -3.000 66.500 2.646
v -2.646 66.500 3.000
v -3.000 67.000 3.354
v -3.354 67.000 3.000
v -2.646 67.000 3.000
v -3.000 67.000 2.646
v -3.000 66.484 3.377
v -3.377 66.484 3.000
v -3.000 66.484 2.623
v -2.623 66.484 3.000
v -3.000 67.016 3.377
v -3.377 67.016 3.000
v -2.623 67.016 3.000
v -3.000 67.016 2.623
v -2.523 66.500 -0.477
v -3.477 66.500 0.477
v -3.477 67.500 0.477
v -2.523 67.500 -0.477
v -3.477 66.500 -0.477
v -2.523 66.500 0.477
v -2.523 67.500 0.477
v -3.477 67.500 -0.477
v -1.523 66.500 -0.477
v -2.477 66.500 0.477
v -2.477 67.500 0.477
v -1.523 67.500 -0.477
v -2.477 66.500 -0.477
v -1.523 66.500 0.477
v -1.523 67.500 0.477
v -2.477 67.500 -0.477
v -1.523 66.500 0.523
v -2.477 66.500 1.477
v -2.477 67.500 1.477
v -1.523 67.500 0.523
v -2.477 66.500 0.523
v -1.523 66.500 1.477
v -1.523 67.500 1.477
v -2.477 67.500 0.523
v -4.523 66.500 1.523
v -5.477 66.500 2.477
v -5.477 67.500 2.477
v -4.523 67.500 1.523
v -5.477 66.500 1.523
v -4.523 66.500 2.477
v -4.523 67.500 2.477
v -5.477 67.500 1.523
v -3.523 66.500 1.523
v -4.477 66.500 2.477
v -4.477 67.500 2.477
v -3.523 67.500 1.523
v -4.477 66.500 1.523
v -3.523 66.500 2.477
v -3.523 67.500 2.477
v -4.477 67.500 1.523
v -3.523 66.500 2.523
v -4.477 66.500 3.477
v -4.477 67.500 3.477
v -3.523 67.500 2.523
v -4.477 66.500 2.523
v -3.523 66.500 3.477
v -3.523 67.500 3.477
v -4.477 67.500 2.523
v -1.523 66.500 4.523
v -2.477 66.500 5.477
v -2.477 67.500 5.477
v -1.523 67.500 4.523
v -2.477 66.500 4.523
v -1.523 66.500 5.477
v -1.523 67.500 5.477
v -2.477 67.500 4.523
v -5.500 57.500 2.500
v -4.500 57.500 2.500
v -4.500 58.500 2.500
v -5.500 58.500 2.500
v -4.500 59.500 2.500
v -5.500 59.500 2.500
v -4.500 60.500 2.500
v -5.500 60.500 2.500
v -4.500 61.500 2.500
v -5.500 61.500 2.500
v -4.500 62.500 2.500
v -5.500 62.500 2.500
v -4.500 65.500 2.500
v -5.500 65.500 2.500
v -4.500 66.500 2.500
v -5.500 66.500 2.500
v -4.500 57.500 3.500
v -4.500 58.500 3.500
v -4.500 60.500 3.500
v -4.500 61.500 3.500
v -4.500 63.500 3.500
v -4.500 63.500 2.500
v -4.500 65.500 3.500
v -4.500 66.500 3.500
v -5.500 57.500 -0.500
v -5.500 58.500 -0.500
v -5.500 58.500 -0.500
v -5.500 58.500 1.500
v -5.500 59.500 1.500
v -5.500 59.500 -0.500
v -5.500 59.500 0.500
v -5.500 60.500 0.500
v -5.500 60.500 -0.500
v -5.500 60.500 -0.500
v -5.500 60.500 0.500
v -5.500 62.500 0.500
v -5.500 62.500 -0.500
v -5.500 65.500 0.500
v -5.500 65.500 -0.500
v -5.500 66.500 -0.500
v -5.500 59.500 0.500
v -5.500 60.500 1.500
v -5.500 61.500 1.500
v -5.500 61.500 0.500
v -5.500 62.500 1.500
v -5.500 62.500 0.500
v -5.500 62.500 1.500
v -5.500 63.500 1.500
v -5.500 63.500 0.500
v -5.500 63.500 0.500
v -5.500 63.500 1.500
v -5.500 65.500 1.500
v -5.500 58.500 1.500
v -5.500 59.500 1.500
v -5.500 60.500 1.500
v -5.500 61.500 1.500
v -5.500 65.500 1.500
v -4.500 66.500 -0.500
v -5.500 66.500 0.500
v -4.500 66.500 0.500
v -4.500 66.500 0.500
v -2.500 66.500 0.500
v -2.500 66.500 -0.500
v -0.500 66.500 -0.500
v -2.500 66.500 -0.500
v -2.500 66.500 0.500
v -0.500 66.500 0.500
v -5.500 66.500 1.500
v -3.500 66.500 1.500
v -3.500 66.500 0.500
v -2.500 66.500 1.500
v -1.500 66.500 1.500
v -1.500 66.500 0.500
v -1.500 66.500 1.500
v -0.500 66.500 1.500
v -0.500 66.500 0.500
v -1.500 66.500 0.500
v -4.500 66.500 1.500
v -4.500 66.500 1.500
v -3.500 66.500 2.500
v -2.500 66.500 2.500
v -0.500 66.500 2.500
v -3.500 66.500 3.500
v -2.500 66.500 3.500
v -1.500 66.500 2.500
v -1.500 66.500 3.500
v -1.500 66.500 2.500
v -0.500 66.500 3.500
v -3.500 66.500 4.500
v -1.500 66.500 4.500
v -0.500 66.500 4.500
v -0.500 66.500 3.500
v -1.500 66.500 3.500
v -2.500 66.500 5.500
v -1.500 66.500 5.500
v -2.500 66.500 4.500
v -0.500 66.500 5.500
v -2.500 57.500 5.500
v -0.500 57.500 5.500
v -0.500 58.500 5.500
v -2.500 58.500 5.500
v -0.500 58.500 5.500
v -0.500 59.500 5.500
v -2.500 59.500 5.500
v -0.500 59.500 5.500
v -0.500 60.500 5.500
v -2.500 60.500 5.500
v -1.500 60.500 5.500
v -1.500 61.500 5.500
v -2.500 61.500 5.500
v -1.500 62.500 5.500
v -2.500 62.500 5.500
v -1.500 63.500 5.500
v -2.500 63.500 5.500
v -0.500 63.500 5.500
v -0.500 65.500 5.500
v -2.500 65.500 5.500
v -0.500 65.500 5.500
v -0.500 60.500 5.500
v -0.500 61.500 5.500
v -0.500 62.500 5.500
v -3.500 57.500 4.500
v -2.500 57.500 4.500
v -2.500 58.500 4.500
v -3.500 58.500 4.500
v -2.500 59.500 4.500
v -3.500 59.500 4.500
v -2.500 60.500 4.500
v -3.500 60.500 4.500
v -2.500 61.500 4.500
v -3.500 61.500 4.500
v -2.500 62.500 4.500
v -3.500 62.500 4.500
v -2.500 65.500 4.500
v -3.500 65.500 4.500
v -3.500 57.500 3.500
v -3.500 58.500 3.500
v -3.500 60.500 3.500
v -3.500 61.500 3.500
v -3.500 63.500 3.500
v -3.500 65.500 3.500
v -3.500 59.500 3.500
v -3.500 62.500 3.500
v -3.500 57.500 -0.500
v -3.500 57.500 0.500
v -5.500 57.500 0.500
v -2.500 57.500 0.500
v -3.500 57.500 0.500
v -2.500 57.500 -0.500
v -2.500 57.500 -0.500
v -1.500 57.500 -0.500
v -1.500 57.500 0.500
v -2.500 57.500 0.500
v -0.500 57.500 0.500
v -1.500 57.500 0.500
v -1.500 57.500 -0.500
v -0.500 57.500 -0.500
v -4.500 57.500 1.500
v -5.500 57.500 1.500
v -5.500 57.500 0.500
v -4.500 57.500 0.500
v -4.500 57.500 0.500
v -3.500 57.500 1.500
v -4.500 57.500 1.500
v -3.500 57.500 0.500
v -2.500 57.500 1.500
v -3.500 57.500 1.500
v -1.500 57.500 1.500
v -1.500 57.500 0.500
v -0.500 57.500 1.500
v -1.500 57.500 1.500
v -1.500 57.500 2.500
v -3.500 57.500 2.500
v -0.500 57.500 1.500
v -0.500 57.500 2.500
v -2.500 57.500 3.500
v -2.500 57.500 2.500
v -1.500 57.500 2.500
v -1.500 57.500 3.500
v -0.500 57.500 2.500
v -1.500 57.500 5.500
v -1.500 57.500 4.500

usemtl minecraft_block-coal_ore

f 303/1 302/2 287/3 304/4
f 305/1 315/2 316/3 307/4
f 613/1 603/2 614/3 615/4
f 617/1 611/2 618/3 619/4
f 737/1 738/2 739/3 740/4
f 978/1 977/2 965/3 979/4
f 1110/1 1111/2 1112/3 1113/4
f 1126/1 1127/2 1128/3 1129/4

usemtl minecraft_block-stone

f 5/1 6/2 7/3 8/4
f 8/1 7/2 9/3 10/4
f 29/2 30/1 31/4 32/3
f 42/2 41/1 43/4 44/3
f 44/1 43/2 45/3 46/4
f 46/2 45/1 47/4 21/3
f 51/2 29/1 32/4 52/3
f 52/1 5/2 8/3 53/4
f 43/5 8/2 10/3 45/6
f 41/2 52/1 53/4 43/3
f 45/2 58/1 59/4 47/3
f 156/1 155/2 157/3 158/4
f 171/1 170/2 172/3 173/4
f 176/2 175/1 177/4 178/3
f 186/2 173/1 187/35 179/36
f 155/1 185/2 186/3 157/4
f 193/2 158/1 160/4 194/3
f 206/2 205/1 207/4 208/3
f 208/1 207/2 209/3 210/4
f 286/2 287/5 288/6 289/3
f 292/1 291/2 293/3 294/4
f 290/2 288/1 305/4 291/3
f 302/2 312/1 313/4 287/3
f 287/1 313/2 314/3 288/4
f 314/1 320/2 321/3 315/4
f 320/1 325/2 326/3 321/4
f 325/2 206/1 208/4 326/3
f 326/1 208/2 210/3 329/4
f 205/2 193/1 194/4 207/3
f 397/2 398/1 399/4 400/3
f 414/2 413/1 415/4 416/3
f 572/2 573/1 398/3 574/4
f 575/2 576/1 577/35 578/36
f 581/2 414/1 416/4 576/3
f 585/2 572/1 586/4 587/3
f 588/2 575/1 578/35 401/36
f 601/1 600/2 602/3 603/4
f 611/1 597/2 601/36 612/35
f 619/1 618/2 612/3 620/4
f 620/2 612/1 613/4 621/3
f 631/1 630/2 632/36 633/35
f 645/2 644/1 646/4 647/3
f 720/2 719/1 721/4 722/3
f 630/1 645/2 732/36 632/35
f 644/2 722/1 724/4 646/3
f 740/1 739/2 741/4 742/3
f 758/1 757/2 759/3 760/4
f 763/2 764/1 745/4 765/3
f 773/1 772/2 765/36 774/35
f 719/2 770/1 773/4 721/3
f 600/1 631/2 776/3 602/4
f 850/1 849/2 851/3 852/4
f 901/1 900/2 902/3 903/4
f 902/1 913/2 914/36 915/35
f 922/1 921/2 923/3 924/4
f 926/1 927/2 916/3 928/4
f 936/2 935/1 937/4 938/3
f 950/1 949/2 951/3 952/4
f 952/2 951/1 953/4 954/3
f 949/1 850/2 852/3 951/4
f 935/1 950/2 952/3 937/4
f 937/2 952/1 954/4 958/3
f 963/2 936/1 938/4 964/3
f 972/1 961/2 973/3 974/4
f 974/2 973/1 975/4 976/3
f 847/1 901/2 903/3 849/4
f 1090/1 1089/2 1091/3 1092/4
f 1089/2 1100/1 1101/35 1102/36
f 1114/2 1115/1 1116/35 1117/36
f 1121/2 1109/1 1122/4 1115/3
f 1115/1 1122/2 1123/3 1124/4
f 1136/1 1090/2 1092/3 1127/4
f 1187/2 1188/1 1189/4 1190/3
f 1189/2 1200/1 1191/3 1201/4
f 1211/1 1210/2 1212/3 1213/4
f 1208/2 1187/1 1190/4 1210/3
f 1100/2 1219/1 1220/35 1101/36
f 1219/1 1211/2 1213/3 1223/4

usemtl minecraft_block-blue_orchid

f 77/1 78/2 79/3 80/4
f 81/1 82/2 83/3 84/4
f 109/1 110/2 111/3 112/4
f 113/1 114/2 115/3 116/4
f 437/1 438/2 439/3 440/4
f 441/1 442/2 443/3 444/4
f 833/1 834/2 835/3 836/4
f 837/1 838/2 839/3 840/4

usemtl minecraft_block-grass_block_side

f 14/1 13/2 15/3 16/4
f 24/1 48/2 37/3 36/4
f 48/5 14/2 16/3 37/6
f 162/1 161/2 163/3 164/4
f 161/38 180/2 182/3 163/39
f 195/1 162/2 164/3 196/4
f 212/1 211/2 213/3 214/4
f 297/1 298/44 277/45 274/4
f 298/1 327/2 271/3 277/4
f 327/1 212/2 214/3 271/4
f 211/1 195/2 196/3 213/4
f 405/1 406/2 407/3 408/4
f 406/1 579/33 580/34 407/4
f 606/38 604/2 607/3 608/39
f 635/1 634/2 636/3 637/4
f 649/1 648/2 650/3 651/4
f 726/1 725/2 663/3 662/4
f 579/1 731/2 592/3 580/4
f 634/1 649/2 651/3 636/4
f 648/1 726/2 662/3 650/4
f 725/51 750/2 654/3 663/52
f 604/1 635/2 637/3 607/4
f 854/1 853/2 855/3 856/4
f 907/1 908/40 888/41 876/4
f 940/1 939/2 864/3 857/4
f 956/1 955/2 866/3 865/4
f 955/1 854/2 856/3 866/4
f 939/1 956/2 865/3 864/4
f 969/5 940/2 857/3 863/6
f 853/1 907/2 876/3 855/4
f 1094/1 1093/2 1095/3 1096/4
f 1093/1 1103/2 1104/3 1095/4
f 1119/1 1094/40 1096/41 1120/4
f 1197/1 1198/33 1177/34 1174/4
f 1215/1 1214/2 1176/3 1169/4
f 1214/1 1197/2 1174/3 1176/4
f 1103/1 1221/2 1163/3 1104/4
f 1221/1 1215/2 1169/3 1163/4

usemtl minecraft_block-deepslate_diamond_ore

f 311/1 300/2 319/3 312/4
f 300/1 323/2 324/3 319/4
f 595/1 594/2 596/3 597/4
f 594/1 625/2 627/3 596/4
f 932/1 931/2 933/3 934/4
f 960/1 932/2 934/3 961/4
f 1084/1 1083/2 1085/3 1086/4
f 1133/1 1084/2 1086/3 1134/4

usemtl minecraft_block-dirt

f 10/1 9/2 11/3 12/4
f 12/1 11/2 13/3 14/4
f 21/1 22/2 23/3 24/4
f 54/1 10/2 12/3 55/4
f 22/5 12/2 14/3 23/6
f 160/1 159/2 161/31 162/32
f 179/5 177/2 180/36 181/37
f 159/1 188/2 181/31 161/32
f 194/1 160/2 162/31 195/32
f 210/1 209/2 211/36 212/35
f 294/1 293/2 295/4 296/3
f 306/1 305/2 307/3 308/4
f 308/1 307/2 309/4 310/3
f 288/1 314/2 315/3 305/4
f 307/1 317/33 298/46 318/35
f 315/1 321/2 317/3 316/4
f 321/1 326/2 327/31 298/32
f 329/1 210/2 212/36 327/35
f 207/1 194/2 195/31 211/32
f 401/1 402/2 403/3 404/4
f 417/1 418/2 419/3 420/4
f 402/1 420/33 579/34 403/4
f 582/1 416/2 583/4 417/3
f 603/1 602/2 604/31 605/32
f 612/1 601/2 603/3 613/4
f 615/1 614/2 605/36 616/35
f 621/1 613/2 622/31 623/32
f 633/1 632/2 634/36 635/35
f 647/1 646/2 648/31 649/32
f 724/1 723/2 725/31 726/32
f 416/1 728/2 729/3 417/4
f 420/1 730/2 731/3 579/4
f 632/1 732/2 649/36 634/35
f 646/1 724/2 726/31 648/32
f 743/1 744/2 745/4 746/3
f 747/51 748/2 749/3 725/52
f 766/38 745/2 767/3 747/39
f 723/1 775/2 774/3 766/4
f 602/1 776/2 635/31 604/32
f 852/1 851/2 853/31 854/32
f 905/1 904/2 906/31 907/32
f 915/1 916/33 908/46 906/35
f 938/1 937/2 939/31 940/32
f 954/1 953/2 955/36 956/35
f 951/1 852/2 854/31 955/32
f 958/1 954/2 956/36 939/35
f 964/1 938/2 965/4 966/3
f 967/5 968/2 940/3 969/6
f 976/1 975/2 977/3 978/4
f 979/1 965/2 980/3 967/4
f 851/1 905/2 907/31 853/32
f 1092/1 1091/2 1093/31 1094/32
f 1102/1 1101/2 1103/36 1093/35
f 1117/1 1116/2 1118/31 1119/32
f 1124/1 1123/2 1125/3 1116/4
f 1130/1 1131/2 1132/36 1118/35
f 1127/1 1092/2 1094/31 1137/32
f 1192/1 1191/2 1193/3 1194/4
f 1194/1 1195/33 1196/46 1197/35
f 1213/1 1212/2 1214/31 1215/32
f 1212/1 1192/2 1197/31 1214/32
f 1101/1 1220/2 1221/36 1103/35
f 1223/1 1213/2 1215/31 1221/32

usemtl minecraft_block-dandelion

f 117/1 118/2 119/3 120/4
f 121/1 122/2 123/3 124/4
f 125/1 126/2 127/3 128/4
f 129/1 130/2 131/3 132/4
f 133/1 134/2 135/3 136/4
f 137/1 138/2 139/3 140/4
f 429/1 430/2 431/3 432/4
f 433/1 434/2 435/3 436/4
f 445/1 446/2 447/3 448/4
f 449/1 450/2 451/3 452/4
f 461/1 462/2 463/3 464/4
f 465/1 466/2 467/3 468/4
f 493/1 494/2 495/3 496/4
f 497/1 498/2 499/3 500/4
f 801/1 802/2 803/3 804/4
f 805/1 806/2 807/3 808/4
f 809/1 810/2 811/3 812/4
f 813/1 814/2 815/3 816/4
f 1025/1 1026/2 1027/3 1028/4
f 1029/1 1030/2 1031/3 1032/4
f 1057/1 1058/2 1059/3 1060/4
f 1061/1 1062/2 1063/3 1064/4
f 1065/1 1066/2 1067/3 1068/4
f 1069/1 1070/2 1071/3 1072/4

usemtl minecraft_block-torchflower

f 85/1 86/2 87/3 88/4
f 89/1 90/2 91/3 92/4
f 101/1 102/2 103/3 104/4
f 105/1 106/2 107/3 108/4
f 421/1 422/2 423/3 424/4
f 425/1 426/2 427/3 428/4
f 453/1 454/2 455/3 456/4
f 457/1 458/2 459/3 460/4
f 485/1 486/2 487/3 488/4
f 489/1 490/2 491/3 492/4
f 817/1 818/2 819/3 820/4
f 821/1 822/2 823/3 824/4
f 1033/1 1034/2 1035/3 1036/4
f 1037/1 1038/2 1039/3 1040/4
f 1073/1 1074/2 1075/3 1076/4
f 1077/1 1078/2 1079/3 1080/4

usemtl minecraft_block-poppy

f 141/1 142/2 143/3 144/4
f 145/1 146/2 147/3 148/4
f 469/1 470/2 471/3 472/4
f 473/1 474/2 475/3 476/4
f 793/1 794/2 795/3 796/4
f 797/1 798/2 799/3 800/4
f 1049/1 1050/2 1051/3 1052/4
f 1053/1 1054/2 1055/3 1056/4

usemtl minecraft_block-oxeye_daisy

f 93/1 94/2 95/3 96/4
f 97/1 98/2 99/3 100/4
f 477/1 478/2 479/3 480/4
f 481/1 482/2 483/3 484/4
f 825/1 826/2 827/3 828/4
f 829/1 830/2 831/3 832/4
f 1041/1 1042/2 1043/3 1044/4
f 1045/1 1046/2 1047/3 1048/4

usemtl minecraft_block-grass_block_top

f 33/1 34/2 16/3 15/4
f 35/1 33/2 36/3 37/4
f 215/1 216/2 217/3 218/4
f 219/1 220/2 221/36 222/35
f 223/1 224/2 225/3 226/4
f 227/1 228/40 182/41 229/4
f 230/42 231/43 232/3 233/4
f 234/1 235/2 236/3 237/4
f 236/1 238/2 221/3 237/4
f 227/1 226/2 239/3 240/4
f 241/1 240/2 242/3 243/4
f 244/1 245/2 246/3 247/4
f 248/1 247/2 249/3 228/4
f 250/1 251/2 252/36 238/35
f 252/1 253/2 240/3 238/4
f 254/1 255/2 240/3 253/4
f 254/1 164/2 247/3 242/4
f 163/1 256/2 247/3 164/4
f 257/1 258/2 259/3 260/4
f 231/1 257/2 261/3 262/4
f 263/1 252/2 264/3 261/4
f 263/1 213/33 254/34 252/4
f 164/1 254/2 213/3 196/4
f 265/1 266/2 267/3 268/4
f 269/1 270/33 263/34 265/4
f 271/1 272/2 263/3 270/4
f 213/1 272/2 271/3 214/4
f 273/1 274/2 275/36 276/35
f 275/1 277/33 271/34 276/4
f 589/1 590/2 408/3 407/4
f 591/1 580/2 592/3 593/4
f 652/1 653/2 654/3 655/4
f 656/1 652/2 657/3 658/4
f 659/1 660/2 657/3 661/4
f 662/1 663/2 659/3 661/4
f 664/1 665/2 666/36 657/35
f 667/1 661/2 668/3 666/4
f 662/1 661/2 667/3 669/4
f 669/1 651/2 650/3 662/4
f 670/1 671/2 672/3 673/4
f 674/1 675/2 666/3 670/4
f 666/1 675/2 676/3 667/4
f 676/1 677/2 669/3 667/4
f 669/1 677/2 637/36 636/35
f 678/42 679/43 674/3 680/4
f 681/1 682/2 683/3 684/4
f 675/1 684/2 685/36 677/35
f 685/1 686/2 687/3 677/4
f 637/1 687/2 686/3 688/4
f 689/1 607/2 637/3 688/4
f 690/1 684/2 691/3 692/4
f 684/1 693/2 694/3 695/4
f 696/5 685/2 695/3 697/6
f 698/1 699/33 688/34 685/4
f 689/1 688/2 700/3 701/4
f 702/1 703/2 704/3 705/4
f 706/1 707/2 693/3 679/4
f 694/1 708/2 709/3 710/4
f 711/1 698/2 712/3 713/4
f 714/1 699/2 711/3 715/4
f 699/1 716/2 608/3 701/4
f 857/1 858/33 859/34 860/4
f 861/1 862/2 863/3 860/4
f 858/1 864/2 865/3 866/4
f 862/1 861/2 859/3 867/4
f 856/1 855/2 868/3 866/4
f 868/1 869/2 858/3 866/4
f 870/1 858/2 869/3 871/4
f 872/1 873/2 870/3 871/4
f 874/1 875/2 855/3 876/4
f 877/42 869/43 855/3 875/4
f 872/5 869/2 877/3 878/6
f 874/1 879/2 880/3 875/4
f 877/5 875/2 881/3 882/6
f 882/1 883/2 884/3 877/4
f 885/1 884/2 886/3 887/4
f 888/1 889/2 880/3 879/4
f 890/38 880/2 891/3 892/39
f 883/1 892/2 893/3 894/4
f 1138/1 1120/2 1139/3 1140/4
f 1141/1 1142/33 1143/34 1138/4
f 1144/5 1145/2 1146/3 1147/6
f 1139/1 1148/2 1149/36 1150/35
f 1149/1 1151/2 1142/3 1150/4
f 1152/1 1153/2 1142/3 1151/4
f 1154/1 1155/2 1156/3 1157/4
f 1095/1 1158/2 1148/3 1096/4
f 1159/1 1095/2 1160/3 1149/4
f 1151/1 1149/2 1160/3 1161/4
f 1161/1 1162/33 1155/34 1151/4
f 1160/1 1095/2 1104/3 1163/4
f 1160/1 1163/2 1164/3 1161/4
f 1165/1 1161/2 1164/3 1166/4
f 1167/1 1166/2 1168/3 1162/4
f 1169/1 1170/33 1166/34 1163/4
f 1171/1 1172/2 1173/3 1170/4
f 1174/1 1175/2 1170/3 1176/4
f 1171/1 1170/2 1175/3 1177/4

usemtl minecraft_block-bedrock

f 17/2 18/1 19/4 20/3
f 25/1 26/2 27/3 28/4
f 49/1 25/2 28/3 50/4
f 18/2 56/1 57/4 19/3
f 60/1 26/2 25/3 49/4
f 56/4 18/3 17/2 60/1
f 149/1 150/2 151/3 152/4
f 165/33 166/1 167/4 168/34
f 150/1 165/2 168/3 151/4
f 189/1 149/2 152/3 190/4
f 197/1 198/2 199/3 200/4
f 278/1 279/2 280/3 281/4
f 279/2 299/38 300/39 280/3
f 299/2 322/1 323/4 300/3
f 322/1 197/2 200/3 323/4
f 198/1 189/2 190/3 199/4
f 330/4 331/3 332/2 333/1
f 334/4 335/3 336/2 337/1
f 338/4 339/3 340/2 341/1
f 342/1 343/2 344/3 345/4
f 346/35 347/36 343/2 348/1
f 349/1 350/2 189/47 198/48
f 351/4 352/3 350/2 166/1
f 353/5 354/2 331/3 339/6
f 355/1 356/33 357/46 358/35
f 359/4 351/3 165/2 360/1
f 361/1 362/2 354/3 363/4
f 358/4 361/3 363/2 353/1
f 197/49 322/50 347/3 346/4
f 150/1 149/2 364/3 165/4
f 365/35 366/36 362/2 361/1
f 367/1 357/40 368/41 369/4
f 370/1 365/2 369/3 371/4
f 372/4 373/3 374/2 370/1
f 299/35 375/36 373/2 368/1
f 279/1 278/2 366/3 365/4
f 376/4 374/34 375/33 279/1
f 501/4 502/3 503/2 504/1
f 505/1 501/2 504/3 506/4
f 507/4 508/3 509/43 510/42
f 511/1 512/2 513/3 514/4
f 512/4 515/3 516/2 513/1
f 515/1 517/2 518/3 516/4
f 519/1 520/2 514/3 513/4
f 521/4 518/34 522/33 519/1
f 523/1 522/2 518/3 524/4
f 525/4 526/3 527/2 520/1
f 528/4 529/34 530/33 525/1
f 531/6 530/3 529/2 523/5
f 523/4 532/3 533/2 531/1
f 534/1 535/33 536/34 537/4
f 535/4 530/3 538/2 536/1
f 539/4 538/3 530/2 540/1
f 540/1 531/2 541/3 539/4
f 542/4 541/3 531/2 533/1
f 533/1 543/2 544/3 542/4
f 545/1 546/2 547/3 548/4
f 549/4 550/3 551/43 552/42
f 553/42 551/43 536/3 538/4
f 538/4 539/3 554/43 555/42
f 556/1 557/2 539/3 541/4
f 541/1 542/2 558/3 559/4
f 560/4 558/3 542/2 544/1
f 561/1 562/2 563/3 564/4
f 565/5 554/2 557/3 558/6
f 558/4 560/3 566/2 567/1
f 502/2 501/1 568/4 569/3
f 501/1 505/2 409/3 568/4
f 503/2 502/1 569/4 584/3
f 544/1 543/2 594/3 595/4
f 566/33 544/1 595/4 609/34
f 533/2 532/1 624/4 625/3
f 523/1 524/2 638/3 639/4
f 518/1 517/2 717/3 718/4
f 505/1 506/2 727/3 409/4
f 532/2 523/1 639/4 624/3
f 524/1 518/2 718/3 638/4
f 508/2 507/1 734/4 735/3
f 512/1 511/2 751/3 752/4
f 515/2 512/1 752/4 768/3
f 517/1 515/2 768/3 717/4
f 543/1 533/2 625/3 594/4
f 841/2 842/1 843/4 844/3
f 895/1 896/40 897/41 898/4
f 929/1 930/2 931/3 932/4
f 941/1 942/2 943/3 944/4
f 942/2 841/1 844/4 943/3
f 930/1 941/2 944/3 931/4
f 959/1 929/2 932/3 960/4
f 970/2 959/1 960/4 971/3
f 981/1 930/2 929/3 959/4
f 982/4 981/3 959/2 970/1
f 941/1 983/33 984/34 942/4
f 985/1 984/2 981/3 982/4
f 986/4 842/3 841/2 942/1
f 942/4 987/3 988/2 986/1
f 987/1 985/33 989/34 988/4
f 895/1 986/33 990/34 991/4
f 986/4 992/41 993/40 990/1
f 994/42 896/43 991/3 995/4
f 996/4 997/3 995/2 990/1
f 990/4 998/34 999/33 1000/1
f 1001/1 999/2 1002/3 1003/4
f 997/4 996/3 1004/2 1005/1
f 1006/1 1004/2 996/3 1007/4
f 1008/6 1006/3 1007/2 1001/5
f 842/1 895/2 898/3 843/4
f 1081/1 1082/2 1083/3 1084/4
f 1082/2 1097/1 1098/4 1083/3
f 1105/1 1081/40 1084/41 1106/4
f 1178/2 1179/5 1180/6 1181/3
f 1202/1 1203/2 1204/3 1205/4
f 1203/2 1178/1 1181/4 1204/3
f 1097/2 1216/1 1217/4 1098/3
f 1216/1 1202/2 1205/3 1217/4
f 1105/1 1224/33 1225/34 1226/4
f 1227/4 1228/3 1224/2 1229/1
f 1230/1 1231/2 1232/3 1233/4
f 1234/4 1235/3 1236/2 1237/1
f 1238/1 1239/2 1240/3 1241/4
f 1242/1 1228/2 1243/3 1244/4
f 1245/4 1227/3 1246/2 1247/1
f 1248/4 1246/3 1227/2 1235/1
f 1249/4 1234/3 1250/2 1251/1
f 1239/1 1238/2 1082/3 1081/4
f 1216/35 1097/36 1238/2 1243/1
f 1252/5 1253/2 1243/3 1248/6
f 1248/1 1254/2 1255/3 1252/4
f 1256/1 1216/2 1253/3 1257/4
f 1257/1 1258/2 1259/3 1256/4
f 1252/4 1260/3 1179/50 1261/49
f 1216/1 1256/2 1203/3 1202/4
f 1262/1 1203/2 1256/3 1259/4
f 1261/4 1178/3 1203/2 1262/1

usemtl minecraft_block-deepslate_emerald_ore

f 191/1 154/2 156/3 192/4
f 201/1 191/2 192/3 203/4
f 641/1 640/2 642/3 643/4
f 640/1 733/2 720/3 642/4
f 846/1 845/2 847/3 848/4
f 945/1 846/2 848/3 947/4
f 1207/1 1206/2 1208/3 1209/4
f 1222/1 1207/2 1209/3 1218/4

usemtl jmc2obj_head-player_zzuf_b6289e4522318971b545011865dc3373eef36b6bacfa17286d9bb3ea86b2776b

f 61/7 62/8 63/9 64/10
f 62/11 61/12 65/13 66/9
f 61/14 64/15 67/16 65/17
f 64/15 63/18 68/10 67/16
f 63/18 62/11 66/9 68/10
f 66/7 65/19 67/16 68/10
f 69/20 70/21 71/22 72/23
f 70/24 69/25 73/26 74/22
f 69/12 72/27 75/28 73/13
f 72/27 71/29 76/23 75/28
f 71/29 70/24 74/22 76/23
f 74/20 73/30 75/28 76/23
f 777/7 778/8 779/9 780/10
f 778/11 777/12 781/13 782/9
f 777/14 780/15 783/16 781/17
f 780/15 779/18 784/10 783/16
f 779/18 778/11 782/9 784/10
f 782/7 781/19 783/16 784/10
f 785/20 786/21 787/22 788/23
f 786/24 785/25 789/26 790/22
f 785/12 788/27 791/28 789/13
f 788/27 787/29 792/23 791/28
f 787/29 786/24 790/22 792/23
f 790/20 789/30 791/28 792/23

usemtl minecraft_block-iron_ore

f 158/1 157/2 159/3 160/4
f 157/1 186/2 188/3 159/4
f 204/1 203/2 205/3 206/4
f 328/1 204/2 206/3 325/4
f 629/1 628/2 630/3 631/4
f 722/1 721/2 723/3 724/4
f 628/1 643/2 645/3 630/4
f 721/1 773/2 775/3 723/4
f 903/1 902/2 904/3 905/4
f 948/1 947/2 949/3 950/4
f 957/1 948/2 950/3 935/4
f 849/1 903/2 905/3 851/4
f 1087/1 1099/2 1100/3 1089/4
f 1190/1 1189/2 1191/3 1192/4
f 1210/1 1190/2 1192/3 1212/4
f 1099/1 1218/2 1219/3 1100/4

usemtl jmc2obj_head-player_Drysu_d53575ecaab8e6bf23c95a2d631d92aafaf79e1ba4dc4ba8270ae6a53ca38c16

f 377/7 378/8 379/9 380/10
f 378/11 377/12 381/13 382/9
f 377/14 380/15 383/16 381/17
f 380/15 379/18 384/10 383/16
f 379/18 378/11 382/9 384/10
f 382/7 381/19 383/16 384/10
f 385/20 386/21 387/22 388/23
f 386/24 385/25 389/26 390/22
f 385/12 388/27 391/28 389/13
f 388/27 387/29 392/23 391/28
f 387/29 386/24 390/22 392/23
f 390/20 389/30 391/28 392/23
f 1009/7 1010/8 1011/9 1012/10
f 1010/11 1009/12 1013/13 1014/9
f 1009/14 1012/15 1015/16 1013/17
f 1012/15 1011/18 1016/10 1015/16
f 1011/18 1010/11 1014/9 1016/10
f 1014/7 1013/19 1015/16 1016/10
f 1017/20 1018/21 1019/22 1020/23
f 1018/24 1017/25 1021/26 1022/22
f 1017/12 1020/27 1023/28 1021/13
f 1020/27 1019/29 1024/23 1023/28
f 1019/29 1018/24 1022/22 1024/23
f 1022/20 1021/30 1023/28 1024/23

usemtl minecraft_block-deepslate

f 1/1 2/2 3/3 4/4
f 20/2 38/1 39/4 40/3
f 40/1 39/2 41/3 42/4
f 50/1 1/2 4/3 51/4
f 38/2 50/1 51/4 39/3
f 39/1 51/2 52/3 41/4
f 152/1 151/2 153/3 154/4
f 154/2 153/1 155/4 156/3
f 169/2 167/1 170/35 171/36
f 174/2 172/1 175/4 176/3
f 151/5 183/2 184/3 153/6
f 153/33 184/1 171/4 155/34
f 185/1 171/2 173/3 186/4
f 190/2 152/1 154/4 191/3
f 192/1 156/2 158/3 193/4
f 200/2 199/1 201/4 202/3
f 202/1 201/2 203/3 204/4
f 282/1 283/2 284/36 285/35
f 289/1 290/2 291/3 292/4
f 280/2 301/1 302/4 303/3
f 301/1 311/2 312/3 302/4
f 312/2 319/1 320/35 314/36
f 319/2 324/1 325/35 320/36
f 323/2 200/1 202/4 324/3
f 324/1 202/2 204/3 328/4
f 199/2 190/1 191/4 201/3
f 203/1 192/2 193/3 205/4
f 393/2 394/1 395/4 396/3
f 409/1 410/2 411/3 412/4
f 412/1 411/2 413/3 414/4
f 394/2 570/1 571/4 395/3
f 568/1 409/2 414/36 581/35
f 597/2 596/1 598/4 599/3
f 599/1 598/2 600/3 601/4
f 610/1 595/2 597/3 611/4
f 609/2 610/1 611/4 617/3
f 625/2 624/1 626/4 627/3
f 627/1 626/2 628/3 629/4
f 639/1 638/2 640/3 641/4
f 643/2 642/1 644/4 645/3
f 718/2 717/1 719/35 720/36
f 624/2 639/1 641/4 626/3
f 626/1 641/2 643/3 628/4
f 638/1 718/2 733/3 640/4
f 642/2 720/1 722/4 644/3
f 735/2 734/1 736/4 737/3
f 753/1 735/2 737/3 754/4
f 755/40 756/1 757/4 719/41
f 760/2 759/1 761/4 762/3
f 717/33 752/1 769/4 755/34
f 770/2 771/1 772/4 773/3
f 596/2 627/1 629/4 598/3
f 598/1 629/2 631/3 600/4
f 844/1 843/2 845/3 846/4
f 848/2 847/1 849/4 850/3
f 898/2 899/1 900/35 901/36
f 899/2 909/1 910/4 911/3
f 911/1 910/2 912/3 900/4
f 900/2 912/1 913/4 902/3
f 917/1 897/2 918/3 919/4
f 919/2 920/1 921/4 922/3
f 924/1 923/2 925/3 926/4
f 934/1 933/2 935/36 936/35
f 944/1 943/2 945/3 946/4
f 946/2 945/1 947/4 948/3
f 943/1 844/2 846/3 945/4
f 947/2 848/1 850/4 949/3
f 931/1 944/2 946/3 933/4
f 933/2 946/1 948/4 957/3
f 962/1 934/2 936/36 963/35
f 971/1 960/2 961/3 972/4
f 843/2 898/1 901/35 847/36
f 1086/2 1085/1 1087/4 1088/3
f 1088/1 1087/2 1089/3 1090/4
f 1083/2 1098/1 1099/35 1087/36
f 1107/1 1108/33 1109/34 1110/4
f 1134/2 1086/1 1088/4 1135/3
f 1135/1 1088/2 1090/3 1136/4
f 1181/2 1182/5 1183/6 1184/3
f 1184/1 1185/33 1186/34 1187/4
f 1188/2 1199/1 1200/4 1189/3
f 1205/1 1204/2 1206/3 1207/4
f 1209/2 1208/1 1210/4 1211/3
f 1204/2 1181/1 1184/4 1206/3
f 1206/1 1184/2 1187/3 1208/4
f 1098/2 1217/1 1218/35 1099/36
f 1217/1 1205/2 1207/3 1222/4
f 1218/2 1209/1 1211/4 1219/3
