# COMMON_MC_OBJ_START
# version: 1
# exporter: jmc2obj
# world_name: chicken_jockey
# world_path: /home/runner/work/map-objects/map-objects/map-fetcher/tmp/zzufx/zzuf-maps/cmp-fork-maps/chicken_jockey
# export_bounds_min: (-512, 0, -512)
# export_bounds_max: (495, 255, 495)
# export_offset: (0.000000, 0.000000, 0.000000)
# block_scale: 1.000000
# block_origin_offset: (-0.5, -0.5, -0.5)
# z_up: false
# texture_type: INDIVIDUAL_TILES
# has_split_blocks: false
# COMMON_MC_OBJ_END
mtllib minecraft.mtl

vt 0.250000000 1.000000000
vt 0.375000000 1.000000000
vt 0.375000000 0.875000000
vt 0.250000000 0.875000000
vt 0.375000000 0.750000000
vt 0.500000000 0.750000000
vt 0.500000000 0.875000000
vt 0.000000000 0.750000000
vt 0.125000000 0.750000000
vt 0.125000000 0.875000000
vt 0.000000000 0.875000000
vt 0.250000000 0.750000000
vt 0.125000000 1.000000000
vt 0.750000000 1.000000000
vt 0.875000000 1.000000000
vt 0.875000000 0.875000000
vt 0.750000000 0.875000000
vt 0.875000000 0.750000000
vt 1.000000000 0.750000000
vt 1.000000000 0.875000000
vt 0.625000000 0.750000000
vt 0.625000000 0.875000000
vt 0.750000000 0.750000000
vt 0.625000000 1.000000000
vt 0.000000000 0.000000000
vt 1.000000000 0.000000000
vt 1.000000000 1.000000000
vt 0.000000000 1.000000000
vt 0.000000000 0.562500000
vt 0.062500000 0.562500000
vt 0.062500000 0.750000000
vt 0.062500000 0.625000000
vt 0.000000000 0.625000000
vt 1.000000000 3.000000000
vt 0.000000000 3.000000000
vt 2.000000000 0.000000000
vt 2.000000000 1.000000000
vt 0.000000000 2.000000000
vt 1.000000000 2.000000000
vt -1.000000000 0.000000000
vt -1.000000000 2.000000000
vt -2.000000000 0.000000000
vt -2.000000000 1.000000000
vt -1.000000000 1.000000000
vt 3.000000000 0.000000000
vt 3.000000000 1.000000000
vt 0.000000000 -1.000000000
vt 1.000000000 -1.000000000
vt 4.000000000 0.000000000
vt 4.000000000 1.000000000
vt 2.000000000 2.000000000
vt 1.000000000 4.000000000
vt 0.000000000 4.000000000
vt 0.000000000 -2.000000000
vt 1.000000000 -2.000000000
vt 0.000000000 0.500000000
vt 0.500000000 0.500000000
vt 0.500000000 1.000000000
vt 0.500000000 0.000000000
vt -3.000000000 0.000000000
vt -3.000000000 1.000000000
v 4.354 66.500 3.000
v 4.000 66.500 3.354
v 3.646 66.500 3.000
v 4.000 66.500 2.646
v 4.354 67.000 3.000
v 4.000 67.000 3.354
v 4.000 67.000 2.646
v 3.646 67.000 3.000
v 4.377 66.484 3.000
v 4.000 66.484 3.377
v 3.623 66.484 3.000
v 4.000 66.484 2.623
v 4.377 67.016 3.000
v 4.000 67.016 3.377
v 4.000 67.016 2.623
v 3.623 67.016 3.000
v 0.477 66.500 -0.477
v -0.477 66.500 0.477
v -0.477 67.500 0.477
v 0.477 67.500 -0.477
v -0.477 66.500 -0.477
v 0.477 66.500 0.477
v 0.477 67.500 0.477
v -0.477 67.500 -0.477
v 1.477 66.500 -0.477
v 0.523 66.500 0.477
v 0.523 67.500 0.477
v 1.477 67.500 -0.477
v 0.523 66.500 -0.477
v 1.477 66.500 0.477
v 1.477 67.500 0.477
v 0.523 67.500 -0.477
v 2.477 66.500 -0.477
v 1.523 66.500 0.477
v 1.523 67.500 0.477
v 2.477 67.500 -0.477
v 1.523 66.500 -0.477
v 2.477 66.500 0.477
v 2.477 67.500 0.477
v 1.523 67.500 -0.477
v 4.477 66.500 -0.477
v 3.523 66.500 0.477
v 3.523 67.500 0.477
v 4.477 67.500 -0.477
v 3.523 66.500 -0.477
v 4.477 66.500 0.477
v 4.477 67.500 0.477
v 3.523 67.500 -0.477
v 0.477 66.500 0.523
v -0.477 66.500 1.477
v -0.477 67.500 1.477
v 0.477 67.500 0.523
v -0.477 66.500 0.523
v 0.477 66.500 1.477
v 0.477 67.500 1.477
v -0.477 67.500 0.523
v 1.477 66.500 0.523
v 0.523 66.500 1.477
v 0.523 67.500 1.477
v 1.477 67.500 0.523
v 0.523 66.500 0.523
v 1.477 66.500 1.477
v 1.477 67.500 1.477
v 0.523 67.500 0.523
v 2.477 66.500 0.523
v 1.523 66.500 1.477
v 1.523 67.500 1.477
v 2.477 67.500 0.523
v 1.523 66.500 0.523
v 2.477 66.500 1.477
v 2.477 67.500 1.477
v 1.523 67.500 0.523
v 3.197 66.500 1.427
v 3.241 66.500 1.383
v 3.241 66.687 1.383
v 3.197 66.687 1.427
v 3.197 66.500 1.383
v 3.241 66.500 1.427
v 3.241 66.687 1.427
v 3.197 66.687 1.383
v 3.385 66.500 1.182
v 3.429 66.500 1.138
v 3.429 66.687 1.138
v 3.385 66.687 1.182
v 3.385 66.500 1.138
v 3.429 66.500 1.182
v 3.429 66.687 1.182
v 3.385 66.687 1.138
v 3.076 66.500 1.116
v 3.120 66.500 1.071
v 3.120 66.687 1.071
v 3.076 66.687 1.116
v 3.076 66.500 1.071
v 3.120 66.500 1.116
v 3.120 66.687 1.116
v 3.076 66.687 1.071
v 4.573 66.500 1.197
v 4.617 66.500 1.241
v 4.617 66.687 1.241
v 4.573 66.687 1.197
v 4.617 66.500 1.197
v 4.573 66.500 1.241
v 4.573 66.687 1.241
v 4.617 66.687 1.197
v 4.818 66.500 1.385
v 4.862 66.500 1.429
v 4.862 66.687 1.429
v 4.818 66.687 1.385
v 4.862 66.500 1.385
v 4.818 66.500 1.429
v 4.818 66.687 1.429
v 4.862 66.687 1.385
v 4.884 66.500 1.076
v 4.929 66.500 1.120
v 4.929 66.687 1.120
v 4.884 66.687 1.076
v 4.929 66.500 1.076
v 4.884 66.500 1.120
v 4.884 66.687 1.120
v 4.929 66.687 1.076
v 5.243 66.500 1.195
v 5.199 66.500 1.239
v 5.199 66.563 1.239
v 5.243 66.563 1.195
v 5.199 66.500 1.195
v 5.243 66.500 1.239
v 5.243 66.563 1.239
v 5.199 66.563 1.195
v 5.573 66.500 1.197
v 5.617 66.500 1.241
v 5.617 66.687 1.241
v 5.573 66.687 1.197
v 5.617 66.500 1.197
v 5.573 66.500 1.241
v 5.573 66.687 1.241
v 5.617 66.687 1.197
v 5.818 66.500 1.385
v 5.862 66.500 1.429
v 5.862 66.687 1.429
v 5.818 66.687 1.385
v 5.862 66.500 1.385
v 5.818 66.500 1.429
v 5.818 66.687 1.429
v 5.862 66.687 1.385
v 5.884 66.500 1.076
v 5.929 66.500 1.120
v 5.929 66.687 1.120
v 5.884 66.687 1.076
v 5.929 66.500 1.076
v 5.884 66.500 1.120
v 5.884 66.687 1.120
v 5.929 66.687 1.076
v 1.477 66.500 1.523
v 0.523 66.500 2.477
v 0.523 67.500 2.477
v 1.477 67.500 1.523
v 0.523 66.500 1.523
v 1.477 66.500 2.477
v 1.477 67.500 2.477
v 0.523 67.500 1.523
v 2.477 66.500 1.523
v 1.523 66.500 2.477
v 1.523 67.500 2.477
v 2.477 67.500 1.523
v 1.523 66.500 1.523
v 2.477 66.500 2.477
v 2.477 67.500 2.477
v 1.523 67.500 1.523
v 3.197 66.500 2.427
v 3.241 66.500 2.383
v 3.241 66.687 2.383
v 3.197 66.687 2.427
v 3.197 66.500 2.383
v 3.241 66.500 2.427
v 3.241 66.687 2.427
v 3.197 66.687 2.383
v 3.385 66.500 2.182
v 3.429 66.500 2.138
v 3.429 66.687 2.138
v 3.385 66.687 2.182
v 3.385 66.500 2.138
v 3.429 66.500 2.182
v 3.429 66.687 2.182
v 3.385 66.687 2.138
v 3.076 66.500 2.116
v 3.120 66.500 2.071
v 3.120 66.687 2.071
v 3.076 66.687 2.116
v 3.076 66.500 2.071
v 3.120 66.500 2.116
v 3.120 66.687 2.116
v 3.076 66.687 2.071
v 3.195 66.500 1.757
v 3.239 66.500 1.801
v 3.239 66.563 1.801
v 3.195 66.563 1.757
v 3.195 66.500 1.801
v 3.239 66.500 1.757
v 3.239 66.563 1.757
v 3.195 66.563 1.801
v 3.803 66.500 1.573
v 3.759 66.500 1.617
v 3.759 66.687 1.617
v 3.803 66.687 1.573
v 3.803 66.500 1.617
v 3.759 66.500 1.573
v 3.759 66.687 1.573
v 3.803 66.687 1.617
v 3.615 66.500 1.818
v 3.571 66.500 1.862
v 3.571 66.687 1.862
v 3.615 66.687 1.818
v 3.615 66.500 1.862
v 3.571 66.500 1.818
v 3.571 66.687 1.818
v 3.615 66.687 1.862
v 3.924 66.500 1.884
v 3.880 66.500 1.929
v 3.880 66.687 1.929
v 3.924 66.687 1.884
v 3.924 66.500 1.929
v 3.880 66.500 1.884
v 3.880 66.687 1.884
v 3.924 66.687 1.929
v 4.573 66.500 2.197
v 4.617 66.500 2.241
v 4.617 66.687 2.241
v 4.573 66.687 2.197
v 4.617 66.500 2.197
v 4.573 66.500 2.241
v 4.573 66.687 2.241
v 4.617 66.687 2.197
v 4.818 66.500 2.385
v 4.862 66.500 2.429
v 4.862 66.687 2.429
v 4.818 66.687 2.385
v 4.862 66.500 2.385
v 4.818 66.500 2.429
v 4.818 66.687 2.429
v 4.862 66.687 2.385
v 4.884 66.500 2.076
v 4.929 66.500 2.120
v 4.929 66.687 2.120
v 4.884 66.687 2.076
v 4.929 66.500 2.076
v 4.884 66.500 2.120
v 4.884 66.687 2.120
v 4.929 66.687 2.076
v 6.477 66.500 1.523
v 5.523 66.500 2.477
v 5.523 67.500 2.477
v 6.477 67.500 1.523
v 5.523 66.500 1.523
v 6.477 66.500 2.477
v 6.477 67.500 2.477
v 5.523 67.500 1.523
v 0.477 66.500 2.523
v -0.477 66.500 3.477
v -0.477 67.500 3.477
v 0.477 67.500 2.523
v -0.477 66.500 2.523
v 0.477 66.500 3.477
v 0.477 67.500 3.477
v -0.477 67.500 2.523
v 1.477 66.500 2.523
v 0.523 66.500 3.477
v 0.523 67.500 3.477
v 1.477 67.500 2.523
v 0.523 66.500 2.523
v 1.477 66.500 3.477
v 1.477 67.500 3.477
v 0.523 67.500 2.523
v 2.477 66.500 2.523
v 1.523 66.500 3.477
v 1.523 67.500 3.477
v 2.477 67.500 2.523
v 1.523 66.500 2.523
v 2.477 66.500 3.477
v 2.477 67.500 3.477
v 1.523 67.500 2.523
v 2.803 66.500 2.573
v 2.759 66.500 2.617
v 2.759 66.687 2.617
v 2.803 66.687 2.573
v 2.803 66.500 2.617
v 2.759 66.500 2.573
v 2.759 66.687 2.573
v 2.803 66.687 2.617
v 2.615 66.500 2.818
v 2.571 66.500 2.862
v 2.571 66.687 2.862
v 2.615 66.687 2.818
v 2.615 66.500 2.862
v 2.571 66.500 2.818
v 2.571 66.687 2.818
v 2.615 66.687 2.862
v 2.924 66.500 2.884
v 2.880 66.500 2.929
v 2.880 66.687 2.929
v 2.924 66.687 2.884
v 2.924 66.500 2.929
v 2.880 66.500 2.884
v 2.880 66.687 2.884
v 2.924 66.687 2.929
v 5.477 66.500 2.523
v 4.523 66.500 3.477
v 4.523 67.500 3.477
v 5.477 67.500 2.523
v 4.523 66.500 2.523
v 5.477 66.500 3.477
v 5.477 67.500 3.477
v 4.523 67.500 2.523
v 1.477 66.500 3.523
v 0.523 66.500 4.477
v 0.523 67.500 4.477
v 1.477 67.500 3.523
v 0.523 66.500 3.523
v 1.477 66.500 4.477
v 1.477 67.500 4.477
v 0.523 67.500 3.523
v 3.477 66.500 3.523
v 2.523 66.500 4.477
v 2.523 67.500 4.477
v 3.477 67.500 3.523
v 2.523 66.500 3.523
v 3.477 66.500 4.477
v 3.477 67.500 4.477
v 2.523 67.500 3.523
v 4.477 66.500 3.523
v 3.523 66.500 4.477
v 3.523 67.500 4.477
v 4.477 67.500 3.523
v 3.523 66.500 3.523
v 4.477 66.500 4.477
v 4.477 67.500 4.477
v 3.523 67.500 3.523
v 3.477 66.500 4.523
v 2.523 66.500 5.477
v 2.523 67.500 5.477
v 3.477 67.500 4.523
v 2.523 66.500 4.523
v 3.477 66.500 5.477
v 3.477 67.500 5.477
v 2.523 67.500 4.523
v 5.500 57.500 2.500
v 6.500 57.500 2.500
v 6.500 58.500 2.500
v 5.500 58.500 2.500
v 6.500 59.500 2.500
v 5.500 59.500 2.500
v 6.500 60.500 2.500
v 5.500 60.500 2.500
v 6.500 61.500 2.500
v 5.500 61.500 2.500
v 6.500 62.500 2.500
v 5.500 62.500 2.500
v 6.500 65.500 2.500
v 5.500 65.500 2.500
v 6.500 66.500 2.500
v 5.500 66.500 2.500
v 6.500 57.500 1.500
v 6.500 57.500 -0.500
v 6.500 58.500 -0.500
v 6.500 58.500 1.500
v 6.500 58.500 0.500
v 6.500 60.500 -0.500
v 6.500 60.500 0.500
v 6.500 61.500 -0.500
v 6.500 61.500 0.500
v 6.500 61.500 0.500
v 6.500 62.500 -0.500
v 6.500 62.500 0.500
v 6.500 63.500 -0.500
v 6.500 63.500 0.500
v 6.500 63.500 1.500
v 6.500 65.500 -0.500
v 6.500 65.500 1.500
v 6.500 66.500 -0.500
v 6.500 58.500 0.500
v 6.500 59.500 0.500
v 6.500 60.500 1.500
v 6.500 61.500 1.500
v 6.500 63.500 0.500
v 6.500 62.500 1.500
v 5.500 57.500 3.500
v 5.500 58.500 3.500
v 5.500 59.500 3.500
v 5.500 60.500 3.500
v 5.500 61.500 3.500
v 5.500 62.500 3.500
v 5.500 65.500 3.500
v 5.500 66.500 3.500
v 4.500 57.500 4.500
v 4.500 57.500 3.500
v 4.500 58.500 3.500
v 4.500 58.500 4.500
v 4.500 59.500 3.500
v 4.500 59.500 4.500
v 4.500 60.500 3.500
v 4.500 60.500 4.500
v 4.500 61.500 3.500
v 4.500 61.500 4.500
v 4.500 62.500 3.500
v 4.500 62.500 4.500
v 4.500 63.500 3.500
v 4.500 63.500 4.500
v 4.500 65.500 3.500
v 4.500 65.500 4.500
v 4.500 66.500 3.500
v 4.500 66.500 4.500
v 0.500 66.500 -0.500
v -0.500 66.500 -0.500
v -0.500 66.500 0.500
v 0.500 66.500 0.500
v 0.500 66.500 -0.500
v 0.500 66.500 0.500
v 2.500 66.500 0.500
v 2.500 66.500 -0.500
v 3.500 66.500 0.500
v 3.500 66.500 -0.500
v 2.500 66.500 -0.500
v 2.500 66.500 0.500
v 3.500 66.500 0.500
v 6.500 66.500 0.500
v 3.500 66.500 -0.500
v -0.500 66.500 2.500
v 0.500 66.500 2.500
v 0.500 66.500 0.500
v -0.500 66.500 0.500
v 0.500 66.500 0.500
v 0.500 66.500 1.500
v 1.500 66.500 1.500
v 1.500 66.500 0.500
v 2.500 66.500 1.500
v 2.500 66.500 1.500
v 3.500 66.500 1.500
v 3.500 66.500 0.500
v 4.500 66.500 1.500
v 4.500 66.500 0.500
v 5.500 66.500 0.500
v 4.500 66.500 0.500
v 4.500 66.500 1.500
v 5.500 66.500 1.500
v 5.500 66.500 0.500
v 6.500 66.500 1.500
v 0.500 66.500 1.500
v 0.500 66.500 2.500
v 2.500 66.500 2.500
v 3.500 66.500 2.500
v 4.500 66.500 2.500
v 4.500 66.500 1.500
v 6.500 66.500 1.500
v 0.500 66.500 3.500
v 0.500 66.500 2.500
v -0.500 66.500 2.500
v -0.500 66.500 3.500
v 1.500 66.500 3.500
v 1.500 66.500 2.500
v 2.500 66.500 3.500
v 1.500 66.500 2.500
v 0.500 66.500 3.500
v -0.500 66.500 3.500
v -0.500 66.500 4.500
v 0.500 66.500 4.500
v 0.500 66.500 4.500
v 2.500 66.500 4.500
v 3.500 66.500 4.500
v 3.500 66.500 3.500
v -0.500 66.500 4.500
v -0.500 66.500 5.500
v 1.500 66.500 5.500
v 1.500 66.500 4.500
v 3.500 66.500 5.500
v -0.500 57.500 5.500
v 0.500 57.500 5.500
v 0.500 58.500 5.500
v -0.500 58.500 5.500
v -0.500 58.500 5.500
v 0.500 58.500 5.500
v 0.500 60.500 5.500
v -0.500 60.500 5.500
v -0.500 60.500 5.500
v 1.500 60.500 5.500
v 1.500 61.500 5.500
v -0.500 61.500 5.500
v 0.500 61.500 5.500
v 0.500 62.500 5.500
v -0.500 62.500 5.500
v 0.500 63.500 5.500
v -0.500 63.500 5.500
v -0.500 64.500 5.500
v 0.500 64.500 5.500
v -0.500 65.500 5.500
v 3.500 65.500 5.500
v 3.500 57.500 5.500
v 3.500 58.500 5.500
v 1.500 58.500 5.500
v 1.500 59.500 5.500
v 0.500 59.500 5.500
v 0.500 60.500 5.500
v 1.500 62.500 5.500
v 0.500 62.500 5.500
v 1.500 63.500 5.500
v 0.500 63.500 5.500
v 0.500 64.500 5.500
v 1.500 64.500 5.500
v 2.500 58.500 5.500
v 2.500 59.500 5.500
v 2.500 60.500 5.500
v 2.500 61.500 5.500
v 2.500 62.500 5.500
v 2.500 63.500 5.500
v 3.500 63.500 5.500
v 1.500 65.500 5.500
v 3.500 59.500 5.500
v 3.500 61.500 5.500
v 3.500 62.500 5.500
v 3.500 57.500 4.500
v 3.500 58.500 4.500
v 3.500 59.500 4.500
v 3.500 61.500 4.500
v 3.500 62.500 4.500
v 3.500 65.500 4.500
v 3.500 60.500 4.500
v 3.500 63.500 4.500
v 0.500 57.500 0.500
v -0.500 57.500 0.500
v -0.500 57.500 -0.500
v 0.500 57.500 -0.500
v 0.500 57.500 -0.500
v 1.500 57.500 -0.500
v 1.500 57.500 0.500
v 0.500 57.500 0.500
v 2.500 57.500 0.500
v 1.500 57.500 0.500
v 1.500 57.500 -0.500
v 2.500 57.500 -0.500
v 2.500 57.500 -0.500
v 3.500 57.500 -0.500
v 3.500 57.500 0.500
v 2.500 57.500 0.500
v 4.500 57.500 1.500
v 3.500 57.500 1.500
v 4.500 57.500 -0.500
v 4.500 57.500 -0.500
v 5.500 57.500 -0.500
v 6.500 57.500 0.500
v 5.500 57.500 0.500
v 1.500 57.500 1.500
v -0.500 57.500 1.500
v 1.500 57.500 0.500
v 3.500 57.500 0.500
v 3.500 57.500 2.500
v 1.500 57.500 2.500
v 5.500 57.500 0.500
v 5.500 57.500 1.500
v 0.500 57.500 2.500
v -0.500 57.500 2.500
v 0.500 57.500 1.500
v 5.500 57.500 1.500
v 0.500 57.500 4.500
v -0.500 57.500 4.500
v 0.500 57.500 2.500
v 3.500 57.500 3.500
v 0.500 57.500 3.500
v 1.500 57.500 4.500
v 1.500 57.500 3.500
v 1.500 57.500 3.500
v 2.500 57.500 3.500
v 2.500 57.500 4.500
v 2.500 57.500 5.500
v 0.500 57.500 4.500
v 3.500 66.687 1.000
v 3.000 66.687 1.000
v 3.000 66.687 1.500
v 3.500 66.687 1.500
v 5.000 66.687 1.500
v 5.000 66.687 1.000
v 4.500 66.687 1.000
v 4.500 66.687 1.500
v 6.000 66.687 1.500
v 6.000 66.687 1.000
v 5.500 66.687 1.000
v 5.500 66.687 1.500
v 3.500 66.687 2.000
v 3.000 66.687 2.000
v 3.000 66.687 2.500
v 3.500 66.687 2.500
v 4.000 66.687 2.000
v 4.000 66.687 1.500
v 5.000 66.687 2.500
v 5.000 66.687 2.000
v 4.500 66.687 2.000
v 4.500 66.687 2.500
v 2.500 66.687 3.000
v 3.000 66.687 3.000
v 2.500 66.687 2.500
v 5.500 66.563 1.500
v 5.500 66.563 1.000
v 5.000 66.563 1.000
v 5.000 66.563 1.500
v 3.500 66.563 1.500
v 3.000 66.563 1.500
v 3.000 66.563 2.000
v 3.500 66.563 2.000
v -0.500 70.500 -17.500
v -0.500 70.500 -16.500
v -0.500 71.500 -16.500
v -0.500 71.500 -17.500
v -0.500 72.500 -17.500
v -0.500 72.500 -16.500
v -0.500 73.500 -16.500
v -0.500 73.500 -17.500
v -0.500 74.500 -16.500
v -0.500 74.500 -17.500
v -0.500 75.500 -16.500
v -0.500 75.500 -17.500
v -0.500 76.500 -16.500
v -0.500 76.500 -17.500
v -0.500 77.500 -16.500
v -0.500 77.500 -17.500
v 1.500 69.500 -16.500
v 1.500 69.500 -17.500
v 1.500 70.500 -17.500
v 1.500 70.500 -16.500
v 1.500 75.500 -16.500
v 1.500 75.500 -17.500
v 1.500 76.500 -17.500
v 1.500 76.500 -16.500
v -0.500 69.500 -17.500
v -0.500 69.500 -16.500
v -0.500 70.500 -16.500
v -0.500 70.500 -17.500
v -0.500 71.500 -17.500
v -0.500 71.500 -16.500
v -0.500 72.500 -16.500
v -0.500 72.500 -17.500
v 0.500 77.500 -16.500
v 0.500 77.500 -17.500
v 0.500 77.500 -17.500
v 1.500 77.500 -16.500
v 1.500 77.500 -17.500
v 1.500 70.500 -17.500
v 1.500 71.500 -17.500
v 1.500 71.500 -16.500
v 1.500 72.500 -17.500
v 1.500 72.500 -16.500
v 1.500 73.500 -17.500
v 1.500 73.500 -16.500
v 1.500 74.500 -17.500
v 1.500 74.500 -16.500
v 1.500 75.500 -17.500
v 1.500 76.500 -17.500
v 0.500 69.500 -17.500
v 0.500 70.500 -17.500
v 0.500 71.500 -17.500
v 0.500 72.500 -17.500
v 0.500 73.500 -17.500
v 0.500 74.500 -17.500
v 0.500 75.500 -17.500
v 0.500 69.500 -17.500
v 0.500 70.500 -17.500
v 0.500 74.500 -17.500
v 0.500 75.500 -17.500
v 0.500 69.500 -16.500
v 4.000 66.500 -4.354
v 4.354 66.500 -4.000
v 4.000 66.500 -3.646
v 3.646 66.500 -4.000
v 4.000 67.000 -4.354
v 4.354 67.000 -4.000
v 3.646 67.000 -4.000
v 4.000 67.000 -3.646
v 4.000 66.484 -4.377
v 4.377 66.484 -4.000
v 4.000 66.484 -3.623
v 3.623 66.484 -4.000
v 4.000 67.016 -4.377
v 4.377 67.016 -4.000
v 3.623 67.016 -4.000
v 4.000 67.016 -3.623
v -0.500 70.500 -16.500
v -0.500 70.500 -15.500
v -0.500 71.500 -15.500
v -0.500 71.500 -16.500
v -0.500 72.500 -16.500
v -0.500 72.500 -15.500
v -0.500 73.500 -15.500
v -0.500 73.500 -16.500
v -0.500 75.500 -16.500
v -0.500 75.500 -15.500
v -0.500 76.500 -15.500
v -0.500 76.500 -16.500
v -0.500 76.500 -16.500
v -0.500 76.500 -15.500
v -0.500 77.500 -15.500
v -0.500 77.500 -16.500
v 1.500 70.500 -15.500
v 1.500 70.500 -16.500
v 1.500 71.500 -16.500
v 1.500 71.500 -15.500
v 1.500 72.500 -16.500
v 1.500 72.500 -15.500
v 1.500 73.500 -16.500
v 1.500 73.500 -15.500
v 1.500 74.500 -15.500
v 1.500 74.500 -16.500
v 1.500 75.500 -16.500
v 1.500 75.500 -15.500
v 2.197 66.500 -5.573
v 2.241 66.500 -5.617
v 2.241 66.687 -5.617
v 2.197 66.687 -5.573
v 2.197 66.500 -5.617
v 2.241 66.500 -5.573
v 2.241 66.687 -5.573
v 2.197 66.687 -5.617
v 2.385 66.500 -5.818
v 2.429 66.500 -5.862
v 2.429 66.687 -5.862
v 2.385 66.687 -5.818
v 2.385 66.500 -5.862
v 2.429 66.500 -5.818
v 2.429 66.687 -5.818
v 2.385 66.687 -5.862
v 2.076 66.500 -5.884
v 2.120 66.500 -5.929
v 2.120 66.687 -5.929
v 2.076 66.687 -5.884
v 2.076 66.500 -5.929
v 2.120 66.500 -5.884
v 2.120 66.687 -5.884
v 2.076 66.687 -5.929
v 3.477 66.500 -6.477
v 2.523 66.500 -5.523
v 2.523 67.500 -5.523
v 3.477 67.500 -6.477
v 2.523 66.500 -6.477
v 3.477 66.500 -5.523
v 3.477 67.500 -5.523
v 2.523 67.500 -6.477
v 0.477 66.500 -5.477
v -0.477 66.500 -4.523
v -0.477 67.500 -4.523
v 0.477 67.500 -5.477
v -0.477 66.500 -5.477
v 0.477 66.500 -4.523
v 0.477 67.500 -4.523
v -0.477 67.500 -5.477
v 2.197 66.500 -4.573
v 2.241 66.500 -4.617
v 2.241 66.687 -4.617
v 2.197 66.687 -4.573
v 2.197 66.500 -4.617
v 2.241 66.500 -4.573
v 2.241 66.687 -4.573
v 2.197 66.687 -4.617
v 2.385 66.500 -4.818
v 2.429 66.500 -4.862
v 2.429 66.687 -4.862
v 2.385 66.687 -4.818
v 2.385 66.500 -4.862
v 2.429 66.500 -4.818
v 2.429 66.687 -4.818
v 2.385 66.687 -4.862
v 2.076 66.500 -4.884
v 2.120 66.500 -4.929
v 2.120 66.687 -4.929
v 2.076 66.687 -4.884
v 2.076 66.500 -4.929
v 2.120 66.500 -4.884
v 2.120 66.687 -4.884
v 2.076 66.687 -4.929
v 2.195 66.500 -5.243
v 2.239 66.500 -5.199
v 2.239 66.563 -5.199
v 2.195 66.563 -5.243
v 2.195 66.500 -5.199
v 2.239 66.500 -5.243
v 2.239 66.563 -5.243
v 2.195 66.563 -5.199
v 3.197 66.500 -4.573
v 3.241 66.500 -4.617
v 3.241 66.687 -4.617
v 3.197 66.687 -4.573
v 3.197 66.500 -4.617
v 3.241 66.500 -4.573
v 3.241 66.687 -4.573
v 3.197 66.687 -4.617
v 3.385 66.500 -4.818
v 3.429 66.500 -4.862
v 3.429 66.687 -4.862
v 3.385 66.687 -4.818
v 3.385 66.500 -4.862
v 3.429 66.500 -4.818
v 3.429 66.687 -4.818
v 3.385 66.687 -4.862
v 3.076 66.500 -4.884
v 3.120 66.500 -4.929
v 3.120 66.687 -4.929
v 3.076 66.687 -4.884
v 3.076 66.500 -4.929
v 3.120 66.500 -4.884
v 3.120 66.687 -4.884
v 3.076 66.687 -4.929
v 4.477 66.500 -5.477
v 3.523 66.500 -4.523
v 3.523 67.500 -4.523
v 4.477 67.500 -5.477
v 3.523 66.500 -5.477
v 4.477 66.500 -4.523
v 4.477 67.500 -4.523
v 3.523 67.500 -5.477
v 0.477 66.500 -4.477
v -0.477 66.500 -3.523
v -0.477 67.500 -3.523
v 0.477 67.500 -4.477
v -0.477 66.500 -4.477
v 0.477 66.500 -3.523
v 0.477 67.500 -3.523
v -0.477 67.500 -4.477
v 1.477 66.500 -4.477
v 0.523 66.500 -3.523
v 0.523 67.500 -3.523
v 1.477 67.500 -4.477
v 0.523 66.500 -4.477
v 1.477 66.500 -3.523
v 1.477 67.500 -3.523
v 0.523 67.500 -4.477
v 2.573 66.500 -3.803
v 2.617 66.500 -3.759
v 2.617 66.687 -3.759
v 2.573 66.687 -3.803
v 2.617 66.500 -3.803
v 2.573 66.500 -3.759
v 2.573 66.687 -3.759
v 2.617 66.687 -3.803
v 2.818 66.500 -3.615
v 2.862 66.500 -3.571
v 2.862 66.687 -3.571
v 2.818 66.687 -3.615
v 2.862 66.500 -3.615
v 2.818 66.500 -3.571
v 2.818 66.687 -3.571
v 2.862 66.687 -3.615
v 2.884 66.500 -3.924
v 2.929 66.500 -3.880
v 2.929 66.687 -3.880
v 2.884 66.687 -3.924
v 2.929 66.500 -3.924
v 2.884 66.500 -3.880
v 2.884 66.687 -3.880
v 2.929 66.687 -3.924
v 5.477 66.500 -4.477
v 4.523 66.500 -3.523
v 4.523 67.500 -3.523
v 5.477 67.500 -4.477
v 4.523 66.500 -4.477
v 5.477 66.500 -3.523
v 5.477 67.500 -3.523
v 4.523 67.500 -4.477
v 0.477 66.500 -3.477
v -0.477 66.500 -2.523
v -0.477 67.500 -2.523
v 0.477 67.500 -3.477
v -0.477 66.500 -3.477
v 0.477 66.500 -2.523
v 0.477 67.500 -2.523
v -0.477 67.500 -3.477
v 2.427 66.500 -3.197
v 2.383 66.500 -3.241
v 2.383 66.687 -3.241
v 2.427 66.687 -3.197
v 2.383 66.500 -3.197
v 2.427 66.500 -3.241
v 2.427 66.687 -3.241
v 2.383 66.687 -3.197
v 2.182 66.500 -3.385
v 2.138 66.500 -3.429
v 2.138 66.687 -3.429
v 2.182 66.687 -3.385
v 2.138 66.500 -3.385
v 2.182 66.500 -3.429
v 2.182 66.687 -3.429
v 2.138 66.687 -3.385
v 2.116 66.500 -3.076
v 2.071 66.500 -3.120
v 2.071 66.687 -3.120
v 2.116 66.687 -3.076
v 2.071 66.500 -3.076
v 2.116 66.500 -3.120
v 2.116 66.687 -3.120
v 2.071 66.687 -3.076
v 3.427 66.500 -3.197
v 3.383 66.500 -3.241
v 3.383 66.687 -3.241
v 3.427 66.687 -3.197
v 3.383 66.500 -3.197
v 3.427 66.500 -3.241
v 3.427 66.687 -3.241
v 3.383 66.687 -3.197
v 3.182 66.500 -3.385
v 3.138 66.500 -3.429
v 3.138 66.687 -3.429
v 3.182 66.687 -3.385
v 3.138 66.500 -3.385
v 3.182 66.500 -3.429
v 3.182 66.687 -3.429
v 3.138 66.687 -3.385
v 3.116 66.500 -3.076
v 3.071 66.500 -3.120
v 3.071 66.687 -3.120
v 3.116 66.687 -3.076
v 3.071 66.500 -3.076
v 3.116 66.500 -3.120
v 3.116 66.687 -3.120
v 3.071 66.687 -3.076
v 2.757 66.500 -3.195
v 2.801 66.500 -3.239
v 2.801 66.563 -3.239
v 2.757 66.563 -3.195
v 2.801 66.500 -3.195
v 2.757 66.500 -3.239
v 2.757 66.563 -3.239
v 2.801 66.563 -3.195
v 3.573 66.500 -2.803
v 3.617 66.500 -2.759
v 3.617 66.687 -2.759
v 3.573 66.687 -2.803
v 3.617 66.500 -2.803
v 3.573 66.500 -2.759
v 3.573 66.687 -2.759
v 3.617 66.687 -2.803
v 3.818 66.500 -2.615
v 3.862 66.500 -2.571
v 3.862 66.687 -2.571
v 3.818 66.687 -2.615
v 3.862 66.500 -2.615
v 3.818 66.500 -2.571
v 3.818 66.687 -2.571
v 3.862 66.687 -2.615
v 3.884 66.500 -2.924
v 3.929 66.500 -2.880
v 3.929 66.687 -2.880
v 3.884 66.687 -2.924
v 3.929 66.500 -2.924
v 3.884 66.500 -2.880
v 3.884 66.687 -2.880
v 3.929 66.687 -2.924
v 5.477 66.500 -3.477
v 4.523 66.500 -2.523
v 4.523 67.500 -2.523
v 5.477 67.500 -3.477
v 4.523 66.500 -3.477
v 5.477 66.500 -2.523
v 5.477 67.500 -2.523
v 4.523 67.500 -3.477
v 6.477 66.500 -3.477
v 5.523 66.500 -2.523
v 5.523 67.500 -2.523
v 6.477 67.500 -3.477
v 5.523 66.500 -3.477
v 6.477 66.500 -2.523
v 6.477 67.500 -2.523
v 5.523 67.500 -3.477
v 0.477 66.500 -2.477
v -0.477 66.500 -1.523
v -0.477 67.500 -1.523
v 0.477 67.500 -2.477
v -0.477 66.500 -2.477
v 0.477 66.500 -1.523
v 0.477 67.500 -1.523
v -0.477 67.500 -2.477
v 1.477 66.500 -2.477
v 0.523 66.500 -1.523
v 0.523 67.500 -1.523
v 1.477 67.500 -2.477
v 0.523 66.500 -2.477
v 1.477 66.500 -1.523
v 1.477 67.500 -1.523
v 0.523 67.500 -2.477
v 2.477 66.500 -2.477
v 1.523 66.500 -1.523
v 1.523 67.500 -1.523
v 2.477 67.500 -2.477
v 1.523 66.500 -2.477
v 2.477 66.500 -1.523
v 2.477 67.500 -1.523
v 1.523 67.500 -2.477
v 3.477 66.500 -2.477
v 2.523 66.500 -1.523
v 2.523 67.500 -1.523
v 3.477 67.500 -2.477
v 2.523 66.500 -2.477
v 3.477 66.500 -1.523
v 3.477 67.500 -1.523
v 2.523 67.500 -2.477
v 4.477 66.500 -2.477
v 3.523 66.500 -1.523
v 3.523 67.500 -1.523
v 4.477 67.500 -2.477
v 3.523 66.500 -2.477
v 4.477 66.500 -1.523
v 4.477 67.500 -1.523
v 3.523 67.500 -2.477
v 0.477 66.500 -1.477
v -0.477 66.500 -0.523
v -0.477 67.500 -0.523
v 0.477 67.500 -1.477
v -0.477 66.500 -1.477
v 0.477 66.500 -0.523
v 0.477 67.500 -0.523
v -0.477 67.500 -1.477
v 1.477 66.500 -1.477
v 0.523 66.500 -0.523
v 0.523 67.500 -0.523
v 1.477 67.500 -1.477
v 0.523 66.500 -1.477
v 1.477 66.500 -0.523
v 1.477 67.500 -0.523
v 0.523 67.500 -1.477
v 2.477 66.500 -1.477
v 1.523 66.500 -0.523
v 1.523 67.500 -0.523
v 2.477 67.500 -1.477
v 1.523 66.500 -1.477
v 2.477 66.500 -0.523
v 2.477 67.500 -0.523
v 1.523 67.500 -1.477
v 3.477 66.500 -1.477
v 2.523 66.500 -0.523
v 2.523 67.500 -0.523
v 3.477 67.500 -1.477
v 2.523 66.500 -1.477
v 3.477 66.500 -0.523
v 3.477 67.500 -0.523
v 2.523 67.500 -1.477
v 4.477 66.500 -1.477
v 3.523 66.500 -0.523
v 3.523 67.500 -0.523
v 4.477 67.500 -1.477
v 3.523 66.500 -1.477
v 4.477 66.500 -0.523
v 4.477 67.500 -0.523
v 3.523 67.500 -1.477
v 5.477 66.500 -1.477
v 4.523 66.500 -0.523
v 4.523 67.500 -0.523
v 5.477 67.500 -1.477
v 4.523 66.500 -1.477
v 5.477 66.500 -0.523
v 5.477 67.500 -0.523
v 4.523 67.500 -1.477
v 0.500 69.500 -15.500
v -0.500 69.500 -15.500
v -0.500 69.500 -16.500
v 0.500 69.500 -16.500
v 1.500 69.500 -15.500
v 1.500 69.500 -16.500
v -0.500 57.500 -6.500
v 0.500 57.500 -6.500
v 0.500 57.500 -4.500
v -0.500 57.500 -4.500
v 0.500 57.500 -6.500
v 1.500 57.500 -6.500
v 1.500 57.500 -5.500
v 0.500 57.500 -5.500
v 2.500 57.500 -6.500
v 2.500 57.500 -5.500
v 3.500 57.500 -6.500
v 3.500 57.500 -5.500
v 1.500 57.500 -4.500
v 0.500 57.500 -4.500
v 1.500 57.500 -5.500
v 3.500 57.500 -4.500
v 4.500 57.500 -4.500
v 4.500 57.500 -5.500
v 0.500 57.500 -3.500
v -0.500 57.500 -3.500
v -0.500 57.500 -4.500
v 0.500 57.500 -4.500
v 2.500 57.500 -4.500
v 2.500 57.500 -3.500
v 4.500 57.500 -3.500
v 5.500 57.500 -4.500
v 5.500 57.500 -3.500
v -0.500 57.500 -3.500
v 1.500 57.500 -3.500
v 1.500 57.500 -2.500
v -0.500 57.500 -2.500
v 2.500 57.500 -2.500
v 3.500 57.500 -2.500
v 3.500 57.500 -3.500
v 4.500 57.500 -2.500
v 5.500 57.500 -2.500
v 6.500 57.500 -3.500
v 6.500 57.500 -2.500
v -0.500 57.500 -2.500
v 0.500 57.500 -2.500
v 0.500 57.500 -1.500
v -0.500 57.500 -1.500
v 0.500 57.500 -2.500
v 1.500 57.500 -2.500
v 1.500 57.500 -0.500
v 0.500 57.500 -0.500
v 2.500 57.500 -0.500
v 3.500 57.500 -0.500
v 2.500 57.500 -0.500
v 4.500 57.500 -1.500
v 3.500 57.500 -1.500
v 5.500 57.500 -1.500
v 4.500 57.500 -1.500
v 6.500 57.500 -1.500
v 0.500 57.500 -0.500
v -0.500 57.500 -0.500
v -0.500 57.500 -1.500
v 0.500 57.500 -1.500
v 5.500 57.500 -0.500
v 6.500 57.500 -0.500
v 5.500 57.500 -0.500
v 2.500 66.563 -5.500
v 2.000 66.563 -5.500
v 2.000 66.563 -5.000
v 2.500 66.563 -5.000
v 2.500 66.563 -3.500
v 2.500 66.563 -3.000
v 3.000 66.563 -3.000
v 3.000 66.563 -3.500
v 0.500 70.500 -15.500
v -0.500 70.500 -15.500
v 0.500 70.500 -15.500
v 0.500 71.500 -15.500
v -0.500 71.500 -15.500
v 0.500 71.500 -15.500
v 0.500 72.500 -15.500
v -0.500 73.500 -15.500
v 0.500 73.500 -15.500
v 0.500 75.500 -15.500
v -0.500 75.500 -15.500
v 1.500 76.500 -15.500
v 1.500 77.500 -15.500
v 0.500 72.500 -15.500
v 0.500 73.500 -15.500
v 0.500 74.500 -15.500
v -0.500 70.500 -16.500
v -0.500 71.500 -16.500
v -0.500 72.500 -15.500
v -0.500 72.500 -16.500
v -0.500 73.500 -16.500
v 0.500 77.500 -15.500
v 0.500 77.500 -16.500
v 0.500 77.500 -15.500
v 1.500 77.500 -16.500
v 0.500 77.500 -16.500
v 6.500 58.500 -3.500
v 6.500 58.500 -2.500
v 6.500 59.500 -3.500
v 6.500 59.500 -2.500
v 6.500 60.500 -3.500
v 6.500 60.500 -2.500
v 6.500 61.500 -3.500
v 6.500 61.500 -2.500
v 6.500 62.500 -3.500
v 6.500 62.500 -2.500
v 6.500 65.500 -3.500
v 6.500 65.500 -2.500
v 6.500 65.500 -0.500
v 6.500 66.500 -3.500
v 6.500 66.500 -0.500
v 6.500 58.500 -0.500
v 6.500 58.500 -1.500
v 6.500 59.500 -1.500
v 6.500 61.500 -1.500
v 6.500 62.500 -1.500
v 6.500 63.500 -2.500
v 6.500 63.500 -1.500
v 6.500 65.500 -1.500
v 6.500 59.500 -0.500
v 6.500 60.500 -1.500
v 6.500 60.500 -0.500
v 6.500 61.500 -0.500
v 6.500 62.500 -0.500
v 6.500 65.500 -1.500
v 6.500 65.500 -0.500
v 5.500 58.500 -4.500
v 5.500 58.500 -3.500
v 5.500 59.500 -4.500
v 5.500 59.500 -3.500
v 5.500 60.500 -4.500
v 5.500 60.500 -3.500
v 5.500 61.500 -4.500
v 5.500 61.500 -3.500
v 5.500 63.500 -4.500
v 5.500 63.500 -3.500
v 5.500 65.500 -4.500
v 5.500 65.500 -3.500
v 5.500 66.500 -4.500
v 5.500 66.500 -3.500
v 4.500 58.500 -5.500
v 4.500 58.500 -4.500
v 4.500 59.500 -5.500
v 4.500 59.500 -4.500
v 4.500 60.500 -5.500
v 4.500 60.500 -4.500
v 4.500 61.500 -5.500
v 4.500 61.500 -4.500
v 4.500 62.500 -5.500
v 4.500 62.500 -4.500
v 4.500 65.500 -5.500
v 4.500 65.500 -4.500
v 4.500 66.500 -5.500
v 4.500 66.500 -4.500
v 0.500 66.500 -5.500
v 0.500 66.500 -6.500
v -0.500 66.500 -6.500
v -0.500 66.500 -5.500
v 0.500 66.500 -6.500
v 1.500 66.500 -5.500
v 1.500 66.500 -6.500
v 2.500 66.500 -6.500
v 1.500 66.500 -6.500
v 2.500 66.500 -5.500
v 3.500 66.500 -5.500
v 3.500 66.500 -6.500
v -0.500 66.500 -5.500
v -0.500 66.500 -4.500
v 1.500 66.500 -4.500
v 2.500 66.500 -4.500
v 1.500 66.500 -5.500
v 3.500 66.500 -4.500
v 0.500 66.500 -4.500
v -0.500 66.500 -4.500
v -0.500 66.500 -3.500
v 0.500 66.500 -3.500
v 0.500 66.500 -3.500
v 1.500 66.500 -3.500
v 2.500 66.500 -3.500
v 3.500 66.500 -3.500
v -0.500 66.500 -1.500
v 0.500 66.500 -1.500
v -0.500 66.500 -3.500
v 1.500 66.500 -3.500
v 0.500 66.500 -3.500
v 0.500 66.500 -2.500
v 1.500 66.500 -2.500
v 3.500 66.500 -2.500
v 4.500 66.500 -2.500
v 4.500 66.500 -3.500
v 5.500 66.500 -2.500
v 6.500 66.500 -2.500
v 1.500 66.500 -1.500
v 0.500 66.500 -2.500
v 0.500 66.500 -1.500
v 1.500 66.500 -1.500
v 2.500 66.500 -1.500
v 2.500 66.500 -2.500
v 3.500 66.500 -0.500
v 2.500 66.500 -0.500
v 3.500 66.500 -1.500
v 5.500 66.500 -1.500
v 5.500 66.500 -1.500
v 6.500 66.500 -1.500
v 0.500 66.500 -0.500
v 0.500 66.500 -1.500
v -0.500 66.500 -1.500
v -0.500 66.500 -0.500
v 0.500 66.500 -0.500
v 1.500 66.500 -0.500
v 1.500 66.500 -1.500
v 1.500 66.500 -0.500
v 2.500 66.500 -0.500
v 4.500 66.500 -1.500
v 3.500 66.500 -0.500
v 4.500 66.500 -0.500
v 5.500 66.500 -0.500
v 4.500 66.500 -0.500
v 5.500 66.500 -0.500
v 3.500 58.500 -6.500
v 3.500 58.500 -5.500
v 3.500 60.500 -6.500
v 3.500 60.500 -5.500
v 3.500 61.500 -6.500
v 3.500 61.500 -5.500
v 3.500 62.500 -6.500
v 3.500 62.500 -5.500
v 3.500 65.500 -6.500
v 3.500 65.500 -5.500
v 1.500 70.500 -16.500
v 1.500 73.500 -16.500
v 1.500 74.500 -16.500
v 1.500 75.500 -16.500
v 1.500 76.500 -16.500
v 4.500 63.500 -4.500
v 3.500 59.500 -5.500
v -0.500 58.500 -6.500
v 0.500 58.500 -6.500
v -0.500 59.500 -6.500
v 0.500 59.500 -6.500
v -0.500 59.500 -6.500
v -0.500 60.500 -6.500
v 0.500 60.500 -6.500
v 0.500 61.500 -6.500
v -0.500 61.500 -6.500
v 0.500 62.500 -6.500
v -0.500 62.500 -6.500
v 0.500 63.500 -6.500
v -0.500 63.500 -6.500
v 3.500 64.500 -6.500
v -0.500 64.500 -6.500
v -0.500 65.500 -6.500
v -0.500 65.500 -6.500
v 0.500 58.500 -6.500
v 1.500 58.500 -6.500
v 1.500 58.500 -6.500
v 1.500 59.500 -6.500
v 3.500 59.500 -6.500
v 0.500 59.500 -6.500
v 0.500 60.500 -6.500
v 1.500 60.500 -6.500
v 0.500 61.500 -6.500
v 1.500 61.500 -6.500
v 0.500 62.500 -6.500
v 1.500 62.500 -6.500
v 1.500 62.500 -6.500
v 0.500 62.500 -6.500
v 1.500 63.500 -6.500
v 3.500 63.500 -6.500
v 0.500 64.500 -6.500
v 2.500 58.500 -6.500
v 1.500 59.500 -6.500
v 2.500 60.500 -6.500
v 1.500 60.500 -6.500
v 1.500 61.500 -6.500
v 2.500 61.500 -6.500
v 2.500 63.500 -6.500
v 2.500 62.500 -6.500
v 2.500 66.687 -6.000
v 2.000 66.687 -6.000
v 2.000 66.687 -5.500
v 2.500 66.687 -5.500
v 2.500 66.687 -5.000
v 2.000 66.687 -5.000
v 2.000 66.687 -4.500
v 2.500 66.687 -4.500
v 3.500 66.687 -5.000
v 3.000 66.687 -5.000
v 3.000 66.687 -4.500
v 3.500 66.687 -4.500
v 3.000 66.687 -3.500
v 3.000 66.687 -4.000
v 2.500 66.687 -4.000
v 2.500 66.687 -3.500
v 2.000 66.687 -3.500
v 2.000 66.687 -3.000
v 2.500 66.687 -3.000
v 3.000 66.687 -3.000
v 3.500 66.687 -3.000
v 3.500 66.687 -3.500
v 4.000 66.687 -2.500
v 4.000 66.687 -3.000
v 3.500 66.687 -2.500
v 5.500 62.500 -3.500
v -3.354 66.500 -4.000
v -3.000 66.500 -4.354
v -2.646 66.500 -4.000
v -3.000 66.500 -3.646
v -3.354 67.000 -4.000
v -3.000 67.000 -4.354
v -3.000 67.000 -3.646
v -2.646 67.000 -4.000
v -3.377 66.484 -4.000
v -3.000 66.484 -4.377
v -2.623 66.484 -4.000
v -3.000 66.484 -3.623
v -3.377 67.016 -4.000
v -3.000 67.016 -4.377
v -3.000 67.016 -3.623
v -2.623 67.016 -4.000
v -1.523 66.500 -6.477
v -2.477 66.500 -5.523
v -2.477 67.500 -5.523
v -1.523 67.500 -6.477
v -2.477 66.500 -6.477
v -1.523 66.500 -5.523
v -1.523 67.500 -5.523
v -2.477 67.500 -6.477
v -2.523 66.500 -5.477
v -3.477 66.500 -4.523
v -3.477 67.500 -4.523
v -2.523 67.500 -5.477
v -3.477 66.500 -5.477
v -2.523 66.500 -4.523
v -2.523 67.500 -4.523
v -3.477 67.500 -5.477
v -1.523 66.500 -5.477
v -2.477 66.500 -4.523
v -2.477 67.500 -4.523
v -1.523 67.500 -5.477
v -2.477 66.500 -5.477
v -1.523 66.500 -4.523
v -1.523 67.500 -4.523
v -2.477 67.500 -5.477
v -3.523 66.500 -4.477
v -4.477 66.500 -3.523
v -4.477 67.500 -3.523
v -3.523 67.500 -4.477
v -4.477 66.500 -4.477
v -3.523 66.500 -3.523
v -3.523 67.500 -3.523
v -4.477 67.500 -4.477
v -1.803 66.500 -3.573
v -1.759 66.500 -3.617
v -1.759 66.687 -3.617
v -1.803 66.687 -3.573
v -1.803 66.500 -3.617
v -1.759 66.500 -3.573
v -1.759 66.687 -3.573
v -1.803 66.687 -3.617
v -1.615 66.500 -3.818
v -1.571 66.500 -3.862
v -1.571 66.687 -3.862
v -1.615 66.687 -3.818
v -1.615 66.500 -3.862
v -1.571 66.500 -3.818
v -1.571 66.687 -3.818
v -1.615 66.687 -3.862
v -1.924 66.500 -3.884
v -1.880 66.500 -3.929
v -1.880 66.687 -3.929
v -1.924 66.687 -3.884
v -1.924 66.500 -3.929
v -1.880 66.500 -3.884
v -1.880 66.687 -3.884
v -1.924 66.687 -3.929
v -0.523 66.500 -4.477
v -1.477 66.500 -3.523
v -1.477 67.500 -3.523
v -0.523 67.500 -4.477
v -1.477 66.500 -4.477
v -0.523 66.500 -3.523
v -0.523 67.500 -3.523
v -1.477 67.500 -4.477
v -4.523 66.500 -3.477
v -5.477 66.500 -2.523
v -5.477 67.500 -2.523
v -4.523 67.500 -3.477
v -5.477 66.500 -3.477
v -4.523 66.500 -2.523
v -4.523 67.500 -2.523
v -5.477 67.500 -3.477
v -3.573 66.500 -3.197
v -3.617 66.500 -3.241
v -3.617 66.687 -3.241
v -3.573 66.687 -3.197
v -3.617 66.500 -3.197
v -3.573 66.500 -3.241
v -3.573 66.687 -3.241
v -3.617 66.687 -3.197
v -3.818 66.500 -3.385
v -3.862 66.500 -3.429
v -3.862 66.687 -3.429
v -3.818 66.687 -3.385
v -3.862 66.500 -3.385
v -3.818 66.500 -3.429
v -3.818 66.687 -3.429
v -3.862 66.687 -3.385
v -3.884 66.500 -3.076
v -3.929 66.500 -3.120
v -3.929 66.687 -3.120
v -3.884 66.687 -3.076
v -3.929 66.500 -3.076
v -3.884 66.500 -3.120
v -3.884 66.687 -3.120
v -3.929 66.687 -3.076
v -2.803 66.500 -2.573
v -2.759 66.500 -2.617
v -2.759 66.687 -2.617
v -2.803 66.687 -2.573
v -2.803 66.500 -2.617
v -2.759 66.500 -2.573
v -2.759 66.687 -2.573
v -2.803 66.687 -2.617
v -2.615 66.500 -2.818
v -2.571 66.500 -2.862
v -2.571 66.687 -2.862
v -2.615 66.687 -2.818
v -2.615 66.500 -2.862
v -2.571 66.500 -2.818
v -2.571 66.687 -2.818
v -2.615 66.687 -2.862
v -2.924 66.500 -2.884
v -2.880 66.500 -2.929
v -2.880 66.687 -2.929
v -2.924 66.687 -2.884
v -2.924 66.500 -2.929
v -2.880 66.500 -2.884
v -2.880 66.687 -2.884
v -2.924 66.687 -2.929
v -2.197 66.500 -3.427
v -2.241 66.500 -3.383
v -2.241 66.687 -3.383
v -2.197 66.687 -3.427
v -2.197 66.500 -3.383
v -2.241 66.500 -3.427
v -2.241 66.687 -3.427
v -2.197 66.687 -3.383
v -2.385 66.500 -3.182
v -2.429 66.500 -3.138
v -2.429 66.687 -3.138
v -2.385 66.687 -3.182
v -2.385 66.500 -3.138
v -2.429 66.500 -3.182
v -2.429 66.687 -3.182
v -2.385 66.687 -3.138
v -2.076 66.500 -3.116
v -2.120 66.500 -3.071
v -2.120 66.687 -3.071
v -2.076 66.687 -3.116
v -2.076 66.500 -3.071
v -2.120 66.500 -3.116
v -2.120 66.687 -3.116
v -2.076 66.687 -3.071
v -2.195 66.500 -2.757
v -2.239 66.500 -2.801
v -2.239 66.563 -2.801
v -2.195 66.563 -2.757
v -2.195 66.500 -2.801
v -2.239 66.500 -2.757
v -2.239 66.563 -2.757
v -2.195 66.563 -2.801
v -0.523 66.500 -3.477
v -1.477 66.500 -2.523
v -1.477 67.500 -2.523
v -0.523 67.500 -3.477
v -1.477 66.500 -3.477
v -0.523 66.500 -2.523
v -0.523 67.500 -2.523
v -1.477 67.500 -3.477
v -4.573 66.500 -2.197
v -4.617 66.500 -2.241
v -4.617 66.687 -2.241
v -4.573 66.687 -2.197
v -4.617 66.500 -2.197
v -4.573 66.500 -2.241
v -4.573 66.687 -2.241
v -4.617 66.687 -2.197
v -4.818 66.500 -2.385
v -4.862 66.500 -2.429
v -4.862 66.687 -2.429
v -4.818 66.687 -2.385
v -4.862 66.500 -2.385
v -4.818 66.500 -2.429
v -4.818 66.687 -2.429
v -4.862 66.687 -2.385
v -4.884 66.500 -2.076
v -4.929 66.500 -2.120
v -4.929 66.687 -2.120
v -4.884 66.687 -2.076
v -4.929 66.500 -2.076
v -4.884 66.500 -2.120
v -4.884 66.687 -2.120
v -4.929 66.687 -2.076
v -3.573 66.500 -2.197
v -3.617 66.500 -2.241
v -3.617 66.687 -2.241
v -3.573 66.687 -2.197
v -3.617 66.500 -2.197
v -3.573 66.500 -2.241
v -3.573 66.687 -2.241
v -3.617 66.687 -2.197
v -3.818 66.500 -2.385
v -3.862 66.500 -2.429
v -3.862 66.687 -2.429
v -3.818 66.687 -2.385
v -3.862 66.500 -2.385
v -3.818 66.500 -2.429
v -3.818 66.687 -2.429
v -3.862 66.687 -2.385
v -3.884 66.500 -2.076
v -3.929 66.500 -2.120
v -3.929 66.687 -2.120
v -3.884 66.687 -2.076
v -3.929 66.500 -2.076
v -3.884 66.500 -2.120
v -3.884 66.687 -2.120
v -3.929 66.687 -2.076
v -4.243 66.500 -2.195
v -4.199 66.500 -2.239
v -4.199 66.563 -2.239
v -4.243 66.563 -2.195
v -4.199 66.500 -2.195
v -4.243 66.500 -2.239
v -4.243 66.563 -2.239
v -4.199 66.563 -2.195
v -2.197 66.500 -2.427
v -2.241 66.500 -2.383
v -2.241 66.687 -2.383
v -2.197 66.687 -2.427
v -2.197 66.500 -2.383
v -2.241 66.500 -2.427
v -2.241 66.687 -2.427
v -2.197 66.687 -2.383
v -2.385 66.500 -2.182
v -2.429 66.500 -2.138
v -2.429 66.687 -2.138
v -2.385 66.687 -2.182
v -2.385 66.500 -2.138
v -2.429 66.500 -2.182
v -2.429 66.687 -2.182
v -2.385 66.687 -2.138
v -2.076 66.500 -2.116
v -2.120 66.500 -2.071
v -2.120 66.687 -2.071
v -2.076 66.687 -2.116
v -2.076 66.500 -2.071
v -2.120 66.500 -2.116
v -2.120 66.687 -2.116
v -2.076 66.687 -2.071
v -0.523 66.500 -2.477
v -1.477 66.500 -1.523
v -1.477 67.500 -1.523
v -0.523 67.500 -2.477
v -1.477 66.500 -2.477
v -0.523 66.500 -1.523
v -0.523 67.500 -1.523
v -1.477 67.500 -2.477
v -2.523 66.500 -1.477
v -3.477 66.500 -0.523
v -3.477 67.500 -0.523
v -2.523 67.500 -1.477
v -3.477 66.500 -1.477
v -2.523 66.500 -0.523
v -2.523 67.500 -0.523
v -3.477 67.500 -1.477
v -0.523 66.500 -1.477
v -1.477 66.500 -0.523
v -1.477 67.500 -0.523
v -0.523 67.500 -1.477
v -1.477 66.500 -1.477
v -0.523 66.500 -0.523
v -0.523 67.500 -0.523
v -1.477 67.500 -1.477
v -4.500 57.500 -4.500
v -4.500 57.500 -3.500
v -4.500 58.500 -3.500
v -4.500 58.500 -4.500
v -4.500 59.500 -3.500
v -4.500 59.500 -4.500
v -4.500 60.500 -3.500
v -4.500 60.500 -4.500
v -4.500 61.500 -3.500
v -4.500 61.500 -4.500
v -4.500 62.500 -3.500
v -4.500 62.500 -4.500
v -4.500 65.500 -3.500
v -4.500 65.500 -4.500
v -4.500 66.500 -3.500
v -4.500 66.500 -4.500
v -2.500 66.500 -6.500
v -2.500 66.500 -4.500
v -1.500 66.500 -4.500
v -1.500 66.500 -6.500
v -1.500 66.500 -5.500
v -0.500 66.500 -5.500
v -0.500 66.500 -6.500
v -2.500 66.500 -5.500
v -3.500 66.500 -5.500
v -3.500 66.500 -4.500
v -0.500 66.500 -4.500
v -3.500 66.500 -3.500
v -2.500 66.500 -3.500
v -1.500 66.500 -4.500
v -1.500 66.500 -3.500
v -0.500 66.500 -3.500
v -0.500 66.500 -4.500
v -5.500 66.500 -2.500
v -4.500 66.500 -2.500
v -5.500 66.500 -3.500
v -2.500 66.500 -2.500
v -0.500 66.500 -2.500
v -5.500 66.500 -1.500
v -4.500 66.500 -1.500
v -4.500 66.500 -1.500
v -2.500 66.500 -1.500
v -1.500 66.500 -1.500
v -1.500 66.500 -2.500
v -0.500 66.500 -2.500
v -1.500 66.500 -1.500
v -0.500 66.500 -1.500
v -5.500 66.500 -0.500
v -4.500 66.500 -0.500
v -1.500 66.500 -1.500
v -4.500 66.500 -0.500
v -1.500 66.500 -0.500
v -0.500 66.500 -0.500
v -0.500 66.500 -1.500
v -5.500 57.500 -3.500
v -5.500 57.500 -0.500
v -5.500 58.500 -0.500
v -5.500 58.500 -3.500
v -5.500 58.500 -2.500
v -5.500 60.500 -2.500
v -5.500 60.500 -3.500
v -5.500 61.500 -2.500
v -5.500 61.500 -3.500
v -5.500 62.500 -2.500
v -5.500 62.500 -3.500
v -5.500 65.500 -2.500
v -5.500 65.500 -3.500
v -5.500 65.500 -0.500
v -5.500 58.500 -1.500
v -5.500 59.500 -1.500
v -5.500 59.500 -2.500
v -5.500 60.500 -1.500
v -5.500 61.500 -1.500
v -5.500 63.500 -1.500
v -5.500 63.500 -2.500
v -5.500 63.500 -0.500
v -5.500 58.500 -1.500
v -5.500 59.500 -0.500
v -5.500 59.500 -1.500
v -5.500 59.500 -0.500
v -5.500 60.500 -0.500
v -5.500 60.500 -1.500
v -5.500 61.500 -0.500
v -5.500 61.500 -1.500
v -5.500 62.500 -0.500
v -5.500 62.500 -1.500
v -5.500 62.500 -0.500
v -5.500 63.500 -1.500
v -2.500 57.500 -6.500
v -2.500 57.500 -5.500
v -2.500 58.500 -5.500
v -2.500 58.500 -6.500
v -2.500 59.500 -5.500
v -2.500 59.500 -6.500
v -2.500 61.500 -5.500
v -2.500 61.500 -6.500
v -2.500 62.500 -5.500
v -2.500 62.500 -6.500
v -2.500 65.500 -5.500
v -2.500 65.500 -6.500
v -3.500 57.500 -5.500
v -3.500 57.500 -4.500
v -3.500 58.500 -4.500
v -3.500 58.500 -5.500
v -3.500 59.500 -4.500
v -3.500 59.500 -5.500
v -3.500 60.500 -4.500
v -3.500 60.500 -5.500
v -3.500 61.500 -4.500
v -3.500 61.500 -5.500
v -3.500 62.500 -4.500
v -3.500 62.500 -5.500
v -3.500 63.500 -4.500
v -3.500 63.500 -5.500
v -3.500 65.500 -4.500
v -3.500 65.500 -5.500
v -2.500 60.500 -5.500
v -2.500 63.500 -5.500
v -1.500 57.500 -6.500
v -1.500 58.500 -6.500
v -1.500 59.500 -6.500
v -1.500 59.500 -6.500
v -1.500 61.500 -6.500
v -1.500 62.500 -6.500
v -1.500 63.500 -6.500
v -2.500 63.500 -6.500
v -0.500 64.500 -6.500
v -2.500 64.500 -6.500
v -0.500 65.500 -6.500
v -0.500 57.500 -6.500
v -0.500 58.500 -6.500
v -0.500 59.500 -6.500
v -1.500 60.500 -6.500
v -0.500 60.500 -6.500
v -1.500 61.500 -6.500
v -0.500 61.500 -6.500
v -1.500 62.500 -6.500
v -0.500 62.500 -6.500
v -0.500 63.500 -6.500
v -1.500 64.500 -6.500
v -1.500 57.500 -5.500
v -0.500 57.500 -5.500
v -1.500 57.500 -5.500
v -1.500 57.500 -4.500
v -0.500 57.500 -4.500
v -3.500 57.500 -3.500
v -2.500 57.500 -4.500
v -2.500 57.500 -3.500
v -0.500 57.500 -3.500
v -3.500 57.500 -2.500
v -5.500 57.500 -2.500
v -0.500 57.500 -3.500
v -0.500 57.500 -2.500
v -4.500 57.500 -0.500
v -4.500 57.500 -2.500
v -3.500 57.500 -1.500
v -4.500 57.500 -1.500
v -1.500 57.500 -2.500
v -1.500 57.500 -1.500
v -3.500 57.500 -1.500
v -0.500 57.500 -1.500
v -1.500 57.500 -2.500
v -0.500 57.500 -2.500
v -3.500 57.500 -0.500
v -4.500 57.500 -0.500
v -2.500 57.500 -0.500
v -2.500 57.500 -1.500
v -0.500 57.500 -0.500
v -1.500 66.687 -4.000
v -2.000 66.687 -4.000
v -2.000 66.687 -3.500
v -1.500 66.687 -3.500
v -4.000 66.687 -3.500
v -4.000 66.687 -3.000
v -3.500 66.687 -3.000
v -3.500 66.687 -3.500
v -2.500 66.687 -3.000
v -3.000 66.687 -3.000
v -3.000 66.687 -2.500
v -2.500 66.687 -2.500
v -2.000 66.687 -3.000
v -2.500 66.687 -3.500
v -5.000 66.687 -2.500
v -5.000 66.687 -2.000
v -4.500 66.687 -2.000
v -4.500 66.687 -2.500
v -4.000 66.687 -2.500
v -4.000 66.687 -2.000
v -3.500 66.687 -2.000
v -3.500 66.687 -2.500
v -2.500 66.687 -2.000
v -2.000 66.687 -2.000
v -2.000 66.687 -2.500
v -2.500 66.563 -2.500
v -2.000 66.563 -2.500
v -2.000 66.563 -3.000
v -2.500 66.563 -3.000
v -4.500 66.563 -2.500
v -4.500 66.563 -2.000
v -4.000 66.563 -2.000
v -4.000 66.563 -2.500
v -3.000 66.500 3.354
v -3.354 66.500 3.000
v -3.000 66.500 2.646
v -2.646 66.500 3.000
v -3.000 67.000 3.354
v -3.354 67.000 3.000
v -2.646 67.000 3.000
v -3.000 67.000 2.646
v -3.000 66.484 3.377
v -3.377 66.484 3.000
v -3.000 66.484 2.623
v -2.623 66.484 3.000
v -3.000 67.016 3.377
v -3.377 67.016 3.000
v -2.623 67.016 3.000
v -3.000 67.016 2.623
v -3.523 66.500 -0.477
v -4.477 66.500 0.477
v -4.477 67.500 0.477
v -3.523 67.500 -0.477
v -4.477 66.500 -0.477
v -3.523 66.500 0.477
v -3.523 67.500 0.477
v -4.477 67.500 -0.477
v -2.523 66.500 -0.477
v -3.477 66.500 0.477
v -3.477 67.500 0.477
v -2.523 67.500 -0.477
v -3.477 66.500 -0.477
v -2.523 66.500 0.477
v -2.523 67.500 0.477
v -3.477 67.500 -0.477
v -1.523 66.500 -0.477
v -2.477 66.500 0.477
v -2.477 67.500 0.477
v -1.523 67.500 -0.477
v -2.477 66.500 -0.477
v -1.523 66.500 0.477
v -1.523 67.500 0.477
v -2.477 67.500 -0.477
v -0.523 66.500 -0.477
v -1.477 66.500 0.477
v -1.477 67.500 0.477
v -0.523 67.500 -0.477
v -1.477 66.500 -0.477
v -0.523 66.500 0.477
v -0.523 67.500 0.477
v -1.477 67.500 -0.477
v -2.523 66.500 0.523
v -3.477 66.500 1.477
v -3.477 67.500 1.477
v -2.523 67.500 0.523
v -3.477 66.500 0.523
v -2.523 66.500 1.477
v -2.523 67.500 1.477
v -3.477 67.500 0.523
v -1.523 66.500 0.523
v -2.477 66.500 1.477
v -2.477 67.500 1.477
v -1.523 67.500 0.523
v -2.477 66.500 0.523
v -1.523 66.500 1.477
v -1.523 67.500 1.477
v -2.477 67.500 0.523
v -0.523 66.500 0.523
v -1.477 66.500 1.477
v -1.477 67.500 1.477
v -0.523 67.500 0.523
v -1.477 66.500 0.523
v -0.523 66.500 1.477
v -0.523 67.500 1.477
v -1.477 67.500 0.523
v -4.523 66.500 1.523
v -5.477 66.500 2.477
v -5.477 67.500 2.477
v -4.523 67.500 1.523
v -5.477 66.500 1.523
v -4.523 66.500 2.477
v -4.523 67.500 2.477
v -5.477 67.500 1.523
v -3.523 66.500 1.523
v -4.477 66.500 2.477
v -4.477 67.500 2.477
v -3.523 67.500 1.523
v -4.477 66.500 1.523
v -3.523 66.500 2.477
v -3.523 67.500 2.477
v -4.477 67.500 1.523
v -2.573 66.500 1.803
v -2.617 66.500 1.759
v -2.617 66.687 1.759
v -2.573 66.687 1.803
v -2.617 66.500 1.803
v -2.573 66.500 1.759
v -2.573 66.687 1.759
v -2.617 66.687 1.803
v -2.818 66.500 1.615
v -2.862 66.500 1.571
v -2.862 66.687 1.571
v -2.818 66.687 1.615
v -2.862 66.500 1.615
v -2.818 66.500 1.571
v -2.818 66.687 1.571
v -2.862 66.687 1.615
v -2.884 66.500 1.924
v -2.929 66.500 1.880
v -2.929 66.687 1.880
v -2.884 66.687 1.924
v -2.929 66.500 1.924
v -2.884 66.500 1.880
v -2.884 66.687 1.880
v -2.929 66.687 1.924
v -2.427 66.500 2.197
v -2.383 66.500 2.241
v -2.383 66.687 2.241
v -2.427 66.687 2.197
v -2.383 66.500 2.197
v -2.427 66.500 2.241
v -2.427 66.687 2.241
v -2.383 66.687 2.197
v -2.182 66.500 2.385
v -2.138 66.500 2.429
v -2.138 66.687 2.429
v -2.182 66.687 2.385
v -2.138 66.500 2.385
v -2.182 66.500 2.429
v -2.182 66.687 2.429
v -2.138 66.687 2.385
v -2.116 66.500 2.076
v -2.071 66.500 2.120
v -2.071 66.687 2.120
v -2.116 66.687 2.076
v -2.071 66.500 2.076
v -2.116 66.500 2.120
v -2.116 66.687 2.120
v -2.071 66.687 2.076
v -1.757 66.500 2.195
v -1.801 66.500 2.239
v -1.801 66.563 2.239
v -1.757 66.563 2.195
v -1.801 66.500 2.195
v -1.757 66.500 2.239
v -1.757 66.563 2.239
v -1.801 66.563 2.195
v -1.427 66.500 2.197
v -1.383 66.500 2.241
v -1.383 66.687 2.241
v -1.427 66.687 2.197
v -1.383 66.500 2.197
v -1.427 66.500 2.241
v -1.427 66.687 2.241
v -1.383 66.687 2.197
v -1.182 66.500 2.385
v -1.138 66.500 2.429
v -1.138 66.687 2.429
v -1.182 66.687 2.385
v -1.138 66.500 2.385
v -1.182 66.500 2.429
v -1.182 66.687 2.429
v -1.138 66.687 2.385
v -1.116 66.500 2.076
v -1.071 66.500 2.120
v -1.071 66.687 2.120
v -1.116 66.687 2.076
v -1.071 66.500 2.076
v -1.116 66.500 2.120
v -1.116 66.687 2.120
v -1.071 66.687 2.076
v -3.523 66.500 2.523
v -4.477 66.500 3.477
v -4.477 67.500 3.477
v -3.523 67.500 2.523
v -4.477 66.500 2.523
v -3.523 66.500 3.477
v -3.523 67.500 3.477
v -4.477 67.500 2.523
v -1.573 66.500 2.803
v -1.617 66.500 2.759
v -1.617 66.687 2.759
v -1.573 66.687 2.803
v -1.617 66.500 2.803
v -1.573 66.500 2.759
v -1.573 66.687 2.759
v -1.617 66.687 2.803
v -1.818 66.500 2.615
v -1.862 66.500 2.571
v -1.862 66.687 2.571
v -1.818 66.687 2.615
v -1.862 66.500 2.615
v -1.818 66.500 2.571
v -1.818 66.687 2.571
v -1.862 66.687 2.615
v -1.884 66.500 2.924
v -1.929 66.500 2.880
v -1.929 66.687 2.880
v -1.884 66.687 2.924
v -1.929 66.500 2.924
v -1.884 66.500 2.880
v -1.884 66.687 2.880
v -1.929 66.687 2.924
v -2.523 66.500 3.523
v -3.477 66.500 4.477
v -3.477 67.500 4.477
v -2.523 67.500 3.523
v -3.477 66.500 3.523
v -2.523 66.500 4.477
v -2.523 67.500 4.477
v -3.477 67.500 3.523
v -2.197 66.500 3.573
v -2.241 66.500 3.617
v -2.241 66.687 3.617
v -2.197 66.687 3.573
v -2.197 66.500 3.617
v -2.241 66.500 3.573
v -2.241 66.687 3.573
v -2.197 66.687 3.617
v -2.385 66.500 3.818
v -2.429 66.500 3.862
v -2.429 66.687 3.862
v -2.385 66.687 3.818
v -2.385 66.500 3.862
v -2.429 66.500 3.818
v -2.429 66.687 3.818
v -2.385 66.687 3.862
v -2.076 66.500 3.884
v -2.120 66.500 3.929
v -2.120 66.687 3.929
v -2.076 66.687 3.884
v -2.076 66.500 3.929
v -2.120 66.500 3.884
v -2.120 66.687 3.884
v -2.076 66.687 3.929
v -1.197 66.500 3.573
v -1.241 66.500 3.617
v -1.241 66.687 3.617
v -1.197 66.687 3.573
v -1.197 66.500 3.617
v -1.241 66.500 3.573
v -1.241 66.687 3.573
v -1.197 66.687 3.617
v -1.385 66.500 3.818
v -1.429 66.500 3.862
v -1.429 66.687 3.862
v -1.385 66.687 3.818
v -1.385 66.500 3.862
v -1.429 66.500 3.818
v -1.429 66.687 3.818
v -1.385 66.687 3.862
v -1.076 66.500 3.884
v -1.120 66.500 3.929
v -1.120 66.687 3.929
v -1.076 66.687 3.884
v -1.076 66.500 3.929
v -1.120 66.500 3.884
v -1.120 66.687 3.884
v -1.076 66.687 3.929
v -1.195 66.500 4.243
v -1.239 66.500 4.199
v -1.239 66.563 4.199
v -1.195 66.563 4.243
v -1.195 66.500 4.199
v -1.239 66.500 4.243
v -1.239 66.563 4.243
v -1.195 66.563 4.199
v -1.523 66.500 4.523
v -2.477 66.500 5.477
v -2.477 67.500 5.477
v -1.523 67.500 4.523
v -2.477 66.500 4.523
v -1.523 66.500 5.477
v -1.523 67.500 5.477
v -2.477 67.500 4.523
v -1.197 66.500 4.573
v -1.241 66.500 4.617
v -1.241 66.687 4.617
v -1.197 66.687 4.573
v -1.197 66.500 4.617
v -1.241 66.500 4.573
v -1.241 66.687 4.573
v -1.197 66.687 4.617
v -1.385 66.500 4.818
v -1.429 66.500 4.862
v -1.429 66.687 4.862
v -1.385 66.687 4.818
v -1.385 66.500 4.862
v -1.429 66.500 4.818
v -1.429 66.687 4.818
v -1.385 66.687 4.862
v -1.076 66.500 4.884
v -1.120 66.500 4.929
v -1.120 66.687 4.929
v -1.076 66.687 4.884
v -1.076 66.500 4.929
v -1.120 66.500 4.884
v -1.120 66.687 4.884
v -1.076 66.687 4.929
v -5.500 57.500 2.500
v -4.500 57.500 2.500
v -4.500 58.500 2.500
v -5.500 58.500 2.500
v -4.500 59.500 2.500
v -5.500 59.500 2.500
v -4.500 60.500 2.500
v -5.500 60.500 2.500
v -4.500 61.500 2.500
v -5.500 61.500 2.500
v -4.500 62.500 2.500
v -5.500 62.500 2.500
v -4.500 65.500 2.500
v -5.500 65.500 2.500
v -4.500 66.500 2.500
v -5.500 66.500 2.500
v -4.500 57.500 3.500
v -4.500 58.500 3.500
v -4.500 60.500 3.500
v -4.500 61.500 3.500
v -4.500 63.500 3.500
v -4.500 63.500 2.500
v -4.500 65.500 3.500
v -4.500 66.500 3.500
v -5.500 57.500 -0.500
v -5.500 58.500 -0.500
v -5.500 58.500 -0.500
v -5.500 58.500 1.500
v -5.500 59.500 1.500
v -5.500 59.500 -0.500
v -5.500 59.500 0.500
v -5.500 60.500 0.500
v -5.500 60.500 -0.500
v -5.500 60.500 -0.500
v -5.500 60.500 0.500
v -5.500 62.500 0.500
v -5.500 62.500 -0.500
v -5.500 65.500 0.500
v -5.500 65.500 -0.500
v -5.500 66.500 -0.500
v -5.500 59.500 0.500
v -5.500 60.500 1.500
v -5.500 61.500 1.500
v -5.500 61.500 0.500
v -5.500 62.500 1.500
v -5.500 62.500 0.500
v -5.500 62.500 1.500
v -5.500 63.500 1.500
v -5.500 63.500 0.500
v -5.500 63.500 0.500
v -5.500 63.500 1.500
v -5.500 65.500 1.500
v -5.500 58.500 1.500
v -5.500 59.500 1.500
v -5.500 60.500 1.500
v -5.500 61.500 1.500
v -5.500 65.500 1.500
v -4.500 66.500 -0.500
v -5.500 66.500 0.500
v -4.500 66.500 0.500
v -4.500 66.500 0.500
v -2.500 66.500 0.500
v -2.500 66.500 -0.500
v -0.500 66.500 -0.500
v -2.500 66.500 -0.500
v -2.500 66.500 0.500
v -0.500 66.500 0.500
v -5.500 66.500 1.500
v -3.500 66.500 1.500
v -3.500 66.500 0.500
v -2.500 66.500 1.500
v -1.500 66.500 1.500
v -1.500 66.500 0.500
v -1.500 66.500 1.500
v -0.500 66.500 1.500
v -0.500 66.500 0.500
v -1.500 66.500 0.500
v -4.500 66.500 1.500
v -4.500 66.500 1.500
v -3.500 66.500 2.500
v -2.500 66.500 2.500
v -0.500 66.500 2.500
v -3.500 66.500 3.500
v -2.500 66.500 3.500
v -1.500 66.500 2.500
v -1.500 66.500 3.500
v -1.500 66.500 2.500
v -0.500 66.500 3.500
v -3.500 66.500 4.500
v -1.500 66.500 4.500
v -0.500 66.500 4.500
v -0.500 66.500 3.500
v -1.500 66.500 3.500
v -2.500 66.500 5.500
v -1.500 66.500 5.500
v -2.500 66.500 4.500
v -0.500 66.500 5.500
v -2.500 57.500 5.500
v -0.500 57.500 5.500
v -0.500 58.500 5.500
v -2.500 58.500 5.500
v -0.500 58.500 5.500
v -0.500 59.500 5.500
v -2.500 59.500 5.500
v -0.500 59.500 5.500
v -0.500 60.500 5.500
v -2.500 60.500 5.500
v -1.500 60.500 5.500
v -1.500 61.500 5.500
v -2.500 61.500 5.500
v -1.500 62.500 5.500
v -2.500 62.500 5.500
v -1.500 63.500 5.500
v -2.500 63.500 5.500
v -0.500 63.500 5.500
v -0.500 65.500 5.500
v -2.500 65.500 5.500
v -0.500 65.500 5.500
v -0.500 60.500 5.500
v -0.500 61.500 5.500
v -0.500 62.500 5.500
v -3.500 57.500 4.500
v -2.500 57.500 4.500
v -2.500 58.500 4.500
v -3.500 58.500 4.500
v -2.500 59.500 4.500
v -3.500 59.500 4.500
v -2.500 60.500 4.500
v -3.500 60.500 4.500
v -2.500 61.500 4.500
v -3.500 61.500 4.500
v -2.500 62.500 4.500
v -3.500 62.500 4.500
v -2.500 65.500 4.500
v -3.500 65.500 4.500
v -3.500 57.500 3.500
v -3.500 58.500 3.500
v -3.500 60.500 3.500
v -3.500 61.500 3.500
v -3.500 63.500 3.500
v -3.500 65.500 3.500
v -3.500 59.500 3.500
v -3.500 62.500 3.500
v -3.500 57.500 -0.500
v -3.500 57.500 0.500
v -5.500 57.500 0.500
v -2.500 57.500 0.500
v -3.500 57.500 0.500
v -2.500 57.500 -0.500
v -2.500 57.500 -0.500
v -1.500 57.500 -0.500
v -1.500 57.500 0.500
v -2.500 57.500 0.500
v -0.500 57.500 0.500
v -1.500 57.500 0.500
v -1.500 57.500 -0.500
v -0.500 57.500 -0.500
v -4.500 57.500 1.500
v -5.500 57.500 1.500
v -5.500 57.500 0.500
v -4.500 57.500 0.500
v -4.500 57.500 0.500
v -3.500 57.500 1.500
v -4.500 57.500 1.500
v -3.500 57.500 0.500
v -2.500 57.500 1.500
v -3.500 57.500 1.500
v -1.500 57.500 1.500
v -1.500 57.500 0.500
v -0.500 57.500 1.500
v -1.500 57.500 1.500
v -1.500 57.500 2.500
v -3.500 57.500 2.500
v -0.500 57.500 1.500
v -0.500 57.500 2.500
v -2.500 57.500 3.500
v -2.500 57.500 2.500
v -1.500 57.500 2.500
v -1.500 57.500 3.500
v -0.500 57.500 2.500
v -1.500 57.500 5.500
v -1.500 57.500 4.500
v -3.000 66.687 1.500
v -3.000 66.687 2.000
v -2.500 66.687 2.000
v -2.500 66.687 1.500
v -2.000 66.687 2.500
v -2.000 66.687 2.000
v -2.500 66.687 2.500
v -1.000 66.687 2.500
v -1.000 66.687 2.000
v -1.500 66.687 2.000
v -1.500 66.687 2.500
v -2.000 66.687 3.000
v -1.500 66.687 3.000
v -2.500 66.687 4.000
v -2.000 66.687 4.000
v -2.000 66.687 3.500
v -2.500 66.687 3.500
v -1.500 66.687 4.000
v -1.000 66.687 4.000
v -1.000 66.687 3.500
v -1.500 66.687 3.500
v -1.500 66.687 5.000
v -1.000 66.687 5.000
v -1.000 66.687 4.500
v -1.500 66.687 4.500
v -1.500 66.563 2.500
v -1.500 66.563 2.000
v -2.000 66.563 2.000
v -2.000 66.563 2.500
v -1.500 66.563 4.500
v -1.000 66.563 4.500
v -1.000 66.563 4.000
v -1.500 66.563 4.000

usemtl minecraft_block-coal_ore

f 499/25 498/26 483/27 500/28
f 501/25 511/26 512/27 503/28
f 1174/25 1164/26 1175/27 1176/28
f 1178/25 1172/26 1179/27 1180/28
f 1298/25 1299/26 1300/27 1301/28
f 1780/25 1779/26 1767/27 1781/28
f 2169/25 2170/26 2171/27 2172/28
f 2185/25 2186/26 2187/27 2188/28

usemtl minecraft_block-wildflowers

f 573/56 574/57 575/58 576/28
f 577/56 578/57 579/58 580/28
f 581/56 582/57 583/58 584/28
f 585/56 586/57 587/58 588/28
f 585/56 589/57 590/58 576/28
f 591/56 592/57 593/58 594/28
f 595/56 596/57 587/58 597/28
f 598/25 599/59 600/57 601/56
f 602/25 603/59 604/57 605/56
f 1121/25 1122/59 1123/57 1124/56
f 1125/25 1126/59 1127/57 1128/56
f 1337/56 1338/57 1339/58 1340/28
f 1341/56 1342/57 1343/58 1344/28
f 1345/56 1346/57 1347/58 1348/28
f 1349/56 1350/57 1351/58 1352/28
f 1353/56 1354/57 1355/58 1352/28
f 1349/56 1356/57 1357/58 1358/28
f 1359/56 1360/57 1357/58 1361/28
f 1811/56 1812/57 1813/58 1814/28
f 1815/56 1816/57 1817/58 1818/28
f 1819/56 1820/57 1821/58 1822/28
f 1819/56 1823/57 1813/58 1824/28
f 1825/56 1826/57 1827/58 1828/28
f 1829/56 1830/57 1831/58 1832/28
f 1833/56 1834/57 1835/58 1822/28
f 1836/25 1837/59 1838/57 1839/56
f 1840/25 1841/59 1842/57 1843/56
f 2322/56 2323/57 2324/58 2325/28
f 2326/56 2327/57 2324/58 2328/28
f 2329/56 2330/57 2331/58 2332/28
f 2326/56 2333/57 2334/58 2332/28
f 2335/56 2336/57 2337/58 2338/28
f 2339/56 2340/57 2341/58 2342/28
f 2343/56 2344/57 2345/58 2346/28
f 2347/25 2348/59 2349/57 2350/56
f 2351/25 2352/59 2353/57 2354/56

usemtl minecraft_block-stone

f 352/25 351/26 353/27 354/28
f 367/25 366/26 368/27 369/28
f 372/26 371/25 373/28 374/27
f 382/26 369/25 383/38 375/39
f 351/25 381/26 382/27 353/28
f 389/26 354/25 356/28 390/27
f 402/26 401/25 403/28 404/27
f 404/25 403/26 405/27 406/28
f 482/26 483/40 484/44 485/27
f 488/25 487/26 489/27 490/28
f 486/26 484/25 501/28 487/27
f 498/26 508/25 509/28 483/27
f 483/25 509/26 510/27 484/28
f 510/25 516/26 517/27 511/28
f 516/25 521/26 522/27 517/28
f 521/26 402/25 404/28 522/27
f 522/25 404/26 406/27 525/28
f 401/26 389/25 390/28 403/27
f 610/25 611/26 612/27 613/28
f 613/25 612/26 614/27 615/28
f 634/26 635/25 636/28 637/27
f 647/26 646/25 648/28 649/27
f 649/25 648/26 650/27 651/28
f 651/26 650/25 652/28 626/27
f 656/26 634/25 637/28 657/27
f 657/25 610/26 613/27 658/28
f 648/40 613/26 615/27 650/44
f 646/26 657/25 658/28 648/27
f 650/26 663/25 664/28 652/27
f 686/26 687/25 688/28 689/27
f 703/26 702/25 704/28 705/27
f 1133/26 1134/25 687/27 1135/28
f 1136/26 1137/25 1138/38 1139/39
f 1142/26 703/25 705/28 1137/27
f 1146/26 1133/25 1147/28 1148/27
f 1149/26 1136/25 1139/38 690/39
f 1162/25 1161/26 1163/27 1164/28
f 1172/25 1158/26 1162/39 1173/38
f 1180/25 1179/26 1173/27 1181/28
f 1181/26 1173/25 1174/28 1182/27
f 1192/25 1191/26 1193/39 1194/38
f 1206/26 1205/25 1207/28 1208/27
f 1281/26 1280/25 1282/28 1283/27
f 1191/25 1206/26 1293/39 1193/38
f 1205/26 1283/25 1285/28 1207/27
f 1301/25 1300/26 1302/28 1303/27
f 1319/25 1318/26 1320/27 1321/28
f 1324/26 1325/25 1306/28 1326/27
f 1334/25 1333/26 1326/39 1335/38
f 1280/26 1331/25 1334/28 1282/27
f 1161/25 1192/26 1362/27 1163/28
f 1652/25 1651/26 1653/27 1654/28
f 1703/25 1702/26 1704/27 1705/28
f 1704/25 1715/26 1716/39 1717/38
f 1724/25 1723/26 1725/27 1726/28
f 1728/25 1729/26 1718/27 1730/28
f 1738/26 1737/25 1739/28 1740/27
f 1752/25 1751/26 1753/27 1754/28
f 1754/26 1753/25 1755/28 1756/27
f 1751/25 1652/26 1654/27 1753/28
f 1737/25 1752/26 1754/27 1739/28
f 1739/26 1754/25 1756/28 1760/27
f 1765/26 1738/25 1740/28 1766/27
f 1774/25 1763/26 1775/27 1776/28
f 1776/26 1775/25 1777/28 1778/27
f 1649/25 1703/26 1705/27 1651/28
f 2149/25 2148/26 2150/27 2151/28
f 2148/26 2159/25 2160/38 2161/39
f 2173/26 2174/25 2175/38 2176/39
f 2180/26 2168/25 2181/28 2174/27
f 2174/25 2181/26 2182/27 2183/28
f 2195/25 2149/26 2151/27 2186/28
f 2246/26 2247/25 2248/28 2249/27
f 2248/26 2259/25 2250/27 2260/28
f 2270/25 2269/26 2271/27 2272/28
f 2267/26 2246/25 2249/28 2269/27
f 2159/26 2278/25 2279/38 2160/39
f 2278/25 2270/26 2272/27 2282/28

usemtl minecraft_block-blue_orchid

f 41/25 42/26 43/27 44/28
f 45/25 46/26 47/27 48/28
f 257/25 258/26 259/27 260/28
f 261/25 262/26 263/27 264/28
f 822/25 823/26 824/27 825/28
f 826/25 827/26 828/27 829/28
f 1627/25 1628/26 1629/27 1630/28
f 1631/25 1632/26 1633/27 1634/28

usemtl minecraft_block-deepslate_diamond_ore

f 507/25 496/26 515/27 508/28
f 496/25 519/26 520/27 515/28
f 1156/25 1155/26 1157/27 1158/28
f 1155/25 1186/26 1188/27 1157/28
f 1734/25 1733/26 1735/27 1736/28
f 1762/25 1734/26 1736/27 1763/28
f 2143/25 2142/26 2144/27 2145/28
f 2192/25 2143/26 2145/27 2193/28

usemtl minecraft_block-grass_block_side

f 358/25 357/26 359/27 360/28
f 357/42 376/26 378/27 359/43
f 391/25 358/26 360/27 392/28
f 408/25 407/26 409/27 410/28
f 493/25 494/49 473/50 470/28
f 494/25 523/26 467/27 473/28
f 523/25 408/26 410/27 467/28
f 407/25 391/26 392/27 409/28
f 619/25 618/26 620/27 621/28
f 629/25 653/26 642/27 641/28
f 653/40 619/26 621/27 642/44
f 694/25 695/26 696/27 697/28
f 695/25 1140/36 1141/37 696/28
f 1167/42 1165/26 1168/27 1169/43
f 1196/25 1195/26 1197/27 1198/28
f 1210/25 1209/26 1211/27 1212/28
f 1287/25 1286/26 1224/27 1223/28
f 1140/25 1292/26 1153/27 1141/28
f 1195/25 1210/26 1212/27 1197/28
f 1209/25 1287/26 1223/27 1211/28
f 1286/60 1311/26 1215/27 1224/61
f 1165/25 1196/26 1198/27 1168/28
f 1656/25 1655/26 1657/27 1658/28
f 1709/25 1710/45 1690/46 1678/28
f 1742/25 1741/26 1666/27 1659/28
f 1758/25 1757/26 1668/27 1667/28
f 1757/25 1656/26 1658/27 1668/28
f 1741/25 1758/26 1667/27 1666/28
f 1771/40 1742/26 1659/27 1665/44
f 1655/25 1709/26 1678/27 1657/28
f 2153/25 2152/26 2154/27 2155/28
f 2152/25 2162/26 2163/27 2154/28
f 2178/25 2153/45 2155/46 2179/28
f 2256/25 2257/36 2236/37 2233/28
f 2274/25 2273/26 2235/27 2228/28
f 2273/25 2256/26 2233/27 2235/28
f 2162/25 2280/26 2222/27 2163/28
f 2280/25 2274/26 2228/27 2222/28

usemtl minecraft_block-dandelion

f 265/25 266/26 267/27 268/28
f 269/25 270/26 271/27 272/28
f 321/25 322/26 323/27 324/28
f 325/25 326/26 327/27 328/28
f 329/25 330/26 331/27 332/28
f 333/25 334/26 335/27 336/28
f 814/25 815/26 816/27 817/28
f 818/25 819/26 820/27 821/28
f 854/25 855/26 856/27 857/28
f 858/25 859/26 860/27 861/28
f 950/25 951/26 952/27 953/28
f 954/25 955/26 956/27 957/28
f 1038/25 1039/26 1040/27 1041/28
f 1042/25 1043/26 1044/27 1045/28
f 1387/25 1388/26 1389/27 1390/28
f 1391/25 1392/26 1393/27 1394/28
f 1395/25 1396/26 1397/27 1398/28
f 1399/25 1400/26 1401/27 1402/28
f 1868/25 1869/26 1870/27 1871/28
f 1872/25 1873/26 1874/27 1875/28
f 1924/25 1925/26 1926/27 1927/28
f 1928/25 1929/26 1930/27 1931/28
f 2012/25 2013/26 2014/27 2015/28
f 2016/25 2017/26 2018/27 2019/28

usemtl minecraft_block-dirt

f 356/25 355/26 357/34 358/35
f 375/40 373/26 376/39 377/41
f 355/25 384/26 377/34 357/35
f 390/25 356/26 358/34 391/35
f 406/25 405/26 407/39 408/38
f 490/25 489/26 491/28 492/27
f 502/25 501/26 503/27 504/28
f 504/25 503/26 505/28 506/27
f 484/25 510/26 511/27 501/28
f 503/25 513/36 494/51 514/38
f 511/25 517/26 513/27 512/28
f 517/25 522/26 523/34 494/35
f 525/25 406/26 408/39 523/38
f 403/25 390/26 391/34 407/35
f 615/25 614/26 616/27 617/28
f 617/25 616/26 618/27 619/28
f 626/25 627/26 628/27 629/28
f 659/25 615/26 617/27 660/28
f 627/40 617/26 619/27 628/44
f 690/25 691/26 692/27 693/28
f 706/25 707/26 708/27 709/28
f 691/25 709/36 1140/37 692/28
f 1143/25 705/26 1144/28 706/27
f 1164/25 1163/26 1165/34 1166/35
f 1173/25 1162/26 1164/27 1174/28
f 1176/25 1175/26 1166/39 1177/38
f 1182/25 1174/26 1183/34 1184/35
f 1194/25 1193/26 1195/39 1196/38
f 1208/25 1207/26 1209/34 1210/35
f 1285/25 1284/26 1286/34 1287/35
f 705/25 1289/26 1290/27 706/28
f 709/25 1291/26 1292/27 1140/28
f 1193/25 1293/26 1210/39 1195/38
f 1207/25 1285/26 1287/34 1209/35
f 1304/25 1305/26 1306/28 1307/27
f 1308/60 1309/26 1310/27 1286/61
f 1327/42 1306/26 1328/27 1308/43
f 1284/25 1336/26 1335/27 1327/28
f 1163/25 1362/26 1196/34 1165/35
f 1654/25 1653/26 1655/34 1656/35
f 1707/25 1706/26 1708/34 1709/35
f 1717/25 1718/36 1710/51 1708/38
f 1740/25 1739/26 1741/34 1742/35
f 1756/25 1755/26 1757/39 1758/38
f 1753/25 1654/26 1656/34 1757/35
f 1760/25 1756/26 1758/39 1741/38
f 1766/25 1740/26 1767/28 1768/27
f 1769/40 1770/26 1742/27 1771/44
f 1778/25 1777/26 1779/27 1780/28
f 1781/25 1767/26 1782/27 1769/28
f 1653/25 1707/26 1709/34 1655/35
f 2151/25 2150/26 2152/34 2153/35
f 2161/25 2160/26 2162/39 2152/38
f 2176/25 2175/26 2177/34 2178/35
f 2183/25 2182/26 2184/27 2175/28
f 2189/25 2190/26 2191/39 2177/38
f 2186/25 2151/26 2153/34 2196/35
f 2251/25 2250/26 2252/27 2253/28
f 2253/25 2254/36 2255/51 2256/38
f 2272/25 2271/26 2273/34 2274/35
f 2271/25 2251/26 2256/34 2273/35
f 2160/25 2279/26 2280/39 2162/38
f 2282/25 2272/26 2274/34 2280/35

usemtl minecraft_block-torchflower

f 153/25 154/26 155/27 156/28
f 157/25 158/26 159/27 160/28
f 249/25 250/26 251/27 252/28
f 253/25 254/26 255/27 256/28
f 734/25 735/26 736/27 737/28
f 738/25 739/26 740/27 741/28
f 862/25 863/26 864/27 865/28
f 866/25 867/26 868/27 869/28
f 1030/25 1031/26 1032/27 1033/28
f 1034/25 1035/26 1036/27 1037/28
f 1443/25 1444/26 1445/27 1446/28
f 1447/25 1448/26 1449/27 1450/28
f 1876/25 1877/26 1878/27 1879/28
f 1880/25 1881/26 1882/27 1883/28
f 2108/25 2109/26 2110/27 2111/28
f 2112/25 2113/26 2114/27 2115/28

usemtl minecraft_block-poppy

f 337/25 338/26 339/27 340/28
f 341/25 342/26 343/27 344/28
f 958/25 959/26 960/27 961/28
f 962/25 963/26 964/27 965/28
f 1379/25 1380/26 1381/27 1382/28
f 1383/25 1384/26 1385/27 1386/28
f 1916/25 1917/26 1918/27 1919/28
f 1920/25 1921/26 1922/27 1923/28

usemtl minecraft_block-wildflowers_stem

f 73/29 74/30 75/31 76/8
f 77/29 78/30 79/31 80/8
f 81/29 82/30 83/31 84/8
f 85/29 86/30 87/31 88/8
f 89/29 90/30 91/31 92/8
f 93/29 94/30 95/31 96/8
f 97/29 98/30 99/31 100/8
f 101/29 102/30 103/31 104/8
f 105/29 106/30 107/31 108/8
f 109/29 110/30 111/31 112/8
f 113/29 114/30 115/31 116/8
f 117/29 118/30 119/31 120/8
f 121/29 122/30 123/32 124/33
f 125/29 126/30 127/32 128/33
f 129/29 130/30 131/31 132/8
f 133/29 134/30 135/31 136/8
f 137/29 138/30 139/31 140/8
f 141/29 142/30 143/31 144/8
f 145/29 146/30 147/31 148/8
f 149/29 150/30 151/31 152/8
f 169/29 170/30 171/31 172/8
f 173/29 174/30 175/31 176/8
f 177/29 178/30 179/31 180/8
f 181/29 182/30 183/31 184/8
f 185/29 186/30 187/31 188/8
f 189/29 190/30 191/31 192/8
f 193/29 194/30 195/32 196/33
f 197/29 198/30 199/32 200/33
f 201/29 202/30 203/31 204/8
f 205/29 206/30 207/31 208/8
f 209/29 210/30 211/31 212/8
f 213/29 214/30 215/31 216/8
f 217/29 218/30 219/31 220/8
f 221/29 222/30 223/31 224/8
f 225/29 226/30 227/31 228/8
f 229/29 230/30 231/31 232/8
f 233/29 234/30 235/31 236/8
f 237/29 238/30 239/31 240/8
f 241/29 242/30 243/31 244/8
f 245/29 246/30 247/31 248/8
f 281/29 282/30 283/31 284/8
f 285/29 286/30 287/31 288/8
f 289/29 290/30 291/31 292/8
f 293/29 294/30 295/31 296/8
f 297/29 298/30 299/31 300/8
f 301/29 302/30 303/31 304/8
f 710/29 711/30 712/31 713/8
f 714/29 715/30 716/31 717/8
f 718/29 719/30 720/31 721/8
f 722/29 723/30 724/31 725/8
f 726/29 727/30 728/31 729/8
f 730/29 731/30 732/31 733/8
f 750/29 751/30 752/31 753/8
f 754/29 755/30 756/31 757/8
f 758/29 759/30 760/31 761/8
f 762/29 763/30 764/31 765/8
f 766/29 767/30 768/31 769/8
f 770/29 771/30 772/31 773/8
f 774/29 775/30 776/32 777/33
f 778/29 779/30 780/32 781/33
f 782/29 783/30 784/31 785/8
f 786/29 787/30 788/31 789/8
f 790/29 791/30 792/31 793/8
f 794/29 795/30 796/31 797/8
f 798/29 799/30 800/31 801/8
f 802/29 803/30 804/31 805/8
f 830/29 831/30 832/31 833/8
f 834/29 835/30 836/31 837/8
f 838/29 839/30 840/31 841/8
f 842/29 843/30 844/31 845/8
f 846/29 847/30 848/31 849/8
f 850/29 851/30 852/31 853/8
f 870/29 871/30 872/31 873/8
f 874/29 875/30 876/31 877/8
f 878/29 879/30 880/31 881/8
f 882/29 883/30 884/31 885/8
f 886/29 887/30 888/31 889/8
f 890/29 891/30 892/31 893/8
f 894/29 895/30 896/31 897/8
f 898/29 899/30 900/31 901/8
f 902/29 903/30 904/31 905/8
f 906/29 907/30 908/31 909/8
f 910/29 911/30 912/31 913/8
f 914/29 915/30 916/31 917/8
f 918/29 919/30 920/32 921/33
f 922/29 923/30 924/32 925/33
f 926/29 927/30 928/31 929/8
f 930/29 931/30 932/31 933/8
f 934/29 935/30 936/31 937/8
f 938/29 939/30 940/31 941/8
f 942/29 943/30 944/31 945/8
f 946/29 947/30 948/31 949/8
f 1411/29 1412/30 1413/31 1414/8
f 1415/29 1416/30 1417/31 1418/8
f 1419/29 1420/30 1421/31 1422/8
f 1423/29 1424/30 1425/31 1426/8
f 1427/29 1428/30 1429/31 1430/8
f 1431/29 1432/30 1433/31 1434/8
f 1451/29 1452/30 1453/31 1454/8
f 1455/29 1456/30 1457/31 1458/8
f 1459/29 1460/30 1461/31 1462/8
f 1463/29 1464/30 1465/31 1466/8
f 1467/29 1468/30 1469/31 1470/8
f 1471/29 1472/30 1473/31 1474/8
f 1475/29 1476/30 1477/31 1478/8
f 1479/29 1480/30 1481/31 1482/8
f 1483/29 1484/30 1485/31 1486/8
f 1487/29 1488/30 1489/31 1490/8
f 1491/29 1492/30 1493/31 1494/8
f 1495/29 1496/30 1497/31 1498/8
f 1499/29 1500/30 1501/31 1502/8
f 1503/29 1504/30 1505/31 1506/8
f 1507/29 1508/30 1509/31 1510/8
f 1511/29 1512/30 1513/31 1514/8
f 1515/29 1516/30 1517/31 1518/8
f 1519/29 1520/30 1521/31 1522/8
f 1523/29 1524/30 1525/32 1526/33
f 1527/29 1528/30 1529/32 1530/33
f 1539/29 1540/30 1541/31 1542/8
f 1543/29 1544/30 1545/31 1546/8
f 1547/29 1548/30 1549/31 1550/8
f 1551/29 1552/30 1553/31 1554/8
f 1555/29 1556/30 1557/31 1558/8
f 1559/29 1560/30 1561/31 1562/8
f 1563/29 1564/30 1565/31 1566/8
f 1567/29 1568/30 1569/31 1570/8
f 1571/29 1572/30 1573/31 1574/8
f 1575/29 1576/30 1577/31 1578/8
f 1579/29 1580/30 1581/31 1582/8
f 1583/29 1584/30 1585/31 1586/8
f 1587/29 1588/30 1589/32 1590/33
f 1591/29 1592/30 1593/32 1594/33
f 1595/29 1596/30 1597/31 1598/8
f 1599/29 1600/30 1601/31 1602/8
f 1603/29 1604/30 1605/31 1606/8
f 1607/29 1608/30 1609/31 1610/8
f 1611/29 1612/30 1613/31 1614/8
f 1615/29 1616/30 1617/31 1618/8
f 1932/29 1933/30 1934/31 1935/8
f 1936/29 1937/30 1938/31 1939/8
f 1940/29 1941/30 1942/31 1943/8
f 1944/29 1945/30 1946/31 1947/8
f 1948/29 1949/30 1950/31 1951/8
f 1952/29 1953/30 1954/31 1955/8
f 1956/29 1957/30 1958/31 1959/8
f 1960/29 1961/30 1962/31 1963/8
f 1964/29 1965/30 1966/31 1967/8
f 1968/29 1969/30 1970/31 1971/8
f 1972/29 1973/30 1974/31 1975/8
f 1976/29 1977/30 1978/31 1979/8
f 1980/29 1981/30 1982/32 1983/33
f 1984/29 1985/30 1986/32 1987/33
f 1988/29 1989/30 1990/31 1991/8
f 1992/29 1993/30 1994/31 1995/8
f 1996/29 1997/30 1998/31 1999/8
f 2000/29 2001/30 2002/31 2003/8
f 2004/29 2005/30 2006/31 2007/8
f 2008/29 2009/30 2010/31 2011/8
f 2020/29 2021/30 2022/31 2023/8
f 2024/29 2025/30 2026/31 2027/8
f 2028/29 2029/30 2030/31 2031/8
f 2032/29 2033/30 2034/31 2035/8
f 2036/29 2037/30 2038/31 2039/8
f 2040/29 2041/30 2042/31 2043/8
f 2052/29 2053/30 2054/31 2055/8
f 2056/29 2057/30 2058/31 2059/8
f 2060/29 2061/30 2062/31 2063/8
f 2064/29 2065/30 2066/31 2067/8
f 2068/29 2069/30 2070/31 2071/8
f 2072/29 2073/30 2074/31 2075/8
f 2076/29 2077/30 2078/31 2079/8
f 2080/29 2081/30 2082/31 2083/8
f 2084/29 2085/30 2086/31 2087/8
f 2088/29 2089/30 2090/31 2091/8
f 2092/29 2093/30 2094/31 2095/8
f 2096/29 2097/30 2098/31 2099/8
f 2100/29 2101/30 2102/32 2103/33
f 2104/29 2105/30 2106/32 2107/33
f 2116/29 2117/30 2118/31 2119/8
f 2120/29 2121/30 2122/31 2123/8
f 2124/29 2125/30 2126/31 2127/8
f 2128/29 2129/30 2130/31 2131/8
f 2132/29 2133/30 2134/31 2135/8
f 2136/29 2137/30 2138/31 2139/8

usemtl minecraft_block-oxeye_daisy

f 161/25 162/26 163/27 164/28
f 165/25 166/26 167/27 168/28
f 990/25 991/26 992/27 993/28
f 994/25 995/26 996/27 997/28
f 1531/25 1532/26 1533/27 1534/28
f 1535/25 1536/26 1537/27 1538/28
f 1900/25 1901/26 1902/27 1903/28
f 1904/25 1905/26 1906/27 1907/28

usemtl minecraft_block-grass_block_top

f 411/25 412/26 413/27 414/28
f 415/25 416/26 417/39 418/38
f 419/25 420/26 421/27 422/28
f 423/25 424/45 378/46 425/28
f 426/47 427/48 428/27 429/28
f 430/25 431/26 432/27 433/28
f 432/25 434/26 417/27 433/28
f 423/25 422/26 435/27 436/28
f 437/25 436/26 438/27 439/28
f 440/25 441/26 442/27 443/28
f 444/25 443/26 445/27 424/28
f 446/25 447/26 448/39 434/38
f 448/25 449/26 436/27 434/28
f 450/25 451/26 436/27 449/28
f 450/25 360/26 443/27 438/28
f 359/25 452/26 443/27 360/28
f 453/25 454/26 455/27 456/28
f 427/25 453/26 457/27 458/28
f 459/25 448/26 460/27 457/28
f 459/25 409/36 450/37 448/28
f 360/25 450/26 409/27 392/28
f 461/25 462/26 463/27 464/28
f 465/25 466/36 459/37 461/28
f 467/25 468/26 459/27 466/28
f 409/25 468/26 467/27 410/28
f 469/25 470/26 471/39 472/38
f 471/25 473/36 467/37 472/28
f 638/25 639/26 621/27 620/28
f 640/25 638/26 641/27 642/28
f 1150/25 1151/26 697/27 696/28
f 1152/25 1141/26 1153/27 1154/28
f 1213/25 1214/26 1215/27 1216/28
f 1217/25 1213/26 1218/27 1219/28
f 1220/25 1221/26 1218/27 1222/28
f 1223/25 1224/26 1220/27 1222/28
f 1225/25 1226/26 1227/39 1218/38
f 1228/25 1222/26 1229/27 1227/28
f 1223/25 1222/26 1228/27 1230/28
f 1230/25 1212/26 1211/27 1223/28
f 1231/25 1232/26 1233/27 1234/28
f 1235/25 1236/26 1227/27 1231/28
f 1227/25 1236/26 1237/27 1228/28
f 1237/25 1238/26 1230/27 1228/28
f 1230/25 1238/26 1198/39 1197/38
f 1239/47 1240/48 1235/27 1241/28
f 1242/25 1243/26 1244/27 1245/28
f 1236/25 1245/26 1246/39 1238/38
f 1246/25 1247/26 1248/27 1238/28
f 1198/25 1248/26 1247/27 1249/28
f 1250/25 1168/26 1198/27 1249/28
f 1251/25 1245/26 1252/27 1253/28
f 1245/25 1254/26 1255/27 1256/28
f 1257/40 1246/26 1256/27 1258/44
f 1259/25 1260/36 1249/37 1246/28
f 1250/25 1249/26 1261/27 1262/28
f 1263/25 1264/26 1265/27 1266/28
f 1267/25 1268/26 1254/27 1240/28
f 1255/25 1269/26 1270/27 1271/28
f 1272/25 1259/26 1273/27 1274/28
f 1275/25 1260/26 1272/27 1276/28
f 1260/25 1277/26 1169/27 1262/28
f 1659/25 1660/36 1661/37 1662/28
f 1663/25 1664/26 1665/27 1662/28
f 1660/25 1666/26 1667/27 1668/28
f 1664/25 1663/26 1661/27 1669/28
f 1658/25 1657/26 1670/27 1668/28
f 1670/25 1671/26 1660/27 1668/28
f 1672/25 1660/26 1671/27 1673/28
f 1674/25 1675/26 1672/27 1673/28
f 1676/25 1677/26 1657/27 1678/28
f 1679/47 1671/48 1657/27 1677/28
f 1674/40 1671/26 1679/27 1680/44
f 1676/25 1681/26 1682/27 1677/28
f 1679/40 1677/26 1683/27 1684/44
f 1684/25 1685/26 1686/27 1679/28
f 1687/25 1686/26 1688/27 1689/28
f 1690/25 1691/26 1682/27 1681/28
f 1692/42 1682/26 1693/27 1694/43
f 1685/25 1694/26 1695/27 1696/28
f 2197/25 2179/26 2198/27 2199/28
f 2200/25 2201/36 2202/37 2197/28
f 2203/40 2204/26 2205/27 2206/44
f 2198/25 2207/26 2208/39 2209/38
f 2208/25 2210/26 2201/27 2209/28
f 2211/25 2212/26 2201/27 2210/28
f 2213/25 2214/26 2215/27 2216/28
f 2154/25 2217/26 2207/27 2155/28
f 2218/25 2154/26 2219/27 2208/28
f 2210/25 2208/26 2219/27 2220/28
f 2220/25 2221/36 2214/37 2210/28
f 2219/25 2154/26 2163/27 2222/28
f 2219/25 2222/26 2223/27 2220/28
f 2224/25 2220/26 2223/27 2225/28
f 2226/25 2225/26 2227/27 2221/28
f 2228/25 2229/36 2225/37 2222/28
f 2230/25 2231/26 2232/27 2229/28
f 2233/25 2234/26 2229/27 2235/28
f 2230/25 2229/26 2234/27 2236/28

usemtl minecraft_block-short_grass

f 17/25 18/26 19/27 20/28
f 21/25 22/26 23/27 24/28
f 25/25 26/26 27/27 28/28
f 29/25 30/26 31/27 32/28
f 33/25 34/26 35/27 36/28
f 37/25 38/26 39/27 40/28
f 49/25 50/26 51/27 52/28
f 53/25 54/26 55/27 56/28
f 57/25 58/26 59/27 60/28
f 61/25 62/26 63/27 64/28
f 65/25 66/26 67/27 68/28
f 69/25 70/26 71/27 72/28
f 273/25 274/26 275/27 276/28
f 277/25 278/26 279/27 280/28
f 305/25 306/26 307/27 308/28
f 309/25 310/26 311/27 312/28
f 313/25 314/26 315/27 316/28
f 317/25 318/26 319/27 320/28
f 742/25 743/26 744/27 745/28
f 746/25 747/26 748/27 749/28
f 806/25 807/26 808/27 809/28
f 810/25 811/26 812/27 813/28
f 966/25 967/26 968/27 969/28
f 970/25 971/26 972/27 973/28
f 974/25 975/26 976/27 977/28
f 978/25 979/26 980/27 981/28
f 982/25 983/26 984/27 985/28
f 986/25 987/26 988/27 989/28
f 998/25 999/26 1000/27 1001/28
f 1002/25 1003/26 1004/27 1005/28
f 1006/25 1007/26 1008/27 1009/28
f 1010/25 1011/26 1012/27 1013/28
f 1014/25 1015/26 1016/27 1017/28
f 1018/25 1019/26 1020/27 1021/28
f 1022/25 1023/26 1024/27 1025/28
f 1026/25 1027/26 1028/27 1029/28
f 1046/25 1047/26 1048/27 1049/28
f 1050/25 1051/26 1052/27 1053/28
f 1403/25 1404/26 1405/27 1406/28
f 1407/25 1408/26 1409/27 1410/28
f 1435/25 1436/26 1437/27 1438/28
f 1439/25 1440/26 1441/27 1442/28
f 1619/25 1620/26 1621/27 1622/28
f 1623/25 1624/26 1625/27 1626/28
f 1635/25 1636/26 1637/27 1638/28
f 1639/25 1640/26 1641/27 1642/28
f 1860/25 1861/26 1862/27 1863/28
f 1864/25 1865/26 1866/27 1867/28
f 1884/25 1885/26 1886/27 1887/28
f 1888/25 1889/26 1890/27 1891/28
f 1892/25 1893/26 1894/27 1895/28
f 1896/25 1897/26 1898/27 1899/28
f 1908/25 1909/26 1910/27 1911/28
f 1912/25 1913/26 1914/27 1915/28
f 2044/25 2045/26 2046/27 2047/28
f 2048/25 2049/26 2050/27 2051/28

usemtl minecraft_block-bedrock

f 345/25 346/26 347/27 348/28
f 361/36 362/25 363/28 364/37
f 346/25 361/26 364/27 347/28
f 385/25 345/26 348/27 386/28
f 393/25 394/26 395/27 396/28
f 474/25 475/26 476/27 477/28
f 475/26 495/42 496/43 476/27
f 495/26 518/25 519/28 496/27
f 518/25 393/26 396/27 519/28
f 394/25 385/26 386/27 395/28
f 526/28 527/27 528/26 529/25
f 530/28 531/27 532/26 533/25
f 534/28 535/27 536/26 537/25
f 538/25 539/26 540/27 541/28
f 542/38 543/39 539/26 544/25
f 545/25 546/26 385/52 394/53
f 547/28 548/27 546/26 362/25
f 549/40 550/26 527/27 535/44
f 551/25 552/36 553/51 554/38
f 555/28 547/27 361/26 556/25
f 557/25 558/26 550/27 559/28
f 554/28 557/27 559/26 549/25
f 393/54 518/55 543/27 542/28
f 346/25 345/26 560/27 361/28
f 561/38 562/39 558/26 557/25
f 563/25 553/45 564/46 565/28
f 566/25 561/26 565/27 567/28
f 568/28 569/27 570/26 566/25
f 495/38 571/39 569/26 564/25
f 475/25 474/26 562/27 561/28
f 572/28 570/37 571/36 475/25
f 622/26 623/25 624/28 625/27
f 630/25 631/26 632/27 633/28
f 654/25 630/26 633/27 655/28
f 623/26 661/25 662/28 624/27
f 665/25 631/26 630/27 654/28
f 661/28 623/27 622/26 665/25
f 1054/28 1055/27 1056/26 1057/25
f 1058/25 1054/26 1057/27 1059/28
f 1060/28 1061/27 1062/48 1063/47
f 1064/25 1065/26 1066/27 1067/28
f 1065/28 1068/27 1069/26 1066/25
f 1068/25 1070/26 1071/27 1069/28
f 1072/25 1073/26 1067/27 1066/28
f 1074/28 1071/37 1075/36 1072/25
f 1076/25 1075/26 1071/27 1077/28
f 1078/28 1079/27 1080/26 1073/25
f 1081/28 1082/37 1083/36 1078/25
f 1084/44 1083/27 1082/26 1076/40
f 1076/28 1085/27 1086/26 1084/25
f 1087/25 1088/36 1089/37 1090/28
f 1088/28 1083/27 1091/26 1089/25
f 1092/28 1091/27 1083/26 1093/25
f 1093/25 1084/26 1094/27 1092/28
f 1095/28 1094/27 1084/26 1086/25
f 1086/25 1096/26 1097/27 1095/28
f 1098/25 1099/26 1100/27 1101/28
f 1102/28 1103/27 1104/48 1105/47
f 1106/47 1104/48 1089/27 1091/28
f 1091/28 1092/27 1107/48 1108/47
f 1109/25 1110/26 1092/27 1094/28
f 1094/25 1095/26 1111/27 1112/28
f 1113/28 1111/27 1095/26 1097/25
f 1114/25 1115/26 1116/27 1117/28
f 1118/40 1107/26 1110/27 1111/44
f 1111/28 1113/27 1119/26 1120/25
f 1055/26 1054/25 1129/28 1130/27
f 1054/25 1058/26 698/27 1129/28
f 1056/26 1055/25 1130/28 1145/27
f 1097/25 1096/26 1155/27 1156/28
f 1119/36 1097/25 1156/28 1170/37
f 1086/26 1085/25 1185/28 1186/27
f 1076/25 1077/26 1199/27 1200/28
f 1071/25 1070/26 1278/27 1279/28
f 1058/25 1059/26 1288/27 698/28
f 1085/26 1076/25 1200/28 1185/27
f 1077/25 1071/26 1279/27 1199/28
f 1061/26 1060/25 1295/28 1296/27
f 1065/25 1064/26 1312/27 1313/28
f 1068/26 1065/25 1313/28 1329/27
f 1070/25 1068/26 1329/27 1278/28
f 1096/25 1086/26 1186/27 1155/28
f 1643/26 1644/25 1645/28 1646/27
f 1697/25 1698/45 1699/46 1700/28
f 1731/25 1732/26 1733/27 1734/28
f 1743/25 1744/26 1745/27 1746/28
f 1744/26 1643/25 1646/28 1745/27
f 1732/25 1743/26 1746/27 1733/28
f 1761/25 1731/26 1734/27 1762/28
f 1772/26 1761/25 1762/28 1773/27
f 1783/25 1732/26 1731/27 1761/28
f 1784/28 1783/27 1761/26 1772/25
f 1743/25 1785/36 1786/37 1744/28
f 1787/25 1786/26 1783/27 1784/28
f 1788/28 1644/27 1643/26 1744/25
f 1744/28 1789/27 1790/26 1788/25
f 1789/25 1787/36 1791/37 1790/28
f 1697/25 1788/36 1792/37 1793/28
f 1788/28 1794/46 1795/45 1792/25
f 1796/47 1698/48 1793/27 1797/28
f 1798/28 1799/27 1797/26 1792/25
f 1792/28 1800/37 1801/36 1802/25
f 1803/25 1801/26 1804/27 1805/28
f 1799/28 1798/27 1806/26 1807/25
f 1808/25 1806/26 1798/27 1809/28
f 1810/44 1808/27 1809/26 1803/40
f 1644/25 1697/26 1700/27 1645/28
f 2140/25 2141/26 2142/27 2143/28
f 2141/26 2156/25 2157/28 2142/27
f 2164/25 2140/45 2143/46 2165/28
f 2237/26 2238/40 2239/44 2240/27
f 2261/25 2262/26 2263/27 2264/28
f 2262/26 2237/25 2240/28 2263/27
f 2156/26 2275/25 2276/28 2157/27
f 2275/25 2261/26 2264/27 2276/28
f 2164/25 2283/36 2284/37 2285/28
f 2286/28 2287/27 2283/26 2288/25
f 2289/25 2290/26 2291/27 2292/28
f 2293/28 2294/27 2295/26 2296/25
f 2297/25 2298/26 2299/27 2300/28
f 2301/25 2287/26 2302/27 2303/28
f 2304/28 2286/27 2305/26 2306/25
f 2307/28 2305/27 2286/26 2294/25
f 2308/28 2293/27 2309/26 2310/25
f 2298/25 2297/26 2141/27 2140/28
f 2275/38 2156/39 2297/26 2302/25
f 2311/40 2312/26 2302/27 2307/44
f 2307/25 2313/26 2314/27 2311/28
f 2315/25 2275/26 2312/27 2316/28
f 2316/25 2317/26 2318/27 2315/28
f 2311/28 2319/27 2238/55 2320/54
f 2275/25 2315/26 2262/27 2261/28
f 2321/25 2262/26 2315/27 2318/28
f 2320/28 2237/27 2262/26 2321/25

usemtl minecraft_block-deepslate_emerald_ore

f 387/25 350/26 352/27 388/28
f 397/25 387/26 388/27 399/28
f 1202/25 1201/26 1203/27 1204/28
f 1201/25 1294/26 1281/27 1203/28
f 1648/25 1647/26 1649/27 1650/28
f 1747/25 1648/26 1650/27 1749/28
f 2266/25 2265/26 2267/27 2268/28
f 2281/25 2266/26 2268/27 2277/28

usemtl jmc2obj_head-player_zzuf_b6289e4522318971b545011865dc3373eef36b6bacfa17286d9bb3ea86b2776b

f 1/1 2/2 3/3 4/4
f 2/5 1/6 5/7 6/3
f 1/8 4/9 7/10 5/11
f 4/9 3/12 8/4 7/10
f 3/12 2/5 6/3 8/4
f 6/1 5/13 7/10 8/4
f 9/14 10/15 11/16 12/17
f 10/18 9/19 13/20 14/16
f 9/6 12/21 15/22 13/7
f 12/21 11/23 16/17 15/22
f 11/23 10/18 14/16 16/17
f 14/14 13/24 15/22 16/17
f 1363/1 1364/2 1365/3 1366/4
f 1364/5 1363/6 1367/7 1368/3
f 1363/8 1366/9 1369/10 1367/11
f 1366/9 1365/12 1370/4 1369/10
f 1365/12 1364/5 1368/3 1370/4
f 1368/1 1367/13 1369/10 1370/4
f 1371/14 1372/15 1373/16 1374/17
f 1372/18 1371/19 1375/20 1376/16
f 1371/6 1374/21 1377/22 1375/7
f 1374/21 1373/23 1378/17 1377/22
f 1373/23 1372/18 1376/16 1378/17
f 1376/14 1375/24 1377/22 1378/17

usemtl minecraft_block-iron_ore

f 354/25 353/26 355/27 356/28
f 353/25 382/26 384/27 355/28
f 400/25 399/26 401/27 402/28
f 524/25 400/26 402/27 521/28
f 1190/25 1189/26 1191/27 1192/28
f 1283/25 1282/26 1284/27 1285/28
f 1189/25 1204/26 1206/27 1191/28
f 1282/25 1334/26 1336/27 1284/28
f 1705/25 1704/26 1706/27 1707/28
f 1750/25 1749/26 1751/27 1752/28
f 1759/25 1750/26 1752/27 1737/28
f 1651/25 1705/26 1707/27 1653/28
f 2146/25 2158/26 2159/27 2148/28
f 2249/25 2248/26 2250/27 2251/28
f 2269/25 2249/26 2251/27 2271/28
f 2158/25 2277/26 2278/27 2159/28

usemtl jmc2obj_head-player_Drysu_d53575ecaab8e6bf23c95a2d631d92aafaf79e1ba4dc4ba8270ae6a53ca38c16

f 666/1 667/2 668/3 669/4
f 667/5 666/6 670/7 671/3
f 666/8 669/9 672/10 670/11
f 669/9 668/12 673/4 672/10
f 668/12 667/5 671/3 673/4
f 671/1 670/13 672/10 673/4
f 674/14 675/15 676/16 677/17
f 675/18 674/19 678/20 679/16
f 674/6 677/21 680/22 678/7
f 677/21 676/23 681/17 680/22
f 676/23 675/18 679/16 681/17
f 679/14 678/24 680/22 681/17
f 1844/1 1845/2 1846/3 1847/4
f 1845/5 1844/6 1848/7 1849/3
f 1844/8 1847/9 1850/10 1848/11
f 1847/9 1846/12 1851/4 1850/10
f 1846/12 1845/5 1849/3 1851/4
f 1849/1 1848/13 1850/10 1851/4
f 1852/14 1853/15 1854/16 1855/17
f 1853/18 1852/19 1856/20 1857/16
f 1852/6 1855/21 1858/22 1856/7
f 1855/21 1854/23 1859/17 1858/22
f 1854/23 1853/18 1857/16 1859/17
f 1857/14 1856/24 1858/22 1859/17

usemtl minecraft_block-deepslate

f 348/25 347/26 349/27 350/28
f 350/26 349/25 351/28 352/27
f 365/26 363/25 366/38 367/39
f 370/26 368/25 371/28 372/27
f 347/40 379/26 380/27 349/44
f 349/36 380/25 367/28 351/37
f 381/25 367/26 369/27 382/28
f 386/26 348/25 350/28 387/27
f 388/25 352/26 354/27 389/28
f 396/26 395/25 397/28 398/27
f 398/25 397/26 399/27 400/28
f 478/25 479/26 480/39 481/38
f 485/25 486/26 487/27 488/28
f 476/26 497/25 498/28 499/27
f 497/25 507/26 508/27 498/28
f 508/26 515/25 516/38 510/39
f 515/26 520/25 521/38 516/39
f 519/26 396/25 398/28 520/27
f 520/25 398/26 400/27 524/28
f 395/26 386/25 387/28 397/27
f 399/25 388/26 389/27 401/28
f 606/25 607/26 608/27 609/28
f 625/26 643/25 644/28 645/27
f 645/25 644/26 646/27 647/28
f 655/25 606/26 609/27 656/28
f 643/26 655/25 656/28 644/27
f 644/25 656/26 657/27 646/28
f 682/26 683/25 684/28 685/27
f 698/25 699/26 700/27 701/28
f 701/25 700/26 702/27 703/28
f 683/26 1131/25 1132/28 684/27
f 1129/25 698/26 703/39 1142/38
f 1158/26 1157/25 1159/28 1160/27
f 1160/25 1159/26 1161/27 1162/28
f 1171/25 1156/26 1158/27 1172/28
f 1170/26 1171/25 1172/28 1178/27
f 1186/26 1185/25 1187/28 1188/27
f 1188/25 1187/26 1189/27 1190/28
f 1200/25 1199/26 1201/27 1202/28
f 1204/26 1203/25 1205/28 1206/27
f 1279/26 1278/25 1280/38 1281/39
f 1185/26 1200/25 1202/28 1187/27
f 1187/25 1202/26 1204/27 1189/28
f 1199/25 1279/26 1294/27 1201/28
f 1203/26 1281/25 1283/28 1205/27
f 1296/26 1295/25 1297/28 1298/27
f 1314/25 1296/26 1298/27 1315/28
f 1316/45 1317/25 1318/28 1280/46
f 1321/26 1320/25 1322/28 1323/27
f 1278/36 1313/25 1330/28 1316/37
f 1331/26 1332/25 1333/28 1334/27
f 1157/26 1188/25 1190/28 1159/27
f 1159/25 1190/26 1192/27 1161/28
f 1646/25 1645/26 1647/27 1648/28
f 1650/26 1649/25 1651/28 1652/27
f 1700/26 1701/25 1702/38 1703/39
f 1701/26 1711/25 1712/28 1713/27
f 1713/25 1712/26 1714/27 1702/28
f 1702/26 1714/25 1715/28 1704/27
f 1719/25 1699/26 1720/27 1721/28
f 1721/26 1722/25 1723/28 1724/27
f 1726/25 1725/26 1727/27 1728/28
f 1736/25 1735/26 1737/39 1738/38
f 1746/25 1745/26 1747/27 1748/28
f 1748/26 1747/25 1749/28 1750/27
f 1745/25 1646/26 1648/27 1747/28
f 1749/26 1650/25 1652/28 1751/27
f 1733/25 1746/26 1748/27 1735/28
f 1735/26 1748/25 1750/28 1759/27
f 1764/25 1736/26 1738/39 1765/38
f 1773/25 1762/26 1763/27 1774/28
f 1645/26 1700/25 1703/38 1649/39
f 2145/26 2144/25 2146/28 2147/27
f 2147/25 2146/26 2148/27 2149/28
f 2142/26 2157/25 2158/38 2146/39
f 2166/25 2167/36 2168/37 2169/28
f 2193/26 2145/25 2147/28 2194/27
f 2194/25 2147/26 2149/27 2195/28
f 2240/26 2241/40 2242/44 2243/27
f 2243/25 2244/36 2245/37 2246/28
f 2247/26 2258/25 2259/28 2248/27
f 2264/25 2263/26 2265/27 2266/28
f 2268/26 2267/25 2269/28 2270/27
f 2263/26 2240/25 2243/28 2265/27
f 2265/25 2243/26 2246/27 2267/28
f 2157/26 2276/25 2277/38 2158/39
f 2276/25 2264/26 2266/27 2281/28
f 2277/26 2268/25 2270/28 2278/27
