# COMMON_MC_OBJ_START
# version: 1
# exporter: jmc2obj
# world_name: void
# world_path: /home/runner/work/map-objects/map-objects/map-fetcher/tmp/zzufx/zzuf-maps/maps/arcade/random_items/void
# export_bounds_min: (-512, 0, -512)
# export_bounds_max: (495, 255, 495)
# export_offset: (0.000000, 0.000000, 0.000000)
# block_scale: 1.000000
# block_origin_offset: (-0.5, -0.5, -0.5)
# z_up: false
# texture_type: INDIVIDUAL_TILES
# has_split_blocks: false
# COMMON_MC_OBJ_END
mtllib minecraft.mtl

vt 0.250000000 1.000000000
vt 0.375000000 1.000000000
vt 0.375000000 0.875000000
vt 0.250000000 0.875000000
vt 0.375000000 0.750000000
vt 0.500000000 0.750000000
vt 0.500000000 0.875000000
vt 0.000000000 0.750000000
vt 0.125000000 0.750000000
vt 0.125000000 0.875000000
vt 0.000000000 0.875000000
vt 0.250000000 0.750000000
vt 0.125000000 1.000000000
vt 0.750000000 1.000000000
vt 0.875000000 1.000000000
vt 0.875000000 0.875000000
vt 0.750000000 0.875000000
vt 0.875000000 0.750000000
vt 1.000000000 0.750000000
vt 1.000000000 0.875000000
vt 0.625000000 0.750000000
vt 0.625000000 0.875000000
vt 0.750000000 0.750000000
vt 0.625000000 1.000000000
vt 0.000000000 0.000000000
vt 1.000000000 0.000000000
vt 1.000000000 0.500000000
vt 0.000000000 0.500000000
vt 0.500000000 0.500000000
vt 0.500000000 1.000000000
vt 0.000000000 1.000000000
vt 1.000000000 1.000000000
vt 0.500000000 0.000000000
vt -0.000000000 0.000000000
vt 0.000000000 3.000000000
vt 1.000000000 3.000000000
vt 0.000000000 2.000000000
vt 1.000000000 2.000000000
vt 0.000000000 4.000000000
vt 1.000000000 4.000000000
vt 0.000000000 -0.000000000
vt 0.500000000 0.000000000
vt -0.000000000 1.000000000
vt 2.000000000 0.000000000
vt 2.000000000 1.000000000
vt 0.000000000 0.500000000
vt 0.000000000 0.000000000
vt 1.000000000 0.000000000
vt 2.000000000 0.000000000
vt 0.000000000 -0.000000000
vt -0.000000000 0.000000000
vt 1.500000000 1.000000000
vt 1.500000000 0.000000000
vt 0.000000000 1.000000000
vt 0.000000000 0.000000000
vt 0.000000000 0.500000000
vt -0.000000000 0.000000000
vt 2.000000000 -0.000000000
vt 2.000000000 0.500000000
vt 1.000000000 -1.000000000
vt 0.000000000 -1.000000000
vt 1.000000000 -0.000000000
vt -0.500000000 0.000000000
vt -0.500000000 0.500000000
vt 1.000000000 5.000000000
vt 0.000000000 5.000000000
vt 2.000000000 -0.000000000
vt 0.000000000 6.000000000
vt 1.000000000 6.000000000
vt -1.000000000 0.500000000
vt -1.000000000 0.000000000
vt 0.000000000 2.000000000
vt 2.000000000 0.000000000
vt -1.000000000 1.000000000
vt 1.500000000 0.500000000
vt 2.000000000 0.000000000
vt 0.000000000 2.000000000
vt 0.000000000 -1.000000000
vt -0.500000000 1.000000000
vt -1.000000000 0.000000000
vt 0.000000000 1.500000000
vt 1.000000000 1.500000000
vt 1.500000000 0.000000000
vt -1.500000000 0.500000000
vt -1.500000000 1.000000000
vt 0.000000000 2.000000000
vt -1.000000000 0.000000000
v 5.250 69.500 -0.250
v 5.250 69.500 0.250
v 4.750 69.500 0.250
v 4.750 69.500 -0.250
v 5.250 70.000 -0.250
v 5.250 70.000 0.250
v 4.750 70.000 -0.250
v 4.750 70.000 0.250
v 5.266 69.484 -0.266
v 5.266 69.484 0.266
v 4.734 69.484 0.266
v 4.734 69.484 -0.266
v 5.266 70.016 -0.266
v 5.266 70.016 0.266
v 4.734 70.016 -0.266
v 4.734 70.016 0.266
v 0.250 69.500 5.250
v -0.250 69.500 5.250
v -0.250 69.500 4.750
v 0.250 69.500 4.750
v 0.250 70.000 5.250
v -0.250 70.000 5.250
v 0.250 70.000 4.750
v -0.250 70.000 4.750
v 0.266 69.484 5.266
v -0.266 69.484 5.266
v -0.266 69.484 4.734
v 0.266 69.484 4.734
v 0.266 70.016 5.266
v -0.266 70.016 5.266
v 0.266 70.016 4.734
v -0.266 70.016 4.734
v 0.500 68.500 0.500
v 1.500 68.500 0.500
v 1.500 69.000 0.500
v 0.500 69.000 0.500
v 1.500 68.500 -0.500
v 0.500 68.500 -0.500
v 0.500 69.000 -0.500
v 1.500 69.000 -0.500
v 1.000 69.000 0.500
v 1.000 69.500 0.500
v 0.500 69.500 0.500
v 1.000 69.000 -0.500
v 1.000 69.500 -0.500
v 1.500 68.500 0.500
v 2.500 68.500 0.500
v 2.500 69.000 0.500
v 1.500 69.000 0.500
v 2.500 68.500 -0.500
v 1.500 68.500 -0.500
v 1.500 69.000 -0.500
v 2.500 69.000 -0.500
v 2.000 69.000 0.500
v 2.000 69.500 0.500
v 1.500 69.500 0.500
v 1.500 69.500 -0.500
v 3.500 68.500 -0.500
v 4.500 68.500 -0.500
v 4.500 68.000 -0.500
v 3.500 68.000 -0.500
v 4.500 68.500 0.500
v 3.500 68.500 0.500
v 3.500 68.000 0.500
v 4.500 68.000 0.500
v 4.000 68.000 -0.500
v 4.000 67.500 -0.500
v 3.500 67.500 -0.500
v 5.500 71.500 0.500
v 4.500 71.500 0.500
v 4.500 71.000 0.500
v 5.500 71.000 0.500
v 5.000 71.000 -0.500
v 5.500 71.000 -0.500
v 5.500 70.500 -0.500
v 5.000 70.500 -0.500
v 5.500 69.500 -0.500
v 6.500 69.500 -0.500
v 6.500 69.000 -0.500
v 5.500 69.000 -0.500
v 6.500 69.500 0.500
v 5.500 69.500 0.500
v 5.500 69.000 0.500
v 6.500 69.000 0.500
v 6.000 69.000 -0.500
v 6.000 68.500 -0.500
v 5.500 68.500 -0.500
v 5.500 70.500 0.500
v 6.500 70.500 0.500
v 6.500 71.000 0.500
v 5.500 71.000 0.500
v 6.500 70.500 -0.500
v 5.500 70.500 -0.500
v 5.500 71.000 -0.500
v 6.500 71.000 -0.500
v 6.000 71.000 0.500
v 6.000 71.500 0.500
v 13.500 -0.500 0.500
v 14.500 -0.500 0.500
v 14.500 0.500 0.500
v 13.500 0.500 0.500
v 14.500 -0.500 -0.500
v 13.500 -0.500 -0.500
v 13.500 0.500 -0.500
v 14.500 0.500 -0.500
v 13.500 1.500 0.500
v 14.500 1.500 0.500
v 14.500 2.500 0.500
v 13.500 2.500 0.500
v 14.500 1.500 -0.500
v 13.500 1.500 -0.500
v 13.500 2.500 -0.500
v 14.500 2.500 -0.500
v 13.500 4.500 0.500
v 14.500 4.500 0.500
v 14.500 5.500 0.500
v 13.500 5.500 0.500
v 14.500 4.500 -0.500
v 13.500 4.500 -0.500
v 13.500 5.500 -0.500
v 14.500 5.500 -0.500
v 13.500 7.500 0.500
v 14.500 7.500 0.500
v 14.500 8.500 0.500
v 13.500 8.500 0.500
v 14.500 7.500 -0.500
v 13.500 7.500 -0.500
v 13.500 8.500 -0.500
v 14.500 8.500 -0.500
v 13.500 9.500 0.500
v 14.500 9.500 0.500
v 14.500 10.500 0.500
v 13.500 10.500 0.500
v 14.500 9.500 -0.500
v 13.500 9.500 -0.500
v 13.500 10.500 -0.500
v 14.500 10.500 -0.500
v 14.500 11.500 0.500
v 13.500 11.500 0.500
v 13.500 11.500 -0.500
v 14.500 11.500 -0.500
v 14.500 12.500 0.500
v 13.500 12.500 0.500
v 13.500 12.500 -0.500
v 14.500 12.500 -0.500
v 13.500 14.500 0.500
v 14.500 14.500 0.500
v 14.500 15.500 0.500
v 13.500 15.500 0.500
v 14.500 14.500 -0.500
v 13.500 14.500 -0.500
v 13.500 15.500 -0.500
v 14.500 15.500 -0.500
v 14.500 16.500 0.500
v 13.500 16.500 0.500
v 13.500 16.500 -0.500
v 14.500 16.500 -0.500
v 14.500 17.500 0.500
v 13.500 17.500 0.500
v 13.500 17.500 -0.500
v 14.500 17.500 -0.500
v 14.500 18.500 0.500
v 13.500 18.500 0.500
v 13.500 18.500 -0.500
v 14.500 18.500 -0.500
v 13.500 21.500 0.500
v 14.500 21.500 0.500
v 14.500 22.500 0.500
v 13.500 22.500 0.500
v 14.500 21.500 -0.500
v 13.500 21.500 -0.500
v 13.500 22.500 -0.500
v 14.500 22.500 -0.500
v 14.500 23.500 0.500
v 13.500 23.500 0.500
v 13.500 23.500 -0.500
v 14.500 23.500 -0.500
v 13.500 24.500 0.500
v 14.500 24.500 0.500
v 14.500 25.500 0.500
v 13.500 25.500 0.500
v 14.500 24.500 -0.500
v 13.500 24.500 -0.500
v 13.500 25.500 -0.500
v 14.500 25.500 -0.500
v 13.500 26.500 0.500
v 14.500 26.500 0.500
v 14.500 27.500 0.500
v 13.500 27.500 0.500
v 14.500 26.500 -0.500
v 13.500 26.500 -0.500
v 13.500 27.500 -0.500
v 14.500 27.500 -0.500
v 14.500 28.500 0.500
v 13.500 28.500 0.500
v 13.500 28.500 -0.500
v 14.500 28.500 -0.500
v 14.500 29.500 0.500
v 13.500 29.500 0.500
v 13.500 29.500 -0.500
v 14.500 29.500 -0.500
v -0.500 68.500 0.500
v -0.500 68.500 1.500
v -0.500 69.000 1.500
v -0.500 69.000 0.500
v 0.500 68.500 1.500
v 0.500 68.500 0.500
v 0.500 69.000 0.500
v 0.500 69.000 1.500
v -0.500 69.000 1.000
v -0.500 69.500 1.000
v -0.500 69.500 0.500
v 0.500 69.000 1.000
v 0.500 69.500 0.500
v 0.500 69.500 1.000
v 3.500 68.500 0.500
v 4.500 68.000 0.500
v 3.500 68.000 0.500
v 4.500 68.500 1.500
v 3.500 68.500 1.500
v 3.500 68.000 1.500
v 4.500 68.000 1.500
v 4.000 68.000 0.500
v 4.000 67.500 0.500
v 3.500 67.500 0.500
v -0.500 68.500 1.500
v -0.500 68.500 2.500
v -0.500 69.000 2.500
v -0.500 69.000 1.500
v 0.500 68.500 2.500
v 0.500 68.500 1.500
v 0.500 69.000 1.500
v 0.500 69.000 2.500
v -0.500 69.000 2.000
v -0.500 69.500 2.000
v -0.500 69.500 1.500
v 0.500 69.000 2.000
v 0.500 69.500 1.500
v 0.500 69.500 2.000
v 0.500 68.500 3.500
v 0.500 68.500 4.500
v 0.500 68.000 4.500
v 0.500 68.000 3.500
v -0.500 68.500 4.500
v -0.500 68.500 3.500
v -0.500 68.000 3.500
v -0.500 68.000 4.500
v 0.500 68.000 4.000
v 0.500 67.500 4.000
v 0.500 67.500 3.500
v 1.500 68.500 3.500
v 1.500 68.500 4.500
v 1.500 68.000 4.500
v 1.500 68.000 3.500
v 0.500 68.000 4.500
v -0.500 71.500 5.500
v -0.500 71.500 4.500
v -0.500 71.000 4.500
v -0.500 71.000 5.500
v 0.500 71.500 4.500
v 0.500 71.500 5.500
v 0.500 71.000 5.500
v 0.500 71.000 4.500
v -0.500 71.000 5.000
v -0.500 70.500 5.000
v -0.500 70.500 5.500
v 0.500 71.000 5.000
v 0.500 70.500 5.500
v 0.500 70.500 5.000
v 0.500 69.500 5.500
v 0.500 69.500 6.500
v 0.500 69.000 6.500
v 0.500 69.000 5.500
v -0.500 69.500 6.500
v -0.500 69.500 5.500
v -0.500 69.000 5.500
v -0.500 69.000 6.500
v 0.500 69.000 6.000
v 0.500 68.500 6.000
v 0.500 68.500 5.500
v -0.500 70.500 5.500
v -0.500 70.500 6.500
v -0.500 71.000 6.500
v -0.500 71.000 5.500
v 0.500 70.500 6.500
v 0.500 70.500 5.500
v 0.500 71.000 5.500
v 0.500 71.000 6.500
v -0.500 71.000 6.000
v -0.500 71.500 6.000
v -0.500 71.500 5.500
v 0.500 71.000 6.000
v 0.500 71.500 6.000
v 3.500 -0.500 13.500
v 4.500 -0.500 13.500
v 4.500 2.500 13.500
v 3.500 2.500 13.500
v 4.500 5.500 13.500
v 3.500 5.500 13.500
v 4.500 6.500 13.500
v 3.500 6.500 13.500
v 4.500 7.500 13.500
v 3.500 7.500 13.500
v 4.500 8.500 13.500
v 3.500 8.500 13.500
v 4.500 9.500 13.500
v 3.500 9.500 13.500
v 4.500 11.500 13.500
v 3.500 11.500 13.500
v 4.500 12.500 13.500
v 3.500 12.500 13.500
v 4.500 16.500 13.500
v 3.500 16.500 13.500
v 4.500 17.500 13.500
v 3.500 17.500 13.500
v 4.500 18.500 13.500
v 3.500 18.500 13.500
v 4.500 19.500 13.500
v 3.500 19.500 13.500
v 4.500 22.500 13.500
v 3.500 22.500 13.500
v 4.500 23.500 13.500
v 3.500 23.500 13.500
v 4.500 26.500 13.500
v 3.500 26.500 13.500
v 4.500 29.500 13.500
v 3.500 29.500 13.500
v 5.000 71.000 0.500
v 5.000 70.500 0.500
v -0.500 69.500 0.500
v 0.500 69.500 0.500
v 0.500 69.500 -0.500
v -0.500 69.500 -0.500
v 0.500 69.500 -0.500
v 2.000 69.500 -0.500
v 4.000 69.500 0.500
v 4.500 69.500 0.500
v 4.500 69.500 -0.500
v 4.000 69.500 -0.500
v 5.500 69.500 -0.500
v 6.500 69.500 0.500
v 6.500 69.500 -0.500
v 3.500 69.500 1.500
v 4.500 69.500 1.500
v 3.500 69.500 0.500
v 5.500 69.500 1.500
v 4.000 69.500 2.500
v 5.500 69.500 2.500
v 4.000 69.500 1.500
v 3.500 69.500 3.500
v 4.500 69.500 3.500
v 4.500 69.500 2.500
v 3.500 69.500 2.500
v -0.500 69.500 4.000
v -0.500 69.500 4.500
v 0.500 69.500 4.500
v 0.500 69.500 4.000
v 1.500 69.500 4.500
v 1.500 69.500 3.500
v 0.500 69.500 3.500
v 1.500 69.500 4.000
v 2.500 69.500 4.500
v 2.500 69.500 4.000
v 3.500 69.500 4.500
v 2.500 69.500 3.500
v -0.500 69.500 4.500
v 2.500 69.500 5.500
v 0.500 69.500 6.500
v -0.500 69.500 6.500
v 3.000 68.000 0.500
v 3.000 68.000 1.500
v 3.000 68.500 1.500
v 3.000 68.500 0.500
v 11.500 29.500 7.500
v 10.500 29.500 7.500
v 10.500 29.500 8.500
v 11.500 29.500 8.500
v 4.500 29.500 12.500
v 3.500 29.500 12.500
v 0.500 65.000 0.500
v -0.500 65.000 0.500
v -0.500 65.000 -0.500
v 0.500 65.000 -0.500
v 5.500 68.500 0.500
v 5.500 71.500 -0.500
v 5.500 70.500 0.500
v 5.500 71.500 0.500
v 5.500 71.500 -0.500
v 5.500 72.500 -0.500
v 5.500 72.500 0.500
v 5.500 73.000 -0.500
v 5.500 73.000 0.500
v 5.500 70.500 -0.500
v 5.500 71.500 -0.500
v 5.500 68.000 1.500
v 5.500 68.000 0.500
v 5.500 69.000 2.500
v 5.500 69.000 1.500
v 5.500 69.000 2.000
v 5.500 68.500 2.000
v 5.500 68.500 1.500
v 2.500 67.500 0.500
v 2.500 67.500 -0.500
v 4.000 67.500 0.500
v 4.000 67.500 1.500
v 2.500 67.500 1.500
v 0.500 67.500 3.500
v -0.500 67.500 3.500
v -0.500 67.500 2.500
v 0.500 67.500 2.500
v 0.500 67.500 3.500
v 1.500 67.500 2.500
v 1.500 67.500 3.500
v -0.500 67.500 4.000
v 1.500 67.500 4.000
v 3.500 68.500 -0.500
v 3.500 69.000 0.500
v 3.500 69.000 -0.500
v 3.500 67.500 1.500
v 3.500 68.500 2.500
v 3.500 69.000 2.500
v 3.500 69.000 1.500
v 3.500 68.500 3.500
v 3.500 68.500 4.500
v 3.500 -0.500 12.500
v 3.500 2.500 12.500
v 3.500 5.500 12.500
v 3.500 6.500 12.500
v 3.500 7.500 12.500
v 3.500 8.500 12.500
v 3.500 9.500 12.500
v 3.500 11.500 12.500
v 3.500 12.500 12.500
v 3.500 16.500 12.500
v 3.500 17.500 12.500
v 3.500 18.500 12.500
v 3.500 19.500 12.500
v 3.500 22.500 12.500
v 3.500 23.500 12.500
v 3.500 26.500 12.500
v -0.500 65.500 0.500
v 0.500 65.500 0.500
v 0.500 65.500 -0.500
v -0.500 65.500 -0.500
v 4.500 69.000 0.500
v 4.500 69.000 -0.500
v 4.500 69.000 2.500
v 4.500 69.000 1.500
v 4.500 69.000 1.500
v -0.500 69.000 3.500
v -0.500 69.000 4.500
v 0.500 69.000 4.500
v 0.500 69.000 3.500
v 1.500 69.000 3.500
v 1.500 69.000 4.500
v 2.500 69.000 4.500
v 2.500 69.000 3.500
v 2.500 69.000 5.500
v 1.500 69.000 5.500
v 1.500 68.000 -0.500
v 1.500 68.000 0.500
v 1.500 68.500 0.500
v 1.500 68.500 -0.500
v 1.500 68.000 2.500
v 1.500 68.000 4.000
v 1.500 68.000 3.000
v 1.500 68.500 3.000
v 1.500 68.500 4.500
v 1.500 68.000 5.500
v 1.500 68.000 4.500
v 1.500 69.500 5.500
v 4.500 71.500 -0.500
v 4.500 71.000 -0.500
v 10.500 -0.500 7.500
v 11.500 -0.500 7.500
v 11.500 -0.500 8.500
v 10.500 -0.500 8.500
v 4.500 -0.500 12.500
v 11.500 0.500 7.500
v 11.500 0.500 8.500
v 11.500 2.500 7.500
v 11.500 2.500 8.500
v 11.500 3.500 7.500
v 11.500 3.500 8.500
v 11.500 8.500 7.500
v 11.500 8.500 8.500
v 11.500 9.500 7.500
v 11.500 9.500 8.500
v 11.500 10.500 7.500
v 11.500 10.500 8.500
v 11.500 11.500 7.500
v 11.500 11.500 8.500
v 11.500 13.500 7.500
v 11.500 13.500 8.500
v 11.500 17.500 7.500
v 11.500 17.500 8.500
v 11.500 18.500 7.500
v 11.500 18.500 8.500
v 11.500 22.500 7.500
v 11.500 22.500 8.500
v 11.500 23.500 7.500
v 11.500 23.500 8.500
v 11.500 24.500 7.500
v 11.500 24.500 8.500
v 11.500 26.500 7.500
v 11.500 26.500 8.500
v 11.500 27.500 7.500
v 11.500 27.500 8.500
v 4.500 69.000 2.000
v 4.500 68.500 2.000
v -0.500 68.500 2.500
v 0.500 68.500 2.500
v 0.500 68.000 2.500
v 4.500 68.500 2.500
v 2.000 69.000 -0.500
v 6.000 71.000 -0.500
v 6.000 71.500 -0.500
v -0.500 69.000 6.000
v -0.500 68.500 6.000
v -0.500 68.500 0.500
v 0.500 68.500 0.500
v 2.500 68.000 0.500
v 2.500 68.500 0.500
v 4.000 68.000 0.500
v 4.500 71.500 0.500
v 4.500 72.500 0.500
v 4.500 73.000 0.500
v 6.000 69.000 0.500
v 6.000 68.500 0.500
v 6.500 70.500 0.500
v 13.500 0.500 0.500
v 14.500 0.500 0.500
v 14.500 1.500 0.500
v 13.500 1.500 0.500
v 13.500 2.500 0.500
v 14.500 2.500 0.500
v 14.500 4.500 0.500
v 13.500 4.500 0.500
v 13.500 5.500 0.500
v 14.500 5.500 0.500
v 14.500 7.500 0.500
v 13.500 7.500 0.500
v 13.500 8.500 0.500
v 14.500 8.500 0.500
v 14.500 9.500 0.500
v 13.500 9.500 0.500
v 13.500 12.500 0.500
v 14.500 12.500 0.500
v 14.500 14.500 0.500
v 13.500 14.500 0.500
v 13.500 18.500 0.500
v 14.500 18.500 0.500
v 14.500 19.500 0.500
v 13.500 19.500 0.500
v 14.500 21.500 0.500
v 13.500 21.500 0.500
v 13.500 23.500 0.500
v 14.500 23.500 0.500
v 14.500 24.500 0.500
v 13.500 24.500 0.500
v 13.500 25.500 0.500
v 14.500 25.500 0.500
v 14.500 26.500 0.500
v 13.500 26.500 0.500
v 4.500 68.500 0.500
v 4.500 68.000 0.500
v 4.500 71.500 -0.500
v 0.500 71.500 5.500
v -0.500 71.500 4.500
v 0.500 71.500 4.500
v -0.500 68.000 4.000
v 0.500 69.000 4.000
v -0.500 69.000 4.000
v 2.500 69.000 4.000
v 1.500 69.000 4.000
v 0.500 70.500 6.500
v -0.500 70.500 6.500
v 13.500 4.500 -0.500
v 13.500 5.500 -0.500
v 13.500 9.500 -0.500
v 13.500 18.500 -0.500
v 13.500 19.500 -0.500
v 13.500 25.500 -0.500
v 2.500 68.500 4.500
v 0.500 68.500 4.500
v -0.500 68.500 4.500
v -0.500 72.500 4.500
v 0.500 72.500 4.500
v -0.500 73.000 4.500
v 0.500 73.000 4.500
v 0.500 68.000 4.500
v 2.000 69.000 4.500
v 2.000 68.500 4.500
v 4.500 73.000 -0.500
v -0.500 73.000 5.500
v 0.500 73.000 5.500
v 10.500 0.500 8.500
v 10.500 2.500 8.500
v 10.500 3.500 8.500
v 10.500 8.500 8.500
v 10.500 9.500 8.500
v 10.500 10.500 8.500
v 10.500 11.500 8.500
v 10.500 13.500 8.500
v 10.500 17.500 8.500
v 10.500 18.500 8.500
v 10.500 22.500 8.500
v 10.500 23.500 8.500
v 10.500 24.500 8.500
v 10.500 26.500 8.500
v 10.500 27.500 8.500
v 4.500 2.500 12.500
v 4.500 5.500 12.500
v 4.500 6.500 12.500
v 4.500 7.500 12.500
v 4.500 8.500 12.500
v 4.500 9.500 12.500
v 4.500 11.500 12.500
v 4.500 12.500 12.500
v 4.500 16.500 12.500
v 4.500 17.500 12.500
v 4.500 18.500 12.500
v 4.500 19.500 12.500
v 4.500 22.500 12.500
v 4.500 23.500 12.500
v 4.500 26.500 12.500
v 0.500 68.500 -0.500
v 0.500 68.000 1.500
v 0.500 68.500 1.500
v 0.500 68.000 4.000
v 0.500 72.500 5.500
v 0.500 68.000 5.500
v 0.500 68.500 5.500
v 0.500 70.500 5.500
v 4.000 68.000 1.500
v 4.000 69.000 -0.500
v 4.000 69.000 0.500
v 4.000 69.000 1.500
v 4.000 69.000 2.500
v -0.500 68.500 -0.500
v 4.500 68.500 -0.500
v 4.500 68.500 1.500
v -0.500 68.500 1.500
v 4.500 68.500 1.500
v 0.500 68.500 3.000
v 0.500 68.500 3.500
v 4.500 68.500 3.500
v -0.500 68.500 4.500
v 0.500 68.500 3.500
v 2.500 68.500 3.500
v -0.500 68.500 5.500
v 1.500 68.500 5.500
v 2.000 68.500 5.500
v 2.000 69.000 5.500
v 2.500 68.000 -0.500
v 2.500 68.000 1.500
v -0.500 68.000 2.500
v -0.500 68.000 1.500
v 0.500 68.000 3.500
v 4.500 72.500 -0.500
v 4.500 68.000 1.500
v 4.500 69.500 1.500
v 13.500 0.500 -0.500
v 13.500 1.500 -0.500
v 13.500 2.500 -0.500
v 13.500 7.500 -0.500
v 13.500 8.500 -0.500
v 13.500 12.500 -0.500
v 13.500 14.500 -0.500
v 14.500 19.500 -0.500
v 13.500 21.500 -0.500
v 13.500 23.500 -0.500
v 13.500 24.500 -0.500
v 13.500 26.500 -0.500
v 10.500 0.500 7.500
v 10.500 2.500 7.500
v 10.500 3.500 7.500
v 10.500 8.500 7.500
v 10.500 9.500 7.500
v 10.500 10.500 7.500
v 10.500 11.500 7.500
v 10.500 13.500 7.500
v 10.500 17.500 7.500
v 10.500 18.500 7.500
v 10.500 22.500 7.500
v 10.500 23.500 7.500
v 10.500 24.500 7.500
v 10.500 26.500 7.500
v 10.500 27.500 7.500
v 0.500 68.000 3.000
v -0.500 72.500 5.500
v -0.500 70.500 5.500
v -0.250 69.500 -5.250
v 0.250 69.500 -5.250
v 0.250 69.500 -4.750
v -0.250 69.500 -4.750
v -0.250 70.000 -5.250
v 0.250 70.000 -5.250
v -0.250 70.000 -4.750
v 0.250 70.000 -4.750
v -0.266 69.484 -5.266
v 0.266 69.484 -5.266
v 0.266 69.484 -4.734
v -0.266 69.484 -4.734
v -0.266 70.016 -5.266
v 0.266 70.016 -5.266
v -0.266 70.016 -4.734
v 0.266 70.016 -4.734
v -0.500 69.500 -5.500
v -0.500 69.500 -6.500
v -0.500 69.000 -6.500
v -0.500 69.000 -5.500
v 0.500 69.500 -6.500
v 0.500 69.500 -5.500
v 0.500 69.000 -5.500
v 0.500 69.000 -6.500
v -0.500 69.000 -6.000
v -0.500 68.500 -6.000
v -0.500 68.500 -5.500
v 0.500 69.000 -6.000
v 0.500 68.500 -5.500
v 0.500 68.500 -6.000
v 0.500 70.500 -5.500
v 0.500 70.500 -6.500
v 0.500 71.000 -6.500
v 0.500 71.000 -5.500
v -0.500 70.500 -6.500
v -0.500 70.500 -5.500
v -0.500 71.000 -5.500
v -0.500 71.000 -6.500
v -0.500 71.000 -6.000
v -0.500 71.500 -5.500
v -0.500 71.500 -6.000
v 0.500 71.500 -5.500
v 0.500 71.500 -4.500
v 0.500 71.000 -4.500
v -0.500 71.500 -4.500
v -0.500 71.500 -5.500
v -0.500 71.000 -5.500
v -0.500 71.000 -4.500
v 0.500 71.000 -5.000
v 0.500 70.500 -5.000
v 0.500 70.500 -5.500
v -0.500 68.500 -3.500
v -0.500 68.500 -4.500
v -0.500 68.000 -4.500
v -0.500 68.000 -3.500
v 0.500 68.500 -4.500
v 0.500 68.500 -3.500
v 0.500 68.000 -3.500
v 0.500 68.000 -4.500
v -0.500 68.000 -4.000
v -0.500 67.500 -4.000
v -0.500 67.500 -3.500
v 0.500 68.000 -4.000
v 0.500 67.500 -3.500
v 0.500 67.500 -4.000
v 0.500 68.500 -3.500
v 0.500 68.000 -4.500
v 0.500 68.000 -3.500
v 0.500 68.000 -4.000
v 0.500 67.500 -4.000
v 0.500 68.500 -1.500
v 0.500 68.500 -2.500
v 0.500 69.000 -2.500
v 0.500 69.000 -1.500
v -0.500 68.500 -2.500
v -0.500 68.500 -1.500
v -0.500 69.000 -1.500
v -0.500 69.000 -2.500
v -0.500 69.000 -2.000
v -0.500 69.500 -1.500
v -0.500 69.500 -2.000
v 0.500 68.500 -0.500
v 0.500 68.500 -1.500
v 0.500 69.000 -1.500
v 0.500 69.000 -0.500
v -0.500 68.500 -1.500
v -0.500 68.500 -0.500
v -0.500 69.000 -0.500
v -0.500 69.000 -1.500
v -0.500 69.000 -1.000
v -0.500 69.500 -0.500
v -0.500 69.500 -1.000
v 0.500 69.000 -1.000
v 0.500 69.500 -1.000
v 3.500 68.500 -1.500
v 4.500 68.500 -1.500
v 4.500 68.000 -1.500
v 3.500 68.000 -1.500
v 4.500 68.500 -0.500
v 3.500 68.500 -0.500
v 3.500 68.000 -0.500
v 4.500 68.000 -0.500
v 0.500 69.000 -2.000
v 0.500 69.500 -2.000
v 4.500 69.000 -2.000
v 5.500 69.000 -2.000
v 5.500 68.500 -2.000
v 4.500 68.500 -2.000
v 0.500 68.000 -3.000
v 1.500 68.000 -3.000
v 1.500 68.500 -3.000
v 0.500 68.500 -3.000
v 1.500 68.000 -4.000
v 1.500 67.500 -4.000
v -0.500 69.000 -4.000
v 0.500 69.000 -4.000
v 0.500 69.500 -4.000
v -0.500 69.500 -4.000
v 1.500 69.000 -4.000
v 2.500 69.000 -4.000
v 2.500 69.500 -4.000
v 1.500 69.500 -4.000
v 0.500 69.500 -5.500
v 0.500 69.500 -6.500
v 0.500 70.500 -6.500
v 0.500 71.000 -6.000
v 0.500 71.500 -6.000
v 0.500 71.500 -4.500
v 0.500 72.500 -5.500
v 0.500 72.500 -4.500
v 0.500 73.000 -5.500
v 0.500 73.000 -4.500
v 0.500 68.000 -5.500
v 0.500 68.000 -4.500
v 0.500 68.500 -4.500
v 0.500 68.500 -5.500
v 0.500 68.500 -3.500
v 0.500 69.500 -3.500
v 0.500 69.500 -4.500
v 0.500 67.500 -2.500
v 0.500 67.500 -3.500
v 0.500 68.500 -2.500
v 0.500 68.000 -1.500
v 0.500 68.000 -2.500
v 0.500 69.500 -1.500
v 0.500 69.500 -0.500
v 4.000 69.000 -2.500
v 4.000 69.000 -1.500
v 4.000 69.500 -1.500
v 4.000 69.500 -2.500
v 4.000 68.000 -1.500
v 4.000 68.000 -0.500
v 4.000 67.500 -0.500
v 4.000 67.500 -1.500
v -0.500 69.500 -6.500
v -0.500 69.500 -4.500
v 2.500 69.500 -4.500
v 2.500 69.500 -5.500
v 0.500 69.500 -4.500
v -0.500 69.500 -4.500
v 1.500 69.500 -3.500
v 1.500 69.500 -4.500
v 1.500 69.500 -4.500
v 2.500 69.500 -3.500
v 3.500 69.500 -3.500
v 3.500 69.500 -4.500
v 3.500 69.500 -2.500
v 4.500 69.500 -2.500
v 4.500 69.500 -3.500
v 5.500 69.500 -1.500
v 5.500 69.500 -2.500
v 3.500 69.500 -0.500
v 4.500 69.500 -0.500
v 4.500 69.500 -1.500
v 3.500 69.500 -1.500
v 5.500 69.500 -0.500
v 3.000 68.000 -1.500
v 3.000 68.000 -0.500
v 3.000 68.500 -0.500
v 3.000 68.500 -1.500
v -0.500 68.500 -4.500
v -0.500 68.500 -5.500
v 1.500 68.500 -4.500
v 1.500 68.500 -5.500
v 2.000 68.500 -4.500
v 2.000 68.500 -5.500
v 0.500 68.500 -3.500
v -0.500 68.500 -3.500
v 1.500 68.500 -3.500
v 2.500 68.500 -4.500
v 2.500 68.500 -3.500
v 1.500 68.500 -4.500
v 3.500 68.500 -3.500
v 3.500 68.500 -4.500
v 4.500 68.500 -2.500
v 3.500 68.500 -2.500
v 4.500 68.500 -3.500
v 4.500 68.500 -1.500
v 5.500 68.500 -1.500
v 4.500 68.500 -0.500
v 5.500 68.500 -0.500
v 2.000 69.000 -5.500
v 2.000 69.000 -4.500
v 4.500 29.500 -13.500
v 3.500 29.500 -13.500
v 3.500 29.500 -12.500
v 4.500 29.500 -12.500
v 10.500 29.500 -7.500
v 11.500 29.500 -7.500
v 11.500 29.500 -8.500
v 10.500 29.500 -8.500
v 4.500 -0.500 -13.500
v 3.500 -0.500 -13.500
v 3.500 2.500 -13.500
v 4.500 2.500 -13.500
v 3.500 4.500 -13.500
v 4.500 4.500 -13.500
v 3.500 6.500 -13.500
v 4.500 6.500 -13.500
v 3.500 7.500 -13.500
v 4.500 7.500 -13.500
v 3.500 8.500 -13.500
v 4.500 8.500 -13.500
v 3.500 9.500 -13.500
v 4.500 9.500 -13.500
v 3.500 10.500 -13.500
v 4.500 10.500 -13.500
v 3.500 11.500 -13.500
v 4.500 11.500 -13.500
v 3.500 17.500 -13.500
v 4.500 17.500 -13.500
v 3.500 18.500 -13.500
v 4.500 18.500 -13.500
v 3.500 20.500 -13.500
v 4.500 20.500 -13.500
v 3.500 22.500 -13.500
v 4.500 22.500 -13.500
v 3.500 23.500 -13.500
v 4.500 23.500 -13.500
v 3.500 24.500 -13.500
v 4.500 24.500 -13.500
v 3.500 25.500 -13.500
v 4.500 25.500 -13.500
v 3.500 27.500 -13.500
v 4.500 27.500 -13.500
v 1.500 68.000 -4.500
v 1.500 68.000 -5.500
v 1.500 68.000 -2.500
v 1.500 68.000 -3.500
v 0.500 68.000 -3.500
v 0.500 68.000 -2.500
v -0.500 68.000 -1.500
v -0.500 68.000 -2.500
v 2.500 68.000 -0.500
v 2.500 68.000 -1.500
v 5.500 68.000 -0.500
v 5.500 68.000 -1.500
v 3.500 -0.500 -12.500
v 4.500 -0.500 -12.500
v 4.500 2.500 -12.500
v 3.500 2.500 -12.500
v 4.500 4.500 -12.500
v 3.500 4.500 -12.500
v 4.500 6.500 -12.500
v 3.500 6.500 -12.500
v 4.500 7.500 -12.500
v 3.500 7.500 -12.500
v 4.500 8.500 -12.500
v 3.500 8.500 -12.500
v 4.500 9.500 -12.500
v 3.500 9.500 -12.500
v 4.500 10.500 -12.500
v 3.500 10.500 -12.500
v 4.500 11.500 -12.500
v 3.500 11.500 -12.500
v 4.500 17.500 -12.500
v 3.500 17.500 -12.500
v 4.500 18.500 -12.500
v 3.500 18.500 -12.500
v 4.500 20.500 -12.500
v 3.500 20.500 -12.500
v 4.500 22.500 -12.500
v 3.500 22.500 -12.500
v 4.500 23.500 -12.500
v 3.500 23.500 -12.500
v 4.500 24.500 -12.500
v 3.500 24.500 -12.500
v 4.500 25.500 -12.500
v 3.500 25.500 -12.500
v 4.500 27.500 -12.500
v 3.500 27.500 -12.500
v 5.500 69.000 -1.500
v 5.500 69.000 -2.500
v 4.500 69.000 -2.500
v 4.500 69.000 -1.500
v 4.500 68.000 -1.500
v 4.500 68.000 -0.500
v 11.500 -0.500 -8.500
v 10.500 -0.500 -8.500
v 10.500 5.500 -8.500
v 11.500 5.500 -8.500
v 10.500 9.500 -8.500
v 11.500 9.500 -8.500
v 10.500 10.500 -8.500
v 11.500 10.500 -8.500
v 10.500 12.500 -8.500
v 11.500 12.500 -8.500
v 10.500 17.500 -8.500
v 11.500 17.500 -8.500
v 10.500 23.500 -8.500
v 11.500 23.500 -8.500
v 10.500 25.500 -8.500
v 11.500 25.500 -8.500
v 1.500 67.500 -3.500
v -0.500 67.500 -2.500
v -0.500 67.500 -3.500
v 1.500 67.500 -2.500
v 0.500 67.500 -2.500
v 0.500 67.500 -3.500
v 2.500 67.500 -0.500
v 2.500 67.500 -1.500
v 3.500 69.000 -1.500
v 3.500 69.000 -2.500
v 3.500 67.500 -0.500
v 3.500 67.500 -1.500
v 2.500 69.000 -4.500
v 2.500 69.000 -5.500
v 1.500 69.000 -4.500
v 1.500 69.000 -5.500
v 0.500 69.000 -3.500
v 0.500 69.000 -4.500
v -0.500 69.000 -4.500
v -0.500 69.000 -3.500
v 2.500 69.000 -3.500
v 1.500 69.000 -4.500
v 1.500 69.000 -3.500
v 1.500 69.500 -5.500
v -0.500 71.500 -4.500
v -0.500 72.500 -4.500
v -0.500 73.000 -4.500
v -0.500 70.500 -5.500
v -0.500 72.500 -5.500
v -0.500 73.000 -5.500
v 10.500 -0.500 -7.500
v 11.500 -0.500 -7.500
v 11.500 5.500 -7.500
v 10.500 5.500 -7.500
v 11.500 9.500 -7.500
v 10.500 9.500 -7.500
v 11.500 10.500 -7.500
v 10.500 10.500 -7.500
v 11.500 12.500 -7.500
v 10.500 12.500 -7.500
v 11.500 17.500 -7.500
v 10.500 17.500 -7.500
v 11.500 23.500 -7.500
v 10.500 23.500 -7.500
v 11.500 25.500 -7.500
v 10.500 25.500 -7.500
v -0.500 71.000 -5.000
v -0.500 70.500 -5.000
v -1.500 68.500 -3.500
v -1.500 68.500 -4.500
v -1.500 68.000 -4.500
v -1.500 68.000 -3.500
v -0.500 68.500 -4.500
v -0.500 68.500 -3.500
v -0.500 68.000 -3.500
v -0.500 68.000 -4.500
v -1.500 68.000 -4.000
v -1.500 67.500 -4.000
v -1.500 67.500 -3.500
v -0.500 68.000 -4.000
v -0.500 67.500 -3.500
v -0.500 67.500 -4.000
v -1.500 67.500 -3.500
v -1.500 67.500 -2.500
v -1.500 68.000 -2.500
v -1.500 68.000 -3.500
v -1.500 68.000 -3.000
v -1.500 68.500 -3.000
v -1.500 68.500 -3.500
v -3.500 68.500 -0.500
v -4.500 68.500 -0.500
v -4.500 68.000 -0.500
v -3.500 68.000 -0.500
v -4.000 68.000 -0.500
v -4.000 67.500 -0.500
v -3.500 67.500 -0.500
v -5.500 69.000 -2.000
v -4.500 69.000 -2.000
v -4.500 68.500 -2.000
v -5.500 68.500 -2.000
v -0.500 68.000 -3.000
v -0.500 68.500 -3.000
v -2.500 69.000 -4.000
v -1.500 69.000 -4.000
v -1.500 69.500 -4.000
v -2.500 69.500 -4.000
v -0.500 69.500 -5.500
v -2.500 69.500 -5.500
v -2.500 69.500 -4.500
v -0.500 69.500 -4.500
v -3.500 69.500 -3.500
v -2.500 69.500 -3.500
v -3.500 69.500 -4.500
v -1.500 69.500 -4.500
v -1.500 69.500 -3.500
v -0.500 69.500 -3.500
v -1.500 69.500 -4.500
v -4.500 69.500 -2.500
v -3.500 69.500 -2.500
v -4.500 69.500 -3.500
v -4.000 69.500 -1.500
v -4.000 69.500 -2.500
v -5.500 69.500 -2.500
v -5.500 69.500 -1.500
v -5.500 69.500 -0.500
v -4.500 69.500 -0.500
v -4.500 69.500 -1.500
v -3.500 69.500 -0.500
v -3.500 69.500 -1.500
v -2.000 68.500 -5.500
v -1.500 68.500 -5.500
v -2.000 68.500 -4.500
v -0.500 68.500 -5.500
v -2.500 68.500 -3.500
v -3.500 68.500 -3.500
v -3.500 68.500 -4.500
v -2.500 68.500 -4.500
v -1.500 68.500 -4.500
v -3.500 68.500 -2.500
v -4.500 68.500 -2.500
v -4.500 68.500 -3.500
v -0.500 68.500 -3.500
v -4.500 68.500 -1.500
v -5.500 68.500 -1.500
v -3.500 68.500 -1.500
v -4.500 68.500 -1.500
v -4.500 68.500 -0.500
v -5.500 68.500 -0.500
v -3.500 68.500 -0.500
v -3.000 68.500 -1.500
v -3.000 68.500 -0.500
v -3.500 29.500 -13.500
v -4.500 29.500 -13.500
v -4.500 29.500 -12.500
v -3.500 29.500 -12.500
v -11.500 29.500 -7.500
v -10.500 29.500 -7.500
v -10.500 29.500 -8.500
v -11.500 29.500 -8.500
v -3.500 -0.500 -13.500
v -4.500 -0.500 -13.500
v -4.500 0.500 -13.500
v -3.500 0.500 -13.500
v -4.500 2.500 -13.500
v -3.500 2.500 -13.500
v -4.500 3.500 -13.500
v -3.500 3.500 -13.500
v -4.500 5.500 -13.500
v -3.500 5.500 -13.500
v -4.500 8.500 -13.500
v -3.500 8.500 -13.500
v -4.500 12.500 -13.500
v -3.500 12.500 -13.500
v -4.500 13.500 -13.500
v -3.500 13.500 -13.500
v -4.500 17.500 -13.500
v -3.500 17.500 -13.500
v -4.500 19.500 -13.500
v -3.500 19.500 -13.500
v -4.500 20.500 -13.500
v -3.500 20.500 -13.500
v -4.500 21.500 -13.500
v -3.500 21.500 -13.500
v -4.500 22.500 -13.500
v -3.500 22.500 -13.500
v -4.500 23.500 -13.500
v -3.500 23.500 -13.500
v -4.500 24.500 -13.500
v -3.500 24.500 -13.500
v -4.500 25.500 -13.500
v -3.500 25.500 -13.500
v -4.500 27.500 -13.500
v -3.500 27.500 -13.500
v -4.500 28.500 -13.500
v -3.500 28.500 -13.500
v -1.500 68.000 -5.500
v -0.500 68.000 -5.500
v -0.500 68.000 -2.500
v -0.500 68.000 -3.500
v -5.500 68.000 -0.500
v -5.500 68.000 -1.500
v -3.500 68.000 -1.500
v -2.500 68.000 -1.500
v -3.500 68.000 -0.500
v -2.500 68.000 -0.500
v -4.500 -0.500 -12.500
v -3.500 -0.500 -12.500
v -3.500 0.500 -12.500
v -4.500 0.500 -12.500
v -3.500 2.500 -12.500
v -4.500 2.500 -12.500
v -3.500 3.500 -12.500
v -4.500 3.500 -12.500
v -3.500 5.500 -12.500
v -4.500 5.500 -12.500
v -3.500 8.500 -12.500
v -4.500 8.500 -12.500
v -3.500 12.500 -12.500
v -4.500 12.500 -12.500
v -3.500 13.500 -12.500
v -4.500 13.500 -12.500
v -3.500 17.500 -12.500
v -4.500 17.500 -12.500
v -3.500 19.500 -12.500
v -4.500 19.500 -12.500
v -3.500 20.500 -12.500
v -4.500 20.500 -12.500
v -3.500 21.500 -12.500
v -4.500 21.500 -12.500
v -3.500 22.500 -12.500
v -4.500 22.500 -12.500
v -3.500 23.500 -12.500
v -4.500 23.500 -12.500
v -3.500 24.500 -12.500
v -4.500 24.500 -12.500
v -3.500 25.500 -12.500
v -4.500 25.500 -12.500
v -3.500 27.500 -12.500
v -4.500 27.500 -12.500
v -3.500 28.500 -12.500
v -4.500 28.500 -12.500
v -10.500 -0.500 -8.500
v -11.500 -0.500 -8.500
v -11.500 1.500 -8.500
v -10.500 1.500 -8.500
v -11.500 6.500 -8.500
v -10.500 6.500 -8.500
v -11.500 7.500 -8.500
v -10.500 7.500 -8.500
v -11.500 9.500 -8.500
v -10.500 9.500 -8.500
v -11.500 11.500 -8.500
v -10.500 11.500 -8.500
v -11.500 14.500 -8.500
v -10.500 14.500 -8.500
v -11.500 16.500 -8.500
v -10.500 16.500 -8.500
v -11.500 17.500 -8.500
v -10.500 17.500 -8.500
v -11.500 18.500 -8.500
v -10.500 18.500 -8.500
v -11.500 19.500 -8.500
v -10.500 19.500 -8.500
v -11.500 20.500 -8.500
v -10.500 20.500 -8.500
v -11.500 22.500 -8.500
v -10.500 22.500 -8.500
v -11.500 25.500 -8.500
v -10.500 25.500 -8.500
v -11.500 27.500 -8.500
v -10.500 27.500 -8.500
v -0.500 67.500 -3.500
v -4.000 67.500 -1.500
v -2.500 67.500 -1.500
v -2.500 67.500 -0.500
v -2.500 69.000 -5.500
v -1.500 69.000 -5.500
v -1.500 69.000 -4.500
v -2.500 69.000 -4.500
v -1.500 69.000 -3.500
v -1.500 69.000 -4.500
v -2.500 69.000 -3.500
v -4.500 69.000 -2.500
v -4.500 69.000 -1.500
v -5.500 69.000 -1.500
v -5.500 69.000 -2.500
v -3.500 69.000 -2.500
v -4.500 69.000 -1.500
v -3.500 69.000 -1.500
v -2.000 69.000 -4.500
v -1.500 69.500 -5.500
v -2.000 69.000 -5.500
v -11.500 -0.500 -7.500
v -10.500 -0.500 -7.500
v -10.500 1.500 -7.500
v -11.500 1.500 -7.500
v -10.500 6.500 -7.500
v -11.500 6.500 -7.500
v -10.500 7.500 -7.500
v -11.500 7.500 -7.500
v -10.500 9.500 -7.500
v -11.500 9.500 -7.500
v -10.500 11.500 -7.500
v -11.500 11.500 -7.500
v -10.500 14.500 -7.500
v -11.500 14.500 -7.500
v -10.500 16.500 -7.500
v -11.500 16.500 -7.500
v -10.500 17.500 -7.500
v -11.500 17.500 -7.500
v -10.500 18.500 -7.500
v -11.500 18.500 -7.500
v -10.500 19.500 -7.500
v -11.500 19.500 -7.500
v -10.500 20.500 -7.500
v -11.500 20.500 -7.500
v -10.500 22.500 -7.500
v -11.500 22.500 -7.500
v -10.500 25.500 -7.500
v -11.500 25.500 -7.500
v -10.500 27.500 -7.500
v -11.500 27.500 -7.500
v -4.500 68.000 -0.500
v -3.000 68.000 -1.500
v -4.000 68.000 -1.500
v -0.500 67.500 -2.500
v -3.000 68.000 -0.500
v -4.000 69.000 -1.500
v -4.000 69.000 -2.500
v -4.500 69.500 -1.500
v -4.500 68.000 -1.500
v -3.500 67.500 -1.500
v -3.500 67.500 -0.500
v -5.250 69.500 0.250
v -5.250 69.500 -0.250
v -4.750 69.500 -0.250
v -4.750 69.500 0.250
v -5.250 70.000 0.250
v -5.250 70.000 -0.250
v -4.750 70.000 0.250
v -4.750 70.000 -0.250
v -5.266 69.484 0.266
v -5.266 69.484 -0.266
v -4.734 69.484 -0.266
v -4.734 69.484 0.266
v -5.266 70.016 0.266
v -5.266 70.016 -0.266
v -4.734 70.016 0.266
v -4.734 70.016 -0.266
v -14.500 -0.500 0.500
v -13.500 -0.500 0.500
v -13.500 0.500 0.500
v -14.500 0.500 0.500
v -13.500 -0.500 -0.500
v -14.500 -0.500 -0.500
v -14.500 0.500 -0.500
v -13.500 0.500 -0.500
v -13.500 1.500 0.500
v -14.500 1.500 0.500
v -14.500 1.500 -0.500
v -13.500 1.500 -0.500
v -14.500 4.500 0.500
v -13.500 4.500 0.500
v -13.500 5.500 0.500
v -14.500 5.500 0.500
v -13.500 4.500 -0.500
v -14.500 4.500 -0.500
v -14.500 5.500 -0.500
v -13.500 5.500 -0.500
v -14.500 8.500 0.500
v -13.500 8.500 0.500
v -13.500 9.500 0.500
v -14.500 9.500 0.500
v -13.500 8.500 -0.500
v -14.500 8.500 -0.500
v -14.500 9.500 -0.500
v -13.500 9.500 -0.500
v -13.500 10.500 0.500
v -14.500 10.500 0.500
v -14.500 10.500 -0.500
v -13.500 10.500 -0.500
v -14.500 12.500 0.500
v -13.500 12.500 0.500
v -13.500 13.500 0.500
v -14.500 13.500 0.500
v -13.500 12.500 -0.500
v -14.500 12.500 -0.500
v -14.500 13.500 -0.500
v -13.500 13.500 -0.500
v -14.500 14.500 0.500
v -13.500 14.500 0.500
v -13.500 15.500 0.500
v -14.500 15.500 0.500
v -13.500 14.500 -0.500
v -14.500 14.500 -0.500
v -14.500 15.500 -0.500
v -13.500 15.500 -0.500
v -14.500 16.500 0.500
v -13.500 16.500 0.500
v -13.500 17.500 0.500
v -14.500 17.500 0.500
v -13.500 16.500 -0.500
v -14.500 16.500 -0.500
v -14.500 17.500 -0.500
v -13.500 17.500 -0.500
v -13.500 18.500 0.500
v -14.500 18.500 0.500
v -14.500 18.500 -0.500
v -13.500 18.500 -0.500
v -13.500 19.500 0.500
v -14.500 19.500 0.500
v -14.500 19.500 -0.500
v -13.500 19.500 -0.500
v -14.500 22.500 0.500
v -13.500 22.500 0.500
v -13.500 23.500 0.500
v -14.500 23.500 0.500
v -13.500 22.500 -0.500
v -14.500 22.500 -0.500
v -14.500 23.500 -0.500
v -13.500 23.500 -0.500
v -13.500 24.500 0.500
v -14.500 24.500 0.500
v -14.500 24.500 -0.500
v -13.500 24.500 -0.500
v -13.500 25.500 0.500
v -14.500 25.500 0.500
v -14.500 25.500 -0.500
v -13.500 25.500 -0.500
v -5.500 69.500 0.500
v -6.500 69.500 0.500
v -6.500 69.000 0.500
v -5.500 69.000 0.500
v -6.000 69.000 -0.500
v -5.500 69.000 -0.500
v -5.500 68.500 -0.500
v -6.000 68.500 -0.500
v -5.500 71.500 -0.500
v -4.500 71.500 -0.500
v -4.500 71.000 -0.500
v -5.500 71.000 -0.500
v -4.500 71.500 0.500
v -5.500 71.500 0.500
v -5.500 71.000 0.500
v -4.500 71.000 0.500
v -5.000 71.000 -0.500
v -5.000 70.500 -0.500
v -5.500 70.500 -0.500
v -3.500 68.500 0.500
v -4.500 68.500 0.500
v -4.500 68.000 0.500
v -3.500 68.000 0.500
v -4.000 68.000 -0.500
v -3.500 68.000 -0.500
v -3.500 67.500 -0.500
v -4.000 67.500 -0.500
v -3.500 68.000 1.500
v -4.000 68.000 1.500
v -4.000 67.500 1.500
v -3.500 67.500 1.500
v -4.000 68.000 0.500
v -3.500 67.500 0.500
v -4.000 67.500 0.500
v -3.500 67.500 1.500
v -2.500 67.500 1.500
v -2.500 68.000 1.500
v -3.500 68.000 1.500
v -3.000 68.000 1.500
v -3.000 68.500 1.500
v -3.500 68.500 1.500
v -0.500 68.500 3.500
v -0.500 68.500 4.500
v -0.500 68.000 4.500
v -0.500 68.000 3.500
v -1.500 68.500 4.500
v -1.500 68.500 3.500
v -1.500 68.000 3.500
v -1.500 68.000 4.500
v -0.500 68.000 4.000
v -0.500 67.500 4.000
v -0.500 67.500 3.500
v -3.500 -0.500 12.500
v -4.500 -0.500 12.500
v -4.500 2.500 12.500
v -3.500 2.500 12.500
v -4.500 3.500 12.500
v -3.500 3.500 12.500
v -4.500 5.500 12.500
v -3.500 5.500 12.500
v -4.500 9.500 12.500
v -3.500 9.500 12.500
v -4.500 10.500 12.500
v -3.500 10.500 12.500
v -4.500 12.500 12.500
v -3.500 12.500 12.500
v -4.500 13.500 12.500
v -3.500 13.500 12.500
v -4.500 14.500 12.500
v -3.500 14.500 12.500
v -4.500 16.500 12.500
v -3.500 16.500 12.500
v -4.500 17.500 12.500
v -3.500 17.500 12.500
v -4.500 18.500 12.500
v -3.500 18.500 12.500
v -4.500 19.500 12.500
v -3.500 19.500 12.500
v -4.500 20.500 12.500
v -3.500 20.500 12.500
v -4.500 21.500 12.500
v -3.500 21.500 12.500
v -4.500 22.500 12.500
v -3.500 22.500 12.500
v -4.500 25.500 12.500
v -3.500 25.500 12.500
v -4.500 27.500 12.500
v -3.500 27.500 12.500
v -4.500 29.500 12.500
v -3.500 29.500 12.500
v -4.500 -0.500 13.500
v -3.500 -0.500 13.500
v -3.500 2.500 13.500
v -4.500 2.500 13.500
v -3.500 3.500 13.500
v -4.500 3.500 13.500
v -3.500 5.500 13.500
v -4.500 5.500 13.500
v -3.500 9.500 13.500
v -4.500 9.500 13.500
v -3.500 10.500 13.500
v -4.500 10.500 13.500
v -3.500 12.500 13.500
v -4.500 12.500 13.500
v -3.500 13.500 13.500
v -4.500 13.500 13.500
v -3.500 14.500 13.500
v -4.500 14.500 13.500
v -3.500 16.500 13.500
v -4.500 16.500 13.500
v -3.500 17.500 13.500
v -4.500 17.500 13.500
v -3.500 18.500 13.500
v -4.500 18.500 13.500
v -3.500 19.500 13.500
v -4.500 19.500 13.500
v -3.500 20.500 13.500
v -4.500 20.500 13.500
v -3.500 21.500 13.500
v -4.500 21.500 13.500
v -3.500 22.500 13.500
v -4.500 22.500 13.500
v -3.500 25.500 13.500
v -4.500 25.500 13.500
v -3.500 27.500 13.500
v -4.500 27.500 13.500
v -3.500 29.500 13.500
v -4.500 29.500 13.500
v -5.500 69.500 -0.500
v -6.500 69.500 -0.500
v -5.500 69.500 0.500
v -6.500 69.500 0.500
v -6.500 69.500 -0.500
v -5.500 69.500 -0.500
v -4.500 69.500 0.500
v -4.500 69.500 -0.500
v -4.000 69.500 -0.500
v -4.500 69.500 -0.500
v -4.500 69.500 0.500
v -4.000 69.500 0.500
v -2.000 69.500 0.500
v -1.500 69.500 0.500
v -1.500 69.500 -0.500
v -2.000 69.500 -0.500
v -1.000 69.500 0.500
v -0.500 69.500 0.500
v -0.500 69.500 -0.500
v -1.000 69.500 -0.500
v -5.500 69.500 1.500
v -4.500 69.500 1.500
v -3.500 69.500 1.500
v -3.500 69.500 0.500
v -5.500 69.500 1.500
v -5.500 69.500 2.500
v -4.000 69.500 2.500
v -4.000 69.500 1.500
v -4.500 69.500 3.500
v -3.500 69.500 3.500
v -3.500 69.500 2.500
v -4.500 69.500 2.500
v -3.500 69.500 4.500
v -2.500 69.500 4.500
v -2.500 69.500 3.500
v -2.500 69.500 4.000
v -1.500 69.500 4.500
v -1.500 69.500 4.000
v -0.500 69.500 4.500
v -0.500 69.500 3.500
v -1.500 69.500 3.500
v -2.500 69.500 5.500
v -0.500 69.500 5.500
v -5.500 68.500 0.500
v -6.000 68.500 0.500
v -4.500 68.500 0.500
v -5.500 68.500 -0.500
v -4.500 68.500 -0.500
v -3.500 68.500 -0.500
v -4.500 68.500 -0.500
v -4.500 68.500 -0.500
v -3.500 68.500 -0.500
v -3.500 68.500 0.500
v -3.500 68.500 0.500
v -2.500 68.500 0.500
v -2.500 68.500 -0.500
v -1.500 68.500 0.500
v -1.500 68.500 -0.500
v -0.500 68.500 0.500
v -0.500 68.500 -0.500
v -4.500 68.500 1.500
v -5.500 68.500 1.500
v -3.500 68.500 1.500
v -3.000 68.500 0.500
v -5.500 68.500 2.000
v -5.500 68.500 1.500
v -4.500 68.500 2.000
v -3.500 68.500 2.500
v -4.500 68.500 2.500
v -3.500 68.500 3.500
v -4.500 68.500 3.500
v -1.500 68.500 3.000
v -0.500 68.500 3.000
v -2.500 68.500 4.500
v -3.500 68.500 4.500
v -2.500 68.500 3.500
v -1.500 68.500 4.500
v -0.500 68.500 4.500
v -0.500 68.500 3.500
v -2.000 68.500 4.500
v -1.500 68.500 5.500
v -2.000 68.500 5.500
v -0.500 68.500 5.500
v -14.500 29.500 0.500
v -13.500 29.500 0.500
v -13.500 29.500 -0.500
v -14.500 29.500 -0.500
v -10.500 29.500 7.500
v -11.500 29.500 7.500
v -11.500 29.500 8.500
v -10.500 29.500 8.500
v -4.500 68.000 -0.500
v -1.500 68.000 0.500
v -2.500 68.000 0.500
v -2.500 68.000 -0.500
v -1.500 68.000 -0.500
v -5.500 68.000 1.500
v -5.500 68.000 0.500
v -3.500 68.000 0.500
v -1.500 68.000 2.500
v -0.500 68.000 3.500
v -0.500 68.000 2.500
v -1.500 68.000 5.500
v -0.500 68.000 5.500
v -3.500 67.500 0.500
v -4.000 67.500 0.500
v -2.500 67.500 0.500
v -3.500 67.500 -0.500
v -2.500 67.500 -0.500
v -1.500 67.500 4.000
v -1.500 67.500 2.500
v -0.500 67.500 2.500
v -6.500 69.000 -0.500
v -3.500 69.000 -0.500
v -4.500 69.000 -0.500
v -4.500 69.000 0.500
v -3.500 69.000 0.500
v -2.500 69.000 0.500
v -0.500 69.000 0.500
v -0.500 69.000 -0.500
v -2.500 69.000 -0.500
v -5.500 69.000 2.500
v -5.500 69.000 1.500
v -4.500 69.000 1.500
v -4.500 69.000 2.500
v -3.500 69.000 1.500
v -3.500 69.000 2.500
v -2.500 69.000 3.500
v -2.500 69.000 4.500
v -1.500 69.000 4.500
v -1.500 69.000 3.500
v -1.500 69.000 5.500
v -2.500 69.000 5.500
v -10.500 -0.500 8.500
v -10.500 -0.500 7.500
v -10.500 0.500 7.500
v -10.500 0.500 8.500
v -10.500 1.500 7.500
v -10.500 1.500 8.500
v -10.500 3.500 7.500
v -10.500 3.500 8.500
v -10.500 4.500 7.500
v -10.500 4.500 8.500
v -10.500 6.500 7.500
v -10.500 6.500 8.500
v -10.500 8.500 7.500
v -10.500 8.500 8.500
v -10.500 10.500 7.500
v -10.500 10.500 8.500
v -10.500 11.500 7.500
v -10.500 11.500 8.500
v -10.500 14.500 7.500
v -10.500 14.500 8.500
v -10.500 17.500 7.500
v -10.500 17.500 8.500
v -10.500 18.500 7.500
v -10.500 18.500 8.500
v -10.500 20.500 7.500
v -10.500 20.500 8.500
v -10.500 21.500 7.500
v -10.500 21.500 8.500
v -10.500 22.500 7.500
v -10.500 22.500 8.500
v -10.500 24.500 7.500
v -10.500 24.500 8.500
v -10.500 26.500 7.500
v -10.500 26.500 8.500
v -10.500 28.500 7.500
v -10.500 28.500 8.500
v -14.500 1.500 -0.500
v -14.500 3.500 -0.500
v -13.500 3.500 -0.500
v -14.500 4.500 -0.500
v -14.500 5.500 -0.500
v -14.500 8.500 -0.500
v -14.500 10.500 -0.500
v -14.500 12.500 -0.500
v -14.500 13.500 -0.500
v -14.500 14.500 -0.500
v -14.500 15.500 -0.500
v -14.500 16.500 -0.500
v -14.500 19.500 -0.500
v -14.500 20.500 -0.500
v -13.500 20.500 -0.500
v -14.500 21.500 -0.500
v -13.500 21.500 -0.500
v -14.500 22.500 -0.500
v -14.500 25.500 -0.500
v -14.500 26.500 -0.500
v -13.500 26.500 -0.500
v -14.500 27.500 -0.500
v -13.500 27.500 -0.500
v -14.500 28.500 -0.500
v -13.500 28.500 -0.500
v -6.500 70.500 -0.500
v -6.500 71.000 -0.500
v -6.000 71.000 -0.500
v -6.000 71.500 -0.500
v -5.500 71.500 -0.500
v -4.500 71.500 -0.500
v -5.500 72.500 -0.500
v -4.500 72.500 -0.500
v -5.500 73.000 -0.500
v -4.500 73.000 -0.500
v -1.500 69.000 -0.500
v -2.000 69.000 -0.500
v -1.000 69.000 -0.500
v -11.500 -0.500 7.500
v -11.500 -0.500 8.500
v -11.500 0.500 8.500
v -11.500 0.500 7.500
v -11.500 1.500 8.500
v -11.500 1.500 7.500
v -11.500 3.500 8.500
v -11.500 3.500 7.500
v -11.500 4.500 8.500
v -11.500 4.500 7.500
v -11.500 6.500 8.500
v -11.500 6.500 7.500
v -11.500 8.500 8.500
v -11.500 8.500 7.500
v -11.500 10.500 8.500
v -11.500 10.500 7.500
v -11.500 11.500 8.500
v -11.500 11.500 7.500
v -11.500 14.500 8.500
v -11.500 14.500 7.500
v -11.500 17.500 8.500
v -11.500 17.500 7.500
v -11.500 18.500 8.500
v -11.500 18.500 7.500
v -11.500 20.500 8.500
v -11.500 20.500 7.500
v -11.500 21.500 8.500
v -11.500 21.500 7.500
v -11.500 22.500 8.500
v -11.500 22.500 7.500
v -11.500 24.500 8.500
v -11.500 24.500 7.500
v -11.500 26.500 8.500
v -11.500 26.500 7.500
v -11.500 28.500 8.500
v -11.500 28.500 7.500
v -13.500 3.500 0.500
v -13.500 10.500 0.500
v -13.500 12.500 0.500
v -13.500 13.500 0.500
v -13.500 14.500 0.500
v -13.500 20.500 0.500
v -13.500 21.500 0.500
v -13.500 22.500 0.500
v -13.500 26.500 0.500
v -13.500 27.500 0.500
v -13.500 28.500 0.500
v -14.500 3.500 0.500
v -14.500 10.500 0.500
v -14.500 12.500 0.500
v -14.500 13.500 0.500
v -14.500 14.500 0.500
v -14.500 20.500 0.500
v -14.500 21.500 0.500
v -14.500 22.500 0.500
v -14.500 26.500 0.500
v -14.500 27.500 0.500
v -14.500 28.500 0.500
v -1.000 69.000 0.500
v -0.500 68.000 3.000
v -1.500 68.000 3.000
v -2.000 69.000 0.500
v -2.000 69.000 5.500
v -2.000 69.000 4.500
v -4.500 69.000 2.000
v -5.500 69.000 2.000
v -5.000 71.000 0.500
v -5.000 70.500 0.500
v -0.500 68.000 4.500
v -6.000 69.000 0.500
v -6.000 71.000 0.500
v -6.000 71.500 0.500
v -1.500 69.000 0.500
v -1.500 68.000 4.000
v -1.500 68.000 4.500
v -1.500 69.500 5.500
v -14.500 1.500 0.500
v -13.500 1.500 0.500
v -13.500 4.500 0.500
v -14.500 4.500 0.500
v -14.500 5.500 0.500
v -13.500 5.500 0.500
v -13.500 8.500 0.500
v -14.500 8.500 0.500
v -14.500 15.500 0.500
v -13.500 15.500 0.500
v -13.500 16.500 0.500
v -14.500 16.500 0.500
v -14.500 19.500 0.500
v -13.500 19.500 0.500
v -14.500 25.500 0.500
v -13.500 25.500 0.500
v -5.500 70.500 0.500
v -6.500 70.500 0.500
v -6.500 71.000 0.500
v -4.500 71.500 0.500
v -4.500 72.500 0.500
v -5.500 72.500 0.500
v -4.500 73.000 0.500
v -5.500 73.000 0.500
v -3.000 68.000 0.500
v -4.000 69.000 0.500
v -4.000 69.000 -0.500
v -4.000 69.000 2.500
v -4.000 69.000 1.500
v -1.500 69.000 4.000
v -2.500 69.000 4.000
v -4.500 68.000 1.500
v -3.500 67.500 0.500
v -1.500 67.500 3.500
v -0.500 67.500 3.500

usemtl minecraft_block-chiseled_stone_bricks

f 337/25 82/26 340/32 338/31
f 343/25 344/26 337/32 345/31
f 356/25 358/26 359/32 360/31
f 275/25 270/26 356/32 366/31
f 384/25 87/26 340/32 82/31
f 387/25 388/26 389/32 390/31
f 63/25 220/26 343/32 345/31
f 468/25 251/26 359/32 358/31
f 525/25 387/26 390/32 526/31
f 565/25 63/26 345/32 337/31
f 387/25 525/26 567/32 388/31
f 568/25 256/26 569/32 570/31
f 585/25 586/26 366/32 356/31
f 570/25 569/26 587/32 588/31
f 240/25 585/26 356/32 360/31
f 568/25 570/26 588/32 631/31
f 384/25 565/26 641/32 87/31
f 642/25 220/26 63/32 565/31
f 468/25 585/26 240/32 251/31
f 633/25 651/26 586/32 585/31
f 641/25 565/26 337/32 338/31
f 567/25 525/26 526/32 660/31
f 388/25 567/26 660/32 389/31
f 569/25 256/26 691/32 587/31
f 220/25 642/26 344/32 343/31
f 526/25 390/26 389/32 660/31
f 691/25 631/26 588/32 587/31
f 651/25 633/26 270/32 275/31
f 256/25 568/26 631/32 691/31
f 251/25 240/26 360/32 359/31
f 820/25 734/26 821/32 822/31
f 827/25 829/26 830/32 831/31
f 848/25 831/26 815/32 709/31
f 830/25 853/26 854/32 831/31
f 864/25 865/26 866/32 867/31
f 827/25 873/26 874/32 828/31
f 881/25 829/26 827/32 875/31
f 892/25 792/26 787/32 890/31
f 787/25 792/26 864/32 867/31
f 881/25 875/26 854/32 853/31
f 873/25 827/26 831/32 848/31
f 1030/25 820/26 822/32 1031/31
f 828/25 874/26 709/32 815/31
f 734/25 738/26 1034/32 821/31
f 792/25 892/26 865/32 864/31
f 890/25 787/26 867/32 866/31
f 829/25 881/26 853/32 830/31
f 738/25 1030/26 1031/32 1034/31
f 820/25 1030/26 738/32 734/31
f 1031/25 822/26 821/32 1034/31
f 1100/25 1101/26 1095/32 1102/31
f 1111/25 1113/26 1114/32 1112/31
f 1059/25 1054/26 1055/32 1058/31
f 1134/25 1132/26 1128/32 1130/31
f 1132/25 1134/26 1113/32 1111/31
f 1130/25 1128/26 1112/32 1114/31
f 1054/25 1059/26 1101/32 1100/31
f 1059/25 1058/26 1095/32 1101/31
f 1055/25 1054/26 1100/32 1102/31
f 1134/25 1130/26 1114/32 1113/31
f 1545/25 1549/26 1550/32 1548/31
f 1564/25 1565/26 1566/32 1549/31
f 1579/25 1581/26 1582/32 1583/31
f 1588/25 1586/26 1589/32 1590/31
f 1605/25 1603/26 1588/32 1596/31
f 1620/25 1619/26 1461/32 1621/31
f 1742/25 1741/26 1743/32 1744/31
f 1620/25 1621/26 1582/32 1581/31
f 1461/25 1619/26 1579/32 1583/31
f 1603/25 1605/26 1565/32 1564/31
f 1428/25 1845/26 1846/32 1847/31
f 1596/25 1588/26 1549/32 1566/31
f 1845/25 1428/26 1741/32 1742/31
f 1588/25 1590/26 1550/32 1549/31
f 1845/25 1742/26 1744/32 1846/31
f 1589/25 1586/26 1545/32 1548/31
f 1741/25 1428/26 1847/32 1743/31
f 1847/25 1846/26 1744/32 1743/31
f 1605/25 1596/26 1566/32 1565/31
f 1621/25 1461/26 1583/32 1582/31

usemtl minecraft_block-bedrock

f 98/26 99/25 100/31 101/32
f 102/26 103/25 104/31 105/32
f 106/26 107/25 108/31 109/32
f 110/26 111/25 112/31 113/32
f 114/25 115/26 116/32 117/31
f 118/25 119/26 120/32 121/31
f 122/26 123/25 124/31 125/32
f 126/26 127/25 128/31 129/32
f 130/25 131/26 132/32 133/31
f 134/25 135/26 136/32 137/31
f 133/25 132/26 138/32 139/31
f 137/25 136/26 140/32 141/31
f 139/26 138/25 142/31 143/32
f 141/26 140/25 144/31 145/32
f 146/26 147/25 148/31 149/32
f 150/26 151/25 152/31 153/32
f 149/25 148/26 154/32 155/31
f 153/25 152/26 156/32 157/31
f 155/25 154/26 158/32 159/31
f 157/25 156/26 160/32 161/31
f 159/26 158/25 162/31 163/32
f 161/26 160/25 164/31 165/32
f 166/26 167/25 168/31 169/32
f 170/26 171/25 172/31 173/32
f 169/26 168/25 174/31 175/32
f 173/26 172/25 176/31 177/32
f 178/26 179/25 180/31 181/32
f 182/26 183/25 184/31 185/32
f 186/25 187/26 188/32 189/31
f 190/25 191/26 192/32 193/31
f 189/25 188/26 194/32 195/31
f 193/25 192/26 196/32 197/31
f 195/26 194/25 198/31 199/32
f 197/26 196/25 200/31 201/32
f 294/26 295/25 296/35 297/36
f 297/25 296/26 298/36 299/35
f 299/26 298/25 300/31 301/32
f 301/25 300/26 302/32 303/31
f 303/26 302/25 304/31 305/32
f 305/25 304/26 306/32 307/31
f 307/26 306/25 308/37 309/38
f 309/25 308/26 310/32 311/31
f 311/26 310/25 312/39 313/40
f 313/25 312/26 314/32 315/31
f 315/26 314/25 316/31 317/32
f 317/25 316/26 318/32 319/31
f 319/26 318/25 320/35 321/36
f 321/25 320/26 322/32 323/31
f 323/26 322/25 324/35 325/36
f 325/25 324/26 326/36 327/35
f 201/26 200/25 199/31 198/32
f 374/25 375/26 376/32 377/31
f 327/25 326/26 378/32 379/31
f 425/26 294/25 297/35 426/36
f 426/25 297/26 299/36 427/35
f 427/26 299/25 301/31 428/32
f 428/25 301/26 303/32 429/31
f 429/26 303/25 305/31 430/32
f 430/25 305/26 307/32 431/31
f 431/26 307/25 309/37 432/38
f 432/25 309/26 311/32 433/31
f 433/26 311/25 313/39 434/40
f 434/25 313/26 315/32 435/31
f 435/26 315/25 317/31 436/32
f 436/25 317/26 319/32 437/31
f 437/26 319/25 321/35 438/36
f 438/25 321/26 323/32 439/31
f 439/26 323/25 325/35 440/36
f 440/25 325/26 327/36 379/35
f 103/31 102/32 99/26 98/25
f 474/31 475/32 476/26 477/25
f 425/31 478/32 295/26 294/25
f 476/26 475/25 479/31 480/32
f 480/25 479/26 481/38 482/37
f 482/26 481/25 483/31 484/32
f 484/25 483/26 485/65 486/66
f 486/26 485/25 487/31 488/32
f 488/25 487/26 489/32 490/31
f 490/26 489/25 491/31 492/32
f 492/25 491/26 493/38 494/37
f 494/26 493/25 495/39 496/40
f 496/25 495/26 497/32 498/31
f 498/26 497/25 499/39 500/40
f 500/25 499/26 501/32 502/31
f 502/26 501/25 503/31 504/32
f 504/25 503/26 505/38 506/37
f 506/26 505/25 507/31 508/32
f 508/25 507/26 374/38 377/37
f 531/26 532/25 533/31 534/32
f 535/26 536/25 537/37 538/38
f 539/26 540/25 541/37 542/38
f 543/26 544/25 545/31 546/32
f 547/26 548/25 549/37 550/38
f 551/25 552/26 553/32 554/31
f 554/26 553/25 555/37 556/38
f 557/26 558/25 559/31 560/32
f 561/25 562/26 563/32 564/31
f 103/26 98/25 538/66 578/65
f 119/25 114/26 117/32 120/31
f 579/26 539/25 546/39 580/40
f 135/25 130/26 139/38 140/37
f 140/26 139/25 149/39 152/40
f 152/25 149/26 159/38 160/37
f 160/26 159/25 163/31 164/32
f 581/25 551/26 554/32 582/31
f 582/26 554/25 181/68 184/69
f 583/25 561/26 195/36 196/35
f 196/26 195/25 199/31 200/32
f 477/26 476/25 480/31 597/32
f 597/25 480/26 482/38 598/37
f 598/26 482/25 484/31 599/32
f 599/25 484/26 486/65 600/66
f 600/26 486/25 488/31 601/32
f 601/25 488/26 490/32 602/31
f 602/26 490/25 492/31 603/32
f 603/25 492/26 494/38 604/37
f 604/26 494/25 496/39 605/40
f 605/25 496/26 498/32 606/31
f 606/26 498/25 500/39 607/40
f 607/25 500/26 502/32 608/31
f 608/26 502/25 504/31 609/32
f 609/25 504/26 506/38 610/37
f 610/26 506/25 508/31 611/32
f 611/25 508/26 377/38 376/37
f 478/26 425/25 426/35 612/36
f 612/25 426/26 427/36 613/35
f 613/26 427/25 428/31 614/32
f 614/25 428/26 429/32 615/31
f 615/26 429/25 430/31 616/32
f 616/25 430/26 431/32 617/31
f 617/26 431/25 432/37 618/38
f 618/25 432/26 433/32 619/31
f 619/26 433/25 434/39 620/40
f 620/25 434/26 435/32 621/31
f 621/26 435/25 436/31 622/32
f 622/25 436/26 437/32 623/31
f 623/26 437/25 438/35 624/36
f 624/25 438/26 439/32 625/31
f 625/26 439/25 440/35 626/36
f 626/25 440/26 379/36 378/35
f 295/26 478/25 612/35 296/36
f 296/25 612/26 613/36 298/35
f 298/26 613/25 614/31 300/32
f 300/25 614/26 615/32 302/31
f 302/26 615/25 616/31 304/32
f 304/25 616/26 617/32 306/31
f 306/26 617/25 618/37 308/38
f 308/25 618/26 619/32 310/31
f 310/26 619/25 620/39 312/40
f 312/25 620/26 621/32 314/31
f 314/26 621/25 622/31 316/32
f 316/25 622/26 623/32 318/31
f 318/26 623/25 624/35 320/36
f 320/25 624/26 625/32 322/31
f 322/26 625/25 626/35 324/36
f 324/25 626/26 378/36 326/35
f 105/26 663/25 664/31 110/32
f 113/26 665/25 578/37 118/38
f 121/26 579/25 666/37 126/38
f 129/26 667/25 580/31 134/32
f 145/26 668/25 669/37 150/38
f 165/25 581/26 582/32 670/31
f 670/26 582/25 671/37 170/38
f 177/26 672/25 673/31 182/32
f 185/25 583/26 674/32 190/31
f 474/26 477/25 597/31 675/32
f 675/25 597/26 598/38 676/37
f 676/26 598/25 599/31 677/32
f 677/25 599/26 600/65 678/66
f 678/26 600/25 601/31 679/32
f 679/25 601/26 602/32 680/31
f 680/26 602/25 603/31 681/32
f 681/25 603/26 604/38 682/37
f 682/26 604/25 605/39 683/40
f 683/25 605/26 606/32 684/31
f 684/26 606/25 607/39 685/40
f 685/25 607/26 608/32 686/31
f 686/26 608/25 609/31 687/32
f 687/25 609/26 610/38 688/37
f 688/26 610/25 611/31 689/32
f 689/25 611/26 376/38 375/37
f 99/26 102/25 118/66 537/65
f 115/25 118/26 121/32 116/31
f 540/26 121/25 134/39 545/40
f 131/25 134/26 141/38 138/37
f 138/26 141/25 153/39 148/40
f 148/25 153/26 161/38 158/37
f 158/26 161/25 165/31 162/32
f 552/25 165/26 670/32 553/31
f 553/26 670/25 185/68 180/69
f 562/25 185/26 197/36 194/35
f 194/26 197/25 201/31 198/32
f 475/26 474/25 675/31 479/32
f 479/25 675/26 676/38 481/37
f 481/26 676/25 677/31 483/32
f 483/25 677/26 678/65 485/66
f 485/26 678/25 679/31 487/32
f 487/25 679/26 680/32 489/31
f 489/26 680/25 681/31 491/32
f 491/25 681/26 682/38 493/37
f 493/26 682/25 683/39 495/40
f 495/25 683/26 684/32 497/31
f 497/26 684/25 685/39 499/40
f 499/25 685/26 686/32 501/31
f 501/26 686/25 687/31 503/32
f 503/25 687/26 688/38 505/37
f 505/26 688/25 689/31 507/32
f 507/25 689/26 375/38 374/37
f 896/26 897/25 898/31 899/32
f 900/25 901/26 902/32 903/31
f 904/26 905/25 906/35 907/36
f 907/25 906/26 908/38 909/37
f 909/26 908/25 910/37 911/38
f 911/25 910/26 912/32 913/31
f 913/26 912/25 914/31 915/32
f 915/25 914/26 916/32 917/31
f 917/26 916/25 918/31 919/32
f 919/25 918/26 920/32 921/31
f 921/26 920/25 922/68 923/69
f 923/25 922/26 924/32 925/31
f 925/26 924/25 926/37 927/38
f 927/25 926/26 928/38 929/37
f 929/26 928/25 930/31 931/32
f 931/25 930/26 932/32 933/31
f 933/26 932/25 934/31 935/32
f 935/25 934/26 936/38 937/37
f 937/26 936/25 897/37 896/38
f 950/26 951/25 952/35 953/36
f 953/25 952/26 954/38 955/37
f 955/26 954/25 956/37 957/38
f 957/25 956/26 958/32 959/31
f 959/26 958/25 960/31 961/32
f 961/25 960/26 962/32 963/31
f 963/26 962/25 964/31 965/32
f 965/25 964/26 966/32 967/31
f 967/26 966/25 968/68 969/69
f 969/25 968/26 970/32 971/31
f 971/26 970/25 972/37 973/38
f 973/25 972/26 974/38 975/37
f 975/26 974/25 976/31 977/32
f 977/25 976/26 978/32 979/31
f 979/26 978/25 980/31 981/32
f 981/25 980/26 982/38 983/37
f 983/26 982/25 899/37 898/38
f 951/26 904/25 907/35 952/36
f 952/25 907/26 909/38 954/37
f 954/26 909/25 911/37 956/38
f 956/25 911/26 913/32 958/31
f 958/26 913/25 915/31 960/32
f 960/25 915/26 917/32 962/31
f 962/26 917/25 919/31 964/32
f 964/25 919/26 921/32 966/31
f 966/26 921/25 923/68 968/69
f 968/25 923/26 925/32 970/31
f 970/26 925/25 927/37 972/38
f 972/25 927/26 929/38 974/37
f 974/26 929/25 931/31 976/32
f 976/25 931/26 933/32 978/31
f 978/26 933/25 935/31 980/32
f 980/25 935/26 937/38 982/37
f 982/26 937/25 896/37 899/38
f 990/26 991/25 992/68 993/69
f 993/25 992/26 994/40 995/39
f 995/26 994/25 996/31 997/32
f 997/25 996/26 998/38 999/37
f 999/26 998/25 1000/66 1001/65
f 1001/25 1000/26 1002/69 1003/68
f 1003/26 1002/25 1004/37 1005/38
f 1005/25 1004/26 903/40 902/39
f 905/26 950/25 953/35 906/36
f 906/25 953/26 955/38 908/37
f 908/26 955/25 957/37 910/38
f 910/25 957/26 959/32 912/31
f 912/26 959/25 961/31 914/32
f 914/25 961/26 963/32 916/31
f 916/26 963/25 965/31 918/32
f 918/25 965/26 967/32 920/31
f 920/26 967/25 969/68 922/69
f 922/25 969/26 971/32 924/31
f 924/26 971/25 973/37 926/38
f 926/25 973/26 975/38 928/37
f 928/26 975/25 977/31 930/32
f 930/25 977/26 979/32 932/31
f 932/26 979/25 981/31 934/32
f 934/25 981/26 983/38 936/37
f 936/26 983/25 898/37 897/38
f 1036/26 1037/25 1038/68 1039/69
f 1039/25 1038/26 1040/40 1041/39
f 1041/26 1040/25 1042/31 1043/32
f 1043/25 1042/26 1044/38 1045/37
f 1045/26 1044/25 1046/66 1047/65
f 1047/25 1046/26 1048/69 1049/68
f 1049/26 1048/25 1050/37 1051/38
f 1051/25 1050/26 901/40 900/39
f 951/31 950/32 905/26 904/25
f 1037/31 1036/32 991/26 990/25
f 991/26 1036/25 1039/68 992/69
f 992/25 1039/26 1041/40 994/39
f 994/26 1041/25 1043/31 996/32
f 996/25 1043/26 1045/38 998/37
f 998/26 1045/25 1047/66 1000/65
f 1000/25 1047/26 1049/69 1002/68
f 1002/26 1049/25 1051/37 1004/38
f 1004/25 1051/26 900/40 903/39
f 1037/26 990/25 993/68 1038/69
f 1038/25 993/26 995/40 1040/39
f 1040/26 995/25 997/31 1042/32
f 1042/25 997/26 999/38 1044/37
f 1044/26 999/25 1001/66 1046/65
f 1046/25 1001/26 1003/69 1048/68
f 1048/26 1003/25 1005/37 1050/38
f 1050/25 1005/26 902/40 901/39
f 1137/26 1138/25 1139/31 1140/32
f 1141/25 1142/26 1143/32 1144/31
f 1145/25 1146/26 1147/32 1148/31
f 1148/26 1147/25 1149/37 1150/38
f 1150/25 1149/26 1151/32 1152/31
f 1152/26 1151/25 1153/37 1154/38
f 1154/25 1153/26 1155/36 1156/35
f 1156/26 1155/25 1157/39 1158/40
f 1158/25 1157/26 1159/32 1160/31
f 1160/26 1159/25 1161/39 1162/40
f 1162/25 1161/26 1163/38 1164/37
f 1164/26 1163/25 1165/31 1166/32
f 1166/25 1165/26 1167/32 1168/31
f 1168/26 1167/25 1169/31 1170/32
f 1170/25 1169/26 1171/32 1172/31
f 1172/26 1171/25 1173/31 1174/32
f 1174/25 1173/26 1175/32 1176/31
f 1176/26 1175/25 1177/37 1178/38
f 1178/25 1177/26 1179/32 1180/31
f 1180/26 1179/25 1138/31 1137/32
f 1191/25 1192/26 1193/32 1194/31
f 1194/26 1193/25 1195/37 1196/38
f 1196/25 1195/26 1197/32 1198/31
f 1198/26 1197/25 1199/37 1200/38
f 1200/25 1199/26 1201/36 1202/35
f 1202/26 1201/25 1203/39 1204/40
f 1204/25 1203/26 1205/32 1206/31
f 1206/26 1205/25 1207/39 1208/40
f 1208/25 1207/26 1209/38 1210/37
f 1210/26 1209/25 1211/31 1212/32
f 1212/25 1211/26 1213/32 1214/31
f 1214/26 1213/25 1215/31 1216/32
f 1216/25 1215/26 1217/32 1218/31
f 1218/26 1217/25 1219/31 1220/32
f 1220/25 1219/26 1221/32 1222/31
f 1222/26 1221/25 1223/37 1224/38
f 1224/25 1223/26 1225/32 1226/31
f 1226/26 1225/25 1140/31 1139/32
f 1227/25 1228/26 1229/38 1230/37
f 1230/26 1229/25 1231/66 1232/65
f 1232/25 1231/26 1233/32 1234/31
f 1234/26 1233/25 1235/37 1236/38
f 1236/25 1235/26 1237/38 1238/37
f 1238/26 1237/25 1239/35 1240/36
f 1240/25 1239/26 1241/38 1242/37
f 1242/26 1241/25 1243/31 1244/32
f 1244/25 1243/26 1245/32 1246/31
f 1246/26 1245/25 1247/31 1248/32
f 1248/25 1247/26 1249/32 1250/31
f 1250/26 1249/25 1251/37 1252/38
f 1252/25 1251/26 1253/36 1254/35
f 1254/26 1253/25 1255/37 1256/38
f 1256/25 1255/26 1144/38 1143/37
f 1278/25 1279/26 1280/38 1281/37
f 1281/26 1280/25 1282/66 1283/65
f 1283/25 1282/26 1284/32 1285/31
f 1285/26 1284/25 1286/37 1287/38
f 1287/25 1286/26 1288/38 1289/37
f 1289/26 1288/25 1290/35 1291/36
f 1291/25 1290/26 1292/38 1293/37
f 1293/26 1292/25 1294/31 1295/32
f 1295/25 1294/26 1296/32 1297/31
f 1297/26 1296/25 1298/31 1299/32
f 1299/25 1298/26 1300/32 1301/31
f 1301/26 1300/25 1302/37 1303/38
f 1303/25 1302/26 1304/36 1305/35
f 1305/26 1304/25 1306/37 1307/38
f 1307/25 1306/26 1142/38 1141/37
f 1279/25 1227/26 1230/38 1280/37
f 1280/26 1230/25 1232/66 1282/65
f 1282/25 1232/26 1234/32 1284/31
f 1284/26 1234/25 1236/37 1286/38
f 1286/25 1236/26 1238/38 1288/37
f 1288/26 1238/25 1240/35 1290/36
f 1290/25 1240/26 1242/38 1292/37
f 1292/26 1242/25 1244/31 1294/32
f 1294/25 1244/26 1246/32 1296/31
f 1296/26 1246/25 1248/31 1298/32
f 1298/25 1248/26 1250/32 1300/31
f 1300/26 1250/25 1252/37 1302/38
f 1302/25 1252/26 1254/36 1304/35
f 1304/26 1254/25 1256/37 1306/38
f 1306/25 1256/26 1143/38 1142/37
f 1228/25 1278/26 1281/38 1229/37
f 1229/26 1281/25 1283/66 1231/65
f 1231/25 1283/26 1285/32 1233/31
f 1233/26 1285/25 1287/37 1235/38
f 1235/25 1287/26 1289/38 1237/37
f 1237/26 1289/25 1291/35 1239/36
f 1239/25 1291/26 1293/38 1241/37
f 1241/26 1293/25 1295/31 1243/32
f 1243/25 1295/26 1297/32 1245/31
f 1245/26 1297/25 1299/31 1247/32
f 1247/25 1299/26 1301/32 1249/31
f 1249/26 1301/25 1303/37 1251/38
f 1251/25 1303/26 1305/36 1253/35
f 1253/26 1305/25 1307/37 1255/38
f 1255/25 1307/26 1141/38 1144/37
f 1192/25 1191/26 1146/32 1145/31
f 1228/25 1227/26 1279/32 1278/31
f 1146/25 1191/26 1194/32 1147/31
f 1147/26 1194/25 1196/37 1149/38
f 1149/25 1196/26 1198/32 1151/31
f 1151/26 1198/25 1200/37 1153/38
f 1153/25 1200/26 1202/36 1155/35
f 1155/26 1202/25 1204/39 1157/40
f 1157/25 1204/26 1206/32 1159/31
f 1159/26 1206/25 1208/39 1161/40
f 1161/25 1208/26 1210/38 1163/37
f 1163/26 1210/25 1212/31 1165/32
f 1165/25 1212/26 1214/32 1167/31
f 1167/26 1214/25 1216/31 1169/32
f 1169/25 1216/26 1218/32 1171/31
f 1171/26 1218/25 1220/31 1173/32
f 1173/25 1220/26 1222/32 1175/31
f 1175/26 1222/25 1224/37 1177/38
f 1177/25 1224/26 1226/32 1179/31
f 1179/26 1226/25 1139/31 1138/32
f 1192/25 1145/26 1148/32 1193/31
f 1193/26 1148/25 1150/37 1195/38
f 1195/25 1150/26 1152/32 1197/31
f 1197/26 1152/25 1154/37 1199/38
f 1199/25 1154/26 1156/36 1201/35
f 1201/26 1156/25 1158/39 1203/40
f 1203/25 1158/26 1160/32 1205/31
f 1205/26 1160/25 1162/39 1207/40
f 1207/25 1162/26 1164/38 1209/37
f 1209/26 1164/25 1166/31 1211/32
f 1211/25 1166/26 1168/32 1213/31
f 1213/26 1168/25 1170/31 1215/32
f 1215/25 1170/26 1172/32 1217/31
f 1217/26 1172/25 1174/31 1219/32
f 1219/25 1174/26 1176/32 1221/31
f 1221/26 1176/25 1178/37 1223/38
f 1223/25 1178/26 1180/32 1225/31
f 1225/26 1180/25 1137/31 1140/32
f 1335/26 1336/25 1337/31 1338/32
f 1339/26 1340/25 1341/31 1342/32
f 1338/25 1337/26 1343/32 1344/31
f 1342/25 1341/26 1345/32 1346/31
f 1347/26 1348/25 1349/31 1350/32
f 1351/26 1352/25 1353/31 1354/32
f 1355/26 1356/25 1357/31 1358/32
f 1359/26 1360/25 1361/31 1362/32
f 1358/25 1357/26 1363/32 1364/31
f 1362/25 1361/26 1365/32 1366/31
f 1367/25 1368/26 1369/32 1370/31
f 1371/25 1372/26 1373/32 1374/31
f 1375/25 1376/26 1377/32 1378/31
f 1379/25 1380/26 1381/32 1382/31
f 1383/25 1384/26 1385/32 1386/31
f 1387/25 1388/26 1389/32 1390/31
f 1386/25 1385/26 1391/32 1392/31
f 1390/25 1389/26 1393/32 1394/31
f 1392/26 1391/25 1395/31 1396/32
f 1394/26 1393/25 1397/31 1398/32
f 1399/25 1400/26 1401/32 1402/31
f 1403/25 1404/26 1405/32 1406/31
f 1402/25 1401/26 1407/32 1408/31
f 1406/25 1405/26 1409/32 1410/31
f 1408/25 1407/26 1411/32 1412/31
f 1410/25 1409/26 1413/32 1414/31
f 1467/25 1468/26 1469/36 1470/35
f 1470/26 1469/25 1471/31 1472/32
f 1472/25 1471/26 1473/38 1474/37
f 1474/26 1473/25 1475/39 1476/40
f 1476/25 1475/26 1477/32 1478/31
f 1478/26 1477/25 1479/37 1480/38
f 1480/25 1479/26 1481/32 1482/31
f 1482/26 1481/25 1483/31 1484/32
f 1484/25 1483/26 1485/38 1486/37
f 1486/26 1485/25 1487/31 1488/32
f 1488/25 1487/26 1489/32 1490/31
f 1490/26 1489/25 1491/31 1492/32
f 1492/25 1491/26 1493/32 1494/31
f 1494/26 1493/25 1495/31 1496/32
f 1496/25 1495/26 1497/32 1498/31
f 1498/26 1497/25 1499/35 1500/36
f 1500/25 1499/26 1501/38 1502/37
f 1502/26 1501/25 1503/37 1504/38
f 1505/25 1506/26 1507/36 1508/35
f 1508/26 1507/25 1509/31 1510/32
f 1510/25 1509/26 1511/38 1512/37
f 1512/26 1511/25 1513/39 1514/40
f 1514/25 1513/26 1515/32 1516/31
f 1516/26 1515/25 1517/37 1518/38
f 1518/25 1517/26 1519/32 1520/31
f 1520/26 1519/25 1521/31 1522/32
f 1522/25 1521/26 1523/38 1524/37
f 1524/26 1523/25 1525/31 1526/32
f 1526/25 1525/26 1527/32 1528/31
f 1528/26 1527/25 1529/31 1530/32
f 1530/25 1529/26 1531/32 1532/31
f 1532/26 1531/25 1533/31 1534/32
f 1534/25 1533/26 1535/32 1536/31
f 1536/26 1535/25 1537/35 1538/36
f 1538/25 1537/26 1539/38 1540/37
f 1540/26 1539/25 1541/37 1542/38
f 1626/26 1627/25 1628/31 1629/32
f 1630/25 1631/26 1632/32 1633/31
f 1504/26 1503/25 1542/31 1541/32
f 1676/26 1677/25 1678/31 1679/32
f 1679/25 1678/26 1680/32 1681/31
f 1681/26 1680/25 1682/37 1683/38
f 1683/25 1682/26 1684/32 1685/31
f 1685/26 1684/25 1686/37 1687/38
f 1687/25 1686/26 1688/38 1689/37
f 1689/26 1688/25 1690/37 1691/38
f 1691/25 1690/26 1692/32 1693/31
f 1693/26 1692/25 1694/35 1695/36
f 1695/25 1694/26 1696/36 1697/35
f 1697/26 1696/25 1698/31 1699/32
f 1699/25 1698/26 1700/38 1701/37
f 1701/26 1700/25 1702/31 1703/32
f 1703/25 1702/26 1704/32 1705/31
f 1705/26 1704/25 1706/37 1707/38
f 1707/25 1706/26 1708/38 1709/37
f 1709/26 1708/25 1710/37 1711/38
f 1711/25 1710/26 1630/32 1633/31
f 1346/25 1712/26 1713/38 1714/37
f 1714/26 1713/25 1715/31 1351/32
f 1354/26 1716/25 1717/35 1359/36
f 1366/26 1718/25 1719/37 1371/38
f 1374/26 1720/25 1721/31 1379/32
f 1382/25 1722/26 1723/32 1387/31
f 1398/26 1724/25 1725/31 1726/32
f 1726/25 1725/26 1727/32 1728/31
f 1728/26 1727/25 1729/31 1403/32
f 1414/25 1730/26 1731/32 1732/31
f 1732/26 1731/25 1733/31 1734/32
f 1734/25 1733/26 1735/32 1736/31
f 1736/26 1735/25 1629/31 1628/32
f 1750/26 1751/25 1752/31 1753/32
f 1753/25 1752/26 1754/32 1755/31
f 1755/26 1754/25 1756/37 1757/38
f 1757/25 1756/26 1758/32 1759/31
f 1759/26 1758/25 1760/37 1761/38
f 1761/25 1760/26 1762/38 1763/37
f 1763/26 1762/25 1764/37 1765/38
f 1765/25 1764/26 1766/32 1767/31
f 1767/26 1766/25 1768/35 1769/36
f 1769/25 1768/26 1770/36 1771/35
f 1771/26 1770/25 1772/31 1773/32
f 1773/25 1772/26 1774/38 1775/37
f 1775/26 1774/25 1776/31 1777/32
f 1777/25 1776/26 1778/32 1779/31
f 1779/26 1778/25 1780/37 1781/38
f 1781/25 1780/26 1782/38 1783/37
f 1783/26 1782/25 1784/37 1785/38
f 1785/25 1784/26 1632/32 1631/31
f 1336/26 1339/25 1342/31 1337/32
f 1337/25 1342/26 1714/36 1786/35
f 1786/26 1714/25 1362/68 1357/69
f 1357/25 1362/26 1366/32 1363/31
f 1787/26 1366/25 1371/37 1788/38
f 1368/25 1371/26 1374/32 1369/31
f 1789/26 1374/25 1379/31 1790/32
f 1376/25 1379/26 1394/40 1391/39
f 1391/26 1394/25 1726/37 1791/38
f 1791/25 1726/26 1728/32 1792/31
f 1792/26 1728/25 1403/31 1793/32
f 1400/25 1403/26 1732/40 1794/39
f 1794/26 1732/25 1734/31 1795/32
f 1795/25 1734/26 1736/32 1796/31
f 1796/26 1736/25 1628/31 1627/32
f 1340/26 1335/25 1338/31 1341/32
f 1341/25 1338/26 1797/36 1713/35
f 1713/26 1797/25 1358/68 1361/69
f 1361/25 1358/26 1364/32 1365/31
f 1718/26 1798/25 1799/37 1719/38
f 1372/25 1367/26 1370/32 1373/31
f 1720/26 1800/25 1801/31 1721/32
f 1380/25 1375/26 1392/40 1393/39
f 1393/26 1392/25 1802/37 1725/38
f 1725/25 1802/26 1803/32 1727/31
f 1727/26 1803/25 1804/31 1729/32
f 1404/25 1399/26 1805/40 1731/39
f 1731/26 1805/25 1806/31 1733/32
f 1733/25 1806/26 1807/32 1735/31
f 1735/26 1807/25 1626/31 1629/32
f 1340/31 1339/32 1336/26 1335/25
f 1750/31 1677/32 1676/26 1751/25
f 1468/25 1467/26 1506/32 1505/31
f 1826/25 1827/26 1786/38 1797/37
f 1797/26 1786/25 1828/31 1829/32
f 1830/26 1831/25 1832/35 1833/36
f 1798/26 1787/25 1788/37 1799/38
f 1800/26 1789/25 1790/31 1801/32
f 1834/25 1835/26 1836/32 1837/31
f 1838/26 1839/25 1791/31 1802/32
f 1802/25 1791/26 1792/32 1803/31
f 1803/26 1792/25 1793/31 1804/32
f 1840/25 1841/26 1794/32 1805/31
f 1805/26 1794/25 1795/31 1806/32
f 1806/25 1795/26 1796/32 1807/31
f 1807/26 1796/25 1627/31 1626/32
f 1468/25 1505/26 1508/36 1469/35
f 1469/26 1508/25 1510/31 1471/32
f 1471/25 1510/26 1512/38 1473/37
f 1473/26 1512/25 1514/39 1475/40
f 1475/25 1514/26 1516/32 1477/31
f 1477/26 1516/25 1518/37 1479/38
f 1479/25 1518/26 1520/32 1481/31
f 1481/26 1520/25 1522/31 1483/32
f 1483/25 1522/26 1524/38 1485/37
f 1485/26 1524/25 1526/31 1487/32
f 1487/25 1526/26 1528/32 1489/31
f 1489/26 1528/25 1530/31 1491/32
f 1491/25 1530/26 1532/32 1493/31
f 1493/26 1532/25 1534/31 1495/32
f 1495/25 1534/26 1536/32 1497/31
f 1497/26 1536/25 1538/35 1499/36
f 1499/25 1538/26 1540/38 1501/37
f 1501/26 1540/25 1542/37 1503/38
f 1506/25 1467/26 1470/36 1507/35
f 1507/26 1470/25 1472/31 1509/32
f 1509/25 1472/26 1474/38 1511/37
f 1511/26 1474/25 1476/39 1513/40
f 1513/25 1476/26 1478/32 1515/31
f 1515/26 1478/25 1480/37 1517/38
f 1517/25 1480/26 1482/32 1519/31
f 1519/26 1482/25 1484/31 1521/32
f 1521/25 1484/26 1486/38 1523/37
f 1523/26 1486/25 1488/31 1525/32
f 1525/25 1488/26 1490/32 1527/31
f 1527/26 1490/25 1492/31 1529/32
f 1529/25 1492/26 1494/32 1531/31
f 1531/26 1494/25 1496/31 1533/32
f 1533/25 1496/26 1498/32 1535/31
f 1535/26 1498/25 1500/35 1537/36
f 1537/25 1500/26 1502/38 1539/37
f 1539/26 1502/25 1504/37 1541/38
f 1751/26 1676/25 1679/31 1752/32
f 1752/25 1679/26 1681/32 1754/31
f 1754/26 1681/25 1683/37 1756/38
f 1756/25 1683/26 1685/32 1758/31
f 1758/26 1685/25 1687/37 1760/38
f 1760/25 1687/26 1689/38 1762/37
f 1762/26 1689/25 1691/37 1764/38
f 1764/25 1691/26 1693/32 1766/31
f 1766/26 1693/25 1695/35 1768/36
f 1768/25 1695/26 1697/36 1770/35
f 1770/26 1697/25 1699/31 1772/32
f 1772/25 1699/26 1701/38 1774/37
f 1774/26 1701/25 1703/31 1776/32
f 1776/25 1703/26 1705/32 1778/31
f 1778/26 1705/25 1707/37 1780/38
f 1780/25 1707/26 1709/38 1782/37
f 1782/26 1709/25 1711/37 1784/38
f 1784/25 1711/26 1633/32 1632/31
f 1677/26 1750/25 1753/31 1678/32
f 1678/25 1753/26 1755/32 1680/31
f 1680/26 1755/25 1757/37 1682/38
f 1682/25 1757/26 1759/32 1684/31
f 1684/26 1759/25 1761/37 1686/38
f 1686/25 1761/26 1763/38 1688/37
f 1688/26 1763/25 1765/37 1690/38
f 1690/25 1765/26 1767/32 1692/31
f 1692/26 1767/25 1769/35 1694/36
f 1694/25 1769/26 1771/36 1696/35
f 1696/26 1771/25 1773/31 1698/32
f 1698/25 1773/26 1775/38 1700/37
f 1700/26 1775/25 1777/31 1702/32
f 1702/25 1777/26 1779/32 1704/31
f 1704/26 1779/25 1781/37 1706/38
f 1706/25 1781/26 1783/38 1708/37
f 1708/26 1783/25 1785/37 1710/38
f 1710/25 1785/26 1631/32 1630/31

usemtl minecraft_block-stone_bricks

f 33/25 34/26 35/27 36/28
f 37/25 38/26 39/27 40/28
f 34/25 37/26 40/27 35/28
f 36/28 41/29 42/30 43/31
f 41/28 44/27 45/32 42/31
f 46/25 47/26 48/27 49/28
f 50/25 51/26 52/27 53/28
f 51/25 46/26 49/27 52/28
f 49/28 54/29 55/30 56/31
f 52/28 49/27 56/32 57/31
f 58/32 59/31 60/28 61/27
f 62/32 63/31 64/28 65/27
f 61/27 66/29 67/33 68/26
f 69/32 70/31 71/28 72/27
f 73/29 74/28 75/34 76/33
f 77/32 78/31 79/28 80/27
f 81/32 82/31 83/28 84/27
f 80/27 85/29 86/33 87/26
f 88/25 89/26 90/27 91/28
f 92/25 93/26 94/27 95/28
f 91/28 96/29 97/30 69/31
f 202/25 203/26 204/27 205/28
f 206/25 207/26 208/27 209/28
f 203/25 206/26 209/27 204/28
f 205/28 210/29 211/30 212/31
f 213/29 208/27 214/32 215/30
f 210/28 213/27 215/32 211/31
f 216/32 62/31 217/28 218/27
f 219/32 220/31 221/28 222/27
f 218/27 223/29 224/33 225/26
f 226/25 227/26 228/27 229/28
f 230/25 231/26 232/27 233/28
f 231/25 226/26 229/27 232/28
f 229/28 234/29 235/30 236/31
f 237/29 232/27 238/32 239/30
f 234/28 237/27 239/32 235/31
f 232/28 229/27 236/32 238/31
f 240/32 241/31 242/28 243/27
f 244/32 245/31 246/28 247/27
f 243/27 248/29 249/33 250/26
f 251/32 252/31 253/28 254/27
f 241/32 240/31 243/28 255/27
f 256/32 257/31 258/28 259/27
f 260/32 261/31 262/28 263/27
f 259/27 264/29 265/33 266/26
f 267/29 262/28 268/34 269/33
f 270/32 271/31 272/28 273/27
f 274/32 275/31 276/28 277/27
f 273/27 278/29 279/33 280/26
f 281/25 282/26 283/27 284/28
f 285/25 286/26 287/27 288/28
f 284/28 289/29 290/30 291/31
f 292/29 287/27 261/32 293/30
f 328/27 73/28 76/34 329/26
f 45/30 334/31 43/41 42/42
f 335/30 57/31 56/41 55/42
f 336/42 337/26 338/32 339/30
f 82/41 81/26 78/32 77/31
f 215/27 214/32 212/43 211/28
f 344/25 346/26 82/32 337/31
f 239/27 238/32 236/43 235/28
f 347/42 348/44 346/45 349/30
f 354/46 355/47 356/48 357/27
f 361/46 358/47 362/48 363/27
f 270/25 367/49 362/45 356/31
f 275/43 274/50 271/48 270/32
f 370/28 371/27 372/32 373/31
f 380/32 381/31 382/25 383/26
f 385/32 69/31 386/51 75/26
f 390/25 389/26 391/27 392/28
f 93/25 88/26 69/32 394/31
f 395/28 396/27 82/38 346/37
f 346/32 348/31 397/28 398/27
f 398/27 399/29 400/33 401/26
f 404/30 225/31 68/34 67/33
f 405/52 406/31 402/25 224/53
f 411/54 410/55 412/26 413/32
f 414/56 408/57 413/58 415/59
f 416/25 63/26 417/27 418/28
f 419/25 225/26 63/32 220/31
f 220/32 216/31 225/51 419/26
f 220/25 420/26 421/27 422/28
f 441/25 442/26 443/32 444/31
f 53/45 39/31 36/41 48/49
f 417/25 445/26 446/32 418/31
f 84/32 83/31 80/34 79/26
f 233/60 208/32 205/43 228/61
f 421/25 447/26 448/32 422/31
f 447/54 449/57 398/62 397/32
f 450/31 451/47 452/48 453/32
f 454/31 455/47 456/48 457/32
f 458/32 459/31 455/34 456/26
f 277/54 276/57 273/62 272/32
f 460/28 461/27 462/32 463/31
f 415/63 412/26 464/27 465/64
f 254/28 466/29 467/30 251/31
f 469/28 470/27 358/38 471/37
f 472/32 385/31 74/28 473/27
f 399/27 509/28 510/34 400/26
f 227/25 230/26 233/27 228/28
f 348/32 352/31 447/28 397/27
f 412/25 410/26 513/27 464/28
f 44/29 39/27 334/32 45/30
f 515/29 52/27 57/32 335/30
f 516/29 94/27 394/32 517/30
f 278/27 518/28 519/34 279/26
f 289/28 292/27 293/32 290/31
f 381/28 380/27 442/32 441/31
f 461/28 522/27 523/32 462/31
f 524/29 64/28 225/34 404/33
f 72/27 328/29 329/33 386/26
f 526/25 390/26 392/27 527/28
f 528/29 83/28 384/34 529/33
f 396/28 566/27 565/32 384/31
f 517/30 394/31 69/41 97/42
f 293/27 261/32 291/43 290/28
f 465/59 571/28 414/34 415/67
f 572/28 573/27 354/32 357/31
f 574/28 575/27 361/32 363/31
f 271/32 274/31 277/28 272/27
f 282/25 285/26 288/27 283/28
f 252/45 244/31 247/28 253/59
f 468/25 584/26 362/32 358/31
f 257/32 260/31 263/28 258/27
f 588/25 587/26 589/27 590/28
f 470/28 591/27 585/32 468/31
f 358/32 362/31 456/28 455/27
f 455/27 592/29 593/33 468/26
f 473/25 74/26 72/32 71/31
f 95/32 94/31 91/41 90/26
f 263/26 262/32 259/54 258/55
f 288/48 287/32 284/43 283/50
f 527/25 392/26 391/32 594/31
f 595/25 596/26 590/32 589/31
f 380/28 383/27 443/32 442/31
f 513/28 628/27 629/32 512/31
f 630/29 243/28 407/34 249/33
f 631/25 588/26 590/27 596/28
f 591/28 632/27 633/32 585/31
f 66/27 635/70 405/71 67/26
f 636/28 637/27 336/32 339/31
f 638/28 639/27 347/32 349/31
f 38/34 50/67 47/45 33/31
f 462/25 523/26 50/32 463/31
f 63/41 62/26 59/32 58/31
f 565/32 63/31 416/25 641/26
f 529/30 384/31 87/34 86/33
f 207/62 230/38 227/72 202/57
f 372/42 220/26 63/32 373/30
f 401/25 642/26 565/32 384/31
f 511/25 512/26 629/32 643/31
f 514/32 420/31 220/25 642/26
f 510/56 644/57 401/62 400/27
f 645/46 646/47 251/48 467/27
f 245/43 244/50 241/48 240/32
f 648/54 245/55 649/26 585/32
f 468/54 251/55 650/26 584/32
f 652/25 633/26 585/32 468/31
f 653/30 652/31 468/34 593/33
f 519/56 651/57 280/62 279/27
f 54/28 515/27 335/32 55/31
f 592/27 654/28 653/34 593/26
f 522/32 461/31 460/25 655/26
f 65/32 64/31 61/34 60/26
f 656/25 221/26 64/32 522/31
f 395/45 221/31 218/34 396/73
f 513/32 657/31 658/25 628/26
f 513/31 659/47 254/48 464/32
f 247/54 246/57 254/58 253/45
f 469/32 632/31 591/25 470/26
f 78/32 81/31 84/28 79/27
f 89/25 92/26 95/27 90/28
f 59/32 219/74 222/70 60/27
f 70/32 472/31 473/28 71/27
f 660/25 526/26 527/27 594/28
f 566/28 661/27 642/32 565/31
f 514/25 642/26 344/32 352/31
f 352/32 662/31 449/28 447/27
f 509/29 449/28 644/34 510/33
f 47/25 50/26 53/27 48/28
f 402/25 406/26 656/27 522/28
f 362/32 367/31 458/28 456/27
f 85/27 528/28 529/34 86/26
f 96/28 516/27 517/32 97/31
f 383/28 382/27 444/32 443/31
f 655/28 460/27 463/32 50/31
f 389/25 660/26 594/27 391/28
f 466/28 690/27 645/32 467/31
f 382/28 381/27 441/32 444/31
f 658/28 657/27 511/32 643/31
f 571/29 246/28 408/34 414/33
f 587/25 691/26 595/27 589/28
f 518/29 276/28 651/34 519/33
f 406/25 405/53 635/75 656/28
f 371/29 221/27 220/32 372/30
f 661/28 395/27 346/38 344/37
f 628/28 658/27 643/32 629/31
f 264/27 267/28 269/34 265/26
f 261/32 256/31 266/51 268/26
f 691/25 631/26 596/27 595/28
f 632/28 469/27 471/38 270/37
f 367/32 471/31 459/28 458/27
f 654/29 459/28 652/34 653/33
f 286/25 281/26 291/32 261/31
f 411/25 413/26 251/32 646/31
f 649/25 245/26 450/27 453/28
f 240/32 251/31 413/51 407/26
f 650/25 251/26 454/27 457/28
f 76/42 92/67 89/45 329/30
f 269/27 281/31 286/32 265/28
f 709/32 710/31 711/28 712/27
f 713/32 714/31 715/28 716/27
f 712/27 717/29 718/33 719/26
f 720/29 715/28 721/34 722/33
f 723/25 724/26 725/27 726/28
f 727/25 728/26 729/27 730/28
f 731/29 729/27 732/32 733/30
f 734/32 735/31 736/28 726/27
f 737/32 738/31 739/28 740/27
f 726/27 741/29 742/33 743/26
f 744/32 745/31 746/28 747/27
f 748/32 749/31 750/28 751/27
f 747/27 752/29 753/33 754/26
f 755/29 750/28 756/34 757/33
f 758/32 748/31 759/28 760/27
f 760/27 761/29 762/33 756/26
f 763/25 764/26 765/27 766/28
f 767/25 768/26 769/27 770/28
f 771/29 769/27 772/32 773/30
f 774/25 775/26 776/27 777/28
f 778/25 779/26 780/27 781/28
f 782/29 780/27 783/32 784/30
f 785/28 782/27 784/32 786/31
f 787/32 788/31 789/28 790/27
f 791/32 792/31 793/28 794/27
f 795/28 771/27 773/32 796/31
f 797/27 798/28 799/34 800/26
f 801/28 802/27 803/32 804/31
f 752/27 805/70 806/71 753/26
f 807/28 808/27 809/32 810/31
f 811/28 812/27 813/32 814/31
f 726/28 818/29 819/30 734/31
f 822/25 821/26 823/27 824/28
f 825/28 826/27 827/32 828/31
f 835/28 836/27 834/32 763/31
f 766/28 795/29 796/30 837/31
f 777/28 785/29 786/30 838/31
f 839/28 840/27 841/32 842/31
f 843/27 844/28 845/34 846/26
f 714/48 713/32 710/31 709/47
f 831/25 849/49 850/45 815/31
f 809/27 851/32 852/43 810/28
f 813/27 849/32 855/43 814/28
f 773/46 772/47 837/48 796/27
f 841/42 862/76 863/45 842/30
f 784/46 783/47 838/48 786/27
f 865/25 868/26 862/32 866/31
f 869/28 870/27 871/32 872/31
f 722/27 721/32 719/54 718/28
f 875/25 827/26 828/32 876/31
f 877/30 875/31 876/34 878/33
f 749/48 748/32 745/31 744/47
f 748/62 879/32 880/54 745/57
f 882/62 883/32 881/54 884/57
f 803/27 881/32 758/43 804/28
f 778/25 763/26 834/32 767/31
f 779/77 767/55 764/26 774/38
f 890/32 787/31 888/25 887/26
f 799/27 891/32 890/54 800/28
f 871/42 792/26 787/32 872/30
f 893/25 892/26 890/32 891/31
f 894/27 895/28 877/34 878/26
f 759/31 938/32 825/25 939/26
f 751/26 750/32 747/54 746/55
f 940/48 941/32 942/43 943/50
f 835/32 944/31 945/25 836/26
f 946/25 793/26 790/32 947/31
f 948/45 793/31 790/34 949/73
f 863/32 862/31 984/28 985/27
f 798/29 984/28 891/34 799/33
f 948/28 949/27 862/38 868/37
f 890/25 887/26 860/32 866/31
f 866/32 860/31 986/28 987/27
f 987/27 797/29 800/33 890/26
f 788/32 791/31 794/28 789/27
f 988/28 989/27 892/32 890/31
f 806/59 1006/45 754/54 753/28
f 1006/62 1009/32 1010/54 1011/57
f 845/52 1012/31 1013/25 846/53
f 888/25 787/26 1014/27 1015/28
f 1016/25 1017/26 787/32 792/31
f 792/32 787/31 1017/51 1016/26
f 850/32 849/31 1018/28 1019/27
f 1013/25 1012/26 946/27 947/28
f 716/26 715/32 712/54 711/55
f 1018/32 1020/31 1021/34 1019/26
f 1022/48 1023/32 1024/43 1025/50
f 1026/48 1018/32 1027/43 1028/50
f 770/31 780/78 777/60 765/32
f 1014/25 987/26 986/32 1015/31
f 985/26 984/32 987/54 986/55
f 938/28 939/27 1029/38 854/37
f 875/32 803/79 802/64 938/27
f 805/29 940/70 1009/80 806/33
f 735/32 737/31 740/28 736/27
f 1031/25 822/26 824/27 1032/28
f 826/28 938/27 875/32 827/31
f 849/32 854/31 1020/28 1018/27
f 895/29 1020/28 875/34 877/33
f 745/32 875/74 938/70 746/27
f 882/25 884/26 855/32 849/31
f 728/25 723/26 734/32 732/31
f 738/32 734/31 743/51 1033/26
f 821/25 1034/26 1035/27 823/28
f 939/28 825/27 815/38 1029/37
f 1029/32 850/31 1019/28 1021/27
f 1021/27 894/29 878/33 876/26
f 710/32 713/31 716/28 711/27
f 724/25 727/26 730/27 725/28
f 741/27 1052/28 1053/34 742/26
f 844/29 793/28 1016/34 845/33
f 989/28 948/27 893/32 892/31
f 717/27 720/28 722/34 718/26
f 818/28 731/27 733/32 819/31
f 944/28 835/27 837/38 772/37
f 775/25 778/26 781/27 776/28
f 846/63 1013/26 947/27 843/64
f 790/28 869/29 872/30 787/31
f 949/28 988/27 866/38 862/37
f 1010/25 1009/26 940/27 943/28
f 764/25 767/26 770/27 765/28
f 860/32 863/31 985/28 986/27
f 880/25 879/26 1022/27 1025/28
f 881/32 758/31 756/51 1006/26
f 881/25 883/26 1026/27 1028/28
f 1006/25 1011/26 758/32 881/31
f 1052/29 739/28 1033/34 1053/33
f 1034/25 1031/26 1032/27 1035/28
f 945/28 944/27 778/32 767/31
f 733/46 732/47 734/48 819/27
f 730/31 729/47 726/48 725/32
f 740/54 739/57 726/62 736/32
f 1032/25 824/26 823/32 1035/31
f 1053/81 727/55 724/26 742/82
f 1054/32 1055/31 1056/28 1057/27
f 1058/32 1059/31 1060/28 1061/27
f 1057/27 1062/29 1063/33 1064/26
f 1065/29 1060/28 1066/34 1067/33
f 1068/25 1069/26 1070/27 1071/28
f 1071/28 1072/29 1073/30 1074/31
f 1075/32 1076/31 1077/28 1078/27
f 1078/27 1079/29 1080/33 1081/26
f 1082/27 1083/28 1084/34 1085/26
f 1072/28 1086/27 1087/32 1073/31
f 1088/28 1089/27 1090/32 1091/31
f 1062/27 1065/28 1067/34 1063/26
f 1092/45 1093/31 1094/25 1095/73
f 1090/27 1099/32 1094/43 1091/28
f 1106/83 1107/52 1108/31 1109/47
f 1110/25 1111/26 1112/32 1109/31
f 1115/42 1116/26 1055/32 1117/30
f 1058/25 1055/26 1116/32 1118/31
f 1123/62 1054/32 1119/54 1122/57
f 1087/27 1127/32 1074/43 1073/28
f 1084/27 1128/32 1129/54 1085/28
f 1125/34 1124/26 1130/32 1131/31
f 1132/25 1133/26 1129/32 1128/31
f 1135/30 1130/31 1075/41 1136/42
f 1056/31 1061/32 1181/25 1182/26
f 1183/48 1184/32 1071/43 1070/50
f 1078/45 1185/31 1186/25 1187/73
f 1188/32 1187/31 1189/41 1190/26
f 1067/27 1068/31 1257/32 1063/28
f 1258/42 1259/67 1260/45 1080/30
f 1261/25 1262/26 1263/32 1264/31
f 1265/48 1266/32 1264/43 1267/50
f 1268/26 1269/32 1270/54 1271/55
f 1272/32 1268/31 1273/41 1274/26
f 1102/32 1094/31 1264/28 1263/27
f 1263/27 1275/29 1117/33 1055/26
f 1056/28 1061/27 1058/32 1055/31
f 1123/25 1122/26 1094/32 1099/31
f 1055/32 1058/31 1061/28 1056/27
f 1093/32 1276/31 1262/28 1261/27
f 1277/29 1262/28 1116/34 1115/33
f 1182/28 1181/27 1276/38 1092/37
f 1185/28 1308/27 1132/32 1133/31
f 1309/84 1186/27 1129/32 1135/85
f 1128/25 1129/26 1109/32 1112/31
f 1310/29 1188/70 1259/80 1258/33
f 1069/25 1311/26 1183/27 1070/28
f 1108/32 1103/31 1268/28 1271/27
f 1119/25 1054/26 1265/27 1267/28
f 1059/32 1054/31 1064/51 1066/26
f 1257/25 1068/26 1074/32 1127/31
f 1275/27 1277/28 1115/34 1117/26
f 1061/28 1182/27 1118/32 1058/31
f 1181/28 1056/27 1102/38 1276/37
f 1312/28 1309/27 1135/32 1136/31
f 1313/28 1314/27 1107/32 1106/31
f 1079/27 1310/28 1258/34 1080/26
f 1103/32 1112/31 1269/28 1268/27
f 1083/29 1269/28 1128/34 1084/33
f 1125/25 1131/26 1315/32 1103/31
f 1308/28 1316/27 1128/32 1132/31
f 1076/32 1128/31 1316/28 1077/27
f 1109/32 1108/31 1271/28 1270/27
f 1270/27 1082/29 1085/33 1129/26
f 1186/28 1185/27 1110/38 1109/37
f 1094/32 1093/31 1261/28 1264/27
f 1260/25 1259/26 1188/27 1190/28
f 1130/25 1124/26 1272/27 1274/28
f 1130/32 1075/31 1081/51 1317/26
f 1317/25 1318/26 1075/32 1130/31
f 1415/32 1416/31 1417/28 1418/27
f 1419/29 1420/28 1421/34 1422/33
f 1423/32 1424/31 1425/28 1426/27
f 1427/32 1428/31 1429/28 1430/27
f 1426/27 1431/29 1432/33 1433/26
f 1434/32 1435/31 1436/28 1437/27
f 1438/29 1439/28 1440/34 1441/33
f 1442/27 1443/29 1444/33 1445/26
f 1446/29 1437/28 1447/34 1448/33
f 1449/25 1450/26 1451/27 1452/28
f 1452/28 1453/29 1454/30 1455/31
f 1456/32 1457/31 1458/28 1459/27
f 1460/32 1461/31 1462/28 1463/27
f 1459/27 1464/29 1465/33 1466/26
f 1543/32 1544/31 1416/25 1415/26
f 1551/30 1552/31 1553/41 1554/42
f 1555/42 1556/26 1557/32 1558/30
f 1559/42 1560/26 1561/32 1562/30
f 1563/25 1564/26 1549/32 1545/31
f 1567/43 1568/50 1569/83 1570/52
f 1578/46 1576/47 1579/48 1580/27
f 1581/45 1576/31 1584/25 1585/73
f 1422/42 1421/26 1586/32 1587/30
f 1591/32 1592/31 1435/25 1434/26
f 1593/34 1594/26 1595/32 1435/31
f 1597/25 1599/26 1600/32 1598/31
f 1601/45 1597/31 1598/25 1602/73
f 1603/25 1604/26 1586/32 1588/31
f 1606/30 1434/31 1455/41 1454/42
f 1607/56 1608/57 1603/62 1609/27
f 1603/34 1605/26 1610/32 1611/31
f 1614/46 1461/47 1456/48 1615/27
f 1616/54 1618/55 1461/26 1619/32
f 1622/42 1619/26 1623/32 1624/30
f 1625/25 1623/26 1619/32 1620/31
f 1634/25 1439/26 1437/32 1436/31
f 1635/32 1636/31 1637/25 1638/26
f 1442/45 1639/31 1640/25 1437/73
f 1636/32 1641/31 1452/41 1451/26
f 1642/31 1462/47 1643/48 1644/32
f 1645/86 1462/57 1459/62 1646/38
f 1441/42 1440/26 1647/32 1648/30
f 1448/42 1649/67 1450/45 1444/30
f 1652/81 1653/55 1654/26 1465/82
f 1655/25 1420/26 1418/32 1417/31
f 1656/32 1657/31 1658/41 1659/26
f 1660/25 1661/73 1662/45 1663/31
f 1664/54 1665/57 1666/62 1667/32
f 1668/32 1666/31 1667/41 1669/26
f 1670/31 1671/47 1672/48 1673/32
f 1671/25 1672/26 1674/32 1675/31
f 1433/25 1737/26 1738/27 1426/28
f 1426/28 1739/29 1740/30 1741/31
f 1744/25 1743/26 1745/27 1746/28
f 1638/28 1637/27 1598/32 1600/31
f 1602/87 1598/26 1663/27 1662/70
f 1747/28 1748/29 1558/30 1557/31
f 1662/28 1749/29 1562/30 1561/31
f 1544/32 1543/31 1420/28 1655/27
f 1592/32 1591/31 1439/28 1634/27
f 1749/28 1808/27 1559/32 1562/31
f 1809/28 1810/27 1614/32 1615/31
f 1748/28 1811/27 1555/32 1558/31
f 1812/27 1813/28 1622/34 1624/26
f 1814/27 1815/28 1607/34 1609/26
f 1431/27 1816/28 1817/34 1432/26
f 1574/32 1568/31 1664/28 1667/27
f 1654/25 1653/26 1642/27 1644/28
f 1646/28 1818/27 1620/32 1625/31
f 1819/27 1419/28 1422/34 1587/26
f 1739/28 1820/27 1821/32 1740/31
f 1635/28 1638/27 1557/38 1556/37
f 1600/25 1599/26 1822/27 1747/28
f 1653/25 1652/53 1823/75 1642/28
f 1810/29 1462/27 1461/32 1614/30
f 1824/28 1645/27 1825/38 1579/37
f 1639/28 1442/59 1605/45 1604/31
f 1604/25 1603/26 1564/32 1563/31
f 1418/27 1819/29 1587/33 1586/26
f 1843/25 1817/53 1816/75 1844/28
f 1820/29 1429/27 1428/32 1821/30
f 1847/25 1846/26 1848/27 1849/28
f 1437/27 1446/29 1648/33 1647/26
f 1636/28 1635/27 1599/32 1597/31
f 1597/25 1601/73 1661/59 1660/28
f 1811/29 1822/27 1556/32 1555/30
f 1808/29 1661/27 1560/32 1559/30
f 1437/70 1640/27 1586/32 1596/74
f 1453/28 1850/27 1606/32 1454/31
f 1821/42 1428/26 1741/32 1740/30
f 1443/59 1438/28 1441/34 1444/67
f 1851/28 1852/27 1551/32 1554/31
f 1853/28 1854/27 1570/32 1569/31
f 1855/28 1856/27 1578/32 1580/31
f 1464/27 1823/28 1652/34 1465/26
f 1424/32 1427/31 1430/28 1425/27
f 1846/25 1744/26 1746/27 1848/28
f 1603/45 1592/31 1634/28 1857/59
f 1857/28 1436/27 1588/32 1603/31
f 1564/32 1574/31 1667/28 1666/27
f 1666/27 1814/29 1609/33 1603/26
f 1603/25 1611/26 1574/32 1564/31
f 1842/25 1433/26 1741/32 1428/31
f 1428/32 1423/31 1433/51 1842/26
f 1743/25 1847/26 1849/27 1745/28
f 1640/28 1639/27 1563/38 1545/37
f 1568/32 1567/31 1665/28 1664/27
f 1815/29 1665/28 1608/34 1607/33
f 1825/32 1584/31 1675/28 1674/27
f 1674/27 1812/29 1624/33 1623/26
f 1645/28 1646/27 1585/38 1825/37
f 1598/25 1597/26 1660/27 1663/28
f 1450/25 1649/26 1636/27 1451/28
f 1584/32 1576/31 1671/28 1675/27
f 1616/25 1619/26 1579/32 1576/31
f 1457/32 1460/31 1463/28 1458/27
f 1576/32 1579/31 1672/28 1671/27
f 1813/29 1672/28 1619/34 1622/33
f 1818/28 1824/27 1619/32 1620/31
f 1595/25 1594/26 1656/27 1659/28
f 1596/32 1605/31 1445/51 1447/26
f 1858/25 1449/26 1455/32 1434/31
f 1610/25 1605/26 1668/27 1669/28
f 1859/25 1860/26 1456/32 1461/31
f 1461/25 1618/26 1670/27 1673/28
f 1461/32 1456/31 1466/51 1859/26
f 1844/25 1429/26 1426/32 1738/31
f 1430/32 1429/31 1426/34 1425/26
f 1849/25 1848/26 1746/32 1745/31
f 1416/32 1544/31 1655/28 1417/27
f 1737/25 1843/26 1844/27 1738/28
f 1817/52 1843/31 1737/25 1432/53

usemtl minecraft_entity-skeleton-skeleton

f 1/1 2/2 3/3 4/4
f 2/5 1/6 5/7 6/3
f 1/8 4/9 7/10 5/11
f 4/9 3/12 8/4 7/10
f 3/12 2/5 6/3 8/4
f 6/1 5/13 7/10 8/4
f 9/14 10/15 11/16 12/17
f 10/18 9/19 13/20 14/16
f 9/6 12/21 15/22 13/7
f 12/21 11/23 16/17 15/22
f 11/23 10/18 14/16 16/17
f 14/14 13/24 15/22 16/17
f 17/1 18/2 19/3 20/4
f 18/5 17/6 21/7 22/3
f 17/8 20/9 23/10 21/11
f 20/9 19/12 24/4 23/10
f 19/12 18/5 22/3 24/4
f 22/1 21/13 23/10 24/4
f 25/14 26/15 27/16 28/17
f 26/18 25/19 29/20 30/16
f 25/6 28/21 31/22 29/7
f 28/21 27/23 32/17 31/22
f 27/23 26/18 30/16 32/17
f 30/14 29/24 31/22 32/17
f 693/1 694/2 695/3 696/4
f 694/5 693/6 697/7 698/3
f 693/8 696/9 699/10 697/11
f 696/9 695/12 700/4 699/10
f 695/12 694/5 698/3 700/4
f 698/1 697/13 699/10 700/4
f 701/14 702/15 703/16 704/17
f 702/18 701/19 705/20 706/16
f 701/6 704/21 707/22 705/7
f 704/21 703/23 708/17 707/22
f 703/23 702/18 706/16 708/17
f 706/14 705/24 707/22 708/17
f 1319/1 1320/2 1321/3 1322/4
f 1320/5 1319/6 1323/7 1324/3
f 1319/8 1322/9 1325/10 1323/11
f 1322/9 1321/12 1326/4 1325/10
f 1321/12 1320/5 1324/3 1326/4
f 1324/1 1323/13 1325/10 1326/4
f 1327/14 1328/15 1329/16 1330/17
f 1328/18 1327/19 1331/20 1332/16
f 1327/6 1330/21 1333/22 1331/7
f 1330/21 1329/23 1334/17 1333/22
f 1329/23 1328/18 1332/16 1334/17
f 1332/14 1331/24 1333/22 1334/17

usemtl minecraft_block-smooth_stone

f 341/25 82/26 340/32 342/31
f 368/25 369/26 275/32 270/31
f 386/25 530/26 92/32 393/31
f 577/25 576/26 634/32 692/31
f 815/25 709/26 847/32 816/31
f 1033/25 723/26 817/32 727/31
f 1545/25 1546/26 1547/32 1548/31
f 1843/25 1842/26 1433/32 1737/31

usemtl minecraft_block-smooth_stone_slab_side

f 340/25 82/26 386/32 393/31
f 82/25 341/26 530/32 386/31
f 369/25 368/26 576/32 577/31
f 368/25 270/26 634/32 576/31
f 341/25 342/26 92/32 530/31
f 342/25 340/26 393/32 92/31
f 275/25 369/26 577/32 692/31
f 270/25 275/26 692/32 634/31
f 815/25 816/26 817/32 723/31
f 709/25 815/26 723/32 1033/31
f 816/25 847/26 727/32 817/31
f 847/25 709/26 1033/32 727/31
f 1548/25 1547/26 1737/32 1433/31
f 1546/25 1545/26 1842/32 1843/31
f 1545/25 1548/26 1433/32 1842/31
f 1547/25 1546/26 1843/32 1737/31

usemtl minecraft_block-polished_andesite

f 330/25 331/26 332/32 333/31
f 350/25 351/26 352/32 353/31
f 362/25 364/26 350/32 365/31
f 225/25 402/26 403/32 68/31
f 407/25 408/26 409/32 410/31
f 225/25 68/26 416/32 63/31
f 420/25 423/26 350/32 353/31
f 424/25 423/26 350/32 364/31
f 410/25 409/26 511/32 512/31
f 514/25 420/26 353/32 352/31
f 520/25 521/26 331/32 330/31
f 402/25 225/26 63/32 523/31
f 584/25 424/26 364/32 362/31
f 521/25 627/26 332/32 331/31
f 407/25 410/26 512/32 240/31
f 521/25 520/26 640/32 627/31
f 523/25 63/26 416/32 50/31
f 245/25 240/26 512/32 511/31
f 647/25 423/26 420/32 514/31
f 424/25 584/26 650/32 423/31
f 647/25 514/26 352/32 351/31
f 403/25 402/26 523/32 50/31
f 650/25 584/26 362/32 365/31
f 627/25 640/26 333/32 332/31
f 68/25 403/26 50/32 416/31
f 640/25 520/26 330/32 333/31
f 409/25 408/26 245/32 511/31
f 408/25 407/26 240/32 245/31
f 423/25 647/26 351/32 350/31
f 423/25 650/26 365/32 350/31
f 832/25 833/26 829/32 834/31
f 856/25 857/26 858/32 849/31
f 859/25 860/26 861/32 857/31
f 885/25 883/26 882/32 886/31
f 767/25 834/26 829/32 744/31
f 887/25 888/26 885/32 889/31
f 887/25 889/26 861/32 860/31
f 832/25 1007/26 1008/32 833/31
f 885/25 886/26 858/32 857/31
f 885/25 888/26 859/32 857/31
f 882/25 883/26 856/32 849/31
f 886/25 882/26 849/32 858/31
f 1007/25 832/26 834/32 767/31
f 888/25 887/26 860/32 859/31
f 883/25 885/26 857/32 856/31
f 833/25 1008/26 744/32 829/31
f 889/25 885/26 857/32 861/31
f 1008/25 1007/26 767/32 744/31
f 1096/25 1097/26 1094/32 1098/31
f 1103/25 1104/26 1096/32 1105/31
f 1119/25 1120/26 1121/32 1122/31
f 1124/25 1125/26 1126/32 1120/31
f 1122/25 1121/26 1098/32 1094/31
f 1125/25 1124/26 1104/32 1103/31
f 1120/25 1119/26 1097/32 1096/31
f 1120/25 1126/26 1105/32 1096/31
f 1126/25 1125/26 1103/32 1105/31
f 1119/25 1122/26 1094/32 1097/31
f 1121/25 1120/26 1096/32 1098/31
f 1124/25 1120/26 1096/32 1104/31
f 1571/25 1572/26 1573/32 1574/31
f 1575/25 1576/26 1577/32 1572/31
f 1596/25 1597/26 1598/32 1594/31
f 1612/25 1613/26 1611/32 1610/31
f 1616/25 1617/26 1612/32 1618/31
f 1649/25 1647/26 1650/32 1651/31
f 1651/25 1650/26 1594/32 1598/31
f 1610/25 1611/26 1574/32 1573/31
f 1647/25 1649/26 1597/32 1596/31
f 1611/25 1613/26 1571/32 1574/31
f 1649/25 1651/26 1598/32 1597/31
f 1616/25 1618/26 1577/32 1576/31
f 1617/25 1616/26 1576/32 1575/31
f 1650/25 1647/26 1596/32 1594/31
f 1612/25 1610/26 1573/32 1572/31
f 1612/25 1617/26 1575/32 1572/31
f 1613/25 1612/26 1572/32 1571/31
f 1618/25 1612/26 1572/32 1577/31
