# COMMON_MC_OBJ_START
# version: 1
# exporter: jmc2obj
# world_name: pillars
# world_path: /home/runner/work/map-objects/map-objects/map-fetcher/tmp/OvercastCommunity/CommunityMaps/blitz/pillars
# export_bounds_min: (-512, 0, -512)
# export_bounds_max: (495, 255, 495)
# export_offset: (0.000000, 0.000000, 0.000000)
# block_scale: 1.000000
# block_origin_offset: (-0.5, -0.5, -0.5)
# z_up: false
# texture_type: INDIVIDUAL_TILES
# has_split_blocks: false
# COMMON_MC_OBJ_END
mtllib minecraft.mtl

vt 1.000000000 0.000000000
vt 0.000000000 0.000000000
vt 0.000000000 1.000000000
vt 1.000000000 1.000000000
vt -1.000000000 0.000000000
vt -1.000000000 1.000000000
vt 0.125000000 0.000000000
vt 0.875000000 0.000000000
vt 0.875000000 0.187500000
vt 0.125000000 0.187500000
vt 0.187500000 0.187500000
vt 0.812500000 0.187500000
vt 0.812500000 0.812500000
vt 0.187500000 0.812500000
vt 2.000000000 0.000000000
vt 2.000000000 2.000000000
vt 0.000000000 2.000000000
vt 3.000000000 0.000000000
vt 3.000000000 1.000000000
vt 1.000000000 2.000000000
vt 0.000000000 3.000000000
vt 1.000000000 3.000000000
vt 0.000000000 1.875000000
vt 3.000000000 1.875000000
vt 1.000000000 4.000000000
vt 0.000000000 4.000000000
vt 0.000000000 -1.000000000
vt 1.000000000 -1.000000000
vt -2.000000000 1.000000000
vt -2.000000000 0.000000000
vt 2.000000000 1.000000000
vt -3.000000000 0.000000000
vt -3.000000000 1.000000000
vt 4.000000000 0.000000000
vt 4.000000000 1.000000000
vt 0.000000000 -2.000000000
vt 5.000000000 -2.000000000
vt 5.000000000 1.000000000
vt 6.000000000 0.000000000
vt 6.000000000 1.000000000
vt 8.000000000 0.000000000
vt 8.000000000 1.000000000
vt 7.000000000 0.000000000
vt 7.000000000 1.000000000
vt 4.000000000 -1.000000000
vt 5.000000000 0.000000000
vt 0.125000000 0.125000000
vt 0.875000000 0.125000000
vt 0.875000000 0.875000000
vt 0.125000000 0.875000000
vt 0.812500000 0.875000000
vt 0.187500000 0.875000000
vt -1.000000000 2.000000000
vt 3.000000000 -2.000000000
vt 5.000000000 -1.000000000
vt 2.000000000 1.875000000
vt 3.000000000 -1.000000000
vt -1.000000000 -1.000000000
vt 2.000000000 -1.000000000
vt 2.000000000 -2.000000000
vt 0.000000000 5.000000000
vt 1.000000000 5.000000000
v 9.500 10.500 0.500
v 10.500 10.500 0.500
v 10.500 11.500 0.500
v 9.500 11.500 0.500
v 10.500 10.500 -0.500
v 9.500 10.500 -0.500
v 9.500 11.500 -0.500
v 10.500 11.500 -0.500
v 9.500 12.500 0.500
v 10.500 12.500 0.500
v 10.500 13.500 0.500
v 9.500 13.500 0.500
v 10.500 12.500 -0.500
v 9.500 12.500 -0.500
v 9.500 13.500 -0.500
v 10.500 13.500 -0.500
v 10.500 14.500 0.500
v 9.500 14.500 0.500
v 9.500 14.500 -0.500
v 10.500 14.500 -0.500
v 9.500 15.500 0.500
v 10.500 15.500 0.500
v 10.500 16.500 0.500
v 9.500 16.500 0.500
v 10.500 15.500 -0.500
v 9.500 15.500 -0.500
v 9.500 16.500 -0.500
v 10.500 16.500 -0.500
v 9.500 17.500 0.500
v 10.500 17.500 0.500
v 10.500 18.500 0.500
v 9.500 18.500 0.500
v 10.500 17.500 -0.500
v 9.500 17.500 -0.500
v 9.500 18.500 -0.500
v 10.500 18.500 -0.500
v 9.500 20.500 0.500
v 10.500 20.500 0.500
v 10.500 21.500 0.500
v 9.500 21.500 0.500
v 10.500 20.500 -0.500
v 9.500 20.500 -0.500
v 9.500 21.500 -0.500
v 10.500 21.500 -0.500
v 10.500 22.500 0.500
v 9.500 22.500 0.500
v 9.500 22.500 -0.500
v 10.500 22.500 -0.500
v 9.500 25.500 0.500
v 10.500 25.500 0.500
v 10.500 26.500 0.500
v 9.500 26.500 0.500
v 10.500 25.500 -0.500
v 9.500 25.500 -0.500
v 9.500 26.500 -0.500
v 10.500 26.500 -0.500
v 0.500 10.500 10.500
v 0.500 10.500 9.500
v 0.500 11.500 9.500
v 0.500 11.500 10.500
v -0.500 10.500 9.500
v -0.500 10.500 10.500
v -0.500 11.500 10.500
v -0.500 11.500 9.500
v 0.500 17.500 10.500
v 0.500 17.500 9.500
v 0.500 18.500 9.500
v 0.500 18.500 10.500
v -0.500 17.500 9.500
v -0.500 17.500 10.500
v -0.500 18.500 10.500
v -0.500 18.500 9.500
v 0.500 19.500 10.500
v 0.500 19.500 9.500
v 0.500 20.500 9.500
v 0.500 20.500 10.500
v -0.500 19.500 9.500
v -0.500 19.500 10.500
v -0.500 20.500 10.500
v -0.500 20.500 9.500
v 0.500 21.500 9.500
v 0.500 21.500 10.500
v -0.500 21.500 10.500
v -0.500 21.500 9.500
v 0.500 25.500 10.500
v 0.500 25.500 9.500
v 0.500 26.500 9.500
v 0.500 26.500 10.500
v -0.500 25.500 9.500
v -0.500 25.500 10.500
v -0.500 26.500 10.500
v -0.500 26.500 9.500
v 0.500 27.500 9.500
v 0.500 27.500 10.500
v -0.500 27.500 10.500
v -0.500 27.500 9.500
v 0.500 28.500 9.500
v 0.500 28.500 10.500
v -0.500 28.500 10.500
v -0.500 28.500 9.500
v 0.500 29.500 9.500
v 0.500 29.500 10.500
v -0.500 29.500 10.500
v -0.500 29.500 9.500
v 9.500 7.500 0.500
v 10.500 7.500 0.500
v 10.500 7.500 -0.500
v 9.500 7.500 -0.500
v 6.500 7.500 7.500
v 7.500 7.500 7.500
v 7.500 7.500 6.500
v 6.500 7.500 6.500
v -0.500 7.500 10.500
v 0.500 7.500 10.500
v 0.500 7.500 9.500
v -0.500 7.500 9.500
v 3.500 -0.500 11.500
v 5.500 -0.500 11.500
v 5.500 0.500 11.500
v 3.500 0.500 11.500
v 4.500 0.500 11.500
v 4.500 1.500 11.500
v 3.500 1.500 11.500
v 4.500 2.500 11.500
v 3.500 2.500 11.500
v 5.500 1.500 11.500
v 5.500 2.500 11.500
v -0.375 32.506 0.375
v 0.375 32.506 0.375
v 0.375 32.688 0.375
v -0.375 32.688 0.375
v 9.500 29.500 0.500
v 10.500 29.500 0.500
v 10.500 29.500 -0.500
v 9.500 29.500 -0.500
v 6.500 29.500 7.500
v 7.500 29.500 7.500
v 7.500 29.500 6.500
v 6.500 29.500 6.500
v -0.313 33.375 0.313
v 0.313 33.375 0.313
v 0.313 33.375 -0.313
v -0.313 33.375 -0.313
v 7.500 -0.500 -0.500
v 7.500 -0.500 1.500
v 7.500 1.500 1.500
v 7.500 1.500 -0.500
v 7.500 1.500 2.500
v 7.500 2.500 2.500
v 7.500 2.500 -0.500
v 7.500 -0.500 2.500
v 7.500 0.500 2.500
v 7.500 0.500 1.500
v 7.500 1.500 1.500
v 7.500 6.500 7.500
v 7.500 6.500 6.500
v 7.500 10.500 7.500
v 7.500 10.500 6.500
v 7.500 11.500 6.500
v 7.500 11.500 7.500
v 7.500 12.500 7.500
v 7.500 12.500 6.500
v 7.500 13.500 6.500
v 7.500 13.500 7.500
v 7.500 14.500 6.500
v 7.500 14.500 7.500
v 7.500 15.500 7.500
v 7.500 15.500 6.500
v 7.500 16.500 6.500
v 7.500 16.500 7.500
v 7.500 18.500 6.500
v 7.500 18.500 7.500
v 7.500 19.500 7.500
v 7.500 19.500 6.500
v 7.500 20.500 6.500
v 7.500 20.500 7.500
v 7.500 22.500 6.500
v 7.500 22.500 7.500
v 7.500 23.500 6.500
v 7.500 23.500 7.500
v 7.500 24.500 7.500
v 7.500 24.500 6.500
v 7.500 27.500 6.500
v 7.500 27.500 7.500
v 7.500 30.500 7.500
v 7.500 30.500 6.500
v 7.500 31.500 6.500
v 7.500 31.500 7.500
v 7.500 -0.500 10.500
v 7.500 -0.500 9.500
v 7.500 0.500 9.500
v 7.500 0.500 10.500
v 7.500 1.500 9.500
v 7.500 1.500 10.500
v 7.500 2.500 9.500
v 7.500 2.500 10.500
v 5.500 -0.500 4.500
v 5.500 -0.500 5.500
v 5.500 1.500 5.500
v 5.500 1.500 4.500
v 5.500 2.500 5.500
v 5.500 2.500 4.500
v 5.500 -0.500 10.500
v 5.500 0.500 10.500
v 5.500 1.500 10.500
v 5.500 2.500 10.500
v 3.500 -0.500 12.500
v 3.500 1.500 12.500
v 3.500 2.500 12.500
v 9.500 23.500 0.500
v 10.500 23.500 0.500
v 10.500 23.500 -0.500
v 9.500 23.500 -0.500
v 6.500 23.500 7.500
v 6.500 23.500 6.500
v -0.500 23.500 10.500
v 0.500 23.500 10.500
v 0.500 23.500 9.500
v -0.500 23.500 9.500
v 1.500 -0.500 0.500
v 1.500 -0.500 -0.500
v 1.500 0.500 -0.500
v 1.500 0.500 0.500
v 1.500 -0.500 1.500
v 1.500 0.500 1.500
v 2.499 -0.500 2.500
v 2.499 -0.500 -0.500
v 2.499 1.375 -0.500
v 2.499 1.375 2.500
v 9.500 6.500 -0.500
v 9.500 6.500 0.500
v 9.500 16.500 -0.500
v 9.500 16.500 0.500
v 9.500 17.500 0.500
v 9.500 17.500 -0.500
v 9.500 19.500 -0.500
v 9.500 19.500 0.500
v 9.500 20.500 0.500
v 9.500 20.500 -0.500
v 9.500 24.500 -0.500
v 9.500 24.500 0.500
v 9.500 25.500 0.500
v 9.500 25.500 -0.500
v 9.500 30.500 -0.500
v 9.500 30.500 0.500
v 9.500 31.500 0.500
v 9.500 31.500 -0.500
v 9.500 -0.500 8.500
v 9.500 -0.500 7.500
v 9.500 0.500 7.500
v 9.500 0.500 8.500
v 9.500 1.500 7.500
v 9.500 1.500 8.500
v 9.500 2.500 7.500
v 9.500 2.500 8.500
v -0.500 -0.500 -0.500
v 0.500 -0.500 -0.500
v 0.500 -0.500 0.500
v -0.500 -0.500 0.500
v 0.500 -0.500 0.500
v 2.500 -0.500 1.500
v 2.500 -0.500 -0.500
v 8.500 -0.500 1.500
v 8.500 -0.500 -0.500
v 11.500 -0.500 0.500
v 8.500 -0.500 0.500
v 11.500 -0.500 -0.500
v 12.500 -0.500 0.500
v 12.500 -0.500 -0.500
v -0.500 -0.500 1.500
v -0.500 -0.500 0.500
v 8.500 -0.500 0.500
v 10.500 -0.500 0.500
v 10.500 -0.500 1.500
v 8.500 -0.500 1.500
v 12.500 -0.500 1.500
v 2.500 -0.500 2.500
v -0.500 -0.500 2.500
v 9.500 -0.500 1.500
v 9.500 -0.500 2.500
v 10.500 -0.500 2.500
v 11.500 -0.500 1.500
v 11.500 -0.500 2.500
v 12.500 -0.500 2.500
v 7.500 -0.500 4.500
v 6.500 -0.500 4.500
v 6.500 -0.500 2.500
v 8.500 -0.500 2.500
v 8.500 -0.500 4.500
v 9.500 -0.500 4.500
v 10.500 -0.500 4.500
v 11.500 -0.500 3.500
v 10.500 -0.500 3.500
v 12.500 -0.500 3.500
v 11.500 -0.500 4.500
v 8.500 -0.500 5.500
v 11.500 -0.500 5.500
v 5.500 -0.500 6.500
v 4.500 -0.500 6.500
v 4.500 -0.500 5.500
v 6.500 -0.500 5.500
v 6.500 -0.500 6.500
v 7.500 -0.500 5.500
v 7.500 -0.500 6.500
v 8.500 -0.500 6.500
v 9.500 -0.500 6.500
v 9.500 -0.500 5.500
v 10.500 -0.500 6.500
v 10.500 -0.500 5.500
v 2.500 -0.500 6.500
v 3.500 -0.500 6.500
v 3.500 -0.500 7.500
v 2.500 -0.500 7.500
v 4.500 -0.500 8.500
v 3.500 -0.500 8.500
v 5.500 -0.500 8.500
v 6.500 -0.500 7.500
v 5.500 -0.500 7.500
v 10.500 -0.500 7.500
v -0.500 -0.500 7.500
v 1.500 -0.500 7.500
v 1.500 -0.500 8.500
v -0.500 -0.500 8.500
v 2.500 -0.500 8.500
v 1.500 -0.500 7.500
v 8.500 -0.500 7.500
v 8.500 -0.500 8.500
v 3.500 -0.500 9.500
v -0.500 -0.500 9.500
v -0.500 -0.500 8.500
v 4.500 -0.500 9.500
v 6.500 -0.500 9.500
v 6.500 -0.500 8.500
v 7.500 -0.500 8.500
v 8.500 -0.500 9.500
v -0.500 -0.500 9.500
v 0.500 -0.500 9.500
v 0.500 -0.500 10.500
v -0.500 -0.500 10.500
v 1.500 -0.500 10.500
v 0.500 -0.500 10.500
v 1.500 -0.500 9.500
v 2.500 -0.500 10.500
v 2.500 -0.500 9.500
v 3.500 -0.500 10.500
v 4.500 -0.500 10.500
v 5.500 -0.500 9.500
v 6.500 -0.500 10.500
v 0.500 -0.500 11.500
v -0.500 -0.500 11.500
v -0.500 -0.500 10.500
v 1.500 -0.500 11.500
v 1.500 -0.500 10.500
v 2.500 -0.500 11.500
v 4.500 -0.500 11.500
v 0.500 -0.500 12.500
v -0.500 -0.500 12.500
v 0.500 -0.500 11.500
v 1.500 -0.500 11.500
v 1.500 -0.500 12.500
v 2.500 -0.500 12.500
v 6.500 14.500 6.500
v 6.500 14.500 7.500
v -0.500 14.500 10.500
v 0.500 14.500 10.500
v 0.500 14.500 9.500
v -0.500 14.500 9.500
v 11.500 0.500 3.500
v 11.500 0.500 4.500
v 11.500 1.500 3.500
v 11.500 1.500 4.500
v 11.500 2.500 3.500
v 11.500 2.500 4.500
v 11.500 1.500 5.500
v 11.500 2.500 5.500
v 6.500 18.500 6.500
v 6.500 18.500 7.500
v 6.500 1.500 2.500
v 6.500 2.500 2.500
v -0.500 32.500 0.500
v 0.500 32.500 0.500
v 0.500 33.500 0.500
v -0.500 33.500 0.500
v 10.500 6.500 0.500
v 10.500 16.500 0.500
v 10.500 17.500 0.500
v 10.500 19.500 0.500
v 10.500 20.500 0.500
v 9.500 22.500 0.500
v 10.500 22.500 0.500
v 10.500 24.500 0.500
v 10.500 25.500 0.500
v 9.500 26.500 0.500
v 10.500 26.500 0.500
v 10.500 30.500 0.500
v 10.500 31.500 0.500
v 0.375 32.506 -0.375
v 0.375 32.688 -0.375
v 0.500 33.500 -0.500
v -0.500 33.500 -0.500
v 6.500 10.500 6.500
v 6.500 10.500 7.500
v 2.500 1.500 6.500
v 4.500 1.500 6.500
v 2.500 2.500 6.500
v 4.500 2.500 6.500
v 6.500 6.500 6.500
v 6.500 11.500 6.500
v 6.500 12.500 6.500
v 6.500 13.500 6.500
v 6.500 15.500 6.500
v 6.500 16.500 6.500
v 6.500 19.500 6.500
v 6.500 20.500 6.500
v 6.500 22.500 6.500
v 6.500 24.500 6.500
v 6.500 27.500 6.500
v 6.500 30.500 6.500
v 6.500 31.500 6.500
v 6.500 12.500 7.500
v 0.500 12.500 10.500
v -0.500 12.500 10.500
v -0.500 12.500 9.500
v 0.500 12.500 9.500
v 10.500 31.500 -0.500
v 6.500 31.500 7.500
v -0.500 31.500 10.500
v 0.500 31.500 10.500
v 0.500 31.500 9.500
v -0.500 31.500 9.500
v 6.500 1.500 4.500
v 6.500 2.500 4.500
v 8.500 0.500 8.500
v 8.500 1.500 8.500
v 8.500 2.500 8.500
v 0.500 0.500 12.500
v -0.500 0.500 12.500
v 2.500 0.500 12.500
v 2.500 1.500 12.500
v -0.500 1.500 12.500
v -0.500 2.500 12.500
v 1.500 0.500 12.500
v -0.500 6.500 10.500
v 0.500 6.500 10.500
v -0.500 15.500 10.500
v 0.500 15.500 10.500
v 0.500 16.500 10.500
v -0.500 16.500 10.500
v 0.500 17.500 10.500
v -0.500 17.500 10.500
v -0.500 21.500 10.500
v 0.500 21.500 10.500
v -0.500 22.500 10.500
v 0.500 22.500 10.500
v -0.500 24.500 10.500
v 0.500 24.500 10.500
v 0.500 25.500 10.500
v -0.500 25.500 10.500
v -0.500 30.500 10.500
v 0.500 30.500 10.500
v 6.500 0.500 10.500
v 10.500 6.500 -0.500
v 6.500 6.500 7.500
v -0.500 6.500 9.500
v 0.500 6.500 9.500
v 0.500 0.500 -0.500
v -0.500 0.500 -0.500
v -0.500 0.500 0.500
v 0.500 0.500 0.500
v 0.500 0.500 0.500
v -0.500 0.500 1.500
v -0.500 0.500 0.500
v 12.500 2.500 2.500
v 12.500 2.500 -0.500
v 6.500 2.500 3.500
v 8.500 2.500 3.500
v 8.500 2.500 2.500
v 12.500 2.500 3.500
v 10.500 2.500 4.500
v 10.500 2.500 3.500
v 10.500 2.500 6.500
v 10.500 2.500 5.500
v 4.500 2.500 5.500
v 2.500 2.500 7.500
v 10.500 2.500 7.500
v -0.500 2.500 8.500
v 2.500 2.500 8.500
v -0.500 2.500 7.500
v -0.500 2.500 10.500
v 3.500 2.500 10.500
v 3.500 2.500 8.500
v 3.500 2.500 9.500
v 8.500 2.500 9.500
v -0.500 2.500 11.500
v 4.500 2.500 10.500
v 0.500 32.500 -0.500
v 0.500 15.500 9.500
v 0.500 16.500 9.500
v 0.500 22.500 9.500
v 0.500 24.500 9.500
v 0.500 30.500 9.500
v -0.375 32.688 -0.375
v 0.313 32.688 0.313
v -0.313 32.688 0.313
v -0.313 32.688 -0.313
v 0.313 32.688 -0.313
v 10.500 24.500 -0.500
v 6.500 24.500 7.500
v -0.500 24.500 9.500
v 8.500 1.500 9.500
v 6.500 11.500 7.500
v 6.500 13.500 7.500
v 6.500 15.500 7.500
v 6.500 16.500 7.500
v 6.500 19.500 7.500
v 6.500 20.500 7.500
v 6.500 22.500 7.500
v 6.500 27.500 7.500
v 6.500 30.500 7.500
v 4.500 0.500 6.500
v 4.500 0.500 5.500
v 4.500 1.500 5.500
v 2.500 1.500 7.500
v -0.500 32.500 -0.500
v 10.500 19.500 -0.500
v 9.500 22.500 -0.500
v 9.500 26.500 -0.500
v 10.500 30.500 -0.500
v -0.500 1.375 2.500
v 2.500 1.375 2.500
v 2.500 1.375 -0.500
v -0.500 1.375 -0.500
v 10.500 1.500 5.500
v 10.500 1.500 6.500
v 10.500 1.500 7.500
v -0.500 15.500 9.500
v -0.500 -0.500 2.499
v 2.500 -0.500 2.499
v 2.500 1.375 2.499
v -0.500 1.375 2.499
v -0.500 16.500 9.500
v -0.500 17.500 9.500
v -0.500 21.500 9.500
v -0.500 22.500 9.500
v -0.500 25.500 9.500
v -0.500 30.500 9.500
v 12.500 0.500 -0.500
v 12.500 0.500 0.500
v 12.500 1.500 -0.500
v 12.500 1.500 0.500
v 12.500 1.500 3.500
v 12.500 0.500 1.500
v 12.500 1.500 1.500
v 5.500 0.500 5.500
v -0.375 32.506 -0.375
v -0.500 0.500 7.500
v 2.500 0.500 7.500
v -0.500 0.500 7.500
v -0.500 1.500 7.500
v 0.500 12.500 -9.500
v 0.500 12.500 -10.500
v 0.500 13.500 -10.500
v 0.500 13.500 -9.500
v -0.500 12.500 -10.500
v -0.500 12.500 -9.500
v -0.500 13.500 -9.500
v -0.500 13.500 -10.500
v 0.500 14.500 -10.500
v 0.500 14.500 -9.500
v -0.500 14.500 -9.500
v -0.500 14.500 -10.500
v 0.500 15.500 -9.500
v 0.500 15.500 -10.500
v 0.500 16.500 -10.500
v 0.500 16.500 -9.500
v -0.500 15.500 -10.500
v -0.500 15.500 -9.500
v -0.500 16.500 -9.500
v -0.500 16.500 -10.500
v 0.500 17.500 -9.500
v 0.500 17.500 -10.500
v 0.500 18.500 -10.500
v 0.500 18.500 -9.500
v -0.500 17.500 -10.500
v -0.500 17.500 -9.500
v -0.500 18.500 -9.500
v -0.500 18.500 -10.500
v 0.500 19.500 -9.500
v 0.500 19.500 -10.500
v 0.500 20.500 -10.500
v 0.500 20.500 -9.500
v -0.500 19.500 -10.500
v -0.500 19.500 -9.500
v -0.500 20.500 -9.500
v -0.500 20.500 -10.500
v 0.500 21.500 -9.500
v 0.500 21.500 -10.500
v 0.500 22.500 -10.500
v 0.500 22.500 -9.500
v -0.500 21.500 -10.500
v -0.500 21.500 -9.500
v -0.500 22.500 -9.500
v -0.500 22.500 -10.500
v 0.500 23.500 -10.500
v 0.500 23.500 -9.500
v -0.500 23.500 -9.500
v -0.500 23.500 -10.500
v 0.500 24.500 -9.500
v 0.500 24.500 -10.500
v 0.500 25.500 -10.500
v 0.500 25.500 -9.500
v -0.500 24.500 -10.500
v -0.500 24.500 -9.500
v -0.500 25.500 -9.500
v -0.500 25.500 -10.500
v 0.500 26.500 -10.500
v 0.500 26.500 -9.500
v -0.500 26.500 -9.500
v -0.500 26.500 -10.500
v 0.500 28.500 -9.500
v 0.500 28.500 -10.500
v 0.500 29.500 -10.500
v 0.500 29.500 -9.500
v -0.500 28.500 -10.500
v -0.500 28.500 -9.500
v -0.500 29.500 -9.500
v -0.500 29.500 -10.500
v 1.500 -0.500 -0.500
v 1.500 -0.500 -1.500
v 1.500 0.500 -1.500
v 1.500 0.500 -0.500
v -0.500 7.500 -9.500
v 0.500 7.500 -9.500
v 0.500 7.500 -10.500
v -0.500 7.500 -10.500
v 6.500 7.500 -6.500
v 7.500 7.500 -6.500
v 7.500 7.500 -7.500
v 6.500 7.500 -7.500
v 0.500 6.500 -9.500
v -0.500 6.500 -9.500
v -0.500 6.500 -10.500
v 0.500 6.500 -10.500
v 7.500 6.500 -6.500
v 6.500 6.500 -6.500
v 6.500 6.500 -7.500
v 7.500 6.500 -7.500
v -0.500 0.500 -1.500
v -0.500 0.500 -0.500
v -0.500 2.500 -11.500
v 3.500 2.500 -11.500
v 3.500 2.500 -12.500
v -0.500 2.500 -12.500
v -0.500 2.500 -10.500
v 4.500 2.500 -10.500
v 4.500 2.500 -11.500
v 5.500 2.500 -10.500
v 5.500 2.500 -11.500
v -0.500 2.500 -8.500
v 3.500 2.500 -8.500
v 3.500 2.500 -10.500
v 3.500 2.500 -9.500
v 7.500 2.500 -9.500
v 7.500 2.500 -10.500
v 8.500 2.500 -8.500
v 8.500 2.500 -9.500
v -0.500 2.500 -7.500
v 2.500 2.500 -7.500
v 2.500 2.500 -8.500
v 9.500 2.500 -7.500
v 9.500 2.500 -8.500
v 2.500 2.500 -6.500
v 10.500 2.500 -6.500
v 10.500 2.500 -7.500
v 4.500 2.500 -5.500
v 10.500 2.500 -5.500
v 4.500 2.500 -6.500
v 5.500 2.500 -4.500
v 11.500 2.500 -4.500
v 11.500 2.500 -5.500
v 5.500 2.500 -5.500
v 6.500 2.500 -3.500
v 10.500 2.500 -3.500
v 10.500 2.500 -4.500
v 6.500 2.500 -4.500
v 11.500 2.500 -3.500
v 6.500 2.500 -2.500
v 8.500 2.500 -2.500
v 8.500 2.500 -3.500
v 12.500 2.500 -2.500
v 12.500 2.500 -3.500
v 7.500 2.500 -0.500
v 12.500 2.500 -0.500
v 7.500 2.500 -2.500
v 0.500 10.500 -9.500
v 0.500 10.500 -10.500
v 0.500 11.500 -10.500
v 0.500 11.500 -9.500
v 0.500 16.500 -9.500
v 0.500 17.500 -9.500
v 0.500 20.500 -9.500
v 0.500 21.500 -9.500
v 0.500 26.500 -9.500
v 0.500 27.500 -10.500
v 0.500 27.500 -9.500
v 0.500 28.500 -9.500
v 0.500 30.500 -9.500
v 0.500 30.500 -10.500
v 0.500 31.500 -10.500
v 0.500 31.500 -9.500
v 7.500 24.500 -6.500
v 6.500 24.500 -6.500
v 6.500 24.500 -7.500
v 7.500 24.500 -7.500
v 6.500 29.500 -6.500
v 7.500 29.500 -6.500
v 7.500 29.500 -7.500
v 6.500 29.500 -7.500
v -0.500 10.500 -10.500
v -0.500 11.500 -10.500
v -0.500 16.500 -10.500
v -0.500 20.500 -10.500
v -0.500 26.500 -10.500
v -0.500 27.500 -10.500
v -0.500 28.500 -10.500
v -0.500 30.500 -10.500
v -0.500 31.500 -10.500
v 6.500 -0.500 -10.500
v 5.500 -0.500 -10.500
v 5.500 0.500 -10.500
v 6.500 0.500 -10.500
v 7.500 0.500 -10.500
v 5.500 1.500 -10.500
v 7.500 1.500 -10.500
v 7.500 -0.500 -10.500
v 8.500 -0.500 -8.500
v 8.500 -0.500 -9.500
v 8.500 0.500 -9.500
v 8.500 0.500 -8.500
v 8.500 1.500 -9.500
v 8.500 1.500 -8.500
v 7.500 -0.500 -9.500
v 7.500 1.500 -9.500
v 7.500 10.500 -6.500
v 7.500 10.500 -7.500
v 7.500 11.500 -7.500
v 7.500 11.500 -6.500
v 7.500 12.500 -6.500
v 7.500 12.500 -7.500
v 7.500 14.500 -7.500
v 7.500 14.500 -6.500
v 7.500 15.500 -6.500
v 7.500 15.500 -7.500
v 7.500 18.500 -7.500
v 7.500 18.500 -6.500
v 7.500 19.500 -6.500
v 7.500 19.500 -7.500
v 7.500 22.500 -7.500
v 7.500 22.500 -6.500
v 7.500 23.500 -7.500
v 7.500 23.500 -6.500
v 7.500 25.500 -7.500
v 7.500 25.500 -6.500
v 7.500 30.500 -6.500
v 7.500 30.500 -7.500
v 7.500 31.500 -7.500
v 7.500 31.500 -6.500
v 7.500 -0.500 -2.500
v 7.500 -0.500 -1.500
v 7.500 1.500 -1.500
v 7.500 1.500 -2.500
v 7.500 1.500 -0.500
v 7.500 -0.500 -1.500
v 7.500 -0.500 -0.500
v 7.500 0.500 -0.500
v 7.500 0.500 -1.500
v 7.500 0.500 -0.500
v 7.500 1.500 -0.500
v 1.500 -0.500 -12.500
v -0.500 -0.500 -12.500
v -0.500 0.500 -12.500
v 1.500 0.500 -12.500
v 0.500 0.500 -12.500
v -0.500 0.500 -12.500
v -0.500 1.500 -12.500
v 0.500 1.500 -12.500
v 3.500 1.500 -12.500
v 1.500 0.500 -12.500
v 1.500 1.500 -12.500
v 2.500 -0.500 -12.500
v 1.500 -0.500 -12.500
v 2.500 1.500 -12.500
v 3.500 -0.500 -12.500
v 6.500 10.500 -7.500
v 6.500 10.500 -6.500
v 6.500 11.500 -6.500
v 6.500 11.500 -7.500
v 6.500 12.500 -7.500
v 6.500 12.500 -6.500
v 6.500 14.500 -6.500
v 6.500 14.500 -7.500
v 6.500 15.500 -7.500
v 6.500 15.500 -6.500
v 6.500 18.500 -6.500
v 6.500 18.500 -7.500
v 6.500 19.500 -7.500
v 6.500 19.500 -6.500
v 6.500 22.500 -6.500
v 6.500 22.500 -7.500
v 6.500 23.500 -6.500
v 6.500 23.500 -7.500
v 6.500 25.500 -6.500
v 6.500 25.500 -7.500
v 6.500 30.500 -7.500
v 6.500 30.500 -6.500
v 6.500 31.500 -6.500
v 6.500 31.500 -7.500
v 6.500 -0.500 -4.500
v 6.500 -0.500 -2.500
v 6.500 1.500 -2.500
v 6.500 1.500 -4.500
v 5.500 -0.500 -11.500
v 3.500 -0.500 -11.500
v 3.500 1.500 -11.500
v 5.500 1.500 -11.500
v 4.500 1.500 -11.500
v 5.500 -0.500 -5.500
v 5.500 -0.500 -4.500
v 5.500 0.500 -4.500
v 5.500 0.500 -5.500
v 5.500 1.500 -4.500
v 5.500 1.500 -5.500
v 9.500 -0.500 -8.500
v 9.500 0.500 -8.500
v 9.500 1.500 -8.500
v 4.500 -0.500 -6.500
v 4.500 -0.500 -5.500
v 4.500 0.500 -5.500
v 4.500 0.500 -6.500
v 4.500 1.500 -5.500
v 4.500 1.500 -6.500
v -0.500 10.500 -9.500
v -0.500 11.500 -9.500
v -0.500 16.500 -9.500
v -0.500 20.500 -9.500
v -0.500 26.500 -9.500
v -0.500 27.500 -9.500
v -0.500 28.500 -9.500
v -0.500 30.500 -9.500
v -0.500 31.500 -9.500
v 7.500 0.500 -9.500
v 2.500 -0.500 -2.499
v -0.500 -0.500 -2.499
v -0.500 1.375 -2.499
v 2.500 1.375 -2.499
v 2.500 -0.500 -7.500
v 2.500 -0.500 -6.500
v 2.500 1.500 -6.500
v 2.500 1.500 -7.500
v 6.500 0.500 -4.500
v 11.500 -0.500 -5.500
v 10.500 -0.500 -5.500
v 10.500 0.500 -5.500
v 11.500 0.500 -5.500
v 10.500 1.500 -5.500
v 11.500 1.500 -5.500
v 2.500 0.500 -6.500
v 3.500 0.500 -6.500
v 3.500 1.500 -6.500
v 2.499 -0.500 -0.500
v 2.499 -0.500 -2.500
v 2.499 1.375 -2.500
v 2.499 1.375 -0.500
v -0.500 -0.500 -7.500
v 1.500 -0.500 -7.500
v 1.500 0.500 -7.500
v -0.500 0.500 -7.500
v -0.500 0.500 -7.500
v 0.500 0.500 -7.500
v 0.500 1.500 -7.500
v -0.500 1.500 -7.500
v 2.500 0.500 -7.500
v 10.500 -0.500 -7.500
v 9.500 -0.500 -7.500
v 9.500 0.500 -7.500
v 10.500 0.500 -7.500
v 9.500 1.500 -7.500
v 10.500 1.500 -7.500
v -0.500 -0.500 -1.500
v 12.500 -0.500 -3.500
v 11.500 -0.500 -3.500
v 11.500 0.500 -3.500
v 12.500 0.500 -3.500
v 11.500 1.500 -3.500
v 12.500 1.500 -3.500
v -0.500 1.375 -0.500
v 2.500 1.375 -0.500
v 2.500 1.375 -2.500
v -0.500 1.375 -2.500
v 1.500 -0.500 -11.500
v -0.500 -0.500 -11.500
v 2.500 -0.500 -10.500
v 1.500 -0.500 -10.500
v 2.500 -0.500 -11.500
v 0.500 -0.500 -10.500
v -0.500 -0.500 -10.500
v -0.500 -0.500 -11.500
v 0.500 -0.500 -11.500
v 1.500 -0.500 -9.500
v 0.500 -0.500 -9.500
v -0.500 -0.500 -10.500
v 0.500 -0.500 -8.500
v -0.500 -0.500 -8.500
v 1.500 -0.500 -10.500
v 3.500 -0.500 -10.500
v 3.500 -0.500 -9.500
v 4.500 -0.500 -9.500
v 4.500 -0.500 -10.500
v 6.500 -0.500 -9.500
v 0.500 -0.500 -9.500
v 3.500 -0.500 -8.500
v 0.500 -0.500 -8.500
v 5.500 -0.500 -8.500
v 5.500 -0.500 -9.500
v 7.500 -0.500 -8.500
v -0.500 -0.500 -8.500
v 1.500 -0.500 -8.500
v 2.500 -0.500 -8.500
v 4.500 -0.500 -7.500
v 4.500 -0.500 -8.500
v 6.500 -0.500 -7.500
v 6.500 -0.500 -8.500
v 7.500 -0.500 -7.500
v 8.500 -0.500 -7.500
v 3.500 -0.500 -6.500
v 3.500 -0.500 -7.500
v 5.500 -0.500 -6.500
v 5.500 -0.500 -7.500
v 6.500 -0.500 -6.500
v 7.500 -0.500 -6.500
v 8.500 -0.500 -6.500
v 9.500 -0.500 -6.500
v 10.500 -0.500 -6.500
v 8.500 -0.500 -4.500
v 9.500 -0.500 -5.500
v 8.500 -0.500 -5.500
v 9.500 -0.500 -4.500
v 10.500 -0.500 -4.500
v 10.500 -0.500 -3.500
v 7.500 -0.500 -4.500
v 7.500 -0.500 -3.500
v 6.500 -0.500 -3.500
v 8.500 -0.500 -2.500
v 9.500 -0.500 -3.500
v 8.500 -0.500 -3.500
v 10.500 -0.500 -2.500
v 12.500 -0.500 -1.500
v 10.500 -0.500 -1.500
v 2.500 -0.500 -1.500
v -0.500 -0.500 -1.500
v -0.500 -0.500 -2.500
v 2.500 -0.500 -2.500
v 8.500 -0.500 -1.500
v 9.500 -0.500 -1.500
v 9.500 -0.500 -2.500
v 9.500 -0.500 -1.500
v -0.500 -0.500 -0.500
v 2.500 -0.500 -0.500
v 1.500 -0.500 -1.500
v 8.500 -0.500 -0.500
v 9.500 -0.500 -0.500
v 8.500 -0.500 -0.500
v 10.500 -0.500 -0.500
v 11.500 -0.500 -1.500
v 11.500 -0.500 -0.500
v 10.500 -0.500 -0.500
v 12.500 -0.500 -0.500
v 11.500 -0.500 -0.500
v 11.500 1.500 -4.500
v -0.500 17.500 -9.500
v -0.500 17.500 -10.500
v -0.500 21.500 -9.500
v -0.500 21.500 -10.500
v 12.500 -0.500 -2.500
v 12.500 0.500 -2.500
v 12.500 1.500 -2.500
v 12.500 1.500 -0.500
v 12.500 1.500 -1.500
v 12.500 0.500 -1.500
v 12.500 0.500 -0.500
v -7.500 7.500 -6.500
v -6.500 7.500 -6.500
v -6.500 7.500 -7.500
v -7.500 7.500 -7.500
v -6.500 6.500 -6.500
v -7.500 6.500 -6.500
v -7.500 6.500 -7.500
v -6.500 6.500 -7.500
v -1.500 0.500 -0.500
v -0.500 0.500 -0.500
v -0.500 0.500 -1.500
v -1.500 0.500 -1.500
v -3.500 2.500 -11.500
v -0.500 2.500 -11.500
v -0.500 2.500 -12.500
v -3.500 2.500 -12.500
v -5.500 2.500 -10.500
v -4.500 2.500 -10.500
v -4.500 2.500 -11.500
v -5.500 2.500 -11.500
v -0.500 2.500 -10.500
v -7.500 2.500 -9.500
v -3.500 2.500 -9.500
v -3.500 2.500 -10.500
v -7.500 2.500 -10.500
v -3.500 2.500 -8.500
v -0.500 2.500 -8.500
v -8.500 2.500 -8.500
v -8.500 2.500 -9.500
v -9.500 2.500 -7.500
v -2.500 2.500 -7.500
v -2.500 2.500 -8.500
v -9.500 2.500 -8.500
v -0.500 2.500 -7.500
v -10.500 2.500 -6.500
v -2.500 2.500 -6.500
v -10.500 2.500 -7.500
v -10.500 2.500 -5.500
v -4.500 2.500 -5.500
v -4.500 2.500 -6.500
v -11.500 2.500 -4.500
v -5.500 2.500 -4.500
v -5.500 2.500 -5.500
v -11.500 2.500 -5.500
v -11.500 2.500 -3.500
v -10.500 2.500 -3.500
v -10.500 2.500 -4.500
v -6.500 2.500 -3.500
v -6.500 2.500 -4.500
v -12.500 2.500 -2.500
v -8.500 2.500 -2.500
v -8.500 2.500 -3.500
v -12.500 2.500 -3.500
v -6.500 2.500 -2.500
v -12.500 2.500 -0.500
v -7.500 2.500 -0.500
v -7.500 2.500 -2.500
v -6.500 24.500 -6.500
v -7.500 24.500 -6.500
v -7.500 24.500 -7.500
v -6.500 24.500 -7.500
v -7.500 29.500 -6.500
v -6.500 29.500 -6.500
v -6.500 29.500 -7.500
v -7.500 29.500 -7.500
v -6.500 -0.500 -10.500
v -7.500 -0.500 -10.500
v -7.500 0.500 -10.500
v -6.500 0.500 -10.500
v -5.500 0.500 -10.500
v -7.500 1.500 -10.500
v -5.500 1.500 -10.500
v -5.500 -0.500 -10.500
v -1.500 -0.500 -12.500
v -3.500 -0.500 -12.500
v -3.500 0.500 -12.500
v -1.500 0.500 -12.500
v -3.500 1.500 -12.500
v -1.500 1.500 -12.500
v -0.500 1.500 -12.500
v -0.500 -0.500 -12.500
v -0.500 0.500 -12.500
v -3.500 -0.500 -11.500
v -5.500 -0.500 -11.500
v -5.500 1.500 -11.500
v -3.500 1.500 -11.500
v -4.500 1.500 -11.500
v -8.500 -0.500 -8.500
v -9.500 -0.500 -8.500
v -9.500 1.500 -8.500
v -8.500 1.500 -8.500
v -7.500 -0.500 -9.500
v -8.500 -0.500 -9.500
v -8.500 0.500 -9.500
v -7.500 0.500 -9.500
v -8.500 1.500 -9.500
v -7.500 1.500 -9.500
v -0.500 -0.500 -2.499
v -2.500 -0.500 -2.499
v -2.500 1.375 -2.499
v -0.500 1.375 -2.499
v -7.500 23.500 -6.500
v -6.500 23.500 -6.500
v -6.500 23.500 -7.500
v -7.500 23.500 -7.500
v -6.500 -0.500 -4.500
v -5.500 -0.500 -4.500
v -5.500 1.500 -4.500
v -6.500 1.500 -4.500
v -2.499 -0.500 -2.500
v -2.499 -0.500 -0.500
v -2.499 1.375 -0.500
v -2.499 1.375 -2.500
v -5.500 -0.500 -5.500
v -4.500 -0.500 -5.500
v -4.500 1.500 -5.500
v -5.500 1.500 -5.500
v -10.500 -0.500 -5.500
v -11.500 -0.500 -5.500
v -11.500 1.500 -5.500
v -10.500 1.500 -5.500
v -7.500 10.500 -6.500
v -6.500 10.500 -6.500
v -6.500 11.500 -6.500
v -7.500 11.500 -6.500
v -7.500 12.500 -6.500
v -6.500 12.500 -6.500
v -6.500 13.500 -6.500
v -7.500 13.500 -6.500
v -6.500 14.500 -6.500
v -7.500 14.500 -6.500
v -7.500 15.500 -6.500
v -6.500 15.500 -6.500
v -6.500 17.500 -6.500
v -7.500 17.500 -6.500
v -6.500 18.500 -6.500
v -7.500 18.500 -6.500
v -7.500 19.500 -6.500
v -6.500 19.500 -6.500
v -6.500 20.500 -6.500
v -7.500 20.500 -6.500
v -6.500 21.500 -6.500
v -7.500 21.500 -6.500
v -6.500 22.500 -6.500
v -7.500 22.500 -6.500
v -6.500 26.500 -6.500
v -7.500 26.500 -6.500
v -6.500 27.500 -6.500
v -7.500 27.500 -6.500
v -6.500 28.500 -6.500
v -7.500 28.500 -6.500
v -7.500 30.500 -6.500
v -6.500 30.500 -6.500
v -6.500 31.500 -6.500
v -7.500 31.500 -6.500
v -4.500 -0.500 -6.500
v -2.500 -0.500 -6.500
v -2.500 1.500 -6.500
v -4.500 1.500 -6.500
v -2.500 -0.500 -7.500
v -1.500 -0.500 -7.500
v -1.500 0.500 -7.500
v -2.500 0.500 -7.500
v -0.500 0.500 -7.500
v -0.500 1.500 -7.500
v -2.500 1.500 -7.500
v -0.500 -0.500 -7.500
v -9.500 -0.500 -7.500
v -10.500 -0.500 -7.500
v -10.500 0.500 -7.500
v -9.500 0.500 -7.500
v -10.500 1.500 -7.500
v -9.500 1.500 -7.500
v -6.500 10.500 -7.500
v -7.500 10.500 -7.500
v -7.500 11.500 -7.500
v -6.500 11.500 -7.500
v -6.500 12.500 -7.500
v -7.500 12.500 -7.500
v -7.500 13.500 -7.500
v -6.500 13.500 -7.500
v -7.500 14.500 -7.500
v -6.500 14.500 -7.500
v -6.500 15.500 -7.500
v -7.500 15.500 -7.500
v -7.500 17.500 -7.500
v -6.500 17.500 -7.500
v -7.500 18.500 -7.500
v -6.500 18.500 -7.500
v -6.500 19.500 -7.500
v -7.500 19.500 -7.500
v -7.500 20.500 -7.500
v -6.500 20.500 -7.500
v -7.500 21.500 -7.500
v -6.500 21.500 -7.500
v -7.500 22.500 -7.500
v -6.500 22.500 -7.500
v -7.500 26.500 -7.500
v -6.500 26.500 -7.500
v -7.500 27.500 -7.500
v -6.500 27.500 -7.500
v -7.500 28.500 -7.500
v -6.500 28.500 -7.500
v -6.500 30.500 -7.500
v -7.500 30.500 -7.500
v -7.500 31.500 -7.500
v -6.500 31.500 -7.500
v -10.500 -0.500 -6.500
v -10.500 0.500 -6.500
v -10.500 1.500 -6.500
v -11.500 -0.500 -3.500
v -11.500 1.500 -3.500
v -11.500 1.500 -4.500
v -12.500 -0.500 -3.500
v -12.500 -0.500 -2.500
v -12.500 0.500 -2.500
v -12.500 0.500 -3.500
v -12.500 1.500 -2.500
v -12.500 1.500 -3.500
v -12.500 1.500 -0.500
v -12.500 -0.500 -1.500
v -12.500 0.500 -1.500
v -12.500 0.500 -1.500
v -12.500 1.500 -1.500
v -12.500 -0.500 -0.500
v -12.500 1.500 -0.500
v -12.500 1.500 -1.500
v -0.500 -0.500 -1.500
v -1.500 -0.500 -1.500
v -7.500 -0.500 -2.500
v -6.500 -0.500 -2.500
v -6.500 1.500 -2.500
v -7.500 1.500 -2.500
v -11.500 0.500 -3.500
v -2.500 1.375 -0.500
v -0.500 1.375 -0.500
v -0.500 1.375 -2.500
v -2.500 1.375 -2.500
v -1.500 -0.500 -11.500
v -0.500 -0.500 -11.500
v -4.500 -0.500 -11.500
v -4.500 -0.500 -10.500
v -3.500 -0.500 -10.500
v -1.500 -0.500 -10.500
v -0.500 -0.500 -10.500
v -6.500 -0.500 -9.500
v -5.500 -0.500 -9.500
v -3.500 -0.500 -9.500
v -2.500 -0.500 -10.500
v -2.500 -0.500 -9.500
v -1.500 -0.500 -9.500
v -0.500 -0.500 -10.500
v -7.500 -0.500 -8.500
v -5.500 -0.500 -8.500
v -4.500 -0.500 -9.500
v -4.500 -0.500 -8.500
v -2.500 -0.500 -8.500
v -1.500 -0.500 -9.500
v -1.500 -0.500 -8.500
v -8.500 -0.500 -7.500
v -7.500 -0.500 -7.500
v -6.500 -0.500 -7.500
v -6.500 -0.500 -8.500
v -4.500 -0.500 -7.500
v -3.500 -0.500 -8.500
v -3.500 -0.500 -7.500
v -9.500 -0.500 -6.500
v -7.500 -0.500 -6.500
v -6.500 -0.500 -6.500
v -3.500 -0.500 -6.500
v -9.500 -0.500 -5.500
v -8.500 -0.500 -5.500
v -8.500 -0.500 -6.500
v -7.500 -0.500 -5.500
v -5.500 -0.500 -6.500
v -10.500 -0.500 -3.500
v -8.500 -0.500 -3.500
v -7.500 -0.500 -4.500
v -8.500 -0.500 -4.500
v -6.500 -0.500 -3.500
v -11.500 -0.500 -2.500
v -10.500 -0.500 -2.500
v -9.500 -0.500 -3.500
v -9.500 -0.500 -2.500
v -8.500 -0.500 -2.500
v -7.500 -0.500 -3.500
v -11.500 -0.500 -1.500
v -10.500 -0.500 -1.500
v -11.500 -0.500 -1.500
v -8.500 -0.500 -1.500
v -7.500 -0.500 -1.500
v -8.500 -0.500 -1.500
v -2.500 -0.500 -1.500
v -2.500 -0.500 -2.500
v -0.500 -0.500 -2.500
v -10.500 -0.500 -0.500
v -9.500 -0.500 -0.500
v -9.500 -0.500 -1.500
v -8.500 -0.500 -0.500
v -9.500 -0.500 -0.500
v -7.500 -0.500 -0.500
v -1.500 -0.500 -0.500
v -2.500 -0.500 -0.500
v -0.500 -0.500 -0.500
v -3.500 0.500 -11.500
v -8.500 0.500 -8.500
v -6.500 0.500 -4.500
v -6.500 0.500 -3.500
v -6.500 1.500 -3.500
v -7.500 1.500 -1.500
v -7.500 1.500 -0.500
v -7.500 0.500 -1.500
v -7.500 0.500 -0.500
v -10.500 10.500 0.500
v -9.500 10.500 0.500
v -9.500 11.500 0.500
v -10.500 11.500 0.500
v -9.500 10.500 -0.500
v -10.500 10.500 -0.500
v -10.500 11.500 -0.500
v -9.500 11.500 -0.500
v -10.500 13.500 0.500
v -9.500 13.500 0.500
v -9.500 14.500 0.500
v -10.500 14.500 0.500
v -9.500 13.500 -0.500
v -10.500 13.500 -0.500
v -10.500 14.500 -0.500
v -9.500 14.500 -0.500
v -10.500 17.500 0.500
v -9.500 17.500 0.500
v -9.500 18.500 0.500
v -10.500 18.500 0.500
v -9.500 17.500 -0.500
v -10.500 17.500 -0.500
v -10.500 18.500 -0.500
v -9.500 18.500 -0.500
v -10.500 19.500 0.500
v -9.500 19.500 0.500
v -9.500 20.500 0.500
v -10.500 20.500 0.500
v -9.500 19.500 -0.500
v -10.500 19.500 -0.500
v -10.500 20.500 -0.500
v -9.500 20.500 -0.500
v -9.500 21.500 0.500
v -10.500 21.500 0.500
v -10.500 21.500 -0.500
v -9.500 21.500 -0.500
v -10.500 24.500 0.500
v -9.500 24.500 0.500
v -9.500 25.500 0.500
v -10.500 25.500 0.500
v -9.500 24.500 -0.500
v -10.500 24.500 -0.500
v -10.500 25.500 -0.500
v -9.500 25.500 -0.500
v -10.500 26.500 0.500
v -9.500 26.500 0.500
v -9.500 27.500 0.500
v -10.500 27.500 0.500
v -9.500 26.500 -0.500
v -10.500 26.500 -0.500
v -10.500 27.500 -0.500
v -9.500 27.500 -0.500
v -1.500 -0.500 1.500
v -0.500 -0.500 1.500
v -0.500 0.500 1.500
v -1.500 0.500 1.500
v -3.500 -0.500 12.500
v -2.500 -0.500 12.500
v -2.500 0.500 12.500
v -3.500 0.500 12.500
v -1.500 0.500 12.500
v -1.500 1.500 12.500
v -3.500 1.500 12.500
v -0.500 1.500 12.500
v -0.500 2.500 12.500
v -3.500 2.500 12.500
v -0.500 -0.500 12.500
v -0.500 0.500 12.500
v -0.500 0.500 12.500
v -0.500 1.500 12.500
v -10.500 7.500 0.500
v -9.500 7.500 0.500
v -9.500 7.500 -0.500
v -10.500 7.500 -0.500
v -7.500 7.500 7.500
v -6.500 7.500 7.500
v -6.500 7.500 6.500
v -7.500 7.500 6.500
v -7.500 -0.500 10.500
v -5.500 -0.500 10.500
v -5.500 0.500 10.500
v -7.500 0.500 10.500
v -6.500 0.500 10.500
v -6.500 1.500 10.500
v -7.500 1.500 10.500
v -5.500 1.500 10.500
v -5.500 2.500 10.500
v -7.500 2.500 10.500
v -9.500 6.500 0.500
v -10.500 6.500 0.500
v -10.500 6.500 -0.500
v -9.500 6.500 -0.500
v -6.500 6.500 7.500
v -7.500 6.500 7.500
v -7.500 6.500 6.500
v -6.500 6.500 6.500
v -5.500 -0.500 11.500
v -3.500 -0.500 11.500
v -3.500 0.500 11.500
v -5.500 0.500 11.500
v -3.500 1.500 11.500
v -5.500 1.500 11.500
v -4.500 1.500 11.500
v -4.500 2.500 11.500
v -5.500 2.500 11.500
v -3.500 2.500 11.500
v -1.500 0.500 0.500
v -0.500 0.500 0.500
v -0.500 0.500 -0.500
v -1.500 0.500 -0.500
v -1.500 0.500 0.500
v -12.500 2.500 2.500
v -7.500 2.500 2.500
v -7.500 2.500 -0.500
v -12.500 2.500 -0.500
v -12.500 2.500 3.500
v -8.500 2.500 3.500
v -8.500 2.500 2.500
v -6.500 2.500 3.500
v -6.500 2.500 2.500
v -11.500 2.500 4.500
v -10.500 2.500 4.500
v -10.500 2.500 3.500
v -11.500 2.500 3.500
v -6.500 2.500 4.500
v -11.500 2.500 5.500
v -5.500 2.500 5.500
v -5.500 2.500 4.500
v -10.500 2.500 6.500
v -4.500 2.500 6.500
v -4.500 2.500 5.500
v -10.500 2.500 5.500
v -10.500 2.500 7.500
v -2.500 2.500 7.500
v -2.500 2.500 6.500
v -9.500 2.500 8.500
v -2.500 2.500 8.500
v -9.500 2.500 7.500
v -0.500 2.500 8.500
v -0.500 2.500 7.500
v -8.500 2.500 9.500
v -3.500 2.500 9.500
v -3.500 2.500 8.500
v -8.500 2.500 8.500
v -3.500 2.500 10.500
v -0.500 2.500 10.500
v -7.500 2.500 9.500
v -4.500 2.500 10.500
v -0.500 2.500 11.500
v -7.500 24.500 6.500
v -6.500 24.500 6.500
v -6.500 24.500 7.500
v -7.500 24.500 7.500
v -10.500 29.500 0.500
v -9.500 29.500 0.500
v -9.500 29.500 -0.500
v -10.500 29.500 -0.500
v -6.500 29.500 6.500
v -7.500 29.500 6.500
v -7.500 29.500 7.500
v -6.500 29.500 7.500
v -10.500 23.500 0.500
v -9.500 23.500 0.500
v -9.500 23.500 -0.500
v -10.500 23.500 -0.500
v -7.500 23.500 7.500
v -6.500 23.500 7.500
v -6.500 23.500 6.500
v -7.500 23.500 6.500
v -2.499 -0.500 -0.500
v -2.499 -0.500 2.500
v -2.499 1.375 2.500
v -2.499 1.375 -0.500
v -10.500 12.500 -0.500
v -10.500 12.500 0.500
v -10.500 13.500 0.500
v -10.500 13.500 -0.500
v -10.500 15.500 -0.500
v -10.500 15.500 0.500
v -10.500 17.500 0.500
v -10.500 17.500 -0.500
v -10.500 22.500 0.500
v -10.500 22.500 -0.500
v -10.500 25.500 -0.500
v -10.500 25.500 0.500
v -10.500 27.500 -0.500
v -10.500 27.500 0.500
v -10.500 28.500 0.500
v -10.500 28.500 -0.500
v -10.500 30.500 -0.500
v -10.500 30.500 0.500
v -10.500 31.500 0.500
v -10.500 31.500 -0.500
v -10.500 -0.500 5.500
v -10.500 -0.500 7.500
v -10.500 1.500 7.500
v -10.500 1.500 5.500
v -9.500 12.500 -0.500
v -9.500 15.500 -0.500
v -10.500 21.500 -0.500
v -9.500 22.500 -0.500
v -10.500 26.500 -0.500
v -9.500 28.500 -0.500
v -9.500 30.500 -0.500
v -9.500 31.500 -0.500
v -11.500 -0.500 3.500
v -11.500 -0.500 5.500
v -11.500 1.500 5.500
v -11.500 1.500 3.500
v -11.500 1.500 4.500
v -12.500 -0.500 -0.500
v -12.500 -0.500 0.500
v -12.500 1.500 0.500
v -12.500 1.500 -0.500
v -12.500 1.500 3.500
v -12.500 -0.500 0.500
v -12.500 -0.500 1.500
v -12.500 0.500 1.500
v -12.500 0.500 0.500
v -12.500 1.500 1.500
v -12.500 -0.500 2.500
v -12.500 0.500 2.500
v -12.500 1.500 2.500
v -12.500 -0.500 3.500
v -2.500 1.375 2.500
v -0.500 1.375 2.500
v -0.500 1.375 -0.500
v -2.500 1.375 -0.500
v -11.500 -0.500 -0.500
v -11.500 -0.500 0.500
v -11.500 -0.500 -0.500
v -10.500 -0.500 -0.500
v -10.500 -0.500 0.500
v -11.500 -0.500 0.500
v -9.500 -0.500 0.500
v -10.500 -0.500 0.500
v -9.500 -0.500 -0.500
v -8.500 -0.500 1.500
v -9.500 -0.500 1.500
v -8.500 -0.500 -0.500
v -8.500 -0.500 -0.500
v -7.500 -0.500 -0.500
v -7.500 -0.500 0.500
v -8.500 -0.500 0.500
v -1.500 -0.500 1.500
v -2.500 -0.500 1.500
v -2.500 -0.500 -0.500
v -1.500 -0.500 -0.500
v -0.500 -0.500 0.500
v -1.500 -0.500 0.500
v -0.500 -0.500 -0.500
v -11.500 -0.500 1.500
v -11.500 -0.500 0.500
v -7.500 -0.500 0.500
v -7.500 -0.500 1.500
v -8.500 -0.500 1.500
v -1.500 -0.500 0.500
v -10.500 -0.500 2.500
v -10.500 -0.500 1.500
v -9.500 -0.500 2.500
v -7.500 -0.500 2.500
v -0.500 -0.500 2.500
v -2.500 -0.500 2.500
v -0.500 -0.500 1.500
v -11.500 -0.500 2.500
v -8.500 -0.500 3.500
v -8.500 -0.500 2.500
v -7.500 -0.500 3.500
v -6.500 -0.500 2.500
v -6.500 -0.500 3.500
v -10.500 -0.500 3.500
v -9.500 -0.500 4.500
v -10.500 -0.500 4.500
v -9.500 -0.500 3.500
v -8.500 -0.500 5.500
v -9.500 -0.500 5.500
v -7.500 -0.500 4.500
v -8.500 -0.500 4.500
v -6.500 -0.500 4.500
v -7.500 -0.500 5.500
v -6.500 -0.500 5.500
v -5.500 -0.500 5.500
v -5.500 -0.500 4.500
v -9.500 -0.500 6.500
v -10.500 -0.500 6.500
v -8.500 -0.500 6.500
v -6.500 -0.500 6.500
v -5.500 -0.500 6.500
v -4.500 -0.500 6.500
v -4.500 -0.500 5.500
v -8.500 -0.500 7.500
v -7.500 -0.500 6.500
v -7.500 -0.500 9.500
v -8.500 -0.500 9.500
v -5.500 -0.500 7.500
v -7.500 -0.500 7.500
v -3.500 -0.500 6.500
v -3.500 -0.500 7.500
v -2.500 -0.500 6.500
v -2.500 -0.500 7.500
v -8.500 -0.500 8.500
v -9.500 -0.500 8.500
v -9.500 -0.500 7.500
v -6.500 -0.500 10.500
v -6.500 -0.500 7.500
v -5.500 -0.500 8.500
v -6.500 -0.500 8.500
v -4.500 -0.500 8.500
v -4.500 -0.500 7.500
v -3.500 -0.500 8.500
v -2.500 -0.500 8.500
v -0.500 -0.500 8.500
v -0.500 -0.500 7.500
v -5.500 -0.500 9.500
v -6.500 -0.500 9.500
v -4.500 -0.500 9.500
v -0.500 -0.500 9.500
v -4.500 -0.500 11.500
v -3.500 -0.500 9.500
v -1.500 -0.500 9.500
v -1.500 -0.500 11.500
v -1.500 -0.500 9.500
v -0.500 -0.500 9.500
v -0.500 -0.500 10.500
v -1.500 -0.500 10.500
v -0.500 -0.500 11.500
v -0.500 -0.500 10.500
v -2.500 -0.500 11.500
v -7.500 14.500 7.500
v -6.500 14.500 7.500
v -6.500 14.500 6.500
v -7.500 14.500 6.500
v -9.500 15.500 0.500
v -6.500 15.500 7.500
v -7.500 15.500 7.500
v -7.500 15.500 6.500
v -6.500 15.500 6.500
v -2.500 -0.500 2.499
v -0.500 -0.500 2.499
v -0.500 1.375 2.499
v -2.500 1.375 2.499
v -6.500 18.500 6.500
v -7.500 18.500 6.500
v -7.500 18.500 7.500
v -6.500 18.500 7.500
v -7.500 19.500 6.500
v -6.500 19.500 6.500
v -6.500 19.500 7.500
v -7.500 19.500 7.500
v -7.500 1.500 2.500
v -6.500 1.500 2.500
v -9.500 30.500 0.500
v -6.500 30.500 7.500
v -7.500 30.500 7.500
v -7.500 30.500 6.500
v -6.500 30.500 6.500
v -9.500 12.500 0.500
v -9.500 13.500 0.500
v -9.500 17.500 0.500
v -10.500 21.500 0.500
v -9.500 21.500 0.500
v -9.500 22.500 0.500
v -9.500 25.500 0.500
v -9.500 26.500 0.500
v -10.500 26.500 0.500
v -9.500 27.500 0.500
v -9.500 28.500 0.500
v -9.500 31.500 0.500
v -6.500 10.500 7.500
v -7.500 10.500 7.500
v -7.500 10.500 6.500
v -6.500 10.500 6.500
v -4.500 0.500 5.500
v -4.500 0.500 6.500
v -4.500 1.500 5.500
v -4.500 1.500 6.500
v -7.500 11.500 6.500
v -6.500 11.500 6.500
v -6.500 12.500 6.500
v -7.500 12.500 6.500
v -7.500 13.500 6.500
v -6.500 13.500 6.500
v -7.500 16.500 6.500
v -6.500 16.500 6.500
v -7.500 20.500 6.500
v -6.500 20.500 6.500
v -7.500 31.500 6.500
v -6.500 31.500 6.500
v -3.500 1.500 6.500
v -2.500 1.500 6.500
v -5.500 0.500 5.500
v -5.500 1.500 5.500
v -5.500 0.500 4.500
v -5.500 1.500 4.500
v -6.500 12.500 7.500
v -7.500 12.500 7.500
v -7.500 31.500 7.500
v -6.500 31.500 7.500
v -6.500 0.500 4.500
v -6.500 1.500 4.500
v -2.500 1.500 7.500
v -7.500 11.500 7.500
v -6.500 11.500 7.500
v -8.500 0.500 9.500
v -8.500 0.500 8.500
v -8.500 1.500 9.500
v -8.500 1.500 8.500
v -9.500 1.500 8.500
v -9.500 1.500 7.500
v -7.500 0.500 9.500
v -7.500 1.500 9.500
v -6.500 1.500 3.500
v -6.500 0.500 3.500
v -6.500 13.500 7.500
v -6.500 16.500 7.500
v -6.500 20.500 7.500
v -7.500 0.500 -0.500
v -7.500 0.500 0.500
v -7.500 1.500 -0.500
v -7.500 1.500 0.500
v -7.500 0.500 0.500
v -7.500 0.500 1.500
v -7.500 1.500 0.500
v -7.500 1.500 1.500
v -7.500 0.500 2.500
v -7.500 13.500 7.500
v -7.500 16.500 7.500
v -7.500 20.500 7.500
v -0.500 1.500 7.500

usemtl minecraft_block-white_wool

f 113/2 114/1 115/4 116/3
f 123/2 122/1 124/4 125/3
f 208/2 123/1 125/4 209/3
f 427/2 428/1 429/4 430/3
f 440/2 208/34 209/35 441/3
f 443/2 444/1 114/4 113/3
f 459/2 460/1 428/4 427/3
f 444/2 443/1 464/4 465/3
f 486/2 487/18 484/19 488/3
f 489/27 490/45 491/35 486/3
f 494/2 124/46 495/38 489/3
f 441/2 209/34 125/35 494/3
f 444/2 465/1 115/4 114/3
f 460/2 501/1 429/4 428/3
f 464/2 443/1 113/4 116/3
f 546/2 459/1 427/4 430/3
f 460/2 459/1 546/4 501/3
f 465/2 464/1 116/4 115/3
f 501/2 546/1 430/4 429/3
f 523/30 559/1 488/4 484/29
f 1366/2 1367/18 1368/19 1369/3
f 1406/2 1404/1 1409/4 1407/3
f 1440/2 1442/15 1443/31 1437/3
f 1448/27 1449/57 1442/19 1446/3
f 1407/2 1452/34 1449/35 1451/3
f 1369/2 1368/18 1452/19 1409/3
f 1404/2 1366/1 1369/4 1409/3
f 1732/5 1704/1 1437/4 1443/6

usemtl minecraft_block-water_still

f 226/18 227/2 228/23 229/24
f 261/27 224/28 221/4 262/3
f 277/30 278/1 270/4 261/29
f 529/36 530/54 531/19 532/3
f 537/2 538/18 539/24 540/23
f 852/18 853/2 854/23 855/24
f 870/15 871/2 872/23 873/56
f 896/27 897/57 898/19 899/3
f 959/30 960/1 961/4 962/29
f 968/2 628/1 969/4 959/3
f 1088/15 1089/2 1090/23 1091/56
f 1100/2 1101/15 1102/56 1103/23
f 1225/27 1226/59 1227/31 1228/3
f 1218/5 1283/1 1284/4 1285/6
f 1292/2 1293/1 1283/4 1219/3
f 1473/2 1474/18 1475/24 1476/23
f 1528/36 1529/60 1530/31 1531/3
f 1548/27 1549/28 1550/4 1551/3
f 1565/5 1566/1 1549/4 1567/6
f 1641/2 1642/15 1643/56 1644/23

usemtl minecraft_block-red_wool

f 1378/2 1379/1 1380/4 1381/3
f 1388/2 1389/15 1390/31 1391/3
f 1396/2 1397/1 1398/4 1399/3
f 1405/2 1406/1 1407/4 1408/3
f 1420/2 1422/15 1423/31 1421/3
f 1425/2 1428/34 1422/35 1426/3
f 1429/2 1430/39 1431/40 1424/3
f 1432/2 1433/39 1434/40 1435/3
f 1436/2 1437/41 1438/42 1432/3
f 1439/2 1440/43 1437/44 1441/3
f 1444/2 1445/46 1446/38 1447/3
f 1391/2 1448/34 1445/35 1450/3
f 1408/2 1407/1 1451/4 1390/3
f 1500/2 1499/15 1436/31 1435/3
f 1513/2 1511/1 1429/4 1424/3
f 1654/2 1653/1 1416/4 1423/3
f 1656/2 1657/1 1658/4 1659/3
f 1679/2 1678/1 1434/4 1433/3
f 1399/2 1398/1 1381/4 1380/3
f 1659/2 1658/1 1690/4 1691/3
f 1693/5 1679/1 1433/4 1438/6
f 1511/2 1500/1 1435/4 1429/3
f 1678/2 1695/1 1430/4 1434/3
f 1695/2 1697/1 1431/4 1430/3
f 1389/2 1405/1 1408/4 1390/3
f 1700/2 1701/1 1691/4 1690/3
f 1697/2 1703/1 1428/4 1431/3
f 1704/2 1693/1 1438/4 1437/3
f 1710/2 1709/1 1444/4 1447/3
f 1712/2 1711/1 1439/4 1441/3
f 1709/2 1714/1 1450/4 1444/3
f 1703/5 1654/1 1423/4 1428/6
f 1396/2 1399/1 1380/4 1379/3
f 1656/2 1659/1 1691/4 1701/3
f 1711/2 1710/1 1447/4 1439/3
f 1398/2 1397/1 1378/4 1381/3
f 1658/2 1657/1 1700/4 1690/3
f 1714/2 1388/1 1391/4 1450/3
f 1499/2 1712/1 1441/4 1436/3
f 1397/2 1396/1 1379/4 1378/3
f 1657/2 1656/1 1701/4 1700/3

usemtl minecraft_block-glass

f 380/2 381/1 382/4 383/3
f 383/2 382/1 399/4 400/3
f 381/2 496/1 399/4 382/3
f 496/2 524/1 400/4 399/3
f 524/2 380/1 383/4 400/3
f 381/4 380/3 524/2 496/1

usemtl minecraft_block-yellow_wool

f 632/2 633/1 634/4 635/3
f 640/2 641/1 642/4 643/3
f 650/2 651/34 652/35 653/3
f 654/2 655/46 656/38 650/3
f 659/27 660/45 661/35 654/3
f 667/2 668/18 669/19 659/3
f 640/2 643/1 634/4 633/3
f 707/2 708/1 709/4 710/3
f 643/2 642/1 635/4 634/3
f 708/2 726/1 727/4 709/3
f 787/32 785/1 653/4 652/33
f 826/2 824/1 651/4 656/3
f 824/2 787/1 652/4 651/3
f 641/2 640/1 633/4 632/3
f 849/2 707/1 710/4 850/3
f 881/2 859/18 668/19 667/3
f 642/2 641/1 632/4 635/3
f 726/2 849/1 850/4 727/3
f 707/2 849/1 726/4 708/3
f 850/2 710/1 709/4 727/3
f 1003/2 1004/18 1005/19 1006/3
f 1008/2 1011/34 1004/35 1009/3
f 1016/27 1017/57 1011/19 1014/3
f 1021/2 1024/15 1017/31 1022/3
f 1070/30 1068/1 1006/4 1005/29
f 1076/2 1077/1 1009/4 1003/3
f 1156/2 1155/15 1024/31 1021/3
f 1068/2 1076/1 1003/4 1006/3

usemtl minecraft_block-purple_wool

f 636/2 637/1 638/4 639/3
f 644/2 645/1 646/4 647/3
f 655/2 657/1 658/4 656/3
f 662/2 663/34 664/35 661/3
f 660/2 665/46 666/38 662/3
f 668/2 670/43 671/44 669/3
f 672/2 673/41 674/42 668/3
f 675/2 676/39 673/40 677/3
f 678/2 679/39 680/40 681/3
f 682/2 683/34 684/35 685/3
f 687/2 688/15 689/31 682/3
f 734/5 733/1 657/4 664/6
f 741/2 740/1 666/4 665/3
f 743/2 734/1 664/4 663/3
f 644/2 647/1 638/4 637/3
f 764/2 765/1 766/4 767/3
f 646/2 645/1 636/4 639/3
f 814/2 815/1 816/4 817/3
f 821/2 820/15 687/31 685/3
f 825/2 826/1 656/4 658/3
f 733/2 825/1 658/4 657/3
f 832/2 831/1 678/4 681/3
f 835/2 741/1 665/4 671/3
f 841/2 840/1 675/4 677/3
f 740/2 743/1 663/4 666/3
f 859/2 858/1 672/4 668/3
f 831/2 821/1 685/4 678/3
f 840/2 832/1 681/4 675/3
f 866/2 865/1 676/4 680/3
f 858/2 841/15 677/31 672/3
f 645/2 644/1 637/4 636/3
f 815/2 764/1 767/4 816/3
f 647/2 646/1 639/4 638/3
f 765/2 814/1 817/4 766/3
f 888/2 887/1 670/4 674/3
f 820/2 771/1 694/4 687/3
f 887/2 835/1 671/4 670/3
f 865/5 888/1 674/4 676/6
f 979/2 866/1 680/4 679/3
f 764/2 815/1 814/4 765/3
f 816/2 767/1 766/4 817/3

usemtl minecraft_block-green_wool

f 991/2 992/1 993/4 994/3
f 995/2 996/1 997/4 998/3
f 1007/2 1008/1 1009/4 1010/3
f 1012/2 1013/34 1014/35 1015/3
f 1018/2 1016/46 1013/38 1019/3
f 1020/2 1021/43 1022/44 1023/3
f 1025/2 1026/41 1021/42 1027/3
f 1028/2 1029/39 1030/40 1025/3
f 1031/2 1032/39 1033/40 1034/3
f 1036/2 1038/34 1039/35 1037/3
f 1041/2 1044/15 1038/31 1042/3
f 1062/5 1061/1 1015/4 1007/6
f 1077/2 1075/1 1010/4 1009/3
f 1081/2 1080/1 1023/4 1018/3
f 1087/2 1086/1 1019/4 1012/3
f 1099/2 1098/1 1032/4 1039/3
f 1107/2 1106/1 1029/4 1033/3
f 1111/2 1110/1 1034/4 1028/3
f 996/2 995/1 992/4 991/3
f 1142/2 1143/1 1144/4 1145/3
f 1149/2 1148/15 1026/31 1030/3
f 1163/2 1162/1 1027/4 1020/3
f 998/2 997/1 994/4 993/3
f 1194/2 1195/1 1196/4 1197/3
f 1162/2 1111/15 1028/31 1027/3
f 1110/2 1203/1 1031/4 1034/3
f 1223/2 1222/1 1044/4 1047/3
f 1143/2 1142/1 1195/4 1194/3
f 1106/2 1149/1 1030/4 1029/3
f 1075/2 1062/1 1007/4 1010/3
f 1098/2 1107/1 1033/4 1032/3
f 1145/2 1144/1 1197/4 1196/3
f 1148/2 1156/1 1021/4 1026/3
f 1086/2 1081/1 1018/4 1019/3
f 1080/2 1163/1 1020/4 1023/3
f 995/2 998/1 993/4 992/3
f 1143/2 1194/1 1197/4 1144/3
f 1222/5 1099/1 1039/4 1044/6
f 1061/2 1087/1 1012/4 1015/3
f 997/2 996/1 991/4 994/3
f 1195/2 1142/1 1145/4 1196/3

usemtl minecraft_block-bedrock

f 1/1 2/2 3/3 4/4
f 5/1 6/2 7/3 8/4
f 9/2 10/1 11/4 12/3
f 13/2 14/1 15/4 16/3
f 12/2 11/1 17/4 18/3
f 16/2 15/1 19/4 20/3
f 21/2 22/1 23/4 24/3
f 25/2 26/1 27/4 28/3
f 29/2 30/1 31/4 32/3
f 33/2 34/1 35/4 36/3
f 37/2 38/1 39/4 40/3
f 41/2 42/1 43/4 44/3
f 40/1 39/2 45/3 46/4
f 44/1 43/2 47/3 48/4
f 49/2 50/1 51/4 52/3
f 53/2 54/1 55/4 56/3
f 57/1 58/2 59/3 60/4
f 61/1 62/2 63/3 64/4
f 65/1 66/2 67/3 68/4
f 69/1 70/2 71/3 72/4
f 73/1 74/2 75/3 76/4
f 77/1 78/2 79/3 80/4
f 76/1 75/2 81/3 82/4
f 80/1 79/2 83/3 84/4
f 85/2 86/1 87/4 88/3
f 89/2 90/1 91/4 92/3
f 88/1 87/2 93/3 94/4
f 92/1 91/2 95/3 96/4
f 94/1 93/2 97/3 98/4
f 96/1 95/2 99/3 100/4
f 98/2 97/1 101/4 102/3
f 100/2 99/1 103/4 104/3
f 117/1 118/5 119/6 120/4
f 120/1 121/2 122/3 123/4
f 121/2 119/1 126/4 122/3
f 132/2 133/1 134/4 135/3
f 136/2 137/1 138/4 139/3
f 101/2 104/1 103/4 102/3
f 144/2 145/15 146/16 147/17
f 145/2 151/1 152/4 153/3
f 153/1 152/2 148/3 154/4
f 157/2 158/1 159/4 160/3
f 161/1 162/2 163/3 164/4
f 164/2 163/1 165/4 166/3
f 167/1 168/2 169/3 170/4
f 170/2 169/1 171/20 172/17
f 173/2 174/1 175/4 176/3
f 176/1 175/2 177/17 178/20
f 178/2 177/1 179/4 180/3
f 181/1 182/2 183/21 184/22
f 184/2 183/1 138/20 137/17
f 189/2 190/1 191/4 192/3
f 192/1 191/2 193/3 194/4
f 197/1 198/2 199/17 200/20
f 118/1 203/2 204/3 119/4
f 119/2 204/1 205/4 126/3
f 207/1 117/2 123/17 208/20
f 210/1 211/2 212/3 213/4
f 214/2 180/1 179/4 215/3
f 216/2 217/1 218/4 219/3
f 220/2 221/1 222/4 223/3
f 224/1 220/2 223/3 225/4
f 6/1 1/2 4/3 7/4
f 14/2 9/1 18/20 19/17
f 26/2 21/1 24/4 27/3
f 232/1 233/2 234/3 235/4
f 34/2 29/1 32/4 35/3
f 236/1 237/2 238/3 239/4
f 42/2 37/1 40/4 43/3
f 43/1 40/2 210/17 213/20
f 240/1 241/2 242/3 243/4
f 54/2 49/1 132/25 135/26
f 248/1 249/2 250/3 251/4
f 251/2 250/1 252/4 253/3
f 256/2 257/1 258/4 259/3
f 220/2 260/1 257/4 221/3
f 263/27 145/28 144/4 264/3
f 265/29 266/4 264/1 267/30
f 268/2 265/1 267/4 269/3
f 224/6 270/4 271/1 220/5
f 272/2 273/15 274/31 275/3
f 276/6 274/4 273/1 268/5
f 145/2 279/15 280/31 151/3
f 281/3 280/4 279/1 274/2
f 274/3 282/4 283/1 281/2
f 282/2 276/1 284/4 283/3
f 285/17 286/20 287/1 151/2
f 151/3 288/4 289/28 285/27
f 290/27 289/28 288/4 280/3
f 280/2 281/1 291/20 290/17
f 292/3 293/4 281/1 283/2
f 294/2 292/1 283/4 284/3
f 295/2 291/1 293/4 292/3
f 296/29 198/4 197/1 289/30
f 289/3 295/19 297/18 296/2
f 298/3 299/4 300/1 198/2
f 198/2 301/1 302/4 298/3
f 301/3 303/4 304/1 302/2
f 303/2 296/1 305/4 304/3
f 306/2 305/1 296/4 307/3
f 308/3 306/4 307/1 309/2
f 310/3 311/4 312/1 313/2
f 314/17 315/20 311/1 299/2
f 316/27 314/28 299/4 298/3
f 298/3 302/4 317/1 318/2
f 302/2 306/18 249/19 317/3
f 319/2 249/1 306/4 308/3
f 320/3 321/31 322/15 323/2
f 324/3 322/4 325/1 313/2
f 313/2 312/1 315/4 324/3
f 318/2 326/18 327/19 316/3
f 248/3 327/4 326/1 249/2
f 328/32 329/1 330/4 315/33
f 315/3 314/4 331/1 328/2
f 332/5 331/1 314/4 333/6
f 333/2 334/1 190/4 332/3
f 335/3 190/4 334/1 327/2
f 336/3 337/4 338/1 339/2
f 340/3 341/4 337/1 342/2
f 343/2 340/1 342/4 344/3
f 344/3 328/4 345/1 343/2
f 346/3 345/4 328/1 331/2
f 203/2 346/1 331/4 347/3
f 348/3 203/4 347/1 332/2
f 189/2 348/1 332/4 190/3
f 349/3 350/4 351/1 341/2
f 352/2 349/1 341/4 340/3
f 353/3 343/4 354/1 352/2
f 343/2 345/1 117/4 354/3
f 345/3 346/4 355/1 117/2
f 118/3 355/4 346/1 203/2
f 356/2 357/1 350/4 349/3
f 358/3 359/4 360/1 356/2
f 361/2 360/1 352/4 354/3
f 354/3 117/4 207/1 361/2
f 20/2 19/1 18/4 17/3
f 165/2 362/1 363/4 166/3
f 364/2 365/1 366/4 367/3
f 295/2 292/1 368/4 369/3
f 369/1 368/2 370/3 371/4
f 297/1 295/2 371/17 374/20
f 36/2 35/1 32/4 31/3
f 171/2 376/1 377/4 172/3
f 67/1 72/2 71/3 68/4
f 151/1 287/2 378/17 148/20
f 233/1 385/2 386/3 234/4
f 237/1 387/2 388/3 238/4
f 389/1 390/2 211/3 210/4
f 241/1 391/2 392/3 242/4
f 393/2 394/1 133/22 132/21
f 6/3 5/4 2/1 1/2
f 401/2 158/1 157/4 402/3
f 61/3 58/4 57/1 62/2
f 299/15 310/2 403/17 404/16
f 158/2 401/1 408/4 159/3
f 162/1 409/2 410/3 163/4
f 163/2 410/1 362/4 165/3
f 168/1 411/2 412/3 169/4
f 169/2 412/1 376/20 171/17
f 174/2 413/1 414/4 175/3
f 175/1 414/2 415/17 177/20
f 177/2 415/1 215/4 179/3
f 182/1 416/2 417/21 183/22
f 183/2 417/1 139/20 138/17
f 14/2 13/1 10/4 9/3
f 409/3 162/4 161/1 420/2
f 421/2 422/1 423/4 424/3
f 286/1 197/2 200/17 431/20
f 327/1 248/2 251/3 433/4
f 433/2 251/1 253/4 434/3
f 357/2 356/1 436/4 437/3
f 437/2 438/18 439/19 440/3
f 356/1 360/2 442/3 436/4
f 360/2 361/1 438/4 442/3
f 361/1 207/2 208/17 439/20
f 62/1 57/2 60/3 63/4
f 422/2 421/1 365/20 364/17
f 445/1 446/2 447/3 448/4
f 448/2 447/1 449/4 450/3
f 70/1 65/2 68/3 71/4
f 78/1 73/2 76/3 79/4
f 79/1 76/2 451/4 452/3
f 453/2 454/1 217/4 216/3
f 455/1 456/2 457/3 458/4
f 90/2 85/1 88/4 91/3
f 91/1 88/2 98/17 99/20
f 99/2 98/1 102/4 103/3
f 203/1 348/2 461/3 204/4
f 204/1 192/5 194/6 205/4
f 348/2 189/1 192/4 461/3
f 466/2 467/1 468/4 469/3
f 470/2 223/1 222/4 466/3
f 471/1 225/5 223/6 472/4
f 421/2 424/1 366/20 365/17
f 446/1 497/2 498/3 447/4
f 447/2 498/1 66/4 449/3
f 452/1 81/2 499/3 454/4
f 454/2 499/1 218/4 217/3
f 456/1 500/2 86/3 457/4
f 391/3 241/4 240/1 507/2
f 181/3 508/4 416/1 182/2
f 456/3 455/4 509/1 500/2
f 335/1 327/2 434/17 510/20
f 287/1 286/5 431/53 378/20
f 401/2 402/1 511/4 408/3
f 409/1 420/2 512/3 410/4
f 410/2 512/1 363/4 362/3
f 411/1 513/2 514/3 412/4
f 412/2 514/1 377/20 376/17
f 413/2 515/1 516/4 414/3
f 414/1 516/2 517/17 415/20
f 415/2 517/1 214/4 215/3
f 416/1 508/2 518/21 417/22
f 417/2 518/1 136/20 139/17
f 300/1 299/2 520/3 521/4
f 521/2 520/1 404/4 522/3
f 310/1 313/2 523/17 403/20
f 28/1 232/2 235/3 33/4
f 525/1 236/2 239/3 41/4
f 48/1 526/2 213/3 212/4
f 507/1 240/2 243/3 53/4
f 56/2 527/1 135/22 134/21
f 2/1 5/2 8/3 3/4
f 10/2 13/1 20/20 17/17
f 22/2 25/1 28/4 23/3
f 385/1 28/2 33/3 386/4
f 30/2 33/1 36/4 31/3
f 387/1 525/2 41/3 388/4
f 38/2 41/1 44/4 39/3
f 39/1 44/2 212/17 211/20
f 391/1 507/2 53/3 392/4
f 50/2 53/1 134/25 133/26
f 308/1 309/2 533/17 534/20
f 319/2 308/1 534/20 535/17
f 26/2 25/1 22/4 21/3
f 167/3 513/4 411/1 168/2
f 446/3 445/4 536/1 497/2
f 387/3 237/4 236/1 525/2
f 173/2 515/1 413/4 174/3
f 77/3 74/4 73/1 78/2
f 423/2 422/1 364/20 367/17
f 536/1 445/2 448/3 541/4
f 541/2 448/1 450/4 542/3
f 543/1 451/2 453/3 544/4
f 544/2 453/1 216/4 219/3
f 509/1 455/2 458/3 545/4
f 270/1 224/5 225/6 471/4
f 268/2 269/1 547/4 548/3
f 548/1 547/2 549/3 550/4
f 276/1 268/2 548/3 552/4
f 552/2 548/1 550/4 553/3
f 294/5 276/1 553/20 551/53
f 309/1 297/2 374/17 533/20
f 198/1 300/2 521/3 554/4
f 554/2 521/1 522/4 199/3
f 8/1 7/2 4/3 3/4
f 159/2 408/1 511/4 160/3
f 59/1 64/2 63/3 60/4
f 292/2 294/1 551/20 370/17
f 190/1 335/2 510/17 193/20
f 58/1 61/2 64/3 59/4
f 424/2 423/1 367/20 366/17
f 497/1 536/2 541/3 498/4
f 498/2 541/1 542/4 66/3
f 66/1 69/2 72/3 67/4
f 74/1 77/2 544/21 499/22
f 499/2 544/1 219/4 218/3
f 500/1 509/2 545/3 86/4
f 86/2 89/1 92/4 87/3
f 87/1 92/2 100/17 97/20
f 97/2 100/1 104/4 101/3
f 402/2 157/1 160/4 511/3
f 420/1 161/2 164/3 512/4
f 512/2 164/1 166/4 363/3
f 513/1 167/2 170/3 514/4
f 514/2 170/1 172/20 377/17
f 515/2 173/1 176/4 516/3
f 516/1 176/2 178/17 517/20
f 517/2 178/1 180/4 214/3
f 508/1 181/2 184/21 518/22
f 518/2 184/1 137/20 136/17
f 249/2 319/1 535/20 252/17
f 313/18 320/2 556/3 557/19
f 557/30 558/1 559/4 523/29
f 560/2 561/1 562/4 563/3
f 564/2 565/1 566/4 567/3
f 563/1 562/2 568/3 569/4
f 567/1 566/2 570/3 571/4
f 572/1 573/2 574/3 575/4
f 576/1 577/2 578/3 579/4
f 580/2 581/1 582/4 583/3
f 584/2 585/1 586/4 587/3
f 588/2 589/1 590/4 591/3
f 592/2 593/1 594/4 595/3
f 596/2 597/1 598/4 599/3
f 600/2 601/1 602/4 603/3
f 599/1 598/2 604/3 605/4
f 603/1 602/2 606/3 607/4
f 608/2 609/1 610/4 611/3
f 612/2 613/1 614/4 615/3
f 611/2 610/1 616/4 617/3
f 615/2 614/1 618/4 619/3
f 620/1 621/2 622/3 623/4
f 624/1 625/2 626/3 627/4
f 628/1 629/2 630/3 631/4
f 630/15 648/2 649/3 631/31
f 695/2 696/1 697/4 698/3
f 699/2 574/1 581/4 700/3
f 701/2 590/1 597/4 702/3
f 703/1 616/2 704/3 705/4
f 705/2 704/1 621/4 706/3
f 612/2 609/1 608/4 613/3
f 711/2 712/1 713/4 714/3
f 622/1 627/2 626/3 623/4
f 715/1 716/2 717/3 718/4
f 696/2 719/1 720/4 697/3
f 561/2 564/1 567/4 562/3
f 562/1 567/2 571/3 568/4
f 573/1 576/2 579/3 574/4
f 574/2 721/1 581/3 584/4
f 589/2 592/1 595/4 590/3
f 590/2 722/1 597/3 600/4
f 598/1 603/2 607/3 604/4
f 609/2 612/1 619/20 616/17
f 616/1 723/2 724/3 704/4
f 704/2 724/1 725/4 621/3
f 621/1 624/2 627/3 622/4
f 728/2 729/1 730/4 731/3
f 732/15 730/2 733/3 734/31
f 735/1 728/2 731/3 732/4
f 736/2 737/1 738/4 739/3
f 739/1 738/2 740/3 741/4
f 742/1 735/2 734/17 743/20
f 744/1 745/2 746/3 747/4
f 748/2 749/1 750/20 751/17
f 752/2 753/1 754/22 755/21
f 756/2 757/1 758/22 759/21
f 759/1 758/2 760/3 761/4
f 711/2 714/1 762/4 763/3
f 763/1 762/2 717/26 716/25
f 768/2 769/1 770/20 771/17
f 773/1 774/2 775/3 776/4
f 776/2 777/1 778/4 770/3
f 779/15 780/2 781/3 782/31
f 783/2 784/1 785/4 786/3
f 788/1 783/2 786/3 789/4
f 790/2 791/1 789/20 792/17
f 793/1 790/2 792/17 787/20
f 794/1 795/2 796/3 797/4
f 798/2 799/1 800/20 801/17
f 802/2 803/1 804/22 805/21
f 806/2 807/1 808/22 809/21
f 809/1 808/2 810/3 811/4
f 713/2 712/1 812/4 813/3
f 813/1 812/2 715/26 718/25
f 818/2 819/15 820/16 821/17
f 822/15 823/2 824/17 825/16
f 729/1 822/2 825/17 733/20
f 827/2 828/1 829/4 830/3
f 830/1 829/2 831/3 832/4
f 833/1 736/2 739/3 834/4
f 834/2 739/1 741/4 835/3
f 836/1 837/2 838/3 839/4
f 839/2 838/1 840/4 841/3
f 823/1 793/2 787/17 824/20
f 842/2 695/1 698/4 843/3
f 565/2 560/1 563/4 566/3
f 566/1 563/2 569/3 570/4
f 577/1 572/2 575/3 578/4
f 844/2 699/1 585/3 580/4
f 593/2 588/1 845/3 701/4
f 601/2 596/1 599/4 602/3
f 602/1 599/2 605/3 606/4
f 613/2 608/1 617/20 618/17
f 846/1 703/2 705/3 847/4
f 847/2 705/1 706/4 848/3
f 625/1 620/2 623/3 626/4
f 737/2 742/1 851/4 738/3
f 738/1 851/2 743/3 740/4
f 604/1 607/2 606/3 605/4
f 810/1 761/2 760/3 811/4
f 856/2 857/1 858/20 859/17
f 828/2 818/1 860/4 829/3
f 829/1 860/2 821/3 831/4
f 837/1 827/2 830/3 838/4
f 838/2 830/1 832/4 840/3
f 861/1 862/2 863/3 864/4
f 864/2 863/1 865/4 866/3
f 857/2 836/15 839/31 867/3
f 867/2 868/1 869/4 858/3
f 868/1 839/2 841/3 869/4
f 795/1 744/2 747/3 796/4
f 799/2 748/1 751/20 800/17
f 803/2 752/1 755/22 804/21
f 807/2 756/1 759/22 808/21
f 808/1 759/2 761/3 810/4
f 712/2 711/1 763/4 812/3
f 812/1 763/2 716/26 715/25
f 874/1 875/5 876/6 877/4
f 878/2 879/1 880/4 881/3
f 879/1 882/5 859/6 880/4
f 875/2 856/1 882/4 876/3
f 745/1 794/2 797/3 746/4
f 749/2 798/1 801/20 750/17
f 753/2 802/1 805/22 754/21
f 757/2 806/1 809/22 758/21
f 758/1 809/2 811/3 760/4
f 714/2 713/1 813/4 762/3
f 762/1 813/2 718/26 717/25
f 883/1 884/2 885/3 886/4
f 886/2 885/1 887/4 888/3
f 629/15 889/2 648/3 630/31
f 819/2 768/1 771/20 820/17
f 884/1 833/2 834/3 885/4
f 885/2 834/1 835/4 887/3
f 890/2 891/1 892/4 893/3
f 893/1 892/2 894/3 895/4
f 780/3 779/31 900/15 901/2
f 902/27 903/28 791/4 790/3
f 823/3 904/4 790/1 793/2
f 905/2 906/1 907/4 908/3
f 909/17 910/20 908/1 900/2
f 729/29 902/4 904/1 822/30
f 911/2 905/1 912/20 913/17
f 914/3 915/31 916/15 909/2
f 917/3 916/4 915/1 918/2
f 919/5 917/1 918/4 728/6
f 728/3 735/4 742/1 919/2
f 920/3 916/19 921/18 922/2
f 923/5 921/1 916/4 924/6
f 924/3 742/31 925/15 923/2
f 742/2 737/1 736/4 925/3
f 926/3 927/31 875/15 874/2
f 927/2 928/1 856/4 875/3
f 929/5 856/1 928/4 930/6
f 931/6 929/4 930/1 932/5
f 932/3 925/4 933/1 931/2
f 934/3 933/4 925/1 736/2
f 736/3 833/4 884/1 934/2
f 935/2 857/1 856/4 936/3
f 936/2 929/1 836/4 935/3
f 937/2 836/1 929/4 938/3
f 938/2 931/1 939/4 937/3
f 940/3 939/4 931/1 933/2
f 941/2 940/1 933/4 934/3
f 934/2 884/1 942/4 941/3
f 884/3 883/4 943/1 942/2
f 827/3 837/4 836/1 937/2
f 818/27 828/28 937/4 939/3
f 939/2 941/15 944/16 818/17
f 941/3 942/4 945/1 946/2
f 862/3 945/4 942/1 943/2
f 947/3 944/4 946/1 945/2
f 945/2 862/1 948/4 947/3
f 891/17 949/20 862/1 861/2
f 818/2 950/1 951/4 952/3
f 950/3 944/4 953/28 768/27
f 944/2 947/1 954/4 955/3
f 947/3 948/4 949/1 954/2
f 768/2 819/1 952/4 951/3
f 956/6 953/4 955/1 949/5
f 957/58 958/28 949/4 890/6
f 768/2 953/1 963/4 769/3
f 964/3 963/4 953/1 965/2
f 965/2 956/1 958/4 966/3
f 889/3 629/31 628/15 967/2
f 970/3 774/4 773/1 963/2
f 963/2 964/1 971/4 972/3
f 973/3 971/4 964/1 958/2
f 958/3 974/4 975/1 976/2
f 974/2 957/1 977/4 978/3
f 568/1 571/2 570/3 569/4
f 750/2 801/1 800/4 751/3
f 862/15 883/2 886/3 863/31
f 863/5 886/1 888/4 865/6
f 576/3 573/4 572/1 577/2
f 802/2 753/1 752/4 803/3
f 891/15 861/2 864/3 892/31
f 892/5 864/1 866/4 894/6
f 582/2 587/1 586/4 583/3
f 804/2 755/1 754/4 805/3
f 592/2 589/1 588/4 593/3
f 756/2 807/1 806/4 757/3
f 719/2 842/1 843/4 720/3
f 721/2 844/1 980/4 981/3
f 722/2 845/1 982/4 983/3
f 723/1 846/2 847/3 724/4
f 724/2 847/1 848/4 725/3
f 695/2 842/1 719/4 696/3
f 744/3 795/4 794/1 745/2
f 984/2 890/1 893/4 985/3
f 985/1 893/2 895/3 986/4
f 957/2 984/1 986/20 988/17
f 977/2 957/1 989/4 990/3
f 990/1 989/2 988/3 987/4
f 564/2 561/1 560/4 565/3
f 748/2 799/1 798/4 749/3
f 843/2 698/1 697/4 720/3
f 796/1 747/2 746/3 797/4
f 999/2 1000/1 1001/4 1002/3
f 1048/3 1049/4 1050/1 1051/2
f 1052/2 1053/1 1054/4 1055/3
f 1056/2 1057/1 1058/4 1059/3
f 1060/15 1058/2 1061/3 1062/31
f 1063/1 1056/2 1059/3 1060/4
f 1064/15 1065/2 1066/3 1067/31
f 1067/5 1066/1 1068/4 1069/6
f 1071/2 1064/1 1067/4 1072/3
f 1072/1 1067/2 1069/3 1070/4
f 1073/15 1074/2 1075/17 1076/16
f 1078/1 1079/2 1080/17 1081/20
f 1082/1 1083/2 1084/3 1085/4
f 1085/2 1084/1 1086/4 1087/3
f 1092/2 1093/1 1094/4 1095/3
f 1096/2 1097/1 1098/20 1099/17
f 1104/1 1105/2 1106/17 1107/20
f 1108/2 1109/1 1110/20 1111/17
f 1112/2 1113/1 1114/4 1115/3
f 1116/1 1117/2 1118/3 1119/4
f 1119/2 1118/1 1120/4 1121/3
f 1122/1 1123/2 1124/17 1125/20
f 1125/2 1124/1 1126/4 1127/3
f 1128/1 1129/2 1130/3 1131/4
f 1131/2 1130/1 1132/4 1133/3
f 1133/1 1132/2 1134/3 1135/4
f 1135/2 1134/1 1093/4 1092/3
f 1049/1 1048/2 1136/17 1137/20
f 1137/2 1136/1 1138/4 1139/3
f 1139/1 1138/2 1140/3 1141/4
f 1141/2 1140/1 1053/4 1052/3
f 1146/1 1147/5 1148/53 1149/20
f 1150/2 1151/1 1152/4 1153/3
f 1153/1 1154/5 1155/6 1156/4
f 1151/1 1157/2 1154/3 1152/4
f 1158/2 1159/1 1160/4 1161/3
f 1161/1 1160/2 1162/3 1163/4
f 1164/2 1165/1 1166/4 1167/3
f 1168/1 1169/2 1170/3 1171/4
f 1171/2 1170/1 1172/4 1173/3
f 1174/1 1175/2 1176/17 1177/20
f 1177/2 1176/1 1178/4 1179/3
f 1180/1 1181/2 1182/3 1183/4
f 1183/2 1182/1 1184/4 1185/3
f 1185/1 1184/2 1186/3 1187/4
f 1187/2 1186/1 1095/4 1094/3
f 1051/1 1050/2 1188/17 1189/20
f 1189/2 1188/1 1190/4 1191/3
f 1191/1 1190/2 1192/3 1193/4
f 1193/2 1192/1 1055/4 1054/3
f 1159/2 1198/1 1199/4 1160/3
f 1160/1 1199/2 1200/3 1162/4
f 1198/1 1108/2 1111/17 1200/20
f 1109/2 1201/15 1202/16 1110/17
f 1204/2 1205/1 1206/4 1207/3
f 1207/1 1206/2 1208/3 1209/4
f 1205/1 1211/2 1212/3 1206/4
f 1206/2 1213/1 1214/4 1208/3
f 1211/1 1215/2 1216/17 1217/20
f 1218/2 1219/1 1002/4 1001/3
f 1220/1 1221/2 1222/17 1223/20
f 1201/2 1204/1 1207/4 1224/3
f 1224/1 1207/2 1209/3 1202/4
f 1229/6 1073/4 1065/1 1064/5
f 1230/2 1229/1 1064/4 1071/3
f 1074/3 1231/4 1232/1 1063/2
f 1233/3 1232/4 1231/1 1073/2
f 1234/5 1233/1 1073/4 1229/6
f 1229/3 1230/4 1235/1 1234/2
f 1236/2 1082/1 1057/4 1056/3
f 1056/3 1063/4 1237/1 1236/2
f 1238/5 1237/1 1063/4 1233/6
f 1233/3 1239/4 1240/1 1238/2
f 1241/2 1240/1 1239/4 1234/3
f 1157/21 1151/22 1234/1 1242/2
f 1083/3 1082/4 1243/1 1078/2
f 1244/6 1243/4 1082/1 1237/5
f 1237/3 1245/4 1246/1 1244/2
f 1247/5 1246/1 1245/4 1240/6
f 1240/3 1248/4 1249/1 1247/2
f 1079/3 1078/4 1250/1 1158/2
f 1078/2 1243/1 1251/4 1250/3
f 1252/3 1251/4 1243/1 1253/2
f 1253/2 1246/15 1254/31 1252/3
f 1246/3 1255/4 1256/1 1254/2
f 1150/3 1256/4 1255/1 1247/2
f 1151/2 1150/1 1247/4 1249/3
f 1159/2 1158/1 1257/4 1198/3
f 1258/6 1257/4 1158/1 1251/5
f 1251/2 1252/1 1259/4 1258/3
f 1252/3 1254/31 1146/15 1259/2
f 1260/3 1146/4 1254/1 1256/2
f 1256/3 1150/4 1147/1 1260/2
f 1261/3 1108/4 1198/1 1257/2
f 1262/2 1261/1 1257/4 1263/3
f 1263/2 1258/1 1264/4 1262/3
f 1258/3 1265/31 1104/15 1264/2
f 1105/3 1104/4 1265/1 1146/2
f 1266/27 1201/28 1109/4 1108/3
f 1108/3 1262/31 1267/59 1266/27
f 1268/2 1269/1 1262/4 1264/3
f 1264/2 1104/15 1097/31 1268/3
f 1270/5 1267/1 1269/4 1096/6
f 1271/2 1205/1 1204/4 1201/3
f 1201/2 1266/1 1272/4 1271/3
f 1266/3 1273/4 1274/1 1272/2
f 1273/2 1267/1 1275/4 1274/3
f 1220/2 1275/1 1267/4 1276/3
f 1276/3 1270/4 1221/1 1220/2
f 1277/3 1211/4 1205/1 1271/2
f 1271/3 1272/4 1278/1 1279/2
f 1280/6 1278/4 1272/1 1275/5
f 1275/3 1220/4 1281/1 1282/2
f 1211/3 1278/31 1286/15 1215/2
f 1287/3 1286/4 1278/1 1288/2
f 1288/3 1280/4 1289/1 1290/2
f 1291/3 1289/4 1280/1 1281/2
f 1294/2 1292/1 1219/4 1218/3
f 1173/2 1172/1 1121/4 1120/3
f 1123/3 1122/4 1175/1 1174/2
f 1127/2 1126/1 1179/4 1178/3
f 1129/3 1128/4 1181/1 1180/2
f 1219/2 1292/1 999/4 1002/3
f 1113/2 1112/1 1165/4 1164/3
f 1105/1 1146/2 1149/17 1106/20
f 1074/1 1063/2 1062/17 1075/20
f 1097/2 1104/1 1107/20 1098/17
f 1117/3 1116/4 1169/1 1168/2
f 1147/1 1150/2 1156/17 1148/20
f 1065/1 1073/2 1295/3 1066/4
f 1066/2 1295/1 1076/4 1068/3
f 1115/2 1114/1 1167/4 1166/3
f 1083/1 1078/2 1296/3 1084/4
f 1084/2 1296/1 1081/4 1086/3
f 1079/1 1158/2 1163/17 1080/20
f 1113/2 1164/1 1167/4 1114/3
f 1117/1 1168/2 1171/3 1118/4
f 1118/2 1171/1 1173/4 1120/3
f 1123/1 1174/2 1177/17 1124/20
f 1124/2 1177/1 1179/4 1126/3
f 1129/1 1180/2 1183/3 1130/4
f 1130/2 1183/1 1185/4 1132/3
f 1132/1 1185/2 1187/3 1134/4
f 1134/2 1187/1 1094/4 1093/3
f 1048/1 1051/2 1189/17 1136/20
f 1136/2 1189/1 1191/4 1138/3
f 1138/1 1191/2 1193/3 1140/4
f 1140/2 1193/1 1054/4 1053/3
f 1270/2 1096/1 1297/4 1298/3
f 1298/1 1297/2 1099/3 1299/4
f 1221/1 1270/2 1299/17 1222/20
f 1057/2 1082/1 1085/4 1058/3
f 1058/1 1085/2 1087/3 1061/4
f 1165/2 1112/1 1115/4 1166/3
f 1169/1 1116/2 1119/3 1170/4
f 1170/2 1119/1 1121/4 1172/3
f 1175/1 1122/2 1125/17 1176/20
f 1176/2 1125/1 1127/4 1178/3
f 1181/1 1128/2 1131/3 1182/4
f 1182/2 1131/1 1133/4 1184/3
f 1184/1 1133/2 1135/3 1186/4
f 1186/2 1135/1 1092/4 1095/3
f 1050/1 1049/2 1137/17 1188/20
f 1188/2 1137/1 1139/4 1190/3
f 1190/1 1139/2 1141/3 1192/4
f 1192/2 1141/1 1052/4 1055/3
f 1281/1 1220/2 1223/17 1300/20
f 1291/1 1281/2 1302/3 1303/4
f 1303/2 1302/1 1300/4 1301/3
f 1304/1 1305/2 1306/3 1307/4
f 1308/1 1309/2 1310/3 1311/4
f 1312/1 1313/2 1314/3 1315/4
f 1316/1 1317/2 1318/3 1319/4
f 1320/2 1321/1 1322/4 1323/3
f 1324/2 1325/1 1326/4 1327/3
f 1328/2 1329/1 1330/4 1331/3
f 1332/2 1333/1 1334/4 1335/3
f 1331/2 1330/1 1336/4 1337/3
f 1335/2 1334/1 1338/4 1339/3
f 1340/2 1341/1 1342/4 1343/3
f 1344/2 1345/1 1346/4 1347/3
f 1348/1 1349/2 1350/3 1351/4
f 1352/1 1353/2 1354/3 1355/4
f 1356/2 1357/1 1358/4 1359/3
f 1360/1 1361/2 1362/3 1363/4
f 1363/1 1364/5 1365/6 1366/4
f 1361/2 1370/15 1371/31 1362/3
f 1364/2 1372/1 1373/4 1365/3
f 1382/1 1383/5 1384/6 1385/4
f 1385/2 1386/1 1387/4 1388/3
f 1386/1 1384/2 1389/3 1387/4
f 1400/2 1401/15 1402/31 1403/3
f 1403/1 1402/5 1404/6 1405/4
f 1410/1 1411/2 1412/3 1413/4
f 1411/2 1414/1 1359/4 1358/3
f 1345/2 1344/1 1341/4 1340/3
f 1453/3 1454/4 1455/1 1456/2
f 1457/1 1458/2 1459/3 1460/4
f 1461/1 1462/2 1463/3 1464/4
f 1465/1 1466/2 1467/3 1468/4
f 1469/2 1470/1 1471/4 1472/3
f 1309/1 1304/2 1307/3 1310/4
f 1477/2 1478/1 1479/4 1480/3
f 1317/1 1312/2 1315/3 1318/4
f 1481/1 1482/2 1483/17 1484/20
f 1325/2 1320/1 1323/4 1326/3
f 1333/2 1328/1 1485/22 1486/21
f 1486/1 1485/2 1465/3 1468/4
f 1345/2 1340/1 1343/4 1346/3
f 1487/1 1488/2 1351/17 1354/20
f 1489/2 1490/1 1491/4 1492/3
f 1492/1 1491/2 1457/3 1460/4
f 1497/1 1498/5 1499/53 1500/20
f 1501/2 1477/1 1480/4 1316/3
f 1502/1 1481/2 1484/17 1324/20
f 1339/2 1503/1 1486/4 1504/3
f 1504/1 1486/2 1468/3 1467/4
f 1347/1 1487/2 1505/3 1352/4
f 1355/2 1489/1 1492/4 1506/3
f 1506/1 1492/2 1460/3 1459/4
f 1509/2 1510/15 1511/16 1512/17
f 1514/1 1515/2 1516/17 1517/20
f 1519/1 1520/2 1521/3 1522/4
f 1522/2 1521/1 1523/4 1516/3
f 1520/2 1524/1 1525/4 1521/3
f 1521/1 1525/2 1526/3 1523/4
f 1524/1 1527/2 1518/17 1526/20
f 1514/3 1532/4 1533/1 1515/2
f 1534/2 1535/1 1536/4 1537/3
f 1538/2 1539/1 1535/4 1540/3
f 1541/17 1542/20 1540/1 1543/2
f 1544/3 1545/4 1546/1 1547/2
f 1552/3 1553/4 1551/1 1554/2
f 1555/3 1520/4 1519/1 1556/2
f 1542/5 1555/1 1556/4 1538/6
f 1547/2 1557/1 1558/4 1559/3
f 1560/2 1552/1 1357/4 1356/3
f 1561/5 1524/1 1520/4 1562/6
f 1562/3 1542/4 1563/1 1561/2
f 1564/6 1563/4 1542/1 1558/5
f 1524/3 1568/4 1509/1 1527/2
f 1569/29 1509/4 1568/1 1570/30
f 1571/2 1569/1 1570/4 1564/3
f 1564/3 1572/4 1573/1 1571/2
f 1497/27 1510/28 1509/4 1574/3
f 1575/3 1576/4 1574/1 1577/2
f 1577/3 1569/4 1578/28 1579/27
f 1569/2 1571/1 1580/4 1581/3
f 1582/2 1580/1 1571/4 1573/3
f 1576/2 1575/1 1579/4 1497/3
f 1583/2 1578/1 1581/4 1580/3
f 1580/3 1582/4 1584/1 1583/2
f 1585/2 1584/1 1582/4 1586/3
f 1587/3 1588/4 1497/1 1579/2
f 1579/2 1578/1 1589/4 1587/3
f 1590/5 1589/1 1578/4 1584/6
f 1584/3 1585/4 1591/1 1590/2
f 1592/3 1591/4 1585/1 1593/2
f 1594/6 1498/4 1588/1 1589/5
f 1589/2 1595/1 1596/22 1597/21
f 1595/3 1591/31 1598/15 1599/2
f 1591/2 1600/15 1601/31 1598/3
f 1600/3 1602/4 1603/1 1601/2
f 1604/2 1605/1 1606/4 1594/3
f 1607/21 1382/22 1599/1 1608/2
f 1608/3 1598/4 1609/1 1610/2
f 1611/3 1609/4 1598/1 1612/2
f 1612/3 1601/4 1613/1 1611/2
f 1614/3 1613/4 1601/1 1603/2
f 1615/5 1614/1 1603/4 1616/6
f 1610/2 1609/1 1617/4 1618/3
f 1609/3 1611/4 1619/1 1617/2
f 1611/2 1615/34 1620/35 1619/3
f 1618/3 1617/4 1383/1 1607/2
f 1621/27 1400/28 1617/4 1619/3
f 1619/2 1622/1 1401/20 1621/17
f 1622/3 1623/31 1624/59 1401/27
f 1625/2 1626/1 1627/4 1628/3
f 1629/2 1624/1 1628/4 1630/3
f 1401/3 1631/4 1361/1 1360/2
f 1370/5 1361/1 1631/4 1629/6
f 1319/1 1318/2 1315/3 1314/4
f 1632/2 1633/1 1634/4 1635/3
f 1636/3 1482/4 1481/1 1502/2
f 1637/3 1638/4 1639/1 1640/2
f 1327/2 1326/1 1323/4 1322/3
f 1645/2 1646/1 1647/4 1648/3
f 1333/2 1332/1 1329/4 1328/3
f 1649/3 1650/4 1651/1 1652/2
f 1572/1 1564/2 1653/17 1654/20
f 1551/1 1553/2 1410/3 1413/4
f 1560/2 1356/1 1359/4 1414/3
f 1478/2 1660/1 1661/4 1479/3
f 1482/1 1636/2 1662/17 1483/20
f 1663/2 1664/1 1665/4 1485/3
f 1485/1 1665/2 1466/3 1465/4
f 1488/1 1666/2 1667/3 1668/4
f 1490/2 1669/1 1670/4 1491/3
f 1491/1 1670/2 1458/3 1457/4
f 1309/3 1308/4 1305/1 1304/2
f 1672/2 1673/1 1674/4 1675/3
f 1592/1 1593/2 1676/3 1677/4
f 1677/2 1676/1 1678/4 1679/3
f 1675/2 1674/1 1680/4 1681/3
f 1682/1 1683/2 1684/3 1685/4
f 1685/2 1684/1 1635/4 1634/3
f 1640/1 1639/2 1686/3 1687/4
f 1687/2 1686/1 1646/20 1645/17
f 1650/1 1649/2 1688/3 1689/4
f 1689/2 1688/1 1472/22 1471/21
f 1454/1 1453/2 1462/61 1461/62
f 1600/2 1592/1 1679/20 1692/17
f 1602/1 1600/2 1692/17 1693/20
f 1510/2 1497/1 1500/20 1511/17
f 1593/1 1585/2 1694/3 1676/4
f 1676/2 1694/1 1695/4 1678/3
f 1585/2 1586/1 1696/4 1694/3
f 1694/1 1696/2 1697/3 1695/4
f 1383/2 1400/1 1403/4 1384/3
f 1384/1 1403/2 1405/3 1389/4
f 1660/2 1478/1 1477/4 1501/3
f 1698/3 1699/4 1683/1 1682/2
f 1586/2 1582/1 1702/4 1696/3
f 1696/1 1702/2 1703/3 1697/4
f 1603/1 1602/2 1693/17 1704/20
f 1311/1 1310/2 1307/3 1306/4
f 1705/2 1706/1 1681/4 1680/3
f 1527/1 1509/2 1512/17 1518/20
f 1401/1 1360/2 1366/17 1404/20
f 1604/2 1597/1 1707/4 1708/3
f 1708/1 1707/2 1709/3 1710/4
f 1305/1 1308/2 1311/3 1306/4
f 1660/2 1501/1 1316/4 1661/3
f 1313/1 1316/2 1319/3 1314/4
f 1636/1 1502/2 1324/17 1662/20
f 1321/2 1324/1 1327/4 1322/3
f 1329/2 1332/1 1504/22 1665/21
f 1665/1 1504/2 1467/3 1466/4
f 1341/2 1344/1 1347/4 1342/3
f 1666/1 1347/2 1355/17 1350/20
f 1669/2 1355/1 1506/4 1670/3
f 1670/1 1506/2 1459/3 1458/4
f 1606/2 1605/1 1711/20 1712/17
f 1597/2 1596/1 1713/4 1707/3
f 1707/1 1713/2 1714/3 1709/4
f 1573/1 1572/2 1654/17 1715/20
f 1582/2 1573/1 1716/4 1702/3
f 1702/1 1716/2 1715/3 1703/4
f 1672/2 1675/1 1681/4 1706/3
f 1698/1 1682/2 1685/3 1717/4
f 1717/2 1685/1 1634/4 1633/3
f 1637/1 1640/2 1687/3 1718/4
f 1718/2 1687/1 1645/20 1648/17
f 1651/1 1650/2 1689/3 1719/4
f 1719/2 1689/1 1471/22 1470/21
f 1455/1 1454/2 1461/61 1464/62
f 1605/2 1604/1 1710/20 1711/17
f 1546/1 1545/2 1720/3 1721/4
f 1721/2 1720/1 1722/4 1723/3
f 1558/2 1557/1 1724/4 1725/3
f 1725/1 1724/2 1726/3 1727/4
f 1564/1 1558/2 1725/3 1728/4
f 1728/2 1725/1 1727/4 1653/3
f 1674/2 1673/1 1705/4 1680/3
f 1683/1 1699/2 1729/3 1684/4
f 1684/2 1729/1 1632/4 1635/3
f 1639/1 1638/2 1730/3 1686/4
f 1686/2 1730/1 1647/20 1646/17
f 1649/1 1652/2 1731/3 1688/4
f 1688/2 1731/1 1469/22 1472/21
f 1453/1 1456/2 1463/61 1462/62
f 1596/1 1382/2 1385/3 1713/4
f 1713/2 1385/1 1388/4 1714/3
f 1498/1 1606/2 1712/17 1499/20
f 1673/2 1672/1 1706/4 1705/3
f 1699/1 1698/2 1717/3 1729/4
f 1729/2 1717/1 1633/4 1632/3
f 1638/1 1637/2 1718/3 1730/4
f 1730/2 1718/1 1648/20 1647/17
f 1652/1 1651/2 1719/3 1731/4
f 1731/2 1719/1 1470/22 1469/21
f 1456/1 1455/2 1464/61 1463/62
f 1616/5 1603/1 1704/20 1732/53

usemtl minecraft_block-black_wool

f 109/2 110/1 111/4 112/3
f 122/2 126/1 127/4 124/3
f 155/2 156/1 111/4 110/3
f 185/2 186/1 187/4 188/3
f 194/2 193/1 195/4 196/3
f 200/2 199/1 201/4 202/3
f 126/2 205/1 206/4 127/3
f 253/2 252/1 254/4 255/3
f 374/2 371/1 373/4 375/3
f 148/2 378/1 379/4 149/3
f 404/5 403/1 405/4 406/6
f 156/2 407/1 112/4 111/3
f 186/2 418/1 419/4 187/3
f 426/2 188/1 187/4 419/3
f 431/2 200/1 202/4 432/3
f 434/2 253/1 255/4 435/3
f 205/2 194/15 196/31 206/3
f 155/2 463/1 407/4 156/3
f 475/2 476/15 477/31 379/3
f 432/2 479/34 480/35 475/3
f 201/2 375/39 373/40 202/3
f 406/2 481/39 482/40 483/3
f 484/2 485/41 481/42 405/3
f 487/2 255/43 254/44 484/3
f 492/2 493/46 435/38 491/3
f 490/2 196/34 195/35 492/3
f 124/2 127/1 206/4 495/3
f 510/2 434/1 435/4 493/3
f 378/2 431/15 432/31 379/3
f 407/2 463/1 109/4 112/3
f 418/2 519/1 426/4 419/3
f 522/2 404/1 406/4 483/3
f 403/2 523/1 484/4 405/3
f 535/5 533/1 482/4 485/6
f 185/2 519/1 418/4 186/3
f 533/2 374/1 375/4 482/3
f 199/2 522/1 483/4 201/3
f 193/2 510/1 493/4 195/3
f 463/2 155/1 110/4 109/3
f 519/2 185/1 188/4 426/3
f 252/2 535/1 485/4 254/3

usemtl minecraft_block-obsidian

f 128/7 129/8 130/9 131/10
f 129/7 397/8 398/9 130/10
f 131/47 130/48 398/49 502/50
f 397/7 555/8 502/9 398/10
f 129/49 128/50 555/47 397/48
f 555/7 128/8 131/9 502/10

usemtl minecraft_block-blue_wool

f 1035/2 1036/1 1037/4 1031/3
f 1040/2 1041/34 1042/35 1043/3
f 1045/27 1046/55 1047/38 1040/3
f 1203/2 1202/1 1035/4 1031/3
f 1209/2 1210/18 1045/19 1043/3
f 1202/2 1209/1 1043/4 1035/3
f 1301/5 1223/1 1047/4 1046/6
f 1374/2 1375/1 1376/4 1377/3
f 1392/2 1393/1 1394/4 1395/3
f 1415/36 1416/37 1417/38 1418/3
f 1419/2 1420/34 1421/35 1415/3
f 1424/2 1425/1 1426/4 1427/3
f 1394/2 1393/1 1374/4 1377/3
f 1493/2 1494/1 1495/4 1496/3
f 1395/2 1394/1 1377/4 1376/3
f 1507/2 1493/1 1496/4 1508/3
f 1512/2 1513/1 1424/4 1427/3
f 1517/2 1518/34 1419/35 1418/3
f 1655/2 1494/1 1493/4 1507/3
f 1393/2 1392/1 1375/4 1374/3
f 1494/2 1655/1 1671/4 1495/3
f 1495/2 1671/1 1508/4 1496/3
f 1518/2 1512/1 1427/4 1419/3
f 1392/2 1395/1 1376/4 1375/3
f 1655/2 1507/1 1508/4 1671/3
f 1653/30 1722/1 1417/4 1416/29

usemtl minecraft_block-cyan_wool

f 105/2 106/1 107/4 108/3
f 147/2 148/18 149/19 150/3
f 230/2 231/1 105/4 108/3
f 244/2 245/1 246/4 247/3
f 371/2 370/1 372/4 373/3
f 231/2 384/1 106/4 105/3
f 245/2 395/1 396/4 246/3
f 246/2 396/1 425/4 247/3
f 384/2 231/1 230/4 462/3
f 149/36 473/37 474/38 150/3
f 476/2 478/34 473/35 477/3
f 479/2 373/1 372/4 480/3
f 462/2 230/1 108/4 107/3
f 528/2 244/1 247/4 425/3
f 384/2 462/1 107/4 106/3
f 395/2 528/1 425/4 396/3
f 395/2 245/1 244/4 528/3
f 551/32 549/1 474/4 478/33
f 370/2 551/1 478/4 372/3
f 683/2 686/1 679/4 684/3
f 688/2 690/34 691/35 689/3
f 692/27 693/55 690/38 694/3
f 771/2 772/15 692/31 694/3
f 895/2 894/1 686/4 691/3
f 894/2 979/1 679/4 686/3
f 987/30 895/1 691/4 693/29

usemtl minecraft_block-beacon

f 140/11 141/12 142/13 143/14
f 503/13 504/14 505/11 506/12
f 503/11 506/12 142/51 141/52
f 504/11 503/12 141/51 140/52
f 505/11 504/12 140/51 143/52
f 506/11 505/12 143/51 142/52
