# COMMON_MC_OBJ_START
# version: 1
# exporter: jmc2obj
# world_name: random_items_kotf
# world_path: D:\GitHub\mcresourcepile\map-fetcher\tmp\CasualModernPGM\ModernMaps\maps\flag\random_items_kotf
# export_bounds_min: (-512, 0, -512)
# export_bounds_max: (495, 255, 495)
# export_offset: (0.000000, 0.000000, 0.000000)
# block_scale: 1.000000
# block_origin_offset: (-0.5, -0.5, -0.5)
# z_up: false
# texture_type: INDIVIDUAL_TILES
# has_split_blocks: false
# COMMON_MC_OBJ_END
mtllib minecraft.mtl

vt 0.000000000 0.000000000
vt 1.000000000 0.000000000
vt 1.000000000 1.000000000
vt 0.000000000 1.000000000
vt 1.000000000 2.000000000
vt 0.000000000 2.000000000
vt 0.000000000 6.000000000
vt 1.000000000 6.000000000
vt 1.000000000 3.000000000
vt 0.000000000 3.000000000
vt 0.000000000 8.000000000
vt 1.000000000 8.000000000
vt 0.812500000 0.968750000
vt 0.781250000 0.968750000
vt 0.781250000 0.312500000
vt 0.812500000 0.312500000
vt 0.750000000 0.968750000
vt 0.750000000 0.312500000
vt 0.718750000 0.968750000
vt 0.687500000 0.968750000
vt 0.687500000 0.312500000
vt 0.718750000 0.312500000
vt 0.781250000 1.000000000
vt 0.750000000 1.000000000
vt 0.375000000 0.281250000
vt 0.687500000 0.281250000
vt 0.375000000 0.312500000
vt 0.343750000 0.281250000
vt 0.343750000 0.312500000
vt 0.000000000 0.281250000
vt 0.031250000 0.281250000
vt 0.031250000 0.312500000
vt 0.000000000 0.312500000
vt 0.656250000 0.312500000
vt 0.656250000 0.343750000
vt 0.343750000 0.343750000
vt 0.031250000 0.343750000
vt 0.656250000 0.984375000
vt 0.343750000 0.984375000
vt 0.343750000 0.359375000
vt 0.656250000 0.359375000
vt 0.328125000 0.984375000
vt 0.328125000 0.359375000
vt 0.015625000 0.984375000
vt 0.015625000 0.359375000
vt 0.000000000 0.984375000
vt 0.000000000 0.359375000
vt 0.640625000 0.984375000
vt 0.640625000 1.000000000
vt 0.328125000 1.000000000
vt 0.015625000 1.000000000
vt 0.718750000 1.000000000
vt 0.000000000 0.625000000
vt 0.062500000 0.625000000
vt 0.062500000 0.687500000
vt 0.000000000 0.687500000
vt 0.562500000 0.000000000
vt 0.437500000 0.000000000
vt 0.437500000 1.000000000
vt 0.562500000 1.000000000
vt 0.437500000 3.000000000
vt 0.125000000 0.125000000
vt 0.000000000 0.125000000
vt 0.125000000 0.000000000
vt 1.000000000 4.000000000
vt 0.000000000 4.000000000
vt 0.437500000 0.437500000
vt 0.562500000 0.437500000
vt 0.437500000 0.562500000
vt 0.562500000 0.562500000
vt 0.000000000 0.500000000
vt 0.125000000 0.500000000
vt 0.125000000 0.625000000
vt 1.437500000 0.000000000
vt 1.437500000 1.000000000
vt 1.562500000 0.000000000
vt 1.562500000 1.000000000
vt -0.437500000 0.000000000
vt -0.437500000 1.000000000
vt 0.562500000 3.000000000
v 0.500 3.500 20.500
v 0.500 3.500 19.500
v 0.500 4.500 19.500
v 0.500 4.500 20.500
v -0.500 3.500 19.500
v -0.500 3.500 20.500
v -0.500 4.500 20.500
v -0.500 4.500 19.500
v 0.500 5.500 19.500
v 0.500 5.500 20.500
v -0.500 5.500 20.500
v -0.500 5.500 19.500
v 0.500 7.500 20.500
v 0.500 7.500 19.500
v 0.500 8.500 19.500
v 0.500 8.500 20.500
v -0.500 7.500 19.500
v -0.500 7.500 20.500
v -0.500 8.500 20.500
v -0.500 8.500 19.500
v 0.500 9.500 19.500
v 0.500 9.500 20.500
v -0.500 9.500 20.500
v -0.500 9.500 19.500
v 0.500 10.500 19.500
v 0.500 10.500 20.500
v -0.500 10.500 20.500
v -0.500 10.500 19.500
v -0.500 -0.500 19.500
v -0.500 -0.500 20.500
v -0.500 0.500 20.500
v -0.500 0.500 19.500
v -0.500 1.500 20.500
v -0.500 1.500 19.500
v -0.500 3.500 20.500
v -0.500 3.500 19.500
v -0.500 5.500 19.500
v -0.500 5.500 20.500
v -0.500 7.500 20.500
v -0.500 7.500 19.500
v 7.500 -0.500 18.500
v 7.500 -0.500 17.500
v 7.500 5.500 17.500
v 7.500 5.500 18.500
v 7.500 8.500 17.500
v 7.500 8.500 18.500
v 7.500 9.500 17.500
v 7.500 9.500 18.500
v 7.500 10.500 17.500
v 7.500 10.500 18.500
v 6.500 -0.500 17.500
v 6.500 -0.500 18.500
v 6.500 5.500 18.500
v 6.500 5.500 17.500
v 6.500 8.500 18.500
v 6.500 8.500 17.500
v 6.500 9.500 18.500
v 6.500 9.500 17.500
v 6.500 10.500 18.500
v 6.500 10.500 17.500
v 0.500 -0.500 20.500
v 0.500 0.500 20.500
v 0.500 1.500 20.500
v 0.500 2.500 20.500
v -0.500 2.500 20.500
v 0.500 5.500 20.500
v -0.500 6.500 20.500
v 0.500 6.500 20.500
v 0.500 7.500 20.500
v 0.500 -0.500 19.500
v 0.500 0.500 19.500
v 0.500 1.500 19.500
v 0.500 3.500 20.500
v -0.500 2.500 19.500
v 0.500 2.500 19.500
v 19.500 0.500 0.500
v 20.500 0.500 0.500
v 20.500 1.500 0.500
v 19.500 1.500 0.500
v 20.500 0.500 -0.500
v 19.500 0.500 -0.500
v 19.500 1.500 -0.500
v 20.500 1.500 -0.500
v 19.500 2.500 0.500
v 20.500 2.500 0.500
v 20.500 3.500 0.500
v 19.500 3.500 0.500
v 20.500 2.500 -0.500
v 19.500 2.500 -0.500
v 19.500 3.500 -0.500
v 20.500 3.500 -0.500
v 19.500 5.500 0.500
v 20.500 5.500 0.500
v 20.500 6.500 0.500
v 19.500 6.500 0.500
v 20.500 5.500 -0.500
v 19.500 5.500 -0.500
v 19.500 6.500 -0.500
v 20.500 6.500 -0.500
v 20.500 7.500 0.500
v 19.500 7.500 0.500
v 19.500 7.500 -0.500
v 20.500 7.500 -0.500
v 19.500 8.500 0.500
v 20.500 8.500 0.500
v 20.500 9.500 0.500
v 19.500 9.500 0.500
v 20.500 8.500 -0.500
v 19.500 8.500 -0.500
v 19.500 9.500 -0.500
v 20.500 9.500 -0.500
v 17.500 -0.500 6.500
v 17.500 -0.500 7.500
v 17.500 0.500 7.500
v 17.500 0.500 6.500
v 17.500 1.500 7.500
v 17.500 1.500 6.500
v 17.500 3.500 7.500
v 17.500 3.500 6.500
v 17.500 5.500 7.500
v 17.500 5.500 6.500
v 17.500 6.500 7.500
v 17.500 6.500 6.500
v 17.500 8.500 7.500
v 17.500 8.500 6.500
v 17.500 10.500 7.500
v 17.500 10.500 6.500
v 19.500 -0.500 0.500
v 20.500 -0.500 0.500
v 20.500 0.500 0.500
v 19.500 0.500 0.500
v 19.500 1.500 0.500
v 20.500 1.500 0.500
v 20.500 2.500 0.500
v 19.500 2.500 0.500
v 19.500 3.500 0.500
v 20.500 3.500 0.500
v 20.500 4.500 0.500
v 19.500 4.500 0.500
v 20.500 5.500 0.500
v 19.500 5.500 0.500
v 19.500 7.500 0.500
v 20.500 7.500 0.500
v 20.500 8.500 0.500
v 19.500 8.500 0.500
v 19.500 9.500 0.500
v 20.500 9.500 0.500
v 20.500 10.500 0.500
v 19.500 10.500 0.500
v 18.500 -0.500 7.500
v 18.500 -0.500 6.500
v 18.500 0.500 6.500
v 18.500 0.500 7.500
v 18.500 1.500 6.500
v 18.500 1.500 7.500
v 18.500 3.500 6.500
v 18.500 3.500 7.500
v 18.500 5.500 6.500
v 18.500 5.500 7.500
v 18.500 6.500 6.500
v 18.500 6.500 7.500
v 18.500 8.500 6.500
v 18.500 8.500 7.500
v 18.500 10.500 6.500
v 18.500 10.500 7.500
v 19.500 -0.500 -0.500
v 19.500 0.500 -0.500
v 19.500 1.500 -0.500
v 19.500 2.500 -0.500
v 19.500 4.500 -0.500
v 19.500 5.500 -0.500
v 19.500 8.500 -0.500
v 19.500 10.500 -0.500
v 20.500 10.500 -0.500
v 20.500 -0.500 -0.500
v 20.500 4.500 -0.500
v 19.500 3.500 -0.500
v 19.500 7.500 -0.500
v 19.500 9.500 -0.500
v 17.500 -0.500 -7.500
v 17.500 -0.500 -6.500
v 17.500 0.500 -6.500
v 17.500 0.500 -7.500
v 17.500 8.500 -6.500
v 17.500 8.500 -7.500
v 17.500 9.500 -6.500
v 17.500 9.500 -7.500
v 17.500 10.500 -6.500
v 17.500 10.500 -7.500
v 18.500 -0.500 -6.500
v 18.500 -0.500 -7.500
v 18.500 0.500 -7.500
v 18.500 0.500 -6.500
v 18.500 8.500 -7.500
v 18.500 8.500 -6.500
v 18.500 9.500 -7.500
v 18.500 9.500 -6.500
v 18.500 10.500 -7.500
v 18.500 10.500 -6.500
v 0.500 0.500 -19.500
v 0.500 0.500 -20.500
v 0.500 1.500 -20.500
v 0.500 1.500 -19.500
v -0.500 0.500 -20.500
v -0.500 0.500 -19.500
v -0.500 1.500 -19.500
v -0.500 1.500 -20.500
v 0.500 2.500 -20.500
v 0.500 2.500 -19.500
v -0.500 2.500 -19.500
v -0.500 2.500 -20.500
v 0.500 6.500 -19.500
v 0.500 6.500 -20.500
v 0.500 7.500 -20.500
v 0.500 7.500 -19.500
v -0.500 6.500 -20.500
v -0.500 6.500 -19.500
v -0.500 7.500 -19.500
v -0.500 7.500 -20.500
v 0.500 8.500 -20.500
v 0.500 8.500 -19.500
v -0.500 8.500 -19.500
v -0.500 8.500 -20.500
v 0.500 9.500 -20.500
v 0.500 9.500 -19.500
v -0.500 9.500 -19.500
v -0.500 9.500 -20.500
v 0.500 10.500 -20.500
v 0.500 10.500 -19.500
v -0.500 10.500 -19.500
v -0.500 10.500 -20.500
v -0.500 -0.500 -20.500
v -0.500 -0.500 -19.500
v -0.500 0.500 -19.500
v -0.500 0.500 -20.500
v -0.500 2.500 -20.500
v -0.500 2.500 -19.500
v -0.500 3.500 -19.500
v -0.500 3.500 -20.500
v -0.500 5.500 -19.500
v -0.500 5.500 -20.500
v -0.500 6.500 -19.500
v -0.500 6.500 -20.500
v 0.500 -0.500 -20.500
v 0.500 3.500 -20.500
v 0.500 5.500 -20.500
v 7.500 -0.500 -17.500
v 7.500 -0.500 -18.500
v 7.500 1.500 -18.500
v 7.500 1.500 -17.500
v 7.500 2.500 -18.500
v 7.500 2.500 -17.500
v 7.500 3.500 -18.500
v 7.500 3.500 -17.500
v 7.500 4.500 -18.500
v 7.500 4.500 -17.500
v 7.500 6.500 -18.500
v 7.500 6.500 -17.500
v 7.500 7.500 -18.500
v 7.500 7.500 -17.500
v 7.500 8.500 -18.500
v 7.500 8.500 -17.500
v 7.500 10.500 -18.500
v 7.500 10.500 -17.500
v 6.500 -0.500 -18.500
v 6.500 -0.500 -17.500
v 6.500 1.500 -17.500
v 6.500 1.500 -18.500
v 6.500 2.500 -17.500
v 6.500 2.500 -18.500
v 6.500 3.500 -17.500
v 6.500 3.500 -18.500
v 6.500 4.500 -17.500
v 6.500 4.500 -18.500
v 6.500 6.500 -17.500
v 6.500 6.500 -18.500
v 6.500 7.500 -17.500
v 6.500 7.500 -18.500
v 6.500 8.500 -17.500
v 6.500 8.500 -18.500
v 6.500 10.500 -17.500
v 6.500 10.500 -18.500
v 0.500 -0.500 -19.500
v 0.500 0.500 -19.500
v 0.500 2.500 -19.500
v 0.500 3.500 -19.500
v 0.500 5.500 -19.500
v 0.500 6.500 -19.500
v 6.046 10.360 -5.975
v 5.975 10.360 -6.046
v 5.975 8.510 -6.046
v 6.046 8.510 -5.975
v 6.046 10.360 -6.117
v 6.046 8.510 -6.117
v 6.117 10.360 -6.046
v 6.117 8.510 -6.046
v 6.335 10.459 -5.699
v 5.699 10.459 -6.335
v 5.699 10.359 -6.335
v 6.335 10.359 -5.699
v 5.769 10.459 -6.406
v 5.769 10.359 -6.406
v 6.406 10.459 -5.769
v 6.406 10.359 -5.769
v 6.412 10.459 -5.767
v 5.776 10.459 -6.403
v 5.776 8.659 -6.403
v 6.412 8.659 -5.767
v 5.802 10.459 -6.430
v 5.802 8.659 -6.430
v 6.439 10.459 -5.793
v 6.439 8.659 -5.793
v 2.954 46.360 -3.025
v 3.025 46.360 -2.954
v 3.025 44.510 -2.954
v 2.954 44.510 -3.025
v 2.954 46.360 -2.883
v 2.954 44.510 -2.883
v 2.883 46.360 -2.954
v 2.883 44.510 -2.954
v 2.665 46.459 -3.301
v 3.301 46.459 -2.665
v 3.301 46.359 -2.665
v 2.665 46.359 -3.301
v 3.231 46.459 -2.594
v 3.231 46.359 -2.594
v 2.594 46.459 -3.231
v 2.594 46.359 -3.231
v 2.588 46.459 -3.233
v 3.224 46.459 -2.597
v 3.224 44.659 -2.597
v 2.588 44.659 -3.233
v 3.198 46.459 -2.570
v 3.198 44.659 -2.570
v 2.561 46.459 -3.207
v 2.561 44.659 -3.207
v 6.022 27.875 -6.022
v 5.978 27.875 -5.978
v 5.978 27.938 -5.978
v 6.022 27.938 -6.022
v 6.022 27.875 -5.978
v 5.978 27.875 -6.022
v 5.978 27.938 -6.022
v 6.022 27.938 -5.978
v 6.022 33.875 -6.022
v 5.978 33.875 -5.978
v 5.978 33.938 -5.978
v 6.022 33.938 -6.022
v 6.022 33.875 -5.978
v 5.978 33.875 -6.022
v 5.978 33.938 -6.022
v 6.022 33.938 -5.978
v 0.500 -0.500 -0.500
v 0.500 -0.500 -1.500
v 0.500 0.500 -1.500
v 0.500 0.500 -0.500
v -0.500 -0.500 -1.500
v -0.500 -0.500 -0.500
v -0.500 0.500 -0.500
v -0.500 0.500 -1.500
v 0.500 1.500 -1.500
v 0.500 1.500 -0.500
v -0.500 1.500 -0.500
v -0.500 1.500 -1.500
v 0.500 2.500 -1.500
v 0.500 2.500 -0.500
v -0.500 2.500 -0.500
v -0.500 2.500 -1.500
v 0.500 3.500 -0.500
v 0.500 3.500 -1.500
v 0.500 4.500 -1.500
v 0.500 4.500 -0.500
v -0.500 3.500 -1.500
v -0.500 3.500 -0.500
v -0.500 4.500 -0.500
v -0.500 4.500 -1.500
v 0.500 5.500 -1.500
v 0.500 5.500 -0.500
v -0.500 5.500 -0.500
v -0.500 5.500 -1.500
v 0.500 6.500 -1.500
v 0.500 6.500 -0.500
v -0.500 6.500 -0.500
v -0.500 6.500 -1.500
v -0.063 31.500 -1.063
v -0.062 31.500 -0.938
v -0.062 32.500 -0.938
v -0.063 32.500 -1.063
v -0.500 32.500 -0.937
v -0.063 32.500 -0.938
v -0.063 33.500 -0.938
v -0.500 33.500 -0.937
v -0.063 33.500 -1.063
v -0.062 33.500 -0.938
v -0.062 34.500 -0.938
v -0.063 34.500 -1.063
v 0.500 32.500 -0.937
v 0.938 32.500 -0.938
v 0.938 33.500 -0.938
v 0.500 33.500 -0.937
v 7.063 30.500 -5.938
v 7.063 30.500 -6.063
v 7.063 31.500 -6.063
v 7.063 31.500 -5.938
v 0.938 32.500 -0.500
v 0.938 33.500 -0.500
v 1.063 32.500 -0.500
v 1.063 32.500 -1.063
v 1.063 33.500 -1.063
v 1.063 33.500 -0.500
v -0.063 31.500 -0.938
v -0.063 31.500 -0.500
v -0.063 34.500 -0.500
v -0.063 34.500 -0.938
v 0.500 2.500 -0.500
v 0.500 3.500 -0.500
v 6.063 27.500 -5.938
v 5.938 27.500 -5.938
v 5.938 27.500 -6.063
v 6.063 27.500 -6.063
v 14.500 -0.500 -14.500
v 13.500 -0.500 -14.500
v 13.500 0.500 -14.500
v 14.500 0.500 -14.500
v 13.500 4.500 -14.500
v 14.500 4.500 -14.500
v 13.500 5.500 -14.500
v 14.500 5.500 -14.500
v 13.500 6.500 -14.500
v 14.500 6.500 -14.500
v 13.500 8.500 -14.500
v 14.500 8.500 -14.500
v 13.500 10.500 -14.500
v 14.500 10.500 -14.500
v 5.938 29.500 -5.938
v 6.063 29.500 -5.938
v 6.063 29.500 -6.500
v 5.938 29.500 -6.500
v 6.063 29.500 -6.063
v 6.500 29.500 -5.938
v 6.500 29.500 -6.063
v 5.938 29.500 -5.500
v 6.063 29.500 -5.500
v 5.500 29.500 -6.063
v 5.500 29.500 -5.938
v 5.938 29.500 -6.063
v 5.500 29.500 -6.500
v 6.500 29.500 -6.500
v 6.500 29.500 -5.500
v 5.500 29.500 -5.500
v 13.500 -0.500 -13.500
v 14.500 -0.500 -13.500
v 14.500 0.500 -13.500
v 13.500 0.500 -13.500
v 14.500 4.500 -13.500
v 13.500 4.500 -13.500
v 14.500 5.500 -13.500
v 13.500 5.500 -13.500
v 14.500 6.500 -13.500
v 13.500 6.500 -13.500
v 14.500 8.500 -13.500
v 13.500 8.500 -13.500
v 14.500 10.500 -13.500
v 13.500 10.500 -13.500
v 5.500 8.500 -5.500
v 6.500 8.500 -5.500
v 6.500 8.500 -6.500
v 5.500 8.500 -6.500
v 6.063 28.500 -5.500
v 5.938 28.500 -5.500
v 5.938 28.500 -6.063
v 6.063 28.500 -6.063
v 5.938 28.500 -6.500
v 6.063 28.500 -6.500
v 6.063 28.500 -5.938
v 6.500 28.500 -6.063
v 6.500 28.500 -5.938
v 5.500 28.500 -5.938
v 5.500 28.500 -6.063
v 5.938 28.500 -5.938
v 6.500 -0.500 -5.500
v 6.500 -0.500 -6.500
v 6.500 2.500 -6.500
v 6.500 2.500 -5.500
v 6.500 4.500 -6.500
v 6.500 4.500 -5.500
v 6.500 5.500 -6.500
v 6.500 5.500 -5.500
v 6.500 6.500 -6.500
v 6.500 6.500 -5.500
v 6.500 30.500 -6.500
v 6.500 30.500 -5.500
v 6.500 31.500 -6.500
v 6.500 31.500 -5.500
v 6.500 32.500 -6.500
v 6.500 32.500 -5.500
v 6.500 32.500 -5.938
v 6.500 32.500 -6.063
v 6.500 33.500 -6.063
v 6.500 33.500 -5.938
v 5.500 -0.500 -6.500
v 5.500 -0.500 -5.500
v 5.500 2.500 -5.500
v 5.500 2.500 -6.500
v 5.500 4.500 -5.500
v 5.500 4.500 -6.500
v 5.500 5.500 -5.500
v 5.500 5.500 -6.500
v 5.500 6.500 -5.500
v 5.500 6.500 -6.500
v 5.500 30.500 -5.500
v 5.500 30.500 -6.500
v 5.500 31.500 -5.500
v 5.500 31.500 -6.500
v 5.500 32.500 -5.500
v 5.500 32.500 -6.500
v 5.500 32.500 -6.063
v 5.500 32.500 -5.938
v 5.500 33.500 -5.938
v 5.500 33.500 -6.063
v 5.938 33.875 -5.938
v 6.063 33.875 -5.938
v 6.063 33.875 -6.063
v 5.938 33.875 -6.063
v 5.938 32.500 -5.500
v 6.063 32.500 -5.500
v 6.063 33.500 -5.500
v 5.938 33.500 -5.500
v 5.938 27.875 -6.063
v 6.063 27.875 -6.063
v 6.063 32.500 -6.063
v 6.063 33.500 -6.063
v 5.938 32.500 -6.063
v 5.938 33.500 -6.063
v 6.500 30.500 -6.063
v 6.500 31.500 -6.063
v 6.063 32.500 -6.500
v 5.938 32.500 -6.500
v 5.938 33.500 -6.500
v 6.063 33.500 -6.500
v 5.938 27.875 -5.938
v 5.938 32.500 -5.938
v 5.938 33.500 -5.938
v -0.500 2.500 -1.500
v -0.500 3.500 -1.500
v 0.063 31.500 -1.063
v 0.063 32.500 -1.063
v 0.938 32.500 -1.063
v -0.500 32.500 -1.063
v -0.500 33.500 -1.063
v 0.938 33.500 -1.063
v 0.063 33.500 -1.063
v 0.063 34.500 -1.063
v 0.063 32.500 -0.938
v 0.500 32.500 -0.938
v 0.500 33.500 -0.938
v 0.063 33.500 -0.938
v 6.063 27.875 -5.938
v -0.500 2.500 -0.500
v -0.500 3.500 -0.500
v 6.938 30.500 -5.938
v 6.938 30.500 -6.063
v 6.500 30.500 -5.938
v 6.063 33.500 -5.938
v -0.063 33.500 -0.938
v 0.062 33.500 -1.063
v 0.500 33.500 -1.063
v -0.063 33.500 -0.500
v 0.063 33.500 -0.500
v -0.063 33.500 -1.063
v 1.063 33.500 -0.938
v 0.500 33.500 -1.063
v 0.063 34.500 -0.938
v 0.063 34.500 -0.500
v 6.938 31.500 -5.938
v 6.938 31.500 -6.063
v 6.500 31.500 -5.938
v 0.063 31.500 -0.500
v 6.063 32.500 -5.938
v -0.063 32.500 -0.938
v -0.063 32.500 -0.500
v 0.063 32.500 -0.500
v 0.062 32.500 -1.063
v 0.500 32.500 -1.063
v -0.063 32.500 -1.063
v 0.500 32.500 -1.063
v 0.063 31.500 -0.938
v -0.050 8.360 0.015
v 0.050 8.360 0.015
v 0.050 6.510 0.015
v -0.050 6.510 0.015
v 0.050 8.360 0.115
v 0.050 6.510 0.115
v -0.050 8.360 0.115
v -0.050 6.510 0.115
v -0.450 8.459 0.024
v 0.450 8.459 0.024
v 0.450 8.359 0.024
v -0.450 8.359 0.024
v 0.450 8.459 0.124
v 0.450 8.359 0.124
v -0.450 8.459 0.124
v -0.450 8.359 0.124
v -0.456 8.459 0.127
v 0.444 8.459 0.127
v 0.444 6.659 0.127
v -0.456 6.659 0.127
v 0.444 8.459 0.164
v 0.444 6.659 0.164
v -0.456 8.459 0.164
v -0.456 6.659 0.164
v 3.025 46.360 2.954
v 2.954 46.360 3.025
v 2.954 44.510 3.025
v 3.025 44.510 2.954
v 2.883 46.360 2.954
v 2.883 44.510 2.954
v 2.954 46.360 2.883
v 2.954 44.510 2.883
v 3.301 46.459 2.665
v 2.665 46.459 3.301
v 2.665 46.359 3.301
v 3.301 46.359 2.665
v 2.594 46.459 3.231
v 2.594 46.359 3.231
v 3.231 46.459 2.594
v 3.231 46.359 2.594
v 3.233 46.459 2.588
v 2.597 46.459 3.224
v 2.597 44.659 3.224
v 3.233 44.659 2.588
v 2.570 46.459 3.198
v 2.570 44.659 3.198
v 3.207 46.459 2.561
v 3.207 44.659 2.561
v 5.975 10.360 6.046
v 6.046 10.360 5.975
v 6.046 8.510 5.975
v 5.975 8.510 6.046
v 6.117 10.360 6.046
v 6.117 8.510 6.046
v 6.046 10.360 6.117
v 6.046 8.510 6.117
v 5.699 10.459 6.335
v 6.335 10.459 5.699
v 6.335 10.359 5.699
v 5.699 10.359 6.335
v 6.406 10.459 5.769
v 6.406 10.359 5.769
v 5.769 10.459 6.406
v 5.769 10.359 6.406
v 5.767 10.459 6.412
v 6.403 10.459 5.776
v 6.403 8.659 5.776
v 5.767 8.659 6.412
v 6.430 10.459 5.802
v 6.430 8.659 5.802
v 5.793 10.459 6.439
v 5.793 8.659 6.439
v 0.477 29.500 0.477
v -0.477 29.500 -0.477
v -0.477 28.500 -0.477
v 0.477 28.500 0.477
v -0.477 29.500 0.477
v 0.477 29.500 -0.477
v 0.477 28.500 -0.477
v -0.477 28.500 0.477
v 0.477 30.500 0.477
v -0.477 30.500 -0.477
v -0.477 29.500 -0.477
v 0.477 29.500 0.477
v -0.477 30.500 0.477
v 0.477 30.500 -0.477
v 0.477 29.500 -0.477
v -0.477 29.500 0.477
v 0.477 31.500 0.477
v -0.477 31.500 -0.477
v -0.477 30.500 -0.477
v 0.477 30.500 0.477
v -0.477 31.500 0.477
v 0.477 31.500 -0.477
v 0.477 30.500 -0.477
v -0.477 30.500 0.477
v 0.477 34.500 -0.477
v -0.477 34.500 0.477
v -0.477 35.500 0.477
v 0.477 35.500 -0.477
v -0.477 34.500 -0.477
v 0.477 34.500 0.477
v 0.477 35.500 0.477
v -0.477 35.500 -0.477
v -0.477 36.500 0.477
v 0.477 36.500 -0.477
v 0.477 36.500 0.477
v -0.477 36.500 -0.477
v -0.477 37.500 0.477
v 0.477 37.500 -0.477
v 0.477 37.500 0.477
v -0.477 37.500 -0.477
v 0.500 5.500 0.500
v 1.500 5.500 0.500
v 1.500 6.500 0.500
v 0.500 6.500 0.500
v 1.500 5.500 -0.500
v 0.500 5.500 -0.500
v 0.500 6.500 -0.500
v 1.500 6.500 -0.500
v 0.500 31.500 0.063
v 0.938 31.500 0.063
v 0.938 32.500 0.063
v 0.500 32.500 0.063
v 0.938 33.500 0.063
v 0.500 33.500 0.063
v 0.938 34.500 0.063
v 0.500 34.500 0.063
v -0.500 0.500 1.500
v 0.500 0.500 1.500
v 0.500 1.500 1.500
v -0.500 1.500 1.500
v 0.500 0.500 0.500
v 0.500 1.500 0.500
v -0.500 0.500 0.500
v -0.500 1.500 0.500
v 0.500 2.500 1.500
v -0.500 2.500 1.500
v 0.500 2.500 0.500
v -0.500 2.500 0.500
v 0.500 3.500 1.500
v -0.500 3.500 1.500
v 0.500 3.500 0.500
v -0.500 3.500 0.500
v -0.500 4.500 1.500
v 0.500 4.500 1.500
v 0.500 5.500 1.500
v -0.500 5.500 1.500
v 0.500 4.500 0.500
v 0.500 5.500 0.500
v -0.500 4.500 0.500
v -0.500 5.500 0.500
v 0.500 6.500 1.500
v -0.500 6.500 1.500
v 0.500 6.500 0.500
v -0.500 6.500 0.500
v -0.063 31.500 0.937
v -0.062 31.500 1.063
v -0.062 32.500 1.063
v -0.063 32.500 0.937
v -0.063 33.500 0.937
v -0.062 33.500 1.063
v -0.062 34.500 1.063
v -0.063 34.500 0.937
v 6.022 27.875 5.978
v 5.978 27.875 6.022
v 5.978 27.938 6.022
v 6.022 27.938 5.978
v 6.022 27.875 6.022
v 5.978 27.875 5.978
v 5.978 27.938 5.978
v 6.022 27.938 6.022
v 6.022 33.875 5.978
v 5.978 33.875 6.022
v 5.978 33.938 6.022
v 6.022 33.938 5.978
v 6.022 33.875 6.022
v 5.978 33.875 5.978
v 5.978 33.938 5.978
v 6.022 33.938 6.022
v 0.938 32.500 0.938
v 0.062 32.500 0.938
v 0.062 33.500 0.938
v 0.938 33.500 0.938
v -0.063 32.500 0.938
v -0.500 32.500 0.938
v -0.500 33.500 0.938
v -0.063 33.500 0.938
v -0.063 31.500 1.063
v 0.063 31.500 1.063
v 0.063 32.500 1.063
v -0.063 32.500 1.063
v 1.063 32.500 1.063
v 1.063 33.500 1.063
v -0.063 33.500 1.063
v -0.500 32.500 1.063
v -0.500 33.500 1.063
v 0.063 33.500 1.063
v 0.063 34.500 1.063
v -0.063 34.500 1.063
v 14.500 -0.500 13.500
v 13.500 -0.500 13.500
v 13.500 0.500 13.500
v 14.500 0.500 13.500
v 13.500 1.500 13.500
v 14.500 1.500 13.500
v 13.500 2.500 13.500
v 14.500 2.500 13.500
v 13.500 3.500 13.500
v 14.500 3.500 13.500
v 13.500 4.500 13.500
v 14.500 4.500 13.500
v 13.500 5.500 13.500
v 14.500 5.500 13.500
v 13.500 6.500 13.500
v 14.500 6.500 13.500
v 13.500 7.500 13.500
v 14.500 7.500 13.500
v 13.500 8.500 13.500
v 14.500 8.500 13.500
v 13.500 10.500 13.500
v 14.500 10.500 13.500
v -0.500 6.500 0.500
v 0.500 6.500 -0.500
v -0.500 6.500 -0.500
v 0.938 32.500 -0.500
v 0.938 32.500 -0.063
v 0.938 33.500 -0.063
v 0.938 33.500 -0.500
v 1.063 31.500 0.063
v 1.063 31.500 -0.063
v 1.063 34.500 -0.063
v 1.063 34.500 0.063
v 1.063 32.500 -0.063
v 1.063 32.500 -0.500
v 1.063 33.500 -0.500
v 1.063 33.500 -0.063
v 1.063 32.500 0.938
v 1.063 32.500 0.063
v 1.063 33.500 0.063
v 1.063 33.500 0.938
v -0.063 31.500 0.500
v -0.063 31.500 0.938
v -0.063 34.500 0.938
v -0.063 34.500 0.500
v 0.500 31.500 0.500
v 0.500 31.500 -0.500
v 0.500 34.500 -0.500
v 0.500 34.500 0.500
v 0.500 -0.500 1.500
v 0.500 -0.500 0.500
v 0.500 0.500 1.500
v 0.500 3.500 1.500
v 0.500 4.500 1.500
v 6.063 27.500 6.063
v 5.938 27.500 6.063
v 5.938 27.500 5.938
v 6.063 27.500 5.938
v 5.938 29.500 6.063
v 6.063 29.500 6.063
v 6.063 29.500 5.500
v 5.938 29.500 5.500
v 6.063 29.500 5.938
v 6.500 29.500 6.063
v 6.500 29.500 5.938
v 5.938 29.500 6.500
v 6.063 29.500 6.500
v 5.500 29.500 5.938
v 5.500 29.500 6.063
v 5.938 29.500 5.938
v 5.500 29.500 5.500
v 6.500 29.500 5.500
v 6.500 29.500 6.500
v 5.500 29.500 6.500
v 5.500 8.500 6.500
v 6.500 8.500 6.500
v 6.500 8.500 5.500
v 5.500 8.500 5.500
v 6.063 28.500 6.500
v 5.938 28.500 6.500
v 5.938 28.500 5.938
v 6.063 28.500 5.938
v 5.938 28.500 5.500
v 6.063 28.500 5.500
v 6.063 28.500 6.063
v 6.500 28.500 5.938
v 6.500 28.500 6.063
v 5.500 28.500 6.063
v 5.500 28.500 5.938
v 5.938 28.500 6.063
v 6.500 -0.500 6.500
v 6.500 -0.500 5.500
v 6.500 2.500 5.500
v 6.500 2.500 6.500
v 6.500 5.500 5.500
v 6.500 5.500 6.500
v 6.500 30.500 5.500
v 6.500 30.500 6.500
v 6.500 31.500 5.500
v 6.500 31.500 6.500
v 6.500 32.500 5.500
v 6.500 32.500 6.500
v 6.500 32.500 6.063
v 6.500 32.500 5.938
v 6.500 33.500 5.938
v 6.500 33.500 6.063
v 5.500 -0.500 5.500
v 5.500 -0.500 6.500
v 5.500 2.500 6.500
v 5.500 2.500 5.500
v 5.500 5.500 6.500
v 5.500 5.500 5.500
v 5.500 30.500 6.500
v 5.500 30.500 5.500
v 5.500 31.500 6.500
v 5.500 31.500 5.500
v 5.500 32.500 6.500
v 5.500 32.500 5.500
v 5.500 32.500 5.938
v 5.500 32.500 6.063
v 5.500 33.500 6.063
v 5.500 33.500 5.938
v 5.938 27.875 5.938
v 6.063 27.875 5.938
v 6.063 32.500 5.938
v 6.063 33.500 5.938
v 5.938 32.500 5.938
v 5.938 33.500 5.938
v 5.938 33.875 5.938
v 6.063 33.875 5.938
v 5.938 33.875 6.063
v 6.063 33.875 6.063
v 1.500 -0.500 0.500
v 1.500 -0.500 -0.500
v 1.500 0.500 -0.500
v 1.500 0.500 0.500
v 1.500 3.500 -0.500
v 1.500 3.500 0.500
v 1.500 5.500 -0.500
v 1.500 5.500 0.500
v 0.938 31.500 -0.063
v 0.938 34.500 -0.063
v 5.938 27.875 6.063
v 5.938 32.500 5.500
v 5.938 33.500 5.500
v 5.938 32.500 6.063
v 5.938 32.500 6.500
v 5.938 33.500 6.500
v 5.938 33.500 6.063
v -0.500 31.500 -0.500
v -0.500 34.500 -0.500
v 0.500 -0.500 -0.500
v 0.500 0.500 -0.500
v 0.500 3.500 -0.500
v 0.500 5.500 -0.500
v 13.500 -0.500 14.500
v 14.500 -0.500 14.500
v 14.500 0.500 14.500
v 13.500 0.500 14.500
v 14.500 1.500 14.500
v 13.500 1.500 14.500
v 14.500 2.500 14.500
v 13.500 2.500 14.500
v 14.500 3.500 14.500
v 13.500 3.500 14.500
v 14.500 4.500 14.500
v 13.500 4.500 14.500
v 14.500 5.500 14.500
v 13.500 5.500 14.500
v 14.500 6.500 14.500
v 13.500 6.500 14.500
v 14.500 7.500 14.500
v 13.500 7.500 14.500
v 14.500 8.500 14.500
v 13.500 8.500 14.500
v 14.500 10.500 14.500
v 13.500 10.500 14.500
v -0.500 -0.500 -0.500
v 0.500 -0.500 0.500
v -0.500 -0.500 0.500
v -0.500 -0.500 1.500
v -0.500 -0.500 0.500
v 0.938 31.500 -0.062
v 0.500 31.500 -0.062
v 0.500 34.500 -0.062
v 0.938 34.500 -0.062
v 6.063 27.875 6.063
v -0.500 31.500 0.500
v -0.500 34.500 0.500
v -0.500 0.500 1.500
v -0.500 0.500 0.500
v -0.500 3.500 0.500
v -0.500 3.500 1.500
v -0.500 4.500 1.500
v -0.500 4.500 0.500
v 6.063 32.500 6.063
v 6.063 33.500 6.063
v 0.938 33.500 0.500
v 1.063 33.500 0.500
v 0.500 33.500 -0.062
v 0.938 33.500 -0.062
v -0.063 33.500 1.063
v 0.063 33.500 0.500
v -0.063 33.500 0.500
v 0.500 33.500 1.063
v 0.500 33.500 0.938
v -0.063 33.500 0.938
v 0.063 33.500 0.938
v 0.938 33.500 1.063
v 0.500 33.500 0.938
v 6.063 33.500 5.500
v 6.063 33.500 6.500
v 6.063 32.500 6.500
v -0.063 34.500 1.063
v 0.063 34.500 0.500
v 6.063 32.500 5.500
v -0.063 31.500 1.063
v 0.063 31.500 0.938
v 0.063 31.500 0.500
v 0.500 32.500 -0.062
v 0.938 32.500 -0.062
v 1.063 32.500 0.500
v 0.938 32.500 0.500
v -0.063 32.500 1.063
v 0.063 32.500 0.500
v -0.063 32.500 0.500
v -0.063 32.500 0.938
v 0.063 32.500 0.938
v 0.500 32.500 0.938
v 0.500 32.500 1.063
v 0.938 32.500 1.063
v 0.500 32.500 0.938
v 0.063 34.500 0.938
v -17.500 -0.500 -6.500
v -17.500 -0.500 -7.500
v -17.500 3.500 -7.500
v -17.500 3.500 -6.500
v -17.500 7.500 -7.500
v -17.500 7.500 -6.500
v -17.500 8.500 -7.500
v -17.500 8.500 -6.500
v -17.500 9.500 -7.500
v -17.500 9.500 -6.500
v -17.500 10.500 -7.500
v -17.500 10.500 -6.500
v -18.500 -0.500 -7.500
v -18.500 -0.500 -6.500
v -18.500 3.500 -6.500
v -18.500 3.500 -7.500
v -18.500 7.500 -6.500
v -18.500 7.500 -7.500
v -18.500 8.500 -6.500
v -18.500 8.500 -7.500
v -18.500 9.500 -6.500
v -18.500 9.500 -7.500
v -18.500 10.500 -6.500
v -18.500 10.500 -7.500
v -6.500 10.500 -18.500
v -7.500 10.500 -18.500
v -7.500 10.500 -17.500
v -6.500 10.500 -17.500
v -7.500 -0.500 -18.500
v -6.500 -0.500 -18.500
v -6.500 -0.500 -17.500
v -7.500 -0.500 -17.500
v -7.500 0.500 -18.500
v -6.500 0.500 -18.500
v -7.500 2.500 -18.500
v -6.500 2.500 -18.500
v -7.500 3.500 -18.500
v -6.500 3.500 -18.500
v -7.500 9.500 -18.500
v -6.500 9.500 -18.500
v -6.500 0.500 -17.500
v -7.500 0.500 -17.500
v -6.500 2.500 -17.500
v -7.500 2.500 -17.500
v -6.500 3.500 -17.500
v -7.500 3.500 -17.500
v -6.500 9.500 -17.500
v -7.500 9.500 -17.500
v -5.975 10.360 -6.046
v -6.046 10.360 -5.975
v -6.046 8.510 -5.975
v -5.975 8.510 -6.046
v -6.117 10.360 -6.046
v -6.117 8.510 -6.046
v -6.046 10.360 -6.117
v -6.046 8.510 -6.117
v -5.699 10.459 -6.335
v -6.335 10.459 -5.699
v -6.335 10.359 -5.699
v -5.699 10.359 -6.335
v -6.406 10.459 -5.769
v -6.406 10.359 -5.769
v -5.769 10.459 -6.406
v -5.769 10.359 -6.406
v -5.767 10.459 -6.412
v -6.403 10.459 -5.776
v -6.403 8.659 -5.776
v -5.767 8.659 -6.412
v -6.430 10.459 -5.802
v -6.430 8.659 -5.802
v -5.793 10.459 -6.439
v -5.793 8.659 -6.439
v -3.025 46.360 -2.954
v -2.954 46.360 -3.025
v -2.954 44.510 -3.025
v -3.025 44.510 -2.954
v -2.883 46.360 -2.954
v -2.883 44.510 -2.954
v -2.954 46.360 -2.883
v -2.954 44.510 -2.883
v -3.301 46.459 -2.665
v -2.665 46.459 -3.301
v -2.665 46.359 -3.301
v -3.301 46.359 -2.665
v -2.594 46.459 -3.231
v -2.594 46.359 -3.231
v -3.231 46.459 -2.594
v -3.231 46.359 -2.594
v -3.233 46.459 -2.588
v -2.597 46.459 -3.224
v -2.597 44.659 -3.224
v -3.233 44.659 -2.588
v -2.570 46.459 -3.198
v -2.570 44.659 -3.198
v -3.207 46.459 -2.561
v -3.207 44.659 -2.561
v -5.978 27.875 -6.022
v -6.022 27.875 -5.978
v -6.022 27.938 -5.978
v -5.978 27.938 -6.022
v -5.978 27.875 -5.978
v -6.022 27.875 -6.022
v -6.022 27.938 -6.022
v -5.978 27.938 -5.978
v -5.978 33.875 -6.022
v -6.022 33.875 -5.978
v -6.022 33.938 -5.978
v -5.978 33.938 -6.022
v -5.978 33.875 -5.978
v -6.022 33.875 -6.022
v -6.022 33.938 -6.022
v -5.978 33.938 -5.978
v -5.938 27.500 -5.938
v -5.938 27.500 -6.063
v -5.938 27.875 -6.063
v -5.938 27.875 -5.938
v -5.938 28.500 -6.063
v -5.938 28.500 -6.500
v -5.938 29.500 -6.500
v -5.938 29.500 -6.063
v -5.938 28.500 -5.500
v -5.938 28.500 -5.938
v -5.938 29.500 -5.938
v -5.938 29.500 -5.500
v -5.938 32.500 -6.063
v -5.938 32.500 -6.500
v -5.938 33.500 -6.500
v -5.938 33.500 -6.063
v -5.938 32.500 -5.500
v -5.938 32.500 -5.938
v -5.938 33.500 -5.938
v -5.938 33.500 -5.500
v -5.938 33.875 -6.063
v -5.938 33.875 -5.938
v -6.063 27.500 -5.938
v -6.063 27.500 -6.063
v -13.500 -0.500 -14.500
v -14.500 -0.500 -14.500
v -14.500 0.500 -14.500
v -13.500 0.500 -14.500
v -14.500 1.500 -14.500
v -13.500 1.500 -14.500
v -14.500 4.500 -14.500
v -13.500 4.500 -14.500
v -14.500 7.500 -14.500
v -13.500 7.500 -14.500
v -14.500 10.500 -14.500
v -13.500 10.500 -14.500
v -6.063 29.500 -5.938
v -6.063 29.500 -6.500
v -5.500 29.500 -5.938
v -5.500 29.500 -6.063
v -6.063 29.500 -5.500
v -6.500 29.500 -6.063
v -6.500 29.500 -5.938
v -6.063 29.500 -6.063
v -5.500 29.500 -6.500
v -5.500 29.500 -5.500
v -6.500 29.500 -5.500
v -6.500 29.500 -6.500
v -14.500 -0.500 -13.500
v -13.500 -0.500 -13.500
v -13.500 0.500 -13.500
v -14.500 0.500 -13.500
v -13.500 1.500 -13.500
v -14.500 1.500 -13.500
v -13.500 4.500 -13.500
v -14.500 4.500 -13.500
v -13.500 7.500 -13.500
v -14.500 7.500 -13.500
v -13.500 10.500 -13.500
v -14.500 10.500 -13.500
v -6.500 8.500 -5.500
v -5.500 8.500 -5.500
v -5.500 8.500 -6.500
v -6.500 8.500 -6.500
v -6.063 28.500 -5.500
v -6.063 28.500 -6.063
v -6.063 28.500 -6.500
v -5.500 28.500 -6.063
v -5.500 28.500 -5.938
v -6.500 28.500 -5.938
v -6.500 28.500 -6.063
v -6.063 28.500 -5.938
v -6.063 27.875 -5.938
v -6.063 27.875 -6.063
v -6.063 32.500 -6.500
v -6.063 32.500 -6.063
v -6.063 33.500 -6.063
v -6.063 33.500 -6.500
v -6.063 32.500 -5.938
v -6.063 32.500 -5.500
v -6.063 33.500 -5.500
v -6.063 33.500 -5.938
v -6.063 33.875 -5.938
v -6.063 33.875 -6.063
v -6.500 -0.500 -5.500
v -5.500 -0.500 -5.500
v -5.500 1.500 -5.500
v -6.500 1.500 -5.500
v -5.500 2.500 -5.500
v -6.500 2.500 -5.500
v -5.500 3.500 -5.500
v -6.500 3.500 -5.500
v -5.500 5.500 -5.500
v -6.500 5.500 -5.500
v -5.500 6.500 -5.500
v -6.500 6.500 -5.500
v -5.500 30.500 -5.500
v -6.500 30.500 -5.500
v -5.500 31.500 -5.500
v -6.500 31.500 -5.500
v -5.500 32.500 -5.500
v -6.500 32.500 -5.500
v -5.500 32.500 -6.063
v -5.500 33.500 -6.063
v -6.500 32.500 -6.063
v -6.500 33.500 -6.063
v -5.500 -0.500 -6.500
v -6.500 -0.500 -6.500
v -6.500 1.500 -6.500
v -5.500 1.500 -6.500
v -6.500 2.500 -6.500
v -5.500 2.500 -6.500
v -6.500 3.500 -6.500
v -5.500 3.500 -6.500
v -6.500 5.500 -6.500
v -5.500 5.500 -6.500
v -6.500 6.500 -6.500
v -5.500 6.500 -6.500
v -6.500 30.500 -6.500
v -5.500 30.500 -6.500
v -6.500 31.500 -6.500
v -5.500 31.500 -6.500
v -6.500 32.500 -6.500
v -5.500 32.500 -6.500
v -0.500 32.500 -1.063
v -1.063 32.500 -1.063
v -1.063 33.500 -1.063
v -0.500 33.500 -1.063
v -0.938 32.500 -0.938
v -0.500 32.500 -0.938
v -0.500 33.500 -0.938
v -0.938 33.500 -0.938
v -1.063 32.500 -0.500
v -1.063 33.500 -0.500
v -5.500 33.500 -5.938
v -6.500 33.500 -5.938
v -1.063 33.500 -0.938
v -0.938 33.500 -1.063
v -0.938 33.500 -0.500
v -0.938 32.500 -0.500
v -5.500 32.500 -5.938
v -6.500 32.500 -5.938
v -0.938 32.500 -1.063
v -7.500 10.500 18.500
v -6.500 10.500 18.500
v -6.500 10.500 17.500
v -7.500 10.500 17.500
v -7.500 -0.500 17.500
v -6.500 -0.500 17.500
v -6.500 -0.500 18.500
v -7.500 -0.500 18.500
v -6.500 0.500 18.500
v -7.500 0.500 18.500
v -6.500 1.500 18.500
v -7.500 1.500 18.500
v -6.500 3.500 18.500
v -7.500 3.500 18.500
v -6.500 5.500 18.500
v -7.500 5.500 18.500
v -6.500 6.500 18.500
v -7.500 6.500 18.500
v -6.500 8.500 18.500
v -7.500 8.500 18.500
v -6.500 0.500 17.500
v -6.500 1.500 17.500
v -6.500 3.500 17.500
v -6.500 5.500 17.500
v -6.500 6.500 17.500
v -6.500 8.500 17.500
v -7.500 0.500 17.500
v -7.500 1.500 17.500
v -7.500 3.500 17.500
v -7.500 5.500 17.500
v -7.500 6.500 17.500
v -7.500 8.500 17.500
v -20.500 -0.500 0.500
v -19.500 -0.500 0.500
v -19.500 0.500 0.500
v -20.500 0.500 0.500
v -19.500 -0.500 -0.500
v -20.500 -0.500 -0.500
v -20.500 0.500 -0.500
v -19.500 0.500 -0.500
v -20.500 3.500 0.500
v -19.500 3.500 0.500
v -19.500 4.500 0.500
v -20.500 4.500 0.500
v -19.500 3.500 -0.500
v -20.500 3.500 -0.500
v -20.500 4.500 -0.500
v -19.500 4.500 -0.500
v -20.500 5.500 0.500
v -19.500 5.500 0.500
v -19.500 6.500 0.500
v -20.500 6.500 0.500
v -19.500 5.500 -0.500
v -20.500 5.500 -0.500
v -20.500 6.500 -0.500
v -19.500 6.500 -0.500
v -20.500 0.500 0.500
v -19.500 0.500 0.500
v -19.500 1.500 0.500
v -20.500 1.500 0.500
v -19.500 3.500 0.500
v -20.500 3.500 0.500
v -20.500 4.500 0.500
v -19.500 4.500 0.500
v -19.500 5.500 0.500
v -20.500 5.500 0.500
v -20.500 6.500 0.500
v -19.500 6.500 0.500
v -19.500 8.500 0.500
v -20.500 8.500 0.500
v -19.500 10.500 0.500
v -20.500 10.500 0.500
v -17.500 -0.500 7.500
v -17.500 -0.500 6.500
v -17.500 0.500 6.500
v -17.500 0.500 7.500
v -17.500 1.500 6.500
v -17.500 1.500 7.500
v -17.500 2.500 6.500
v -17.500 2.500 7.500
v -17.500 6.500 6.500
v -17.500 6.500 7.500
v -17.500 7.500 6.500
v -17.500 7.500 7.500
v -17.500 8.500 6.500
v -17.500 8.500 7.500
v -17.500 9.500 6.500
v -17.500 9.500 7.500
v -17.500 10.500 6.500
v -17.500 10.500 7.500
v -18.500 -0.500 6.500
v -18.500 -0.500 7.500
v -18.500 0.500 7.500
v -18.500 0.500 6.500
v -18.500 1.500 7.500
v -18.500 1.500 6.500
v -18.500 2.500 7.500
v -18.500 2.500 6.500
v -18.500 6.500 7.500
v -18.500 6.500 6.500
v -18.500 7.500 7.500
v -18.500 7.500 6.500
v -18.500 8.500 7.500
v -18.500 8.500 6.500
v -18.500 9.500 7.500
v -18.500 9.500 6.500
v -18.500 10.500 7.500
v -18.500 10.500 6.500
v -19.500 1.500 -0.500
v -19.500 8.500 -0.500
v -19.500 10.500 -0.500
v -20.500 10.500 -0.500
v -20.500 0.500 -0.500
v -20.500 1.500 -0.500
v -20.500 4.500 -0.500
v -20.500 6.500 -0.500
v -20.500 8.500 -0.500
v -20.500 3.500 -0.500
v -20.500 5.500 -0.500
v -2.954 46.360 3.025
v -3.025 46.360 2.954
v -3.025 44.510 2.954
v -2.954 44.510 3.025
v -2.954 46.360 2.883
v -2.954 44.510 2.883
v -2.883 46.360 2.954
v -2.883 44.510 2.954
v -2.665 46.459 3.301
v -3.301 46.459 2.665
v -3.301 46.359 2.665
v -2.665 46.359 3.301
v -3.231 46.459 2.594
v -3.231 46.359 2.594
v -2.594 46.459 3.231
v -2.594 46.359 3.231
v -2.588 46.459 3.233
v -3.224 46.459 2.597
v -3.224 44.659 2.597
v -2.588 44.659 3.233
v -3.198 46.459 2.570
v -3.198 44.659 2.570
v -2.561 46.459 3.207
v -2.561 44.659 3.207
v -6.046 10.360 5.975
v -5.975 10.360 6.046
v -5.975 8.510 6.046
v -6.046 8.510 5.975
v -6.046 10.360 6.117
v -6.046 8.510 6.117
v -6.117 10.360 6.046
v -6.117 8.510 6.046
v -6.335 10.459 5.699
v -5.699 10.459 6.335
v -5.699 10.359 6.335
v -6.335 10.359 5.699
v -5.769 10.459 6.406
v -5.769 10.359 6.406
v -6.406 10.459 5.769
v -6.406 10.359 5.769
v -6.412 10.459 5.767
v -5.776 10.459 6.403
v -5.776 8.659 6.403
v -6.412 8.659 5.767
v -5.802 10.459 6.430
v -5.802 8.659 6.430
v -6.439 10.459 5.793
v -6.439 8.659 5.793
v -1.500 0.500 0.500
v -0.500 0.500 0.500
v -0.500 1.500 0.500
v -1.500 1.500 0.500
v -0.500 0.500 -0.500
v -1.500 0.500 -0.500
v -1.500 1.500 -0.500
v -0.500 1.500 -0.500
v -0.500 2.500 0.500
v -1.500 2.500 0.500
v -1.500 2.500 -0.500
v -0.500 2.500 -0.500
v -0.500 3.500 0.500
v -1.500 3.500 0.500
v -1.500 3.500 -0.500
v -0.500 3.500 -0.500
v -1.500 4.500 0.500
v -0.500 4.500 0.500
v -0.500 5.500 0.500
v -1.500 5.500 0.500
v -0.500 4.500 -0.500
v -1.500 4.500 -0.500
v -1.500 5.500 -0.500
v -0.500 5.500 -0.500
v -5.978 27.875 5.978
v -6.022 27.875 6.022
v -6.022 27.938 6.022
v -5.978 27.938 5.978
v -5.978 27.875 6.022
v -6.022 27.875 5.978
v -6.022 27.938 5.978
v -5.978 27.938 6.022
v -5.978 33.875 5.978
v -6.022 33.875 6.022
v -6.022 33.938 6.022
v -5.978 33.938 5.978
v -5.978 33.875 6.022
v -6.022 33.875 5.978
v -6.022 33.938 5.978
v -5.978 33.938 6.022
v -0.500 32.500 0.938
v -0.938 32.500 0.938
v -0.938 33.500 0.938
v -0.500 33.500 0.938
v -1.063 32.500 1.063
v -0.500 32.500 1.063
v -0.500 33.500 1.063
v -1.063 33.500 1.063
v -5.938 27.500 6.063
v -5.938 27.500 5.938
v -5.938 27.875 5.938
v -5.938 27.875 6.063
v -5.938 28.500 5.938
v -5.938 28.500 5.500
v -5.938 29.500 5.500
v -5.938 29.500 5.938
v -5.938 28.500 6.500
v -5.938 28.500 6.063
v -5.938 29.500 6.063
v -5.938 29.500 6.500
v -5.938 32.500 5.938
v -5.938 32.500 5.500
v -5.938 33.500 5.500
v -5.938 33.500 5.938
v -5.938 32.500 6.500
v -5.938 32.500 6.063
v -5.938 33.500 6.063
v -5.938 33.500 6.500
v -5.938 33.875 5.938
v -5.938 33.875 6.063
v -13.500 -0.500 13.500
v -14.500 -0.500 13.500
v -14.500 0.500 13.500
v -13.500 0.500 13.500
v -14.500 1.500 13.500
v -13.500 1.500 13.500
v -14.500 4.500 13.500
v -13.500 4.500 13.500
v -14.500 5.500 13.500
v -13.500 5.500 13.500
v -14.500 6.500 13.500
v -13.500 6.500 13.500
v -14.500 7.500 13.500
v -13.500 7.500 13.500
v -14.500 9.500 13.500
v -13.500 9.500 13.500
v -14.500 10.500 13.500
v -13.500 10.500 13.500
v -1.500 6.500 0.500
v -0.500 6.500 0.500
v -0.500 6.500 -0.500
v -1.500 6.500 -0.500
v -6.063 27.500 6.063
v -6.063 27.500 5.938
v -6.063 29.500 6.063
v -6.063 29.500 5.500
v -5.500 29.500 6.063
v -5.500 29.500 5.938
v -6.063 29.500 6.500
v -6.500 29.500 5.938
v -6.500 29.500 6.063
v -6.063 29.500 5.938
v -6.500 29.500 6.500
v -6.500 29.500 5.500
v -5.500 29.500 5.500
v -5.500 29.500 6.500
v -5.500 8.500 5.500
v -6.500 8.500 5.500
v -6.500 8.500 6.500
v -5.500 8.500 6.500
v -6.063 28.500 6.500
v -6.063 28.500 5.938
v -6.063 28.500 5.500
v -5.500 28.500 5.938
v -5.500 28.500 6.063
v -6.500 28.500 6.063
v -6.500 28.500 5.938
v -6.063 28.500 6.063
v -6.063 27.875 6.063
v -6.063 27.875 5.938
v -6.063 32.500 5.500
v -6.063 32.500 5.938
v -6.063 33.500 5.938
v -6.063 33.500 5.500
v -6.063 32.500 6.063
v -6.063 32.500 6.500
v -6.063 33.500 6.500
v -6.063 33.500 6.063
v -6.063 33.875 6.063
v -6.063 33.875 5.938
v -5.500 32.500 5.938
v -5.500 33.500 5.938
v -6.500 32.500 5.938
v -6.500 33.500 5.938
v -0.500 31.500 -0.063
v -1.063 31.500 -0.063
v -1.063 32.500 -0.063
v -0.500 32.500 -0.063
v -0.938 32.500 -0.063
v -0.938 33.500 -0.063
v -0.500 33.500 -0.063
v -1.063 33.500 -0.063
v -1.063 34.500 -0.063
v -0.500 34.500 -0.063
v -0.500 -0.500 -0.500
v -1.500 -0.500 -0.500
v -1.500 0.500 -0.500
v -1.500 3.500 -0.500
v -1.500 4.500 -0.500
v -1.500 5.500 -0.500
v -14.500 -0.500 14.500
v -13.500 -0.500 14.500
v -13.500 0.500 14.500
v -14.500 0.500 14.500
v -13.500 1.500 14.500
v -14.500 1.500 14.500
v -13.500 4.500 14.500
v -14.500 4.500 14.500
v -13.500 5.500 14.500
v -14.500 5.500 14.500
v -13.500 6.500 14.500
v -14.500 6.500 14.500
v -13.500 7.500 14.500
v -14.500 7.500 14.500
v -13.500 9.500 14.500
v -14.500 9.500 14.500
v -13.500 10.500 14.500
v -14.500 10.500 14.500
v -0.500 -0.500 0.500
v -1.500 -0.500 0.500
v -6.500 -0.500 5.500
v -5.500 -0.500 5.500
v -5.500 -0.500 6.500
v -6.500 -0.500 6.500
v -1.063 31.500 0.063
v -1.063 34.500 0.063
v -1.063 32.500 -0.500
v -1.063 33.500 -0.500
v -1.063 32.500 0.063
v -1.063 32.500 0.938
v -1.063 33.500 0.938
v -1.063 33.500 0.063
v -1.063 32.500 0.937
v -1.063 33.500 0.937
v -1.500 3.500 0.500
v -0.500 0.500 0.500
v -1.500 0.500 0.500
v -0.500 3.500 0.500
v -0.500 4.500 0.500
v -1.500 4.500 0.500
v -1.500 5.500 0.500
v -0.500 5.500 0.500
v -5.500 32.500 6.063
v -5.500 33.500 6.063
v -6.500 32.500 6.063
v -6.500 33.500 6.063
v -0.938 33.500 0.063
v -0.938 33.500 -0.500
v -0.500 33.500 0.063
v -1.063 33.500 0.500
v -0.938 33.500 0.500
v -0.938 33.500 1.063
v -0.938 32.500 -0.500
v -0.938 32.500 0.063
v -5.500 5.500 6.500
v -6.500 5.500 6.500
v -5.500 7.500 6.500
v -6.500 7.500 6.500
v -5.500 30.500 6.500
v -6.500 30.500 6.500
v -5.500 31.500 6.500
v -6.500 31.500 6.500
v -5.500 32.500 6.500
v -6.500 32.500 6.500
v -1.063 31.500 0.063
v -0.500 31.500 0.063
v -0.500 32.500 0.063
v -0.500 34.500 0.063
v -1.063 34.500 0.063
v -0.938 34.500 0.063
v -0.938 34.500 -0.063
v -6.500 5.500 5.500
v -5.500 5.500 5.500
v -6.500 7.500 5.500
v -5.500 7.500 5.500
v -6.500 30.500 5.500
v -5.500 30.500 5.500
v -6.500 31.500 5.500
v -5.500 31.500 5.500
v -6.500 32.500 5.500
v -5.500 32.500 5.500
v -0.938 31.500 0.063
v -0.938 31.500 -0.063
v -0.938 32.500 0.500
v -1.063 32.500 0.500
v -0.938 32.500 1.063

usemtl minecraft_block-blue_concrete_powder

f 1545/1 1546/2 1547/3 1548/4
f 1545/1 1548/2 1651/3 1652/4
f 1654/1 1653/2 1655/3 1656/4
f 1547/1 1546/2 1668/3 1669/4
f 1671/1 1670/2 1672/3 1673/4
f 1548/1 1547/2 1669/3 1651/4
f 1653/1 1671/2 1673/3 1655/4
f 1656/1 1655/2 1673/3 1672/4
f 1546/1 1545/2 1652/3 1668/4
f 1670/1 1654/2 1656/3 1672/4

usemtl minecraft_block-yellow_stained_glass

f 1137/57 1138/2 1139/3 1140/60
f 1141/1 1142/58 1143/59 1144/4
f 1145/57 1146/2 1147/3 1148/60
f 1149/1 1150/58 1151/59 1152/4
f 1199/2 1198/57 1176/60 1170/3
f 1204/58 1197/1 1173/4 1169/59
f 1207/2 1208/57 1209/60 1210/3
f 1211/58 1212/1 1213/4 1214/59
f 1200/2 1137/57 1140/60 1172/3
f 1198/58 1203/1 1174/4 1176/59
f 1235/2 1145/57 1148/60 1236/3
f 1208/58 1237/1 1238/4 1209/59
f 1142/57 1201/2 1171/3 1143/60
f 1202/1 1204/58 1169/59 1175/4
f 1150/57 1273/2 1267/3 1151/60
f 1274/1 1211/58 1214/59 1268/4

usemtl minecraft_block-amethyst_cluster

f 676/1 677/2 678/3 679/4
f 680/1 681/2 682/3 683/4
f 684/1 685/2 686/3 687/4
f 688/1 689/2 690/3 691/4

usemtl minecraft_block-lime_stained_glass_pane_top

f 435/67 436/68 437/60 438/59
f 439/69 436/70 440/60 441/59
f 442/69 443/70 436/60 435/59
f 444/69 445/70 435/60 446/59
f 469/60 470/59 471/67 472/68
f 472/60 471/59 473/69 474/70
f 475/60 472/59 476/69 477/70
f 478/60 479/59 471/69 480/70
f 477/58 476/57 441/60 440/59
f 497/58 498/57 499/60 500/59
f 479/58 478/57 445/60 444/59
f 517/58 518/57 519/60 520/59
f 470/58 469/57 443/60 442/59
f 525/58 526/57 527/60 528/59
f 474/58 473/57 438/60 437/59
f 537/58 538/57 539/60 540/59
f 401/70 561/69 562/67 402/68
f 563/60 535/59 562/69 561/70
f 543/67 564/68 540/60 539/59
f 532/69 564/70 500/60 499/59
f 528/69 527/70 564/60 543/59
f 520/69 519/70 543/60 534/59
f 575/67 404/68 403/70 576/69
f 536/69 577/70 575/60 576/59
f 526/60 525/59 533/67 531/68
f 531/60 533/59 538/69 537/70
f 579/60 531/59 498/69 497/70
f 518/60 517/59 533/69 542/70

usemtl minecraft_block-large_amethyst_bud

f 668/1 669/2 670/3 671/4
f 672/1 673/2 674/3 675/4
f 687/1 686/2 692/3 693/4
f 691/1 690/2 694/3 695/4

usemtl minecraft_block-red_candle

f 752/53 753/54 754/55 755/56
f 756/53 757/54 758/55 759/56
f 760/53 761/54 762/55 763/56
f 764/53 765/54 766/55 767/56
f 842/62 843/63 844/1 845/64
f 845/63 844/62 910/72 911/71
f 913/63 915/62 916/72 917/71
f 918/71 919/72 917/73 916/53
f 844/63 843/62 930/72 910/71
f 915/63 936/62 918/72 916/71
f 930/71 974/72 911/73 910/53
f 843/63 842/62 974/72 930/71
f 936/63 984/62 919/72 918/71
f 984/62 936/63 915/1 913/64
f 842/63 845/62 911/72 974/71
f 984/63 913/62 917/72 919/71

usemtl minecraft_block-yellow_wool

f 1230/1 1229/2 1231/3 1232/4
f 1252/1 1251/2 1253/3 1254/4
f 1229/1 1252/2 1254/3 1231/4
f 1251/1 1230/2 1232/3 1253/4

usemtl minecraft_block-yellow_candle

f 1117/53 1118/54 1119/55 1120/56
f 1121/53 1122/54 1123/55 1124/56
f 1125/53 1126/54 1127/55 1128/56
f 1129/53 1130/54 1131/55 1132/56
f 1133/63 1134/62 1135/72 1136/71
f 1151/63 1148/62 1153/72 1154/71
f 1133/62 1155/63 1156/1 1134/64
f 1156/63 1155/62 1205/72 1206/71
f 1209/63 1214/62 1215/72 1216/71
f 1215/71 1154/72 1153/73 1216/53
f 1134/63 1156/62 1206/72 1135/71
f 1148/63 1209/62 1216/72 1153/71
f 1205/71 1136/72 1135/73 1206/53
f 1151/62 1214/63 1209/1 1148/64
f 1155/63 1133/62 1136/72 1205/71
f 1214/63 1151/62 1154/72 1215/71

usemtl minecraft_block-blue_candle

f 1467/53 1468/54 1469/55 1470/56
f 1471/53 1472/54 1473/55 1474/56
f 1475/53 1476/54 1477/55 1478/56
f 1479/53 1480/54 1481/55 1482/56
f 1491/63 1492/62 1493/72 1494/71
f 1509/63 1506/62 1511/72 1512/71
f 1491/62 1535/63 1536/1 1492/64
f 1536/63 1535/62 1561/72 1562/71
f 1565/63 1570/62 1571/72 1572/71
f 1492/63 1536/62 1562/72 1493/71
f 1506/63 1565/62 1572/72 1511/71
f 1571/71 1512/72 1511/73 1572/53
f 1561/71 1494/72 1493/73 1562/53
f 1535/63 1491/62 1494/72 1561/71
f 1570/63 1509/62 1512/72 1571/71
f 1509/62 1570/63 1565/1 1506/64

usemtl minecraft_block-purple_stained_glass_pane_top

f 565/67 557/68 552/70 393/69
f 566/69 557/70 556/60 567/59
f 568/69 569/70 557/60 565/59
f 550/69 392/70 391/60 570/59
f 569/60 568/59 393/67 552/68
f 399/67 571/68 409/70 551/69
f 406/69 410/70 571/60 399/59
f 572/69 400/70 399/60 551/59
f 414/67 573/68 553/70 396/69
f 413/69 574/70 573/60 414/59
f 578/60 412/59 385/67 546/68
f 580/67 554/68 547/70 388/69
f 581/69 582/70 554/60 580/59
f 582/60 581/59 388/67 547/68
f 554/60 583/59 584/69 555/70
f 389/60 549/59 585/69 390/70
f 407/60 405/59 548/67 408/68
f 397/60 586/59 548/69 398/70
f 712/67 827/68 823/60 816/59
f 985/69 986/70 827/60 712/59
f 987/69 713/70 712/60 988/59
f 827/70 712/69 815/67 824/68
f 713/60 987/59 988/69 712/70
f 989/67 785/68 990/60 991/59
f 770/69 785/70 992/60 993/59
f 774/69 784/70 782/60 775/59
f 785/70 989/69 994/67 995/68
f 995/60 994/59 991/69 990/70
f 996/67 781/68 986/60 985/59
f 997/69 992/70 996/60 771/59
f 714/67 820/68 819/70 929/69
f 972/69 715/70 714/60 973/59
f 1001/67 786/68 1002/60 832/59
f 817/70 709/69 928/67 818/68
f 708/60 971/59 970/69 709/70
f 777/70 1004/69 830/67 1005/68
f 1005/60 830/59 829/69 1006/70
f 710/67 826/68 821/70 814/69
f 1007/69 711/70 710/60 1008/59
f 1009/60 1010/59 814/67 821/68
f 821/60 814/59 813/69 822/70
f 711/60 1007/59 1008/69 710/70
f 1011/67 778/68 1012/60 1013/59
f 778/70 1011/69 1014/67 1015/68
f 1015/60 1014/59 1013/69 1012/70
f 778/60 769/59 1016/69 1017/70
f 783/60 773/59 772/69 779/70
f 780/70 1018/69 768/67 825/68
f 825/60 768/59 1010/69 1009/70
f 1017/60 1019/59 768/69 1018/70
f 1269/67 1264/68 1270/70 1259/69
f 1270/69 1264/70 1263/60 1260/59
f 1266/69 1271/70 1264/60 1269/59
f 1272/60 1265/59 1258/67 1275/68
f 1261/60 1275/59 1257/69 1262/70
f 1624/67 1639/68 1640/60 1620/59
f 1582/69 1639/70 1641/60 1583/59
f 1642/69 1643/70 1639/60 1624/59
f 1639/70 1624/69 1584/67 1582/68
f 1639/60 1582/59 1583/69 1641/70
f 1490/67 1644/68 1643/60 1642/59
f 1485/69 1644/70 1489/60 1486/59
f 1661/67 1662/68 1663/70 1585/69
f 1663/69 1662/70 1660/60 1586/59
f 1674/70 1657/69 1578/67 1675/68
f 1674/60 1675/59 1577/69 1658/70
f 1621/67 1646/68 1581/70 1579/69
f 1581/69 1646/70 1659/60 1580/59
f 1676/60 1677/59 1579/67 1581/68
f 1581/60 1579/59 1619/69 1645/70
f 1646/60 1581/59 1580/69 1659/70
f 1678/70 1487/69 1622/67 1484/68
f 1484/60 1622/59 1677/69 1676/70
f 1678/60 1484/59 1483/69 1488/70

usemtl jmc2obj_banner-banner_base_red-flow_white

f 612/13 613/14 614/15 615/16
f 613/14 616/17 617/18 614/15
f 618/19 612/20 615/21 619/22
f 615/14 614/23 617/24 619/17
f 620/25 621/26 622/21 623/27
f 621/28 624/25 625/27 622/29
f 626/30 620/31 623/32 627/33
f 623/29 622/34 625/35 627/36
f 626/32 624/29 621/36 620/37
f 628/38 629/39 630/40 631/41
f 629/39 632/42 633/43 630/40
f 632/42 634/44 635/45 633/43
f 634/44 628/46 631/47 635/45
f 631/42 630/48 633/49 635/50
f 634/44 632/42 629/50 628/51
f 616/17 618/19 619/22 617/18
f 626/31 627/32 625/29 624/28
f 616/17 613/24 612/52 618/19
f 636/13 637/14 638/15 639/16
f 637/14 640/17 641/18 638/15
f 642/19 636/20 639/21 643/22
f 639/14 638/23 641/24 643/17
f 644/25 645/26 646/21 647/27
f 645/28 648/25 649/27 646/29
f 650/30 644/31 647/32 651/33
f 647/29 646/34 649/35 651/36
f 650/32 648/29 645/36 644/37
f 652/38 653/39 654/40 655/41
f 653/39 656/42 657/43 654/40
f 656/42 658/44 659/45 657/43
f 658/44 652/46 655/47 659/45
f 655/42 654/48 657/49 659/50
f 658/44 656/42 653/50 652/51
f 640/17 642/19 643/22 641/18
f 650/31 651/32 649/29 648/28
f 640/17 637/24 636/52 642/19

usemtl minecraft_block-red_concrete_powder

f 858/1 859/2 860/3 861/4
f 860/1 859/2 884/3 885/4
f 887/1 886/2 888/3 889/4
f 858/1 861/2 900/3 901/4
f 903/1 902/2 904/3 905/4
f 861/1 860/2 885/3 900/4
f 902/1 887/2 889/3 904/4
f 859/1 858/2 901/3 884/4
f 886/1 903/2 905/3 888/4
f 904/1 889/2 888/3 905/4

usemtl minecraft_block-red_stained_glass

f 873/2 869/57 850/60 852/3
f 868/58 876/1 855/4 857/59
f 891/2 912/57 913/60 892/3
f 914/58 906/1 909/4 915/59
f 870/2 868/57 857/60 849/3
f 877/58 867/1 853/4 846/59
f 931/2 914/57 915/60 932/3
f 933/58 934/1 935/4 936/59
f 872/57 874/2 851/3 847/60
f 875/1 877/58 846/59 856/4
f 983/57 890/2 893/3 984/60
f 907/1 933/58 936/59 908/4
f 869/57 871/2 848/3 850/60
f 866/1 872/58 847/59 854/4
f 912/57 1003/2 998/3 913/60
f 1000/1 983/58 984/59 999/4

usemtl minecraft_block-lime_stained_glass

f 401/58 402/57 403/60 404/59
f 476/2 472/57 439/60 441/3
f 471/58 479/1 444/4 446/59
f 498/2 531/57 532/60 499/3
f 533/58 517/1 520/4 534/59
f 402/57 535/1 536/4 403/60
f 473/2 471/57 446/60 438/3
f 480/58 470/1 442/4 435/59
f 538/2 533/57 534/60 539/3
f 542/58 525/1 528/4 543/59
f 475/57 477/2 440/3 436/60
f 478/1 480/58 435/59 445/4
f 579/57 497/2 500/3 564/60
f 518/1 542/58 543/59 519/4
f 563/1 401/57 404/60 577/4
f 472/57 474/2 437/3 439/60
f 469/1 475/58 436/59 443/4
f 531/57 537/2 540/3 532/60
f 526/1 579/58 564/59 527/4

usemtl minecraft_block-lime_candle

f 337/53 338/54 339/55 340/56
f 341/53 342/54 343/55 344/56
f 345/53 346/54 347/55 348/56
f 349/53 350/54 351/55 352/56
f 417/62 418/63 419/1 420/64
f 521/71 522/72 523/73 524/53
f 420/63 419/62 529/72 530/71
f 532/63 534/62 524/72 523/71
f 419/63 418/62 541/72 529/71
f 534/63 543/62 521/72 524/71
f 541/71 558/72 530/73 529/53
f 564/62 543/63 534/1 532/64
f 418/63 417/62 558/72 541/71
f 543/63 564/62 522/72 521/71
f 417/63 420/62 530/72 558/71
f 564/63 532/62 523/72 522/71

usemtl minecraft_block-purple_stained_glass

f 385/57 386/58 387/59 388/60
f 389/1 390/58 391/59 392/4
f 393/57 394/58 395/59 396/60
f 397/1 398/58 399/59 400/4
f 398/58 405/1 406/4 399/59
f 407/1 408/57 409/60 410/4
f 411/58 412/1 413/10 414/61
f 546/57 385/58 388/59 547/60
f 548/74 549/1 550/4 551/75
f 552/57 393/58 396/59 553/60
f 408/57 548/58 551/59 409/60
f 554/57 555/2 556/3 557/60
f 587/58 546/57 547/60 554/59
f 578/1 587/58 573/61 574/10
f 557/58 552/57 553/60 573/59
f 708/1 709/58 710/59 711/4
f 711/1 710/58 712/59 713/4
f 713/1 712/58 714/59 715/4
f 744/57 745/58 746/59 747/60
f 748/57 749/58 750/59 751/60
f 768/74 769/57 770/60 771/75
f 772/58 773/1 774/4 775/59
f 776/58 777/57 778/60 779/59
f 779/58 780/76 781/77 782/59
f 783/1 779/58 782/59 784/4
f 782/58 785/57 786/60 787/59
f 813/2 814/57 815/60 816/3
f 710/58 768/78 771/79 712/59
f 817/58 818/57 819/80 820/61
f 821/57 822/2 823/3 824/60
f 825/78 826/58 827/59 828/79
f 780/58 825/57 828/60 781/59
f 829/2 830/57 831/80 832/9
f 818/57 928/58 814/59 821/60
f 824/57 815/58 929/59 819/60
f 970/58 971/1 972/10 973/61
f 709/58 817/57 826/60 710/59
f 712/58 827/57 820/60 714/59
f 777/58 1005/57 1015/60 778/59
f 1005/57 1006/2 1002/9 1020/80
f 785/58 995/57 1020/60 786/59
f 1257/2 1258/58 1259/59 1260/3
f 1261/57 1262/2 1263/3 1264/60
f 1258/57 1265/1 1266/4 1259/60
f 1272/1 1261/58 1264/59 1271/4
f 1483/2 1484/57 1485/60 1486/3
f 1487/58 1488/2 1489/3 1490/59
f 1577/2 1578/58 1579/59 1580/3
f 1580/2 1581/57 1582/60 1583/3
f 1583/2 1584/58 1585/59 1586/3
f 1578/57 1617/58 1618/61 1585/80
f 1619/2 1579/57 1584/60 1620/3
f 1621/58 1622/78 1623/79 1624/59
f 1625/57 1487/58 1490/59 1626/60
f 1581/57 1645/2 1640/3 1582/60
f 1484/78 1646/58 1639/59 1485/79
f 1657/58 1658/2 1659/3 1621/59
f 1646/57 1659/2 1641/3 1639/60
f 1624/58 1641/2 1660/3 1661/59

usemtl jmc2obj_banner-banner_base_yellow-flow_white

f 1069/13 1070/14 1071/15 1072/16
f 1070/14 1073/17 1074/18 1071/15
f 1075/19 1069/20 1072/21 1076/22
f 1072/14 1071/23 1074/24 1076/17
f 1077/25 1078/26 1079/21 1080/27
f 1078/28 1081/25 1082/27 1079/29
f 1083/30 1077/31 1080/32 1084/33
f 1080/29 1079/34 1082/35 1084/36
f 1083/32 1081/29 1078/36 1077/37
f 1085/38 1086/39 1087/40 1088/41
f 1086/39 1089/42 1090/43 1087/40
f 1089/42 1091/44 1092/45 1090/43
f 1091/44 1085/46 1088/47 1092/45
f 1088/42 1087/48 1090/49 1092/50
f 1091/44 1089/42 1086/50 1085/51
f 1073/17 1075/19 1076/22 1074/18
f 1083/31 1084/32 1082/29 1081/28
f 1073/17 1070/24 1069/52 1075/19
f 1093/13 1094/14 1095/15 1096/16
f 1094/14 1097/17 1098/18 1095/15
f 1099/19 1093/20 1096/21 1100/22
f 1096/14 1095/23 1098/24 1100/17
f 1101/25 1102/26 1103/21 1104/27
f 1102/28 1105/25 1106/27 1103/29
f 1107/30 1101/31 1104/32 1108/33
f 1104/29 1103/34 1106/35 1108/36
f 1107/32 1105/29 1102/36 1101/37
f 1109/38 1110/39 1111/40 1112/41
f 1110/39 1113/42 1114/43 1111/40
f 1113/42 1115/44 1116/45 1114/43
f 1115/44 1109/46 1112/47 1116/45
f 1112/42 1111/48 1114/49 1116/50
f 1115/44 1113/42 1110/50 1109/51
f 1097/17 1099/19 1100/22 1098/18
f 1107/31 1108/32 1106/29 1105/28
f 1097/17 1094/24 1093/52 1099/19

usemtl minecraft_block-blue_stained_glass

f 1495/57 1496/2 1497/3 1498/60
f 1499/1 1500/58 1501/59 1502/4
f 1503/57 1504/2 1505/3 1506/60
f 1507/1 1508/58 1509/59 1510/4
f 1555/2 1554/57 1544/60 1538/3
f 1560/58 1553/1 1541/4 1537/59
f 1563/2 1564/57 1565/60 1566/3
f 1567/58 1568/1 1569/4 1570/59
f 1556/2 1495/57 1498/60 1540/3
f 1554/58 1559/1 1542/4 1544/59
f 1573/2 1503/57 1506/60 1574/3
f 1564/58 1575/1 1576/4 1565/59
f 1500/57 1557/2 1539/3 1501/60
f 1558/1 1560/58 1537/59 1543/4
f 1508/57 1635/2 1636/3 1509/60
f 1637/1 1567/58 1570/59 1638/4

usemtl minecraft_block-red_wool

f 885/1 884/2 886/3 887/4
f 901/1 900/2 902/3 903/4
f 900/1 885/2 887/3 902/4
f 884/1 901/2 903/3 886/4

usemtl jmc2obj_banner-banner_base_lime-flow_white

f 289/13 290/14 291/15 292/16
f 290/14 293/17 294/18 291/15
f 295/19 289/20 292/21 296/22
f 292/14 291/23 294/24 296/17
f 297/25 298/26 299/21 300/27
f 298/28 301/25 302/27 299/29
f 303/30 297/31 300/32 304/33
f 300/29 299/34 302/35 304/36
f 303/32 301/29 298/36 297/37
f 305/38 306/39 307/40 308/41
f 306/39 309/42 310/43 307/40
f 309/42 311/44 312/45 310/43
f 311/44 305/46 308/47 312/45
f 308/42 307/48 310/49 312/50
f 311/44 309/42 306/50 305/51
f 293/17 295/19 296/22 294/18
f 303/31 304/32 302/29 301/28
f 293/17 290/24 289/52 295/19
f 313/13 314/14 315/15 316/16
f 314/14 317/17 318/18 315/15
f 319/19 313/20 316/21 320/22
f 316/14 315/23 318/24 320/17
f 321/25 322/26 323/21 324/27
f 322/28 325/25 326/27 323/29
f 327/30 321/31 324/32 328/33
f 324/29 323/34 326/35 328/36
f 327/32 325/29 322/36 321/37
f 329/38 330/39 331/40 332/41
f 330/39 333/42 334/43 331/40
f 333/42 335/44 336/45 334/43
f 335/44 329/46 332/47 336/45
f 332/42 331/48 334/49 336/50
f 335/44 333/42 330/50 329/51
f 317/17 319/19 320/22 318/18
f 327/31 328/32 326/29 325/28
f 317/17 314/24 313/52 319/19

usemtl minecraft_block-lime_wool

f 492/1 491/2 493/3 494/4
f 512/1 511/2 513/3 514/4
f 511/1 492/2 494/3 513/4
f 491/1 512/2 514/3 493/4

usemtl minecraft_block-red_stained_glass_pane_top

f 846/67 847/68 848/60 849/59
f 850/69 847/70 851/60 852/59
f 853/69 854/70 847/60 846/59
f 855/69 856/70 846/60 857/59
f 866/60 867/59 868/67 869/68
f 869/60 868/59 870/69 871/70
f 872/60 869/59 873/69 874/70
f 875/60 876/59 868/69 877/70
f 874/58 873/57 852/60 851/59
f 890/58 891/57 892/60 893/59
f 876/58 875/57 856/60 855/59
f 906/58 907/57 908/60 909/59
f 936/67 984/68 998/60 932/59
f 913/69 984/70 893/60 892/59
f 935/69 999/70 984/60 936/59
f 909/69 908/70 936/60 915/59
f 867/58 866/57 854/60 853/59
f 934/58 1000/57 999/60 935/59
f 871/58 870/57 849/60 848/59
f 1003/58 931/57 932/60 998/59
f 1000/60 934/59 914/67 912/68
f 912/60 914/59 931/69 1003/70
f 983/60 912/59 891/69 890/70
f 907/60 906/59 914/69 933/70

usemtl minecraft_block-yellow_concrete_powder

f 1177/1 1178/2 1179/3 1180/4
f 1179/1 1178/2 1229/3 1230/4
f 1232/1 1231/2 1233/3 1234/4
f 1177/1 1180/2 1251/3 1252/4
f 1254/1 1253/2 1255/3 1256/4
f 1178/1 1177/2 1252/3 1229/4
f 1231/1 1254/2 1256/3 1233/4
f 1233/1 1256/2 1255/3 1234/4
f 1180/1 1179/2 1230/3 1251/4
f 1253/1 1232/2 1234/3 1255/4

usemtl jmc2obj_banner-banner_base_blue-flow_white

f 1395/13 1396/14 1397/15 1398/16
f 1396/14 1399/17 1400/18 1397/15
f 1401/19 1395/20 1398/21 1402/22
f 1398/14 1397/23 1400/24 1402/17
f 1403/25 1404/26 1405/21 1406/27
f 1404/28 1407/25 1408/27 1405/29
f 1409/30 1403/31 1406/32 1410/33
f 1406/29 1405/34 1408/35 1410/36
f 1409/32 1407/29 1404/36 1403/37
f 1411/38 1412/39 1413/40 1414/41
f 1412/39 1415/42 1416/43 1413/40
f 1415/42 1417/44 1418/45 1416/43
f 1417/44 1411/46 1414/47 1418/45
f 1414/42 1413/48 1416/49 1418/50
f 1417/44 1415/42 1412/50 1411/51
f 1399/17 1401/19 1402/22 1400/18
f 1409/31 1410/32 1408/29 1407/28
f 1399/17 1396/24 1395/52 1401/19
f 1419/13 1420/14 1421/15 1422/16
f 1420/14 1423/17 1424/18 1421/15
f 1425/19 1419/20 1422/21 1426/22
f 1422/14 1421/23 1424/24 1426/17
f 1427/25 1428/26 1429/21 1430/27
f 1428/28 1431/25 1432/27 1429/29
f 1433/30 1427/31 1430/32 1434/33
f 1430/29 1429/34 1432/35 1434/36
f 1433/32 1431/29 1428/36 1427/37
f 1435/38 1436/39 1437/40 1438/41
f 1436/39 1439/42 1440/43 1437/40
f 1439/42 1441/44 1442/45 1440/43
f 1441/44 1435/46 1438/47 1442/45
f 1438/42 1437/48 1440/49 1442/50
f 1441/44 1439/42 1436/50 1435/51
f 1423/17 1425/19 1426/22 1424/18
f 1433/31 1434/32 1432/29 1431/28
f 1423/17 1420/24 1419/52 1425/19

usemtl minecraft_block-blue_stained_glass_pane_top

f 1537/67 1501/68 1497/60 1538/59
f 1498/69 1501/70 1539/60 1540/59
f 1541/69 1502/70 1501/60 1537/59
f 1542/69 1543/70 1537/60 1544/59
f 1499/60 1553/59 1554/67 1495/68
f 1495/60 1554/59 1555/69 1496/70
f 1500/60 1495/59 1556/69 1557/70
f 1558/60 1559/59 1554/69 1560/70
f 1570/67 1509/68 1505/60 1566/59
f 1506/69 1509/70 1636/60 1574/59
f 1569/69 1510/70 1509/60 1570/59
f 1576/69 1638/70 1570/60 1565/59
f 1553/58 1499/57 1502/60 1541/59
f 1568/58 1507/57 1510/60 1569/59
f 1496/58 1555/57 1538/60 1497/59
f 1504/58 1563/57 1566/60 1505/59
f 1557/58 1556/57 1540/60 1539/59
f 1635/58 1573/57 1574/60 1636/59
f 1507/60 1568/59 1564/67 1503/68
f 1503/60 1564/59 1563/69 1504/70
f 1508/60 1503/59 1573/69 1635/70
f 1637/60 1575/59 1564/69 1567/70
f 1559/58 1558/57 1543/60 1542/59
f 1575/58 1637/57 1638/60 1576/59

usemtl minecraft_block-bedrock

f 1/1 2/2 3/3 4/4
f 5/1 6/2 7/3 8/4
f 4/1 3/2 9/3 10/4
f 8/1 7/2 11/3 12/4
f 13/2 14/1 15/4 16/3
f 17/2 18/1 19/4 20/3
f 16/2 15/1 21/4 22/3
f 20/2 19/1 23/4 24/3
f 22/2 21/1 25/4 26/3
f 24/2 23/1 27/4 28/3
f 29/1 30/2 31/3 32/4
f 32/2 31/1 33/4 34/3
f 34/1 33/2 35/5 36/6
f 37/1 38/2 39/5 40/6
f 41/2 42/1 43/7 44/8
f 44/1 43/2 45/9 46/10
f 46/2 45/1 47/4 48/3
f 48/1 47/2 49/3 50/4
f 51/2 52/1 53/7 54/8
f 54/1 53/2 55/9 56/10
f 56/2 55/1 57/4 58/3
f 58/1 57/2 59/3 60/4
f 49/1 60/2 59/3 50/4
f 25/2 28/1 27/4 26/3
f 30/1 61/2 62/3 31/4
f 31/2 62/1 63/4 33/3
f 33/1 63/2 64/3 65/4
f 65/1 64/2 6/4 1/3
f 7/1 4/2 38/4 66/3
f 67/1 68/2 69/3 39/4
f 18/2 13/1 26/10 27/9
f 41/4 52/3 51/2 42/1
f 61/1 30/2 29/3 70/4
f 61/1 70/2 71/3 62/4
f 62/2 71/1 72/4 63/3
f 63/1 72/2 2/5 73/6
f 66/1 9/2 14/5 69/6
f 52/2 41/1 44/7 53/8
f 53/1 44/2 46/9 55/10
f 55/2 46/1 48/4 57/3
f 57/1 48/2 50/3 59/4
f 70/1 29/2 32/3 71/4
f 71/2 32/1 34/4 72/3
f 72/1 34/2 74/3 75/4
f 75/1 74/2 2/4 5/3
f 3/1 8/2 40/9 14/10
f 14/2 17/1 28/10 25/9
f 42/2 51/1 54/7 43/8
f 43/1 54/2 56/9 45/10
f 45/2 56/1 58/4 47/3
f 47/1 58/2 60/3 49/4
f 76/2 77/1 78/4 79/3
f 80/2 81/1 82/4 83/3
f 84/2 85/1 86/4 87/3
f 88/2 89/1 90/4 91/3
f 92/2 93/1 94/4 95/3
f 96/2 97/1 98/4 99/3
f 95/1 94/2 100/3 101/4
f 99/1 98/2 102/3 103/4
f 104/2 105/1 106/4 107/3
f 108/2 109/1 110/4 111/3
f 112/2 113/1 114/4 115/3
f 115/1 114/2 116/3 117/4
f 117/2 116/1 118/6 119/5
f 119/1 118/2 120/5 121/6
f 121/2 120/1 122/4 123/3
f 123/1 122/2 124/5 125/6
f 125/2 124/1 126/6 127/5
f 128/1 129/2 130/3 131/4
f 132/1 133/2 134/3 135/4
f 136/2 137/1 138/4 139/3
f 139/1 138/2 140/3 141/4
f 142/1 143/2 144/3 145/4
f 146/2 147/1 148/4 149/3
f 150/2 151/1 152/4 153/3
f 153/1 152/2 154/3 155/4
f 155/2 154/1 156/6 157/5
f 157/1 156/2 158/5 159/6
f 159/2 158/1 160/4 161/3
f 161/1 160/2 162/5 163/6
f 163/2 162/1 164/6 165/5
f 166/1 128/2 131/3 167/4
f 81/2 76/1 79/4 82/3
f 168/1 132/2 135/3 169/4
f 89/2 84/1 139/6 170/5
f 170/1 139/2 141/3 171/4
f 97/2 92/1 95/4 98/3
f 98/1 95/2 145/5 172/6
f 109/2 104/1 149/6 173/5
f 149/2 148/1 174/4 173/3
f 126/2 165/1 164/4 127/3
f 151/2 112/1 115/4 152/3
f 152/1 115/2 117/3 154/4
f 154/2 117/1 119/6 156/5
f 156/1 119/2 121/5 158/6
f 158/2 121/1 123/4 160/3
f 160/1 123/2 125/5 162/6
f 162/2 125/1 127/6 164/5
f 129/1 128/2 166/3 175/4
f 112/4 151/3 150/2 113/1
f 129/1 175/2 80/3 130/4
f 77/2 80/1 83/4 78/3
f 133/1 83/2 88/3 134/4
f 85/2 88/1 176/6 138/5
f 138/1 176/2 96/3 140/4
f 93/2 96/1 99/4 94/3
f 94/1 99/2 108/5 144/6
f 105/2 108/1 174/6 148/5
f 113/2 150/1 153/4 114/3
f 114/1 153/2 155/3 116/4
f 116/2 155/1 157/6 118/5
f 118/1 157/2 159/5 120/6
f 120/2 159/1 161/4 122/3
f 122/1 161/2 163/5 124/6
f 124/2 163/1 165/6 126/5
f 175/1 166/2 167/3 80/4
f 83/1 168/2 169/3 88/4
f 91/2 177/1 170/4 176/3
f 176/1 170/2 171/3 96/4
f 103/1 178/2 172/3 108/4
f 111/2 179/1 173/4 174/3
f 180/1 181/2 182/3 183/4
f 183/2 182/1 184/11 185/12
f 185/1 184/2 186/3 187/4
f 187/2 186/1 188/4 189/3
f 190/1 191/2 192/3 193/4
f 193/2 192/1 194/11 195/12
f 195/1 194/2 196/3 197/4
f 197/2 196/1 198/4 199/3
f 198/2 189/1 188/4 199/3
f 180/1 191/2 190/3 181/4
f 181/1 190/2 193/3 182/4
f 182/2 193/1 195/11 184/12
f 184/1 195/2 197/3 186/4
f 186/2 197/1 199/4 188/3
f 191/1 180/2 183/3 192/4
f 192/2 183/1 185/11 194/12
f 194/1 185/2 187/3 196/4
f 196/2 187/1 189/4 198/3
f 200/1 201/2 202/3 203/4
f 204/1 205/2 206/3 207/4
f 203/2 202/1 208/4 209/3
f 207/2 206/1 210/4 211/3
f 212/1 213/2 214/3 215/4
f 216/1 217/2 218/3 219/4
f 215/2 214/1 220/4 221/3
f 219/2 218/1 222/4 223/3
f 221/1 220/2 224/3 225/4
f 223/1 222/2 226/3 227/4
f 225/2 224/1 228/4 229/3
f 227/2 226/1 230/4 231/3
f 232/2 233/1 234/4 235/3
f 236/1 237/2 238/3 239/4
f 239/2 238/1 240/6 241/5
f 241/1 240/2 242/3 243/4
f 244/2 232/1 235/4 201/3
f 201/1 204/2 207/3 202/4
f 202/2 207/1 211/4 208/3
f 208/1 236/2 239/3 245/4
f 245/2 239/1 241/6 246/5
f 246/1 241/2 213/4 216/3
f 214/2 219/1 223/4 220/3
f 220/1 223/2 227/3 224/4
f 224/2 227/1 231/4 228/3
f 247/1 248/2 249/5 250/6
f 250/2 249/1 251/4 252/3
f 252/1 251/2 253/3 254/4
f 254/2 253/1 255/4 256/3
f 256/1 255/2 257/5 258/6
f 258/2 257/1 259/4 260/3
f 260/1 259/2 261/3 262/4
f 262/2 261/1 263/6 264/5
f 265/1 266/2 267/5 268/6
f 268/2 267/1 269/4 270/3
f 270/1 269/2 271/3 272/4
f 272/2 271/1 273/4 274/3
f 274/1 273/2 275/5 276/6
f 276/2 275/1 277/4 278/3
f 278/1 277/2 279/3 280/4
f 280/2 279/1 281/6 282/5
f 228/2 231/1 230/4 229/3
f 263/2 282/1 281/4 264/3
f 283/4 233/3 232/2 244/1
f 265/1 248/2 247/3 266/4
f 283/2 244/1 201/4 284/3
f 285/1 208/2 245/3 286/4
f 286/2 245/1 246/6 287/5
f 287/1 246/2 213/3 288/4
f 248/1 265/2 268/5 249/6
f 249/2 268/1 270/4 251/3
f 251/1 270/2 272/3 253/4
f 253/2 272/1 274/4 255/3
f 255/1 274/2 276/5 257/6
f 257/2 276/1 278/4 259/3
f 259/1 278/2 280/3 261/4
f 261/2 280/1 282/6 263/5
f 266/1 247/2 250/5 267/6
f 267/2 250/1 252/4 269/3
f 269/1 252/2 254/3 271/4
f 271/2 254/1 256/4 273/3
f 273/1 256/2 258/5 275/6
f 275/2 258/1 260/4 277/3
f 277/1 260/2 262/3 279/4
f 279/2 262/1 264/6 281/5
f 233/2 283/1 284/4 234/3
f 205/1 200/2 203/3 206/4
f 206/2 203/1 209/4 210/3
f 237/1 285/2 286/3 238/4
f 238/2 286/1 287/6 240/5
f 240/1 287/2 217/4 212/3
f 218/2 215/1 221/4 222/3
f 222/1 221/2 225/3 226/4
f 226/2 225/1 229/4 230/3
f 353/2 354/1 355/4 356/3
f 357/2 358/1 359/4 360/3
f 356/1 355/2 361/3 362/4
f 360/1 359/2 363/3 364/4
f 362/1 361/2 365/3 366/4
f 364/1 363/2 367/3 368/4
f 369/1 370/2 371/3 372/4
f 373/1 374/2 375/3 376/4
f 372/2 371/1 377/4 378/3
f 376/2 375/1 379/4 380/3
f 378/1 377/2 381/3 382/4
f 380/1 379/2 383/3 384/4
f 381/1 384/2 383/3 382/4
f 415/2 365/1 370/4 416/3
f 421/2 422/1 423/4 424/3
f 424/1 423/2 425/65 426/66
f 426/2 425/1 427/4 428/3
f 428/1 427/2 429/3 430/4
f 430/2 429/1 431/6 432/5
f 432/1 431/2 433/5 434/6
f 451/2 452/1 453/4 454/3
f 454/1 453/2 455/65 456/66
f 456/2 455/1 457/4 458/3
f 458/1 457/2 459/3 460/4
f 460/2 459/1 461/6 462/5
f 462/1 461/2 463/5 464/6
f 465/1 466/2 467/3 468/4
f 481/1 482/2 483/9 484/10
f 484/2 483/1 485/6 486/5
f 486/1 485/2 487/3 488/4
f 488/2 487/1 489/4 490/3
f 490/1 489/2 467/5 466/6
f 501/1 502/2 503/9 504/10
f 504/2 503/1 505/6 506/5
f 506/1 505/2 507/3 508/4
f 508/2 507/1 509/4 510/3
f 510/1 509/2 465/5 468/6
f 502/1 481/2 484/9 503/10
f 503/2 484/1 486/6 505/5
f 505/1 486/2 488/3 507/4
f 507/2 488/1 490/4 509/3
f 509/1 490/2 466/5 465/6
f 482/1 501/2 504/9 483/10
f 483/2 504/1 506/6 485/5
f 485/1 506/2 508/3 487/4
f 487/2 508/1 510/4 489/3
f 489/1 510/2 468/5 467/6
f 354/2 357/1 360/4 355/3
f 355/1 360/2 368/5 365/6
f 365/2 544/1 545/4 370/3
f 370/1 373/2 376/3 371/4
f 371/2 376/1 380/4 377/3
f 377/1 380/2 384/3 381/4
f 452/4 451/3 422/2 421/1
f 481/1 502/2 501/3 482/4
f 357/4 354/3 353/2 358/1
f 544/2 559/1 560/4 545/3
f 434/1 433/2 464/3 463/4
f 422/2 451/1 454/4 423/3
f 423/1 454/2 456/65 425/66
f 425/2 456/1 458/4 427/3
f 427/1 458/2 460/3 429/4
f 429/2 460/1 462/6 431/5
f 431/1 462/2 464/5 433/6
f 452/2 421/1 424/4 453/3
f 453/1 424/2 426/65 455/66
f 455/2 426/1 428/4 457/3
f 457/1 428/2 430/3 459/4
f 459/2 430/1 432/6 461/5
f 461/1 432/2 434/5 463/6
f 700/1 701/2 702/3 703/4
f 704/1 705/2 706/3 707/4
f 701/1 704/2 707/3 702/4
f 716/2 717/1 718/4 719/3
f 717/2 720/1 721/4 718/3
f 722/2 716/1 719/4 723/3
f 719/1 718/2 724/3 725/4
f 718/1 721/2 726/3 724/4
f 723/1 719/2 725/3 727/4
f 725/1 724/2 728/3 729/4
f 724/1 726/2 730/3 728/4
f 727/1 725/2 729/3 731/4
f 732/2 733/1 734/4 735/3
f 733/2 736/1 737/4 734/3
f 738/2 732/1 735/4 739/3
f 735/1 734/2 740/3 741/4
f 734/1 737/2 742/3 740/4
f 739/1 735/2 741/3 743/4
f 788/2 789/1 790/4 791/3
f 791/1 790/2 792/3 793/4
f 793/2 792/1 794/4 795/3
f 795/1 794/2 796/3 797/4
f 797/2 796/1 798/4 799/3
f 799/1 798/2 800/3 801/4
f 801/2 800/1 802/4 803/3
f 803/1 802/2 804/3 805/4
f 805/2 804/1 806/4 807/3
f 807/1 806/2 808/5 809/6
f 810/2 742/1 811/4 812/3
f 707/1 706/2 703/3 702/4
f 742/1 743/2 741/3 740/4
f 837/2 838/1 720/4 839/3
f 840/2 730/1 736/4 841/3
f 862/1 863/2 864/3 865/4
f 878/1 879/2 880/9 881/10
f 881/2 880/1 882/10 883/9
f 883/1 882/2 864/9 863/10
f 894/1 895/2 896/9 897/10
f 897/2 896/1 898/10 899/9
f 899/1 898/2 862/9 865/10
f 920/1 921/2 922/3 923/4
f 923/2 922/1 924/10 925/9
f 925/1 924/2 926/5 927/6
f 921/1 939/2 940/3 922/4
f 922/2 940/1 941/10 924/9
f 924/1 941/2 942/5 926/6
f 943/2 944/1 945/4 946/3
f 946/1 945/2 947/3 948/4
f 948/2 947/1 949/4 950/3
f 950/1 949/2 951/3 952/4
f 952/2 951/1 953/4 954/3
f 954/1 953/2 955/3 956/4
f 956/2 955/1 957/4 958/3
f 958/1 957/2 959/3 960/4
f 960/2 959/1 961/4 962/3
f 962/1 961/2 963/5 964/6
f 965/1 939/2 966/3 967/4
f 920/1 838/2 939/3 921/4
f 837/4 968/3 969/2 838/1
f 894/1 879/2 878/3 895/4
f 944/4 943/3 789/2 788/1
f 969/2 968/1 977/4 978/3
f 979/2 980/1 981/4 982/3
f 968/2 837/1 839/4 977/3
f 980/2 840/1 841/4 981/3
f 838/1 920/2 923/3 720/4
f 720/2 923/1 925/10 730/9
f 730/1 925/2 927/5 737/6
f 895/1 878/2 881/9 896/10
f 896/2 881/1 883/10 898/9
f 898/1 883/2 863/9 862/10
f 809/1 808/2 964/3 963/4
f 879/1 894/2 897/9 880/10
f 880/2 897/1 899/10 882/9
f 882/1 899/2 865/9 864/10
f 789/2 943/1 946/4 790/3
f 790/1 946/2 948/3 792/4
f 792/2 948/1 950/4 794/3
f 794/1 950/2 952/3 796/4
f 796/2 952/1 954/4 798/3
f 798/1 954/2 956/3 800/4
f 800/2 956/1 958/4 802/3
f 802/1 958/2 960/3 804/4
f 804/2 960/1 962/4 806/3
f 806/1 962/2 964/5 808/6
f 944/2 788/1 791/4 945/3
f 945/1 791/2 793/3 947/4
f 947/2 793/1 795/4 949/3
f 949/1 795/2 797/3 951/4
f 951/2 797/1 799/4 953/3
f 953/1 799/2 801/3 955/4
f 955/2 801/1 803/4 957/3
f 957/1 803/2 805/3 959/4
f 959/2 805/1 807/4 961/3
f 961/1 807/2 809/5 963/6
f 1021/2 1022/1 1023/66 1024/65
f 1024/1 1023/2 1025/65 1026/66
f 1026/2 1025/1 1027/4 1028/3
f 1028/1 1027/2 1029/3 1030/4
f 1030/2 1029/1 1031/4 1032/3
f 1033/2 1034/1 1035/66 1036/65
f 1036/1 1035/2 1037/65 1038/66
f 1038/2 1037/1 1039/4 1040/3
f 1040/1 1039/2 1041/3 1042/4
f 1042/2 1041/1 1043/4 1044/3
f 1043/2 1032/1 1031/4 1044/3
f 1033/4 1022/3 1021/2 1034/1
f 1034/2 1021/1 1024/66 1035/65
f 1035/1 1024/2 1026/65 1037/66
f 1037/2 1026/1 1028/4 1039/3
f 1039/1 1028/2 1030/3 1041/4
f 1041/2 1030/1 1032/4 1043/3
f 1022/2 1033/1 1036/66 1023/65
f 1023/1 1036/2 1038/65 1025/66
f 1025/2 1038/1 1040/4 1027/3
f 1027/1 1040/2 1042/3 1029/4
f 1029/2 1042/1 1044/4 1031/3
f 1045/2 1046/1 1047/4 1048/3
f 1049/4 1050/3 1051/2 1052/1
f 1050/2 1049/1 1053/4 1054/3
f 1054/1 1053/2 1055/5 1056/6
f 1056/2 1055/1 1057/4 1058/3
f 1058/1 1057/2 1059/8 1060/7
f 1060/2 1059/1 1046/4 1045/3
f 1052/2 1051/1 1061/4 1062/3
f 1062/1 1061/2 1063/5 1064/6
f 1064/2 1063/1 1065/4 1066/3
f 1066/1 1065/2 1067/8 1068/7
f 1068/2 1067/1 1048/4 1047/3
f 1051/2 1050/1 1054/4 1061/3
f 1061/1 1054/2 1056/5 1063/6
f 1063/2 1056/1 1058/4 1065/3
f 1065/1 1058/2 1060/8 1067/7
f 1067/2 1060/1 1045/4 1048/3
f 1049/2 1052/1 1062/4 1053/3
f 1053/1 1062/2 1064/5 1055/6
f 1055/2 1064/1 1066/4 1057/3
f 1057/1 1066/2 1068/8 1059/7
f 1059/2 1068/1 1047/4 1046/3
f 1157/1 1158/2 1159/3 1160/4
f 1160/2 1159/1 1161/4 1162/3
f 1162/1 1161/2 1163/9 1164/10
f 1164/2 1163/1 1165/10 1166/9
f 1166/1 1165/2 1167/9 1168/10
f 1181/1 1182/2 1183/3 1184/4
f 1184/2 1183/1 1185/4 1186/3
f 1186/1 1185/2 1187/9 1188/10
f 1188/2 1187/1 1189/10 1190/9
f 1190/1 1189/2 1191/9 1192/10
f 1193/1 1194/2 1195/3 1196/4
f 1217/2 1218/1 1219/6 1220/5
f 1220/1 1219/2 1221/3 1222/4
f 1222/2 1221/1 1223/4 1224/3
f 1224/1 1223/2 1225/5 1226/6
f 1226/2 1225/1 1227/4 1228/3
f 1228/1 1227/2 1194/5 1193/6
f 1239/2 1240/1 1241/6 1242/5
f 1242/1 1241/2 1243/3 1244/4
f 1244/2 1243/1 1245/4 1246/3
f 1246/1 1245/2 1247/5 1248/6
f 1248/2 1247/1 1249/4 1250/3
f 1250/1 1249/2 1196/5 1195/6
f 1182/1 1157/2 1160/3 1183/4
f 1183/2 1160/1 1162/4 1185/3
f 1185/1 1162/2 1164/9 1187/10
f 1187/2 1164/1 1166/10 1189/9
f 1189/1 1166/2 1168/9 1191/10
f 1158/1 1181/2 1184/3 1159/4
f 1159/2 1184/1 1186/4 1161/3
f 1161/1 1186/2 1188/9 1163/10
f 1163/2 1188/1 1190/10 1165/9
f 1165/1 1190/2 1192/9 1167/10
f 1158/1 1157/2 1182/3 1181/4
f 1240/4 1239/3 1218/2 1217/1
f 1192/1 1191/2 1168/3 1167/4
f 1218/2 1239/1 1242/6 1219/5
f 1219/1 1242/2 1244/3 1221/4
f 1221/2 1244/1 1246/4 1223/3
f 1223/1 1246/2 1248/5 1225/6
f 1225/2 1248/1 1250/4 1227/3
f 1227/1 1250/2 1195/5 1194/6
f 1240/2 1217/1 1220/6 1241/5
f 1241/1 1220/2 1222/3 1243/4
f 1243/2 1222/1 1224/4 1245/3
f 1245/1 1224/2 1226/5 1247/6
f 1247/2 1226/1 1228/4 1249/3
f 1249/1 1228/2 1193/5 1196/6
f 1276/2 1277/1 1278/4 1279/3
f 1280/4 1281/3 1282/2 1283/1
f 1283/2 1282/1 1284/4 1285/3
f 1285/1 1284/2 1286/3 1287/4
f 1287/2 1286/1 1288/6 1289/5
f 1289/1 1288/2 1290/5 1291/6
f 1291/2 1290/1 1292/4 1293/3
f 1293/1 1292/2 1294/5 1295/6
f 1295/2 1294/1 1277/6 1276/5
f 1282/2 1281/1 1296/4 1284/3
f 1284/1 1296/2 1297/3 1286/4
f 1286/2 1297/1 1298/6 1288/5
f 1288/1 1298/2 1299/5 1290/6
f 1290/2 1299/1 1300/4 1292/3
f 1292/1 1300/2 1301/5 1294/6
f 1294/2 1301/1 1278/6 1277/5
f 1280/2 1283/1 1285/4 1302/3
f 1302/1 1285/2 1287/3 1303/4
f 1303/2 1287/1 1289/6 1304/5
f 1304/1 1289/2 1291/5 1305/6
f 1305/2 1291/1 1293/4 1306/3
f 1306/1 1293/2 1295/5 1307/6
f 1307/2 1295/1 1276/6 1279/5
f 1281/2 1280/1 1302/4 1296/3
f 1296/1 1302/2 1303/3 1297/4
f 1297/2 1303/1 1304/6 1298/5
f 1298/1 1304/2 1305/5 1299/6
f 1299/2 1305/1 1306/4 1300/3
f 1300/1 1306/2 1307/5 1301/6
f 1301/2 1307/1 1279/6 1278/5
f 1308/2 1309/1 1310/4 1311/3
f 1312/2 1313/1 1314/4 1315/3
f 1316/2 1317/1 1318/4 1319/3
f 1320/2 1321/1 1322/4 1323/3
f 1324/1 1325/2 1326/3 1327/4
f 1328/1 1329/2 1330/3 1331/4
f 1332/1 1333/2 1334/3 1335/4
f 1335/2 1334/1 1336/6 1337/5
f 1338/1 1339/2 1340/3 1341/4
f 1342/2 1343/1 1344/6 1345/5
f 1345/1 1344/2 1346/5 1347/6
f 1348/1 1349/2 1350/3 1351/4
f 1351/2 1350/1 1352/4 1353/3
f 1353/1 1352/2 1354/3 1355/4
f 1355/2 1354/1 1356/66 1357/65
f 1357/1 1356/2 1358/3 1359/4
f 1359/2 1358/1 1360/4 1361/3
f 1361/1 1360/2 1362/3 1363/4
f 1363/2 1362/1 1364/4 1365/3
f 1366/1 1367/2 1368/3 1369/4
f 1369/2 1368/1 1370/4 1371/3
f 1371/1 1370/2 1372/3 1373/4
f 1373/2 1372/1 1374/66 1375/65
f 1375/1 1374/2 1376/3 1377/4
f 1377/2 1376/1 1378/4 1379/3
f 1379/1 1378/2 1380/3 1381/4
f 1381/2 1380/1 1382/4 1383/3
f 1309/2 1312/1 1315/4 1310/3
f 1333/1 1315/2 1384/3 1334/4
f 1334/2 1384/1 1323/10 1318/9
f 1339/1 1323/2 1331/5 1326/6
f 1343/2 1331/1 1385/6 1344/5
f 1344/1 1385/2 1386/5 1346/6
f 1347/1 1346/2 1386/3 1387/4
f 1364/2 1383/1 1382/4 1365/3
f 1349/1 1366/2 1369/3 1350/4
f 1350/2 1369/1 1371/4 1352/3
f 1352/1 1371/2 1373/3 1354/4
f 1354/2 1373/1 1375/66 1356/65
f 1356/1 1375/2 1377/3 1358/4
f 1358/2 1377/1 1379/4 1360/3
f 1360/1 1379/2 1381/3 1362/4
f 1362/2 1381/1 1383/4 1364/3
f 1313/4 1312/3 1309/2 1308/1
f 1366/1 1349/2 1348/3 1367/4
f 1313/2 1308/1 1311/4 1314/3
f 1388/1 1332/2 1335/3 1389/4
f 1389/2 1335/1 1319/10 1322/9
f 1390/1 1338/2 1327/5 1330/6
f 1391/2 1342/1 1345/6 1392/5
f 1392/1 1345/2 1347/5 1387/6
f 1367/1 1348/2 1351/3 1368/4
f 1368/2 1351/1 1353/4 1370/3
f 1370/1 1353/2 1355/3 1372/4
f 1372/2 1355/1 1357/66 1374/65
f 1374/1 1357/2 1359/3 1376/4
f 1376/2 1359/1 1361/4 1378/3
f 1378/1 1361/2 1363/3 1380/4
f 1380/2 1363/1 1365/4 1382/3
f 1315/1 1388/2 1389/3 1384/4
f 1384/2 1389/1 1393/6 1320/5
f 1323/1 1390/2 1394/3 1328/4
f 1331/2 1391/1 1392/6 1385/5
f 1385/1 1392/2 1387/5 1386/6
f 1443/2 1444/1 1445/4 1446/3
f 1447/2 1448/1 1449/4 1450/3
f 1446/1 1445/2 1451/3 1452/4
f 1450/1 1449/2 1453/3 1454/4
f 1452/1 1451/2 1455/3 1456/4
f 1454/1 1453/2 1457/3 1458/4
f 1459/2 1460/1 1461/4 1462/3
f 1463/2 1464/1 1465/4 1466/3
f 1513/2 1514/1 1515/4 1516/3
f 1516/1 1515/2 1517/3 1518/4
f 1518/2 1517/1 1519/10 1520/9
f 1520/1 1519/2 1521/3 1522/4
f 1522/2 1521/1 1523/4 1524/3
f 1524/1 1523/2 1525/3 1526/4
f 1526/2 1525/1 1527/6 1528/5
f 1528/1 1527/2 1529/3 1530/4
f 1531/2 1532/1 1533/4 1534/3
f 1549/2 1550/1 1551/4 1552/3
f 1587/2 1588/1 1589/4 1447/3
f 1458/2 1590/1 1591/4 1463/3
f 1466/2 1592/1 1534/4 1533/3
f 1593/2 1594/1 1595/4 1596/3
f 1596/1 1595/2 1597/3 1598/4
f 1598/2 1597/1 1599/10 1600/9
f 1600/1 1599/2 1601/3 1602/4
f 1602/2 1601/1 1603/4 1604/3
f 1604/1 1603/2 1605/3 1606/4
f 1606/2 1605/1 1607/6 1608/5
f 1608/1 1607/2 1609/3 1610/4
f 1594/2 1513/1 1516/4 1595/3
f 1595/1 1516/2 1518/3 1597/4
f 1597/2 1518/1 1520/10 1599/9
f 1599/1 1520/2 1522/3 1601/4
f 1601/2 1522/1 1524/4 1603/3
f 1603/1 1524/2 1526/3 1605/4
f 1605/2 1526/1 1528/6 1607/5
f 1607/1 1528/2 1530/3 1609/4
f 1514/2 1593/1 1596/4 1515/3
f 1515/1 1596/2 1598/3 1517/4
f 1517/2 1598/1 1600/10 1519/9
f 1519/1 1600/2 1602/3 1521/4
f 1521/2 1602/1 1604/4 1523/3
f 1523/1 1604/2 1606/3 1525/4
f 1525/2 1606/1 1608/6 1527/5
f 1527/1 1608/2 1610/3 1529/4
f 1611/4 1612/3 1588/2 1587/1
f 1613/4 1614/3 1615/2 1616/1
f 1594/4 1593/3 1514/2 1513/1
f 1588/2 1612/1 1446/6 1449/5
f 1449/1 1446/2 1456/5 1457/6
f 1590/2 1627/1 1531/10 1534/9
f 1612/2 1611/1 1628/4 1629/3
f 1627/2 1630/1 1631/4 1632/3
f 1633/2 1634/1 1532/4 1531/3
f 1616/2 1615/1 1647/7 1648/8
f 1648/1 1647/2 1649/5 1650/6
f 1650/2 1649/1 1552/4 1551/3
f 1610/1 1609/2 1530/3 1529/4
f 1614/2 1613/1 1664/7 1665/8
f 1665/1 1664/2 1666/5 1667/6
f 1667/2 1666/1 1550/4 1549/3
f 1615/2 1614/1 1665/7 1647/8
f 1647/1 1665/2 1667/5 1649/6
f 1649/2 1667/1 1549/4 1552/3
f 1613/2 1616/1 1648/7 1664/8
f 1664/1 1648/2 1650/5 1666/6
f 1666/2 1650/1 1551/4 1550/3

usemtl minecraft_block-lime_concrete_powder

f 447/1 448/2 449/3 450/4
f 449/1 448/2 491/3 492/4
f 494/1 493/2 495/3 496/4
f 447/1 450/2 511/3 512/4
f 514/1 513/2 515/3 516/4
f 450/1 449/2 492/3 511/4
f 513/1 494/2 496/3 515/4
f 448/1 447/2 512/3 491/4
f 493/1 514/2 516/3 495/4
f 496/1 495/2 516/3 515/4

usemtl minecraft_block-small_amethyst_bud

f 660/1 661/2 662/3 663/4
f 664/1 665/2 666/3 667/4
f 693/1 692/2 696/3 697/4
f 695/1 694/2 698/3 699/4

usemtl minecraft_block-yellow_stained_glass_pane_top

f 1169/67 1143/68 1139/60 1170/59
f 1140/69 1143/70 1171/60 1172/59
f 1173/69 1144/70 1143/60 1169/59
f 1174/69 1175/70 1169/60 1176/59
f 1141/60 1197/59 1198/67 1137/68
f 1137/60 1198/59 1199/69 1138/70
f 1142/60 1137/59 1200/69 1201/70
f 1202/60 1203/59 1198/69 1204/70
f 1197/58 1141/57 1144/60 1173/59
f 1212/58 1149/57 1152/60 1213/59
f 1138/58 1199/57 1170/60 1139/59
f 1146/58 1207/57 1210/60 1147/59
f 1214/67 1151/68 1147/60 1210/59
f 1148/69 1151/70 1267/60 1236/59
f 1213/69 1152/70 1151/60 1214/59
f 1238/69 1268/70 1214/60 1209/59
f 1201/58 1200/57 1172/60 1171/59
f 1273/58 1235/57 1236/60 1267/59
f 1149/60 1212/59 1208/67 1145/68
f 1145/60 1208/59 1207/69 1146/70
f 1150/60 1145/59 1235/69 1273/70
f 1274/60 1237/59 1208/69 1211/70
f 1203/58 1202/57 1175/60 1174/59
f 1237/58 1274/57 1268/60 1238/59

usemtl minecraft_block-blue_wool

f 1652/1 1651/2 1653/3 1654/4
f 1669/1 1668/2 1670/3 1671/4
f 1651/1 1669/2 1671/3 1653/4
f 1668/1 1652/2 1654/3 1670/4

usemtl minecraft_block-amethyst_block

f 833/1 834/2 835/9 836/10
f 834/1 937/2 938/9 835/10
f 937/1 975/2 976/9 938/10
f 975/1 833/2 836/9 976/10
f 976/1 836/2 835/3 938/4
f 833/1 975/2 937/3 834/4

usemtl jmc2obj_banner-banner_base_magenta-circle_white-flower_white-piglin_magenta-small_stripes_magenta-small_stripes_magenta-small_stripes_magenta-small_stripes_magenta-small_stripes_magenta-piglin_magenta-piglin_magenta-piglin_magenta-piglin_magenta-piglin_magenta-piglin_magenta

f 588/13 589/14 590/15 591/16
f 589/14 592/17 593/18 590/15
f 594/19 588/20 591/21 595/22
f 591/14 590/23 593/24 595/17
f 596/25 597/26 598/21 599/27
f 597/28 600/25 601/27 598/29
f 602/30 596/31 599/32 603/33
f 599/29 598/34 601/35 603/36
f 602/32 600/29 597/36 596/37
f 604/38 605/39 606/40 607/41
f 605/39 608/42 609/43 606/40
f 608/42 610/44 611/45 609/43
f 610/44 604/46 607/47 611/45
f 607/42 606/48 609/49 611/50
f 610/44 608/42 605/50 604/51
f 592/17 594/19 595/22 593/18
f 602/31 603/32 601/29 600/28
f 592/17 589/24 588/52 594/19
